<svg width="259" height="259" viewBox="0 0 259 259" fill="none" xmlns="http://www.w3.org/2000/svg">
<circle cx="129.266" cy="129.266" r="100" transform="rotate(-21.0707 129.266 129.266)" fill="#183A1D"/>
<g clip-path="url(#clip0_273_2265)">
<path fill-rule="evenodd" clip-rule="evenodd" d="M74.9446 102.19C74.1169 101.678 73.4218 100.928 72.9417 100.03C72.4617 99.1312 72.2169 98.1214 72.2363 97.1201C72.2557 96.1188 72.5384 95.168 73.0511 94.3803C73.5638 93.5926 74.2848 93.001 75.1288 92.6757L129.664 71.6642C132.247 70.6691 135.026 70.2579 137.842 70.4541C140.658 70.6502 143.456 71.4499 146.076 72.8074C148.697 74.165 151.088 76.0538 153.114 78.366C155.14 80.6783 156.761 83.3686 157.884 86.2836C159.007 89.1985 159.61 92.2809 159.659 95.3547C159.709 98.4286 159.203 101.434 158.17 104.198C157.138 106.963 155.6 109.434 153.644 111.468C151.687 113.503 149.351 115.063 146.768 116.058L92.2328 137.069C91.3888 137.394 90.4572 137.44 89.5485 137.2C88.6399 136.959 87.7922 136.444 87.106 135.715C86.4198 134.985 85.9238 134.072 85.6769 133.084C85.4299 132.096 85.4423 131.073 85.7126 130.138L87.3356 124.528C88.3394 121.061 88.143 117.213 86.7819 113.681C85.4209 110.148 82.9849 107.163 79.9143 105.266L74.9446 102.19ZM87.8456 99.1059C91.2066 102.117 93.8539 105.982 95.5217 110.31C97.1895 114.639 97.8193 119.281 97.3478 123.769L142.967 106.193C145.865 105.076 148.144 102.706 149.302 99.6041C150.46 96.502 150.403 92.9219 149.143 89.6513C147.883 86.3808 145.523 83.6877 142.583 82.1646C139.643 80.6415 136.363 80.413 133.465 81.5295L87.8456 99.1059ZM98.2186 165.92C95.9505 160.033 95.8473 153.589 97.9319 148.005C100.016 142.421 104.118 138.155 109.334 136.145L163.87 115.134C164.714 114.809 165.645 114.764 166.554 115.004C167.462 115.244 168.31 115.759 168.996 116.489C169.683 117.218 170.179 118.131 170.425 119.119C170.672 120.108 170.66 121.13 170.39 122.065L168.762 127.677C167.759 131.144 167.955 134.992 169.316 138.524C170.677 142.057 173.113 145.042 176.184 146.939L181.156 150.008C181.985 150.52 182.681 151.269 183.162 152.169C183.644 153.068 183.889 154.078 183.87 155.081C183.851 156.083 183.568 157.035 183.054 157.823C182.541 158.611 181.819 159.203 180.974 159.528L126.438 180.539C121.222 182.549 115.318 182.138 110.026 179.396C104.734 176.654 100.487 171.807 98.2186 165.92ZM113.135 146.011C110.237 147.127 107.958 149.497 106.8 152.599C105.642 155.701 105.7 159.281 106.96 162.552C108.22 165.823 110.579 168.516 113.519 170.039C116.46 171.562 119.739 171.79 122.637 170.674L168.257 153.097C164.896 150.086 162.248 146.222 160.581 141.893C158.913 137.564 158.283 132.923 158.755 128.434L113.135 146.011Z" fill="white"/>
</g>
<defs>
<clipPath id="clip0_273_2265">
<rect width="112.409" height="126.866" fill="white" transform="translate(53.75 89.5831) rotate(-21.0707)"/>
</clipPath>
</defs>
</svg>
