<svg width="499" height="363" viewBox="0 0 499 363" fill="none" xmlns="http://www.w3.org/2000/svg">
<path d="M42.396 11.176V11.736C42.0413 11.8107 41.6493 12.0253 41.22 12.38C40.7907 12.716 40.4453 13.3133 40.184 14.172L34.892 31.14C34.8547 31.14 34.8173 31.14 34.78 31.14C34.7427 31.14 34.7053 31.14 34.668 31.14C34.6307 31.14 34.5933 31.14 34.556 31.14C34.5187 31.14 34.4813 31.14 34.444 31.14L28.508 13.528C28.2653 12.8 27.9947 12.324 27.696 12.1C27.3973 11.876 27.1173 11.7547 26.856 11.736V11.176C27.192 11.1947 27.612 11.2133 28.116 11.232C28.62 11.2507 29.1053 11.26 29.572 11.26C30.3 11.26 30.9813 11.2507 31.616 11.232C32.2507 11.2133 32.764 11.1947 33.156 11.176V11.736C32.596 11.7547 32.148 11.8107 31.812 11.904C31.4947 11.9973 31.308 12.2027 31.252 12.52C31.2147 12.8373 31.308 13.36 31.532 14.088L35.704 26.996L35.312 27.332L39.008 15.712C39.344 14.6853 39.4933 13.892 39.456 13.332C39.4373 12.7533 39.232 12.352 38.84 12.128C38.448 11.8853 37.86 11.7547 37.076 11.736V11.176C37.6173 11.1947 38.168 11.2133 38.728 11.232C39.288 11.2507 39.8107 11.26 40.296 11.26C40.7813 11.26 41.1827 11.2507 41.5 11.232C41.8173 11.2133 42.116 11.1947 42.396 11.176ZM22.824 11.176V11.736C22.3387 11.7733 21.984 11.8667 21.76 12.016C21.5547 12.1653 21.452 12.408 21.452 12.744C21.4707 13.0613 21.5733 13.5093 21.76 14.088L26.1 27.332L25.4 28.032L29.32 15.516L29.74 16.188L25.12 31.14C25.0827 31.14 25.0453 31.14 25.008 31.14C24.9707 31.14 24.9333 31.14 24.896 31.14C24.8587 31.14 24.8213 31.14 24.784 31.14C24.7467 31.14 24.7093 31.14 24.672 31.14L18.736 13.528C18.4933 12.8 18.1853 12.324 17.812 12.1C17.4387 11.876 17.1027 11.7547 16.804 11.736V11.176C17.1773 11.1947 17.6347 11.2133 18.176 11.232C18.736 11.2507 19.2773 11.26 19.8 11.26C20.416 11.26 20.9853 11.2507 21.508 11.232C22.0493 11.2133 22.488 11.1947 22.824 11.176ZM47.3643 9.076V19.548C47.8496 18.2787 48.5216 17.4013 49.3803 16.916C50.2576 16.4307 51.1723 16.188 52.1243 16.188C52.8336 16.188 53.4216 16.2813 53.8883 16.468C54.3736 16.6547 54.7749 16.916 55.0923 17.252C55.4469 17.6253 55.6989 18.092 55.8483 18.652C55.9976 19.212 56.0723 19.968 56.0723 20.92V28.396C56.0723 29.18 56.2309 29.712 56.5482 29.992C56.8843 30.272 57.4349 30.412 58.2003 30.412V31C57.8829 30.9813 57.3976 30.9627 56.7443 30.944C56.0909 30.9067 55.4563 30.888 54.8403 30.888C54.2243 30.888 53.6176 30.9067 53.0203 30.944C52.4416 30.9627 52.0029 30.9813 51.7043 31V30.412C52.3763 30.412 52.8523 30.272 53.1323 29.992C53.4123 29.712 53.5523 29.18 53.5523 28.396V20.304C53.5523 19.7253 53.5056 19.1933 53.4123 18.708C53.3189 18.2227 53.1043 17.8307 52.7683 17.532C52.4509 17.2333 51.9563 17.084 51.2843 17.084C50.5189 17.084 49.8376 17.2987 49.2403 17.728C48.6616 18.1573 48.2043 18.7547 47.8683 19.52C47.5323 20.2853 47.3643 21.1627 47.3643 22.152V28.396C47.3643 29.18 47.5043 29.712 47.7843 29.992C48.0643 30.272 48.5403 30.412 49.2123 30.412V31C48.9136 30.9813 48.4656 30.9627 47.8683 30.944C47.2896 30.9067 46.6923 30.888 46.0763 30.888C45.4603 30.888 44.8256 30.9067 44.1723 30.944C43.5189 30.9627 43.0336 30.9813 42.7163 31V30.412C43.4816 30.412 44.0229 30.272 44.3403 29.992C44.6763 29.712 44.8443 29.18 44.8443 28.396V12.436C44.8443 11.596 44.6949 10.98 44.3963 10.588C44.0976 10.1773 43.5376 9.972 42.7163 9.972V9.384C43.3136 9.44 43.8923 9.468 44.4523 9.468C44.9936 9.468 45.5069 9.44 45.9923 9.384C46.4963 9.30933 46.9536 9.20667 47.3643 9.076ZM63.4052 31.196C62.6399 31.196 61.9772 31.056 61.4172 30.776C60.8572 30.4773 60.4279 30.0667 60.1292 29.544C59.8492 29.0213 59.7092 28.4147 59.7092 27.724C59.7092 26.9027 59.8959 26.2307 60.2692 25.708C60.6612 25.1853 61.1559 24.7653 61.7532 24.448C62.3505 24.1307 62.9759 23.8693 63.6292 23.664C64.3012 23.44 64.9359 23.2347 65.5332 23.048C66.1305 22.8427 66.6159 22.6093 66.9892 22.348C67.3812 22.0867 67.5772 21.7413 67.5772 21.312V19.576C67.5772 18.792 67.4559 18.1947 67.2132 17.784C66.9892 17.3733 66.6812 17.1027 66.2892 16.972C65.8972 16.8227 65.4585 16.748 64.9732 16.748C64.5065 16.748 64.0025 16.8133 63.4612 16.944C62.9385 17.0747 62.5185 17.3453 62.2012 17.756C62.5559 17.8307 62.8639 18.0173 63.1252 18.316C63.3865 18.6147 63.5172 18.9973 63.5172 19.464C63.5172 19.9307 63.3679 20.304 63.0692 20.584C62.7705 20.8453 62.3879 20.976 61.9212 20.976C61.3799 20.976 60.9785 20.808 60.7172 20.472C60.4745 20.1173 60.3532 19.7253 60.3532 19.296C60.3532 18.8107 60.4745 18.4187 60.7172 18.12C60.9599 17.8213 61.2679 17.5413 61.6412 17.28C62.0705 16.9813 62.6212 16.7293 63.2932 16.524C63.9839 16.3 64.7585 16.188 65.6172 16.188C66.3825 16.188 67.0359 16.2813 67.5772 16.468C68.1185 16.636 68.5665 16.888 68.9212 17.224C69.4065 17.672 69.7239 18.2227 69.8732 18.876C70.0225 19.5107 70.0972 20.276 70.0972 21.172V28.956C70.0972 29.4227 70.1625 29.7587 70.2932 29.964C70.4425 30.1693 70.6665 30.272 70.9652 30.272C71.1705 30.272 71.3665 30.2253 71.5532 30.132C71.7399 30.0387 71.9639 29.8893 72.2252 29.684L72.5332 30.16C72.1412 30.4587 71.7679 30.7107 71.4132 30.916C71.0585 31.1027 70.5825 31.196 69.9852 31.196C69.4439 31.196 68.9959 31.1027 68.6412 30.916C68.2865 30.7293 68.0159 30.4587 67.8292 30.104C67.6612 29.7307 67.5772 29.264 67.5772 28.704C67.0732 29.544 66.4665 30.1693 65.7572 30.58C65.0665 30.9907 64.2825 31.196 63.4052 31.196ZM64.4132 30.076C65.0292 30.076 65.5985 29.8987 66.1212 29.544C66.6625 29.1893 67.1479 28.6573 67.5772 27.948V22.46C67.3532 22.7773 67.0265 23.048 66.5972 23.272C66.1679 23.4773 65.7012 23.692 65.1972 23.916C64.6932 24.1213 64.2079 24.3733 63.7412 24.672C63.2932 24.952 62.9199 25.3253 62.6212 25.792C62.3225 26.2587 62.1732 26.8653 62.1732 27.612C62.1732 28.3587 62.3692 28.956 62.7612 29.404C63.1719 29.852 63.7225 30.076 64.4132 30.076ZM77.8825 11.932V16.608H82.0265V17.168H77.8825V28.004C77.8825 28.8813 78.0412 29.4973 78.3585 29.852C78.6758 30.2067 79.1145 30.384 79.6745 30.384C80.2345 30.384 80.7198 30.16 81.1305 29.712C81.5412 29.2453 81.8958 28.4707 82.1945 27.388L82.7545 27.528C82.5678 28.6107 82.1945 29.5253 81.6345 30.272C81.0932 31.0187 80.2532 31.392 79.1145 31.392C78.4798 31.392 77.9572 31.308 77.5465 31.14C77.1358 30.9907 76.7718 30.7667 76.4545 30.468C76.0438 30.0387 75.7545 29.5253 75.5865 28.928C75.4372 28.3307 75.3625 27.5373 75.3625 26.548V17.168H72.6745V16.608H75.3625V12.324C75.8292 12.3053 76.2772 12.268 76.7065 12.212C77.1358 12.156 77.5278 12.0627 77.8825 11.932ZM102.521 9.048V27.948C102.521 28.788 102.67 29.4133 102.969 29.824C103.286 30.216 103.846 30.412 104.649 30.412V31C104.07 30.944 103.491 30.916 102.913 30.916C102.371 30.916 101.849 30.944 101.345 31C100.859 31.056 100.411 31.1587 100.001 31.308V12.408C100.001 11.568 99.8514 10.952 99.5528 10.56C99.2541 10.1493 98.6941 9.944 97.8728 9.944V9.356C98.4701 9.412 99.0488 9.44 99.6088 9.44C100.15 9.44 100.663 9.412 101.149 9.356C101.653 9.28133 102.11 9.17867 102.521 9.048ZM96.6408 16.188C97.4621 16.188 98.2274 16.384 98.9368 16.776C99.6648 17.168 100.15 17.84 100.393 18.792L100.029 19.072C99.7674 18.288 99.3568 17.7187 98.7968 17.364C98.2554 17.0093 97.6114 16.832 96.8648 16.832C95.7634 16.832 94.8394 17.4013 94.0928 18.54C93.3648 19.6787 93.0101 21.4333 93.0288 23.804C93.0288 25.316 93.1688 26.576 93.4488 27.584C93.7474 28.5733 94.1768 29.32 94.7368 29.824C95.3154 30.3093 96.0154 30.552 96.8368 30.552C97.6208 30.552 98.3301 30.216 98.9648 29.544C99.5994 28.872 99.9821 27.8827 100.113 26.576L100.449 26.968C100.299 28.3867 99.8421 29.4787 99.0768 30.244C98.3301 31.0093 97.3128 31.392 96.0248 31.392C94.8674 31.392 93.8501 31.112 92.9728 30.552C92.1141 29.992 91.4514 29.152 90.9848 28.032C90.5368 26.912 90.3128 25.5027 90.3128 23.804C90.3128 22.1053 90.6021 20.696 91.1808 19.576C91.7781 18.4373 92.5528 17.588 93.5048 17.028C94.4754 16.468 95.5208 16.188 96.6408 16.188ZM112.91 16.188C114.105 16.188 115.178 16.4493 116.13 16.972C117.082 17.4947 117.838 18.316 118.398 19.436C118.977 20.556 119.266 22.012 119.266 23.804C119.266 25.596 118.977 27.052 118.398 28.172C117.838 29.2733 117.082 30.0853 116.13 30.608C115.178 31.1307 114.105 31.392 112.91 31.392C111.734 31.392 110.661 31.1307 109.69 30.608C108.738 30.0853 107.973 29.2733 107.394 28.172C106.834 27.052 106.554 25.596 106.554 23.804C106.554 22.012 106.834 20.556 107.394 19.436C107.973 18.316 108.738 17.4947 109.69 16.972C110.661 16.4493 111.734 16.188 112.91 16.188ZM112.91 16.748C111.846 16.748 110.969 17.2987 110.278 18.4C109.606 19.5013 109.27 21.3027 109.27 23.804C109.27 26.3053 109.606 28.1067 110.278 29.208C110.969 30.2907 111.846 30.832 112.91 30.832C113.974 30.832 114.842 30.2907 115.514 29.208C116.205 28.1067 116.55 26.3053 116.55 23.804C116.55 21.3027 116.205 19.5013 115.514 18.4C114.842 17.2987 113.974 16.748 112.91 16.748ZM140.645 16.58V17.14C140.29 17.1773 139.963 17.336 139.665 17.616C139.366 17.896 139.086 18.3907 138.825 19.1L134.233 31.14H133.757L128.605 18.736C128.25 18.008 127.895 17.5693 127.541 17.42C127.205 17.252 126.925 17.168 126.7 17.168V16.58C127.111 16.636 127.541 16.6827 127.989 16.72C128.437 16.7387 128.922 16.748 129.445 16.748C130.023 16.748 130.63 16.7293 131.265 16.692C131.918 16.6547 132.525 16.6173 133.085 16.58V17.168C132.618 17.168 132.198 17.2053 131.825 17.28C131.47 17.336 131.246 17.532 131.153 17.868C131.059 18.1853 131.171 18.736 131.489 19.52L134.933 28.06L134.765 28.116L137.957 19.772C138.199 19.156 138.293 18.6707 138.237 18.316C138.199 17.9427 138.013 17.6627 137.677 17.476C137.341 17.2893 136.837 17.1773 136.165 17.14V16.58C136.501 16.5987 136.79 16.6173 137.033 16.636C137.275 16.636 137.509 16.6453 137.733 16.664C137.975 16.664 138.237 16.664 138.517 16.664C138.946 16.664 139.329 16.6547 139.665 16.636C140.019 16.6173 140.346 16.5987 140.645 16.58ZM134.233 31.14L133.281 33.576C133.094 34.0427 132.898 34.4347 132.693 34.752C132.506 35.0693 132.301 35.3307 132.077 35.536C131.778 35.816 131.423 36.0027 131.013 36.096C130.602 36.208 130.229 36.264 129.893 36.264C129.538 36.264 129.211 36.1987 128.913 36.068C128.633 35.9373 128.409 35.7413 128.241 35.48C128.073 35.2373 127.989 34.9387 127.989 34.584C127.989 34.136 128.119 33.772 128.381 33.492C128.642 33.2307 129.006 33.1 129.473 33.1C129.865 33.1 130.201 33.212 130.481 33.436C130.761 33.66 130.901 33.9867 130.901 34.416C130.901 34.7333 130.826 34.9947 130.677 35.2C130.527 35.4053 130.35 35.564 130.145 35.676C130.182 35.6947 130.21 35.704 130.229 35.704C130.266 35.704 130.294 35.704 130.312 35.704C130.817 35.704 131.265 35.5267 131.657 35.172C132.049 34.836 132.394 34.2853 132.693 33.52L133.701 30.916L134.233 31.14ZM148.348 16.188C149.542 16.188 150.616 16.4493 151.568 16.972C152.52 17.4947 153.276 18.316 153.836 19.436C154.414 20.556 154.704 22.012 154.704 23.804C154.704 25.596 154.414 27.052 153.836 28.172C153.276 29.2733 152.52 30.0853 151.568 30.608C150.616 31.1307 149.542 31.392 148.348 31.392C147.172 31.392 146.098 31.1307 145.128 30.608C144.176 30.0853 143.41 29.2733 142.832 28.172C142.272 27.052 141.992 25.596 141.992 23.804C141.992 22.012 142.272 20.556 142.832 19.436C143.41 18.316 144.176 17.4947 145.128 16.972C146.098 16.4493 147.172 16.188 148.348 16.188ZM148.348 16.748C147.284 16.748 146.406 17.2987 145.716 18.4C145.044 19.5013 144.708 21.3027 144.708 23.804C144.708 26.3053 145.044 28.1067 145.716 29.208C146.406 30.2907 147.284 30.832 148.348 30.832C149.412 30.832 150.28 30.2907 150.952 29.208C151.642 28.1067 151.988 26.3053 151.988 23.804C151.988 21.3027 151.642 19.5013 150.952 18.4C150.28 17.2987 149.412 16.748 148.348 16.748ZM169.54 16.272V27.976C169.54 28.816 169.689 29.4413 169.988 29.852C170.305 30.244 170.865 30.44 171.668 30.44V31.028C171.089 30.972 170.51 30.944 169.932 30.944C169.39 30.944 168.868 30.972 168.364 31.028C167.878 31.084 167.43 31.1867 167.02 31.336V28.032C166.553 29.2453 165.89 30.1133 165.032 30.636C164.192 31.14 163.324 31.392 162.428 31.392C161.774 31.392 161.205 31.2987 160.72 31.112C160.234 30.9253 159.833 30.664 159.516 30.328C159.161 29.9547 158.918 29.4693 158.788 28.872C158.657 28.2747 158.592 27.5373 158.592 26.66V19.632C158.592 18.792 158.442 18.176 158.144 17.784C157.845 17.3733 157.285 17.168 156.464 17.168V16.58C157.061 16.636 157.64 16.664 158.2 16.664C158.741 16.664 159.254 16.636 159.74 16.58C160.244 16.5053 160.701 16.4027 161.112 16.272V27.276C161.112 27.8547 161.149 28.3867 161.224 28.872C161.298 29.3573 161.485 29.7493 161.784 30.048C162.082 30.3467 162.568 30.496 163.24 30.496C163.968 30.496 164.612 30.272 165.172 29.824C165.75 29.376 166.198 28.7693 166.516 28.004C166.852 27.2387 167.02 26.38 167.02 25.428V19.632C167.02 18.792 166.87 18.176 166.572 17.784C166.273 17.3733 165.713 17.168 164.892 17.168V16.58C165.489 16.636 166.068 16.664 166.628 16.664C167.169 16.664 167.682 16.636 168.168 16.58C168.672 16.5053 169.129 16.4027 169.54 16.272ZM187.07 16.188C187.667 16.188 188.246 16.2627 188.806 16.412C189.366 16.5613 189.87 16.7853 190.318 17.084C190.747 17.364 191.074 17.6907 191.298 18.064C191.522 18.4187 191.634 18.8107 191.634 19.24C191.634 19.744 191.494 20.136 191.214 20.416C190.934 20.6773 190.579 20.808 190.15 20.808C189.739 20.808 189.375 20.6867 189.058 20.444C188.759 20.2013 188.61 19.856 188.61 19.408C188.61 18.9787 188.722 18.6333 188.946 18.372C189.188 18.1107 189.468 17.9427 189.786 17.868C189.599 17.532 189.263 17.252 188.778 17.028C188.311 16.804 187.807 16.692 187.266 16.692C186.799 16.692 186.332 16.804 185.866 17.028C185.399 17.252 184.97 17.6253 184.578 18.148C184.186 18.652 183.868 19.352 183.626 20.248C183.383 21.1253 183.262 22.2267 183.262 23.552C183.262 25.1947 183.448 26.5013 183.822 27.472C184.195 28.4427 184.68 29.1427 185.278 29.572C185.894 29.9827 186.566 30.188 187.294 30.188C187.779 30.188 188.274 30.0947 188.778 29.908C189.282 29.7213 189.758 29.4227 190.206 29.012C190.654 28.5827 191.036 28.0133 191.354 27.304L191.886 27.5C191.699 28.0973 191.391 28.704 190.962 29.32C190.532 29.9173 189.972 30.412 189.282 30.804C188.591 31.196 187.742 31.392 186.734 31.392C185.576 31.392 184.531 31.0933 183.598 30.496C182.664 29.8987 181.918 29.0493 181.358 27.948C180.816 26.828 180.546 25.5027 180.546 23.972C180.546 22.4413 180.816 21.0973 181.358 19.94C181.918 18.764 182.692 17.8493 183.682 17.196C184.671 16.524 185.8 16.188 187.07 16.188ZM206.399 16.272V27.976C206.399 28.816 206.548 29.4413 206.847 29.852C207.164 30.244 207.724 30.44 208.527 30.44V31.028C207.948 30.972 207.37 30.944 206.791 30.944C206.25 30.944 205.727 30.972 205.223 31.028C204.738 31.084 204.29 31.1867 203.879 31.336V28.032C203.412 29.2453 202.75 30.1133 201.891 30.636C201.051 31.14 200.183 31.392 199.287 31.392C198.634 31.392 198.064 31.2987 197.579 31.112C197.094 30.9253 196.692 30.664 196.375 30.328C196.02 29.9547 195.778 29.4693 195.647 28.872C195.516 28.2747 195.451 27.5373 195.451 26.66V19.632C195.451 18.792 195.302 18.176 195.003 17.784C194.704 17.3733 194.144 17.168 193.323 17.168V16.58C193.92 16.636 194.499 16.664 195.059 16.664C195.6 16.664 196.114 16.636 196.599 16.58C197.103 16.5053 197.56 16.4027 197.971 16.272V27.276C197.971 27.8547 198.008 28.3867 198.083 28.872C198.158 29.3573 198.344 29.7493 198.643 30.048C198.942 30.3467 199.427 30.496 200.099 30.496C200.827 30.496 201.471 30.272 202.031 29.824C202.61 29.376 203.058 28.7693 203.375 28.004C203.711 27.2387 203.879 26.38 203.879 25.428V19.632C203.879 18.792 203.73 18.176 203.431 17.784C203.132 17.3733 202.572 17.168 201.751 17.168V16.58C202.348 16.636 202.927 16.664 203.487 16.664C204.028 16.664 204.542 16.636 205.027 16.58C205.531 16.5053 205.988 16.4027 206.399 16.272ZM218.665 16.188C219.169 16.188 219.607 16.2907 219.981 16.496C220.373 16.7013 220.671 16.972 220.877 17.308C221.101 17.6253 221.213 17.9893 221.213 18.4C221.213 18.8667 221.063 19.2773 220.765 19.632C220.485 19.9867 220.102 20.164 219.617 20.164C219.225 20.164 218.879 20.0427 218.581 19.8C218.282 19.5387 218.133 19.1747 218.133 18.708C218.133 18.3533 218.226 18.0547 218.413 17.812C218.618 17.5507 218.842 17.3453 219.085 17.196C218.954 17.0093 218.758 16.916 218.497 16.916C217.918 16.916 217.386 17.0933 216.901 17.448C216.415 17.784 216.005 18.2227 215.669 18.764C215.333 19.3053 215.071 19.884 214.885 20.5C214.698 21.0973 214.605 21.6573 214.605 22.18V28.116C214.605 29.0307 214.866 29.6467 215.389 29.964C215.93 30.2627 216.658 30.412 217.573 30.412V31C217.143 30.9813 216.537 30.9627 215.753 30.944C214.969 30.9067 214.138 30.888 213.261 30.888C212.626 30.888 211.991 30.9067 211.357 30.944C210.741 30.9627 210.274 30.9813 209.957 31V30.412C210.722 30.412 211.263 30.272 211.581 29.992C211.917 29.712 212.085 29.18 212.085 28.396V19.632C212.085 18.792 211.935 18.176 211.637 17.784C211.338 17.3733 210.778 17.168 209.957 17.168V16.58C210.554 16.636 211.133 16.664 211.693 16.664C212.234 16.664 212.747 16.636 213.233 16.58C213.737 16.5053 214.194 16.4027 214.605 16.272V19.772C214.81 19.2307 215.099 18.6893 215.473 18.148C215.865 17.588 216.331 17.1213 216.873 16.748C217.414 16.3747 218.011 16.188 218.665 16.188ZM231.133 16.188C231.637 16.188 232.076 16.2907 232.449 16.496C232.841 16.7013 233.14 16.972 233.345 17.308C233.569 17.6253 233.681 17.9893 233.681 18.4C233.681 18.8667 233.532 19.2773 233.233 19.632C232.953 19.9867 232.571 20.164 232.085 20.164C231.693 20.164 231.348 20.0427 231.049 19.8C230.751 19.5387 230.601 19.1747 230.601 18.708C230.601 18.3533 230.695 18.0547 230.881 17.812C231.087 17.5507 231.311 17.3453 231.553 17.196C231.423 17.0093 231.227 16.916 230.965 16.916C230.387 16.916 229.855 17.0933 229.369 17.448C228.884 17.784 228.473 18.2227 228.137 18.764C227.801 19.3053 227.54 19.884 227.353 20.5C227.167 21.0973 227.073 21.6573 227.073 22.18V28.116C227.073 29.0307 227.335 29.6467 227.857 29.964C228.399 30.2627 229.127 30.412 230.041 30.412V31C229.612 30.9813 229.005 30.9627 228.221 30.944C227.437 30.9067 226.607 30.888 225.729 30.888C225.095 30.888 224.46 30.9067 223.825 30.944C223.209 30.9627 222.743 30.9813 222.425 31V30.412C223.191 30.412 223.732 30.272 224.049 29.992C224.385 29.712 224.553 29.18 224.553 28.396V19.632C224.553 18.792 224.404 18.176 224.105 17.784C223.807 17.3733 223.247 17.168 222.425 17.168V16.58C223.023 16.636 223.601 16.664 224.161 16.664C224.703 16.664 225.216 16.636 225.701 16.58C226.205 16.5053 226.663 16.4027 227.073 16.272V19.772C227.279 19.2307 227.568 18.6893 227.941 18.148C228.333 17.588 228.8 17.1213 229.341 16.748C229.883 16.3747 230.48 16.188 231.133 16.188ZM241.151 16.188C242.794 16.188 244.072 16.692 244.987 17.7C245.92 18.6893 246.387 20.2387 246.387 22.348H236.503L236.475 21.816H243.699C243.736 20.9013 243.662 20.0613 243.475 19.296C243.288 18.512 242.99 17.8867 242.579 17.42C242.187 16.9533 241.674 16.72 241.039 16.72C240.18 16.72 239.415 17.1493 238.743 18.008C238.09 18.8667 237.698 20.2293 237.567 22.096L237.651 22.208C237.614 22.488 237.586 22.796 237.567 23.132C237.548 23.468 237.539 23.804 237.539 24.14C237.539 25.4093 237.744 26.5013 238.155 27.416C238.566 28.3307 239.098 29.0307 239.751 29.516C240.423 29.9827 241.114 30.216 241.823 30.216C242.383 30.216 242.915 30.132 243.419 29.964C243.923 29.7773 244.39 29.4787 244.819 29.068C245.248 28.6573 245.622 28.1067 245.939 27.416L246.499 27.64C246.294 28.256 245.958 28.8533 245.491 29.432C245.024 30.0107 244.436 30.4867 243.727 30.86C243.018 31.2147 242.196 31.392 241.263 31.392C239.919 31.392 238.762 31.084 237.791 30.468C236.839 29.852 236.102 29.0027 235.579 27.92C235.075 26.8187 234.823 25.5587 234.823 24.14C234.823 22.4973 235.084 21.088 235.607 19.912C236.13 18.7173 236.867 17.8027 237.819 17.168C238.771 16.5147 239.882 16.188 241.151 16.188ZM257.919 16.188C258.629 16.188 259.217 16.2813 259.683 16.468C260.169 16.6547 260.57 16.916 260.887 17.252C261.242 17.6253 261.494 18.092 261.643 18.652C261.793 19.212 261.867 19.968 261.867 20.92V28.396C261.867 29.18 262.026 29.712 262.343 29.992C262.679 30.272 263.23 30.412 263.995 30.412V31C263.678 30.9813 263.193 30.9627 262.539 30.944C261.886 30.9067 261.251 30.888 260.635 30.888C260.019 30.888 259.413 30.9067 258.815 30.944C258.237 30.9627 257.798 30.9813 257.499 31V30.412C258.171 30.412 258.647 30.272 258.927 29.992C259.207 29.712 259.347 29.18 259.347 28.396V20.304C259.347 19.7253 259.301 19.1933 259.207 18.708C259.114 18.2227 258.899 17.8307 258.563 17.532C258.246 17.2333 257.751 17.084 257.079 17.084C256.295 17.084 255.605 17.308 255.007 17.756C254.429 18.204 253.971 18.82 253.635 19.604C253.318 20.3693 253.159 21.228 253.159 22.18V28.396C253.159 29.18 253.299 29.712 253.579 29.992C253.859 30.272 254.335 30.412 255.007 30.412V31C254.709 30.9813 254.261 30.9627 253.663 30.944C253.085 30.9067 252.487 30.888 251.871 30.888C251.255 30.888 250.621 30.9067 249.967 30.944C249.314 30.9627 248.829 30.9813 248.511 31V30.412C249.277 30.412 249.818 30.272 250.135 29.992C250.471 29.712 250.639 29.18 250.639 28.396V19.632C250.639 18.792 250.49 18.176 250.191 17.784C249.893 17.3733 249.333 17.168 248.511 17.168V16.58C249.109 16.636 249.687 16.664 250.247 16.664C250.789 16.664 251.302 16.636 251.787 16.58C252.291 16.5053 252.749 16.4027 253.159 16.272V19.576C253.645 18.3067 254.317 17.4293 255.175 16.944C256.053 16.44 256.967 16.188 257.919 16.188ZM269.726 11.932V16.608H273.87V17.168H269.726V28.004C269.726 28.8813 269.885 29.4973 270.202 29.852C270.52 30.2067 270.958 30.384 271.518 30.384C272.078 30.384 272.564 30.16 272.974 29.712C273.385 29.2453 273.74 28.4707 274.038 27.388L274.598 27.528C274.412 28.6107 274.038 29.5253 273.478 30.272C272.937 31.0187 272.097 31.392 270.958 31.392C270.324 31.392 269.801 31.308 269.39 31.14C268.98 30.9907 268.616 30.7667 268.298 30.468C267.888 30.0387 267.598 29.5253 267.43 28.928C267.281 28.3307 267.206 27.5373 267.206 26.548V17.168H264.518V16.608H267.206V12.324C267.673 12.3053 268.121 12.268 268.55 12.212C268.98 12.156 269.372 12.0627 269.726 11.932ZM279.569 9.048V28.396C279.569 29.18 279.727 29.712 280.045 29.992C280.381 30.272 280.931 30.412 281.697 30.412V31C281.379 30.9813 280.894 30.9627 280.241 30.944C279.606 30.9067 278.962 30.888 278.309 30.888C277.674 30.888 277.03 30.9067 276.377 30.944C275.723 30.9627 275.238 30.9813 274.921 31V30.412C275.686 30.412 276.227 30.272 276.545 29.992C276.881 29.712 277.049 29.18 277.049 28.396V12.408C277.049 11.568 276.899 10.952 276.601 10.56C276.302 10.1493 275.742 9.944 274.921 9.944V9.356C275.518 9.412 276.097 9.44 276.657 9.44C277.198 9.44 277.711 9.412 278.197 9.356C278.701 9.28133 279.158 9.17867 279.569 9.048ZM296.148 16.58V17.14C295.794 17.1773 295.467 17.336 295.168 17.616C294.87 17.896 294.59 18.3907 294.328 19.1L289.736 31.14H289.26L284.108 18.736C283.754 18.008 283.399 17.5693 283.044 17.42C282.708 17.252 282.428 17.168 282.204 17.168V16.58C282.615 16.636 283.044 16.6827 283.492 16.72C283.94 16.7387 284.426 16.748 284.948 16.748C285.527 16.748 286.134 16.7293 286.768 16.692C287.422 16.6547 288.028 16.6173 288.588 16.58V17.168C288.122 17.168 287.702 17.2053 287.328 17.28C286.974 17.336 286.75 17.532 286.656 17.868C286.563 18.1853 286.675 18.736 286.992 19.52L290.436 28.06L290.268 28.116L293.46 19.772C293.703 19.156 293.796 18.6707 293.74 18.316C293.703 17.9427 293.516 17.6627 293.18 17.476C292.844 17.2893 292.34 17.1773 291.668 17.14V16.58C292.004 16.5987 292.294 16.6173 292.536 16.636C292.779 16.636 293.012 16.6453 293.236 16.664C293.479 16.664 293.74 16.664 294.02 16.664C294.45 16.664 294.832 16.6547 295.168 16.636C295.523 16.6173 295.85 16.5987 296.148 16.58ZM289.736 31.14L288.784 33.576C288.598 34.0427 288.402 34.4347 288.196 34.752C288.01 35.0693 287.804 35.3307 287.58 35.536C287.282 35.816 286.927 36.0027 286.516 36.096C286.106 36.208 285.732 36.264 285.396 36.264C285.042 36.264 284.715 36.1987 284.416 36.068C284.136 35.9373 283.912 35.7413 283.744 35.48C283.576 35.2373 283.492 34.9387 283.492 34.584C283.492 34.136 283.623 33.772 283.884 33.492C284.146 33.2307 284.51 33.1 284.976 33.1C285.368 33.1 285.704 33.212 285.984 33.436C286.264 33.66 286.404 33.9867 286.404 34.416C286.404 34.7333 286.33 34.9947 286.18 35.2C286.031 35.4053 285.854 35.564 285.648 35.676C285.686 35.6947 285.714 35.704 285.732 35.704C285.77 35.704 285.798 35.704 285.816 35.704C286.32 35.704 286.768 35.5267 287.16 35.172C287.552 34.836 287.898 34.2853 288.196 33.52L289.204 30.916L289.736 31.14ZM316.212 9.048V27.948C316.212 28.788 316.361 29.4133 316.66 29.824C316.977 30.216 317.537 30.412 318.34 30.412V31C317.761 30.944 317.183 30.916 316.604 30.916C316.063 30.916 315.54 30.944 315.036 31C314.551 31.056 314.103 31.1587 313.692 31.308V12.408C313.692 11.568 313.543 10.952 313.244 10.56C312.945 10.1493 312.385 9.944 311.564 9.944V9.356C312.161 9.412 312.74 9.44 313.3 9.44C313.841 9.44 314.355 9.412 314.84 9.356C315.344 9.28133 315.801 9.17867 316.212 9.048ZM310.332 16.188C311.153 16.188 311.919 16.384 312.628 16.776C313.356 17.168 313.841 17.84 314.084 18.792L313.72 19.072C313.459 18.288 313.048 17.7187 312.488 17.364C311.947 17.0093 311.303 16.832 310.556 16.832C309.455 16.832 308.531 17.4013 307.784 18.54C307.056 19.6787 306.701 21.4333 306.72 23.804C306.72 25.316 306.86 26.576 307.14 27.584C307.439 28.5733 307.868 29.32 308.428 29.824C309.007 30.3093 309.707 30.552 310.528 30.552C311.312 30.552 312.021 30.216 312.656 29.544C313.291 28.872 313.673 27.8827 313.804 26.576L314.14 26.968C313.991 28.3867 313.533 29.4787 312.768 30.244C312.021 31.0093 311.004 31.392 309.716 31.392C308.559 31.392 307.541 31.112 306.664 30.552C305.805 29.992 305.143 29.152 304.676 28.032C304.228 26.912 304.004 25.5027 304.004 23.804C304.004 22.1053 304.293 20.696 304.872 19.576C305.469 18.4373 306.244 17.588 307.196 17.028C308.167 16.468 309.212 16.188 310.332 16.188ZM326.602 16.188C327.796 16.188 328.87 16.4493 329.822 16.972C330.774 17.4947 331.53 18.316 332.09 19.436C332.668 20.556 332.958 22.012 332.958 23.804C332.958 25.596 332.668 27.052 332.09 28.172C331.53 29.2733 330.774 30.0853 329.822 30.608C328.87 31.1307 327.796 31.392 326.602 31.392C325.426 31.392 324.352 31.1307 323.382 30.608C322.43 30.0853 321.664 29.2733 321.086 28.172C320.526 27.052 320.246 25.596 320.246 23.804C320.246 22.012 320.526 20.556 321.086 19.436C321.664 18.316 322.43 17.4947 323.382 16.972C324.352 16.4493 325.426 16.188 326.602 16.188ZM326.602 16.748C325.538 16.748 324.66 17.2987 323.97 18.4C323.298 19.5013 322.962 21.3027 322.962 23.804C322.962 26.3053 323.298 28.1067 323.97 29.208C324.66 30.2907 325.538 30.832 326.602 30.832C327.666 30.832 328.534 30.2907 329.206 29.208C329.896 28.1067 330.242 26.3053 330.242 23.804C330.242 21.3027 329.896 19.5013 329.206 18.4C328.534 17.2987 327.666 16.748 326.602 16.748ZM339.77 9.104C340.946 9.104 341.973 9.30933 342.85 9.72C343.727 10.112 344.409 10.6907 344.894 11.456C345.398 12.2027 345.65 13.0987 345.65 14.144C345.65 15.1893 345.379 16.1227 344.838 16.944C344.315 17.7653 343.578 18.4653 342.626 19.044C341.693 19.604 340.601 20.0427 339.35 20.36V24.448H338.79V20.108C340.041 19.6413 340.974 19.128 341.59 18.568C342.206 18.008 342.617 17.4013 342.822 16.748C343.046 16.0947 343.158 15.404 343.158 14.676C343.158 12.9027 342.794 11.624 342.066 10.84C341.338 10.056 340.395 9.664 339.238 9.664C338.79 9.664 338.295 9.72933 337.754 9.86C337.231 9.99067 336.811 10.2613 336.494 10.672C336.849 10.7467 337.129 10.9053 337.334 11.148C337.558 11.3907 337.67 11.708 337.67 12.1C337.67 12.5667 337.521 12.94 337.222 13.22C336.923 13.4813 336.559 13.612 336.13 13.612C335.701 13.612 335.346 13.472 335.066 13.192C334.786 12.912 334.646 12.5573 334.646 12.128C334.646 11.736 334.767 11.372 335.01 11.036C335.253 10.6813 335.57 10.3733 335.962 10.112C336.354 9.85067 336.858 9.61733 337.474 9.412C338.109 9.20667 338.874 9.104 339.77 9.104ZM339.098 27.808C339.583 27.808 340.003 27.9853 340.358 28.34C340.713 28.6947 340.89 29.1147 340.89 29.6C340.89 30.0853 340.713 30.5053 340.358 30.86C340.003 31.2147 339.583 31.392 339.098 31.392C338.613 31.392 338.193 31.2147 337.838 30.86C337.483 30.5053 337.306 30.0853 337.306 29.6C337.306 29.1147 337.483 28.6947 337.838 28.34C338.193 27.9853 338.613 27.808 339.098 27.808Z" fill="#1D191A"/>
<path d="M377.738 155.256C377.69 155.676 377.654 156.084 377.63 156.48C377.618 156.876 377.612 157.176 377.612 157.38C377.612 157.596 377.618 157.806 377.63 158.01C377.642 158.202 377.654 158.364 377.666 158.496H377.252C377.18 157.788 377.078 157.23 376.946 156.822C376.814 156.402 376.586 156.108 376.262 155.94C375.95 155.76 375.476 155.67 374.84 155.67H373.346C372.938 155.67 372.626 155.706 372.41 155.778C372.206 155.838 372.068 155.976 371.996 156.192C371.924 156.396 371.888 156.72 371.888 157.164V166.092C371.888 166.524 371.924 166.848 371.996 167.064C372.068 167.28 372.206 167.424 372.41 167.496C372.626 167.556 372.938 167.586 373.346 167.586H374.66C375.416 167.586 375.986 167.484 376.37 167.28C376.766 167.076 377.048 166.746 377.216 166.29C377.396 165.822 377.528 165.192 377.612 164.4H378.026C377.99 164.724 377.972 165.156 377.972 165.696C377.972 165.924 377.978 166.254 377.99 166.686C378.014 167.106 378.05 167.544 378.098 168C377.486 167.976 376.796 167.964 376.028 167.964C375.26 167.952 374.576 167.946 373.976 167.946C373.712 167.946 373.37 167.946 372.95 167.946C372.542 167.946 372.098 167.952 371.618 167.964C371.138 167.964 370.652 167.97 370.16 167.982C369.668 167.982 369.2 167.988 368.756 168V167.64C369.164 167.616 369.47 167.568 369.674 167.496C369.89 167.424 370.034 167.28 370.106 167.064C370.178 166.848 370.214 166.524 370.214 166.092V157.164C370.214 156.72 370.178 156.396 370.106 156.192C370.034 155.976 369.89 155.832 369.674 155.76C369.47 155.676 369.164 155.628 368.756 155.616V155.256C369.2 155.268 369.668 155.28 370.16 155.292C370.652 155.292 371.138 155.298 371.618 155.31C372.098 155.31 372.542 155.31 372.95 155.31C373.37 155.31 373.712 155.31 373.976 155.31C374.528 155.31 375.152 155.31 375.848 155.31C376.556 155.298 377.186 155.28 377.738 155.256ZM374.642 161.412C374.642 161.412 374.642 161.472 374.642 161.592C374.642 161.712 374.642 161.772 374.642 161.772H371.348C371.348 161.772 371.348 161.712 371.348 161.592C371.348 161.472 371.348 161.412 371.348 161.412H374.642ZM375.164 159.036C375.116 159.72 375.092 160.242 375.092 160.602C375.104 160.962 375.11 161.292 375.11 161.592C375.11 161.892 375.116 162.222 375.128 162.582C375.14 162.942 375.17 163.464 375.218 164.148H374.804C374.756 163.764 374.696 163.392 374.624 163.032C374.564 162.66 374.42 162.36 374.192 162.132C373.976 161.892 373.604 161.772 373.076 161.772V161.412C373.472 161.412 373.772 161.334 373.976 161.178C374.192 161.01 374.348 160.8 374.444 160.548C374.54 160.296 374.606 160.038 374.642 159.774C374.678 159.498 374.714 159.252 374.75 159.036H375.164ZM385.431 158.478C385.851 158.478 386.217 158.538 386.529 158.658C386.841 158.778 387.099 158.946 387.303 159.162C387.531 159.402 387.687 159.714 387.771 160.098C387.855 160.482 387.897 160.956 387.897 161.52V166.326C387.897 166.83 387.999 167.172 388.203 167.352C388.419 167.532 388.773 167.622 389.265 167.622V168C389.061 167.988 388.749 167.976 388.329 167.964C387.909 167.94 387.501 167.928 387.105 167.928C386.709 167.928 386.319 167.94 385.935 167.964C385.563 167.976 385.281 167.988 385.089 168V167.622C385.521 167.622 385.827 167.532 386.007 167.352C386.187 167.172 386.277 166.83 386.277 166.326V161.124C386.277 160.752 386.253 160.41 386.205 160.098C386.157 159.786 386.037 159.534 385.845 159.342C385.653 159.15 385.341 159.054 384.909 159.054C384.441 159.054 384.021 159.198 383.649 159.486C383.289 159.774 383.001 160.17 382.785 160.674C382.581 161.166 382.479 161.718 382.479 162.33V166.326C382.479 166.83 382.569 167.172 382.749 167.352C382.929 167.532 383.235 167.622 383.667 167.622V168C383.475 167.988 383.187 167.976 382.803 167.964C382.431 167.94 382.047 167.928 381.651 167.928C381.255 167.928 380.847 167.94 380.427 167.964C380.007 167.976 379.695 167.988 379.491 168V167.622C379.983 167.622 380.331 167.532 380.535 167.352C380.751 167.172 380.859 166.83 380.859 166.326V160.692C380.859 160.152 380.763 159.756 380.571 159.504C380.379 159.24 380.019 159.108 379.491 159.108V158.73C379.875 158.766 380.247 158.784 380.607 158.784C380.955 158.784 381.285 158.766 381.597 158.73C381.921 158.682 382.215 158.616 382.479 158.532V160.656C382.791 159.876 383.217 159.318 383.757 158.982C384.297 158.646 384.855 158.478 385.431 158.478ZM390.849 158.478C391.269 158.478 391.635 158.538 391.947 158.658C392.259 158.778 392.517 158.946 392.721 159.162C392.949 159.402 393.105 159.714 393.189 160.098C393.273 160.482 393.315 160.956 393.315 161.52V166.326C393.315 166.83 393.417 167.172 393.621 167.352C393.837 167.532 394.191 167.622 394.683 167.622V168C394.479 167.988 394.167 167.976 393.747 167.964C393.327 167.94 392.919 167.928 392.523 167.928C392.127 167.928 391.737 167.94 391.353 167.964C390.981 167.976 390.699 167.988 390.507 168V167.622C390.939 167.622 391.245 167.532 391.425 167.352C391.605 167.172 391.695 166.83 391.695 166.326V161.124C391.695 160.752 391.671 160.41 391.623 160.098C391.575 159.786 391.455 159.534 391.263 159.342C391.071 159.15 390.759 159.054 390.327 159.054C389.859 159.054 389.439 159.198 389.067 159.486C388.707 159.774 388.419 160.164 388.203 160.656C387.999 161.148 387.897 161.7 387.897 162.312L387.843 160.638C388.167 159.81 388.605 159.246 389.157 158.946C389.709 158.634 390.273 158.478 390.849 158.478ZM398.331 158.532V169.584C398.331 170.1 398.481 170.442 398.781 170.61C399.093 170.79 399.519 170.88 400.059 170.88V171.258C399.795 171.246 399.429 171.228 398.961 171.204C398.493 171.192 397.995 171.186 397.467 171.186C397.095 171.186 396.723 171.192 396.351 171.204C395.991 171.228 395.715 171.246 395.523 171.258V170.88C395.955 170.88 396.261 170.802 396.441 170.646C396.621 170.49 396.711 170.196 396.711 169.764V160.692C396.711 160.152 396.615 159.756 396.423 159.504C396.231 159.24 395.871 159.108 395.343 159.108V158.73C395.727 158.766 396.099 158.784 396.459 158.784C396.807 158.784 397.137 158.766 397.449 158.73C397.773 158.682 398.067 158.616 398.331 158.532ZM401.211 158.478C401.847 158.478 402.417 158.652 402.921 159C403.425 159.336 403.821 159.834 404.109 160.494C404.409 161.154 404.559 161.97 404.559 162.942C404.559 163.59 404.481 164.232 404.325 164.868C404.169 165.492 403.923 166.062 403.587 166.578C403.263 167.082 402.837 167.49 402.309 167.802C401.793 168.102 401.169 168.252 400.437 168.252C399.873 168.252 399.381 168.12 398.961 167.856C398.553 167.592 398.277 167.274 398.133 166.902L398.313 166.65C398.481 166.986 398.721 167.268 399.033 167.496C399.357 167.724 399.759 167.838 400.239 167.838C400.911 167.838 401.433 167.628 401.805 167.208C402.177 166.788 402.435 166.23 402.579 165.534C402.735 164.826 402.813 164.046 402.813 163.194C402.813 162.234 402.735 161.448 402.579 160.836C402.423 160.224 402.189 159.768 401.877 159.468C401.565 159.168 401.181 159.018 400.725 159.018C400.137 159.018 399.603 159.264 399.123 159.756C398.643 160.236 398.337 160.968 398.205 161.952L397.989 161.7C398.121 160.68 398.481 159.888 399.069 159.324C399.669 158.76 400.383 158.478 401.211 158.478ZM408.79 153.888V166.326C408.79 166.83 408.892 167.172 409.096 167.352C409.312 167.532 409.666 167.622 410.158 167.622V168C409.954 167.988 409.642 167.976 409.222 167.964C408.814 167.94 408.4 167.928 407.98 167.928C407.572 167.928 407.158 167.94 406.738 167.964C406.318 167.976 406.006 167.988 405.802 168V167.622C406.294 167.622 406.642 167.532 406.846 167.352C407.062 167.172 407.17 166.83 407.17 166.326V156.048C407.17 155.508 407.074 155.112 406.882 154.86C406.69 154.596 406.33 154.464 405.802 154.464V154.086C406.186 154.122 406.558 154.14 406.918 154.14C407.266 154.14 407.596 154.122 407.908 154.086C408.232 154.038 408.526 153.972 408.79 153.888ZM415.313 158.478C416.081 158.478 416.771 158.646 417.383 158.982C417.995 159.318 418.481 159.846 418.841 160.566C419.213 161.286 419.399 162.222 419.399 163.374C419.399 164.526 419.213 165.462 418.841 166.182C418.481 166.89 417.995 167.412 417.383 167.748C416.771 168.084 416.081 168.252 415.313 168.252C414.557 168.252 413.867 168.084 413.243 167.748C412.631 167.412 412.139 166.89 411.767 166.182C411.407 165.462 411.227 164.526 411.227 163.374C411.227 162.222 411.407 161.286 411.767 160.566C412.139 159.846 412.631 159.318 413.243 158.982C413.867 158.646 414.557 158.478 415.313 158.478ZM415.313 158.838C414.629 158.838 414.065 159.192 413.621 159.9C413.189 160.608 412.973 161.766 412.973 163.374C412.973 164.982 413.189 166.14 413.621 166.848C414.065 167.544 414.629 167.892 415.313 167.892C415.997 167.892 416.555 167.544 416.987 166.848C417.431 166.14 417.653 164.982 417.653 163.374C417.653 161.766 417.431 160.608 416.987 159.9C416.555 159.192 415.997 158.838 415.313 158.838ZM428.976 158.73V159.09C428.748 159.114 428.538 159.216 428.346 159.396C428.154 159.576 427.974 159.894 427.806 160.35L424.854 168.09H424.548L421.236 160.116C421.008 159.648 420.78 159.366 420.552 159.27C420.336 159.162 420.156 159.108 420.012 159.108V158.73C420.276 158.766 420.552 158.796 420.84 158.82C421.128 158.832 421.44 158.838 421.776 158.838C422.148 158.838 422.538 158.826 422.946 158.802C423.366 158.778 423.756 158.754 424.116 158.73V159.108C423.816 159.108 423.546 159.132 423.306 159.18C423.078 159.216 422.934 159.342 422.874 159.558C422.814 159.762 422.886 160.116 423.09 160.62L425.304 166.11L425.196 166.146L427.248 160.782C427.404 160.386 427.464 160.074 427.428 159.846C427.404 159.606 427.284 159.426 427.068 159.306C426.852 159.186 426.528 159.114 426.096 159.09V158.73C426.312 158.742 426.498 158.754 426.654 158.766C426.81 158.766 426.96 158.772 427.104 158.784C427.26 158.784 427.428 158.784 427.608 158.784C427.884 158.784 428.13 158.778 428.346 158.766C428.574 158.754 428.784 158.742 428.976 158.73ZM424.854 168.09L424.242 169.656C424.122 169.956 423.996 170.208 423.864 170.412C423.744 170.616 423.612 170.784 423.468 170.916C423.276 171.096 423.048 171.216 422.784 171.276C422.52 171.348 422.28 171.384 422.064 171.384C421.836 171.384 421.626 171.342 421.434 171.258C421.254 171.174 421.11 171.048 421.002 170.88C420.894 170.724 420.84 170.532 420.84 170.304C420.84 170.016 420.924 169.782 421.092 169.602C421.26 169.434 421.494 169.35 421.794 169.35C422.046 169.35 422.262 169.422 422.442 169.566C422.622 169.71 422.712 169.92 422.712 170.196C422.712 170.4 422.664 170.568 422.568 170.7C422.472 170.832 422.358 170.934 422.226 171.006C422.25 171.018 422.268 171.024 422.28 171.024C422.304 171.024 422.322 171.024 422.334 171.024C422.658 171.024 422.946 170.91 423.198 170.682C423.45 170.466 423.672 170.112 423.864 169.62L424.512 167.946L424.854 168.09ZM433.892 158.478C434.948 158.478 435.77 158.802 436.358 159.45C436.958 160.086 437.258 161.082 437.258 162.438H430.904L430.886 162.096H435.53C435.554 161.508 435.506 160.968 435.386 160.476C435.266 159.972 435.074 159.57 434.81 159.27C434.558 158.97 434.228 158.82 433.82 158.82C433.268 158.82 432.776 159.096 432.344 159.648C431.924 160.2 431.672 161.076 431.588 162.276L431.642 162.348C431.618 162.528 431.6 162.726 431.588 162.942C431.576 163.158 431.57 163.374 431.57 163.59C431.57 164.406 431.702 165.108 431.966 165.696C432.23 166.284 432.572 166.734 432.992 167.046C433.424 167.346 433.868 167.496 434.324 167.496C434.684 167.496 435.026 167.442 435.35 167.334C435.674 167.214 435.974 167.022 436.25 166.758C436.526 166.494 436.766 166.14 436.97 165.696L437.33 165.84C437.198 166.236 436.982 166.62 436.682 166.992C436.382 167.364 436.004 167.67 435.548 167.91C435.092 168.138 434.564 168.252 433.964 168.252C433.1 168.252 432.356 168.054 431.732 167.658C431.12 167.262 430.646 166.716 430.31 166.02C429.986 165.312 429.824 164.502 429.824 163.59C429.824 162.534 429.992 161.628 430.328 160.872C430.664 160.104 431.138 159.516 431.75 159.108C432.362 158.688 433.076 158.478 433.892 158.478ZM446.814 153.888V166.038C446.814 166.578 446.91 166.98 447.102 167.244C447.306 167.496 447.666 167.622 448.182 167.622V168C447.81 167.964 447.438 167.946 447.066 167.946C446.718 167.946 446.382 167.964 446.058 168C445.746 168.036 445.458 168.102 445.194 168.198V156.048C445.194 155.508 445.098 155.112 444.906 154.86C444.714 154.596 444.354 154.464 443.826 154.464V154.086C444.21 154.122 444.582 154.14 444.942 154.14C445.29 154.14 445.62 154.122 445.932 154.086C446.256 154.038 446.55 153.972 446.814 153.888ZM443.034 158.478C443.562 158.478 444.054 158.604 444.51 158.856C444.978 159.108 445.29 159.54 445.446 160.152L445.212 160.332C445.044 159.828 444.78 159.462 444.42 159.234C444.072 159.006 443.658 158.892 443.178 158.892C442.47 158.892 441.876 159.258 441.396 159.99C440.928 160.722 440.7 161.85 440.712 163.374C440.712 164.346 440.802 165.156 440.982 165.804C441.174 166.44 441.45 166.92 441.81 167.244C442.182 167.556 442.632 167.712 443.16 167.712C443.664 167.712 444.12 167.496 444.528 167.064C444.936 166.632 445.182 165.996 445.266 165.156L445.482 165.408C445.386 166.32 445.092 167.022 444.6 167.514C444.12 168.006 443.466 168.252 442.638 168.252C441.894 168.252 441.24 168.072 440.676 167.712C440.124 167.352 439.698 166.812 439.398 166.092C439.11 165.372 438.966 164.466 438.966 163.374C438.966 162.282 439.152 161.376 439.524 160.656C439.908 159.924 440.406 159.378 441.018 159.018C441.642 158.658 442.314 158.478 443.034 158.478Z" fill="#1D191A"/>
<path d="M372.608 190.058C373.208 190.058 373.664 190.13 373.976 190.274C374.288 190.406 374.564 190.556 374.804 190.724C374.948 190.808 375.062 190.874 375.146 190.922C375.242 190.958 375.332 190.976 375.416 190.976C375.536 190.976 375.62 190.91 375.668 190.778C375.728 190.646 375.776 190.448 375.812 190.184H376.226C376.214 190.388 376.196 190.634 376.172 190.922C376.16 191.198 376.148 191.57 376.136 192.038C376.136 192.494 376.136 193.1 376.136 193.856H375.722C375.686 193.28 375.56 192.728 375.344 192.2C375.128 191.672 374.81 191.24 374.39 190.904C373.982 190.568 373.442 190.4 372.77 190.4C372.134 190.4 371.606 190.592 371.186 190.976C370.778 191.36 370.574 191.864 370.574 192.488C370.574 193.028 370.712 193.484 370.988 193.856C371.264 194.216 371.63 194.546 372.086 194.846C372.554 195.134 373.058 195.446 373.598 195.782C374.222 196.166 374.774 196.55 375.254 196.934C375.746 197.306 376.13 197.72 376.406 198.176C376.694 198.632 376.838 199.184 376.838 199.832C376.838 200.6 376.664 201.236 376.316 201.74C375.968 202.244 375.506 202.622 374.93 202.874C374.354 203.126 373.718 203.252 373.022 203.252C372.386 203.252 371.882 203.18 371.51 203.036C371.138 202.892 370.82 202.742 370.556 202.586C370.292 202.418 370.088 202.334 369.944 202.334C369.824 202.334 369.734 202.4 369.674 202.532C369.626 202.664 369.584 202.862 369.548 203.126H369.134C369.158 202.874 369.17 202.58 369.17 202.244C369.182 201.896 369.188 201.446 369.188 200.894C369.2 200.342 369.206 199.646 369.206 198.806H369.62C369.668 199.526 369.8 200.198 370.016 200.822C370.244 201.446 370.586 201.95 371.042 202.334C371.51 202.706 372.128 202.892 372.896 202.892C373.292 202.892 373.664 202.814 374.012 202.658C374.372 202.49 374.666 202.232 374.894 201.884C375.122 201.524 375.236 201.062 375.236 200.498C375.236 200.006 375.116 199.58 374.876 199.22C374.648 198.848 374.324 198.506 373.904 198.194C373.484 197.87 372.992 197.54 372.428 197.204C371.864 196.856 371.336 196.502 370.844 196.142C370.352 195.782 369.956 195.368 369.656 194.9C369.368 194.42 369.224 193.844 369.224 193.172C369.224 192.464 369.38 191.882 369.692 191.426C370.016 190.958 370.436 190.616 370.952 190.4C371.468 190.172 372.02 190.058 372.608 190.058ZM381.141 190.742V193.748H383.805V194.108H381.141V201.074C381.141 201.638 381.243 202.034 381.447 202.262C381.651 202.49 381.933 202.604 382.293 202.604C382.653 202.604 382.965 202.46 383.229 202.172C383.493 201.872 383.721 201.374 383.913 200.678L384.273 200.768C384.153 201.464 383.913 202.052 383.553 202.532C383.205 203.012 382.665 203.252 381.933 203.252C381.525 203.252 381.189 203.198 380.925 203.09C380.661 202.994 380.427 202.85 380.223 202.658C379.959 202.382 379.773 202.052 379.665 201.668C379.569 201.284 379.521 200.774 379.521 200.138V194.108H377.793V193.748H379.521V190.994C379.821 190.982 380.109 190.958 380.385 190.922C380.661 190.886 380.913 190.826 381.141 190.742ZM392.778 193.532V201.056C392.778 201.596 392.874 201.998 393.066 202.262C393.27 202.514 393.63 202.64 394.146 202.64V203.018C393.774 202.982 393.402 202.964 393.03 202.964C392.682 202.964 392.346 202.982 392.022 203.018C391.71 203.054 391.422 203.12 391.158 203.216V201.092C390.858 201.872 390.432 202.43 389.88 202.766C389.34 203.09 388.782 203.252 388.206 203.252C387.786 203.252 387.42 203.192 387.108 203.072C386.796 202.952 386.538 202.784 386.334 202.568C386.106 202.328 385.95 202.016 385.866 201.632C385.782 201.248 385.74 200.774 385.74 200.21V195.692C385.74 195.152 385.644 194.756 385.452 194.504C385.26 194.24 384.9 194.108 384.372 194.108V193.73C384.756 193.766 385.128 193.784 385.488 193.784C385.836 193.784 386.166 193.766 386.478 193.73C386.802 193.682 387.096 193.616 387.36 193.532V200.606C387.36 200.978 387.384 201.32 387.432 201.632C387.48 201.944 387.6 202.196 387.792 202.388C387.984 202.58 388.296 202.676 388.728 202.676C389.196 202.676 389.61 202.532 389.97 202.244C390.342 201.956 390.63 201.566 390.834 201.074C391.05 200.582 391.158 200.03 391.158 199.418V195.692C391.158 195.152 391.062 194.756 390.87 194.504C390.678 194.24 390.318 194.108 389.79 194.108V193.73C390.174 193.766 390.546 193.784 390.906 193.784C391.254 193.784 391.584 193.766 391.896 193.73C392.22 193.682 392.514 193.616 392.778 193.532ZM403.255 188.888V201.038C403.255 201.578 403.351 201.98 403.543 202.244C403.747 202.496 404.107 202.622 404.623 202.622V203C404.251 202.964 403.879 202.946 403.507 202.946C403.159 202.946 402.823 202.964 402.499 203C402.187 203.036 401.899 203.102 401.635 203.198V191.048C401.635 190.508 401.539 190.112 401.347 189.86C401.155 189.596 400.795 189.464 400.267 189.464V189.086C400.651 189.122 401.023 189.14 401.383 189.14C401.731 189.14 402.061 189.122 402.373 189.086C402.697 189.038 402.991 188.972 403.255 188.888ZM399.475 193.478C400.003 193.478 400.495 193.604 400.951 193.856C401.419 194.108 401.731 194.54 401.887 195.152L401.653 195.332C401.485 194.828 401.221 194.462 400.861 194.234C400.513 194.006 400.099 193.892 399.619 193.892C398.911 193.892 398.317 194.258 397.837 194.99C397.369 195.722 397.141 196.85 397.153 198.374C397.153 199.346 397.243 200.156 397.423 200.804C397.615 201.44 397.891 201.92 398.251 202.244C398.623 202.556 399.073 202.712 399.601 202.712C400.105 202.712 400.561 202.496 400.969 202.064C401.377 201.632 401.623 200.996 401.707 200.156L401.923 200.408C401.827 201.32 401.533 202.022 401.041 202.514C400.561 203.006 399.907 203.252 399.079 203.252C398.335 203.252 397.681 203.072 397.117 202.712C396.565 202.352 396.139 201.812 395.839 201.092C395.551 200.372 395.407 199.466 395.407 198.374C395.407 197.282 395.593 196.376 395.965 195.656C396.349 194.924 396.847 194.378 397.459 194.018C398.083 193.658 398.755 193.478 399.475 193.478ZM409.898 193.478C410.954 193.478 411.776 193.802 412.364 194.45C412.964 195.086 413.264 196.082 413.264 197.438H406.91L406.892 197.096H411.536C411.56 196.508 411.512 195.968 411.392 195.476C411.272 194.972 411.08 194.57 410.816 194.27C410.564 193.97 410.234 193.82 409.826 193.82C409.274 193.82 408.782 194.096 408.35 194.648C407.93 195.2 407.678 196.076 407.594 197.276L407.648 197.348C407.624 197.528 407.606 197.726 407.594 197.942C407.582 198.158 407.576 198.374 407.576 198.59C407.576 199.406 407.708 200.108 407.972 200.696C408.236 201.284 408.578 201.734 408.998 202.046C409.43 202.346 409.874 202.496 410.33 202.496C410.69 202.496 411.032 202.442 411.356 202.334C411.68 202.214 411.98 202.022 412.256 201.758C412.532 201.494 412.772 201.14 412.976 200.696L413.336 200.84C413.204 201.236 412.988 201.62 412.688 201.992C412.388 202.364 412.01 202.67 411.554 202.91C411.098 203.138 410.57 203.252 409.97 203.252C409.106 203.252 408.362 203.054 407.738 202.658C407.126 202.262 406.652 201.716 406.316 201.02C405.992 200.312 405.83 199.502 405.83 198.59C405.83 197.534 405.998 196.628 406.334 195.872C406.67 195.104 407.144 194.516 407.756 194.108C408.368 193.688 409.082 193.478 409.898 193.478ZM420.677 193.478C421.133 193.478 421.511 193.538 421.811 193.658C422.123 193.778 422.381 193.946 422.585 194.162C422.813 194.402 422.975 194.702 423.071 195.062C423.167 195.422 423.215 195.908 423.215 196.52V201.326C423.215 201.83 423.317 202.172 423.521 202.352C423.737 202.532 424.091 202.622 424.583 202.622V203C424.379 202.988 424.067 202.976 423.647 202.964C423.227 202.94 422.819 202.928 422.423 202.928C422.027 202.928 421.637 202.94 421.253 202.964C420.881 202.976 420.599 202.988 420.407 203V202.622C420.839 202.622 421.145 202.532 421.325 202.352C421.505 202.172 421.595 201.83 421.595 201.326V196.124C421.595 195.752 421.565 195.41 421.505 195.098C421.445 194.786 421.307 194.534 421.091 194.342C420.887 194.15 420.569 194.054 420.137 194.054C419.633 194.054 419.189 194.198 418.805 194.486C418.433 194.774 418.139 195.17 417.923 195.674C417.719 196.166 417.617 196.718 417.617 197.33V201.326C417.617 201.83 417.707 202.172 417.887 202.352C418.067 202.532 418.373 202.622 418.805 202.622V203C418.613 202.988 418.325 202.976 417.941 202.964C417.569 202.94 417.185 202.928 416.789 202.928C416.393 202.928 415.985 202.94 415.565 202.964C415.145 202.976 414.833 202.988 414.629 203V202.622C415.121 202.622 415.469 202.532 415.673 202.352C415.889 202.172 415.997 201.83 415.997 201.326V195.692C415.997 195.152 415.901 194.756 415.709 194.504C415.517 194.24 415.157 194.108 414.629 194.108V193.73C415.013 193.766 415.385 193.784 415.745 193.784C416.093 193.784 416.423 193.766 416.735 193.73C417.059 193.682 417.353 193.616 417.617 193.532V195.656C417.929 194.84 418.361 194.276 418.913 193.964C419.477 193.64 420.065 193.478 420.677 193.478ZM428.268 190.742V193.748H430.932V194.108H428.268V201.074C428.268 201.638 428.37 202.034 428.574 202.262C428.778 202.49 429.06 202.604 429.42 202.604C429.78 202.604 430.092 202.46 430.356 202.172C430.62 201.872 430.848 201.374 431.04 200.678L431.4 200.768C431.28 201.464 431.04 202.052 430.68 202.532C430.332 203.012 429.792 203.252 429.06 203.252C428.652 203.252 428.316 203.198 428.052 203.09C427.788 202.994 427.554 202.85 427.35 202.658C427.086 202.382 426.9 202.052 426.792 201.668C426.696 201.284 426.648 200.774 426.648 200.138V194.108H424.92V193.748H426.648V190.994C426.948 190.982 427.236 190.958 427.512 190.922C427.788 190.886 428.04 190.826 428.268 190.742Z" fill="#1D191A"/>
<path d="M382.41 228.424V228.864C381.911 228.879 381.53 228.952 381.266 229.084C381.017 229.216 380.848 229.429 380.76 229.722C380.672 230.015 380.628 230.433 380.628 230.976V237.598C380.628 238.625 380.562 239.519 380.43 240.282C380.298 241.045 380.063 241.705 379.726 242.262C379.359 242.878 378.824 243.377 378.12 243.758C377.416 244.125 376.609 244.308 375.7 244.308C374.996 244.308 374.321 244.22 373.676 244.044C373.045 243.883 372.488 243.575 372.004 243.12C371.579 242.709 371.241 242.277 370.992 241.822C370.757 241.367 370.596 240.81 370.508 240.15C370.42 239.49 370.376 238.661 370.376 237.664V230.756C370.376 230.213 370.332 229.817 370.244 229.568C370.156 229.304 369.98 229.128 369.716 229.04C369.467 228.937 369.093 228.879 368.594 228.864V228.424C368.902 228.439 369.305 228.453 369.804 228.468C370.303 228.483 370.838 228.49 371.41 228.49C371.923 228.49 372.429 228.483 372.928 228.468C373.441 228.453 373.867 228.439 374.204 228.424V228.864C373.705 228.879 373.324 228.937 373.06 229.04C372.811 229.128 372.642 229.304 372.554 229.568C372.466 229.817 372.422 230.213 372.422 230.756V238.038C372.422 238.786 372.459 239.497 372.532 240.172C372.605 240.832 372.752 241.419 372.972 241.932C373.207 242.431 373.559 242.827 374.028 243.12C374.497 243.399 375.121 243.538 375.898 243.538C377.013 243.538 377.871 243.296 378.472 242.812C379.088 242.313 379.513 241.631 379.748 240.766C379.997 239.901 380.122 238.925 380.122 237.84V230.976C380.122 230.433 380.056 230.015 379.924 229.722C379.807 229.429 379.601 229.216 379.308 229.084C379.015 228.952 378.619 228.879 378.12 228.864V228.424C378.384 228.439 378.729 228.453 379.154 228.468C379.594 228.483 379.997 228.49 380.364 228.49C380.745 228.49 381.119 228.483 381.486 228.468C381.867 228.453 382.175 228.439 382.41 228.424ZM390.704 232.362C391.261 232.362 391.723 232.435 392.09 232.582C392.471 232.729 392.786 232.934 393.036 233.198C393.314 233.491 393.512 233.858 393.63 234.298C393.747 234.738 393.806 235.332 393.806 236.08V241.954C393.806 242.57 393.93 242.988 394.18 243.208C394.444 243.428 394.876 243.538 395.478 243.538V244C395.228 243.985 394.847 243.971 394.334 243.956C393.82 243.927 393.322 243.912 392.838 243.912C392.354 243.912 391.877 243.927 391.408 243.956C390.953 243.971 390.608 243.985 390.374 244V243.538C390.902 243.538 391.276 243.428 391.496 243.208C391.716 242.988 391.826 242.57 391.826 241.954V235.596C391.826 235.141 391.789 234.723 391.716 234.342C391.642 233.961 391.474 233.653 391.21 233.418C390.96 233.183 390.572 233.066 390.044 233.066C389.428 233.066 388.885 233.242 388.416 233.594C387.961 233.946 387.602 234.43 387.338 235.046C387.088 235.647 386.964 236.322 386.964 237.07V241.954C386.964 242.57 387.074 242.988 387.294 243.208C387.514 243.428 387.888 243.538 388.416 243.538V244C388.181 243.985 387.829 243.971 387.36 243.956C386.905 243.927 386.436 243.912 385.952 243.912C385.468 243.912 384.969 243.927 384.456 243.956C383.942 243.971 383.561 243.985 383.312 244V243.538C383.913 243.538 384.338 243.428 384.588 243.208C384.852 242.988 384.984 242.57 384.984 241.954V235.068C384.984 234.408 384.866 233.924 384.632 233.616C384.397 233.293 383.957 233.132 383.312 233.132V232.67C383.781 232.714 384.236 232.736 384.676 232.736C385.101 232.736 385.504 232.714 385.886 232.67C386.282 232.611 386.641 232.531 386.964 232.428V235.024C387.345 234.027 387.873 233.337 388.548 232.956C389.237 232.56 389.956 232.362 390.704 232.362ZM401.785 232.362C403.075 232.362 404.08 232.758 404.799 233.55C405.532 234.327 405.899 235.545 405.899 237.202H398.133L398.111 236.784H403.787C403.816 236.065 403.757 235.405 403.611 234.804C403.464 234.188 403.229 233.697 402.907 233.33C402.599 232.963 402.195 232.78 401.697 232.78C401.022 232.78 400.421 233.117 399.893 233.792C399.379 234.467 399.071 235.537 398.969 237.004L399.035 237.092C399.005 237.312 398.983 237.554 398.969 237.818C398.954 238.082 398.947 238.346 398.947 238.61C398.947 239.607 399.108 240.465 399.431 241.184C399.753 241.903 400.171 242.453 400.685 242.834C401.213 243.201 401.755 243.384 402.313 243.384C402.753 243.384 403.171 243.318 403.567 243.186C403.963 243.039 404.329 242.805 404.667 242.482C405.004 242.159 405.297 241.727 405.547 241.184L405.987 241.36C405.825 241.844 405.561 242.313 405.195 242.768C404.828 243.223 404.366 243.597 403.809 243.89C403.251 244.169 402.606 244.308 401.873 244.308C400.817 244.308 399.907 244.066 399.145 243.582C398.397 243.098 397.817 242.431 397.407 241.58C397.011 240.715 396.813 239.725 396.813 238.61C396.813 237.319 397.018 236.212 397.429 235.288C397.839 234.349 398.419 233.631 399.167 233.132C399.915 232.619 400.787 232.362 401.785 232.362ZM414.828 232.362C415.341 232.362 415.788 232.435 416.17 232.582C416.551 232.729 416.866 232.934 417.116 233.198C417.394 233.491 417.585 233.873 417.688 234.342C417.79 234.811 417.842 235.391 417.842 236.08V241.954C417.842 242.57 417.966 242.988 418.216 243.208C418.48 243.428 418.912 243.538 419.514 243.538V244C419.264 243.985 418.883 243.971 418.37 243.956C417.856 243.927 417.358 243.912 416.874 243.912C416.39 243.912 415.913 243.927 415.444 243.956C414.989 243.971 414.644 243.985 414.41 244V243.538C414.938 243.538 415.312 243.428 415.532 243.208C415.752 242.988 415.862 242.57 415.862 241.954V235.596C415.862 235.141 415.832 234.723 415.774 234.342C415.715 233.961 415.568 233.653 415.334 233.418C415.099 233.183 414.718 233.066 414.19 233.066C413.618 233.066 413.104 233.242 412.65 233.594C412.21 233.946 411.858 234.43 411.594 235.046C411.344 235.647 411.22 236.322 411.22 237.07V241.954C411.22 242.57 411.33 242.988 411.55 243.208C411.77 243.428 412.144 243.538 412.672 243.538V244C412.437 243.985 412.085 243.971 411.616 243.956C411.161 243.927 410.692 243.912 410.208 243.912C409.724 243.912 409.225 243.927 408.712 243.956C408.198 243.971 407.817 243.985 407.568 244V243.538C408.169 243.538 408.594 243.428 408.844 243.208C409.108 242.988 409.24 242.57 409.24 241.954V235.068C409.24 234.408 409.122 233.924 408.888 233.616C408.653 233.293 408.213 233.132 407.568 233.132V232.67C408.037 232.714 408.492 232.736 408.932 232.736C409.357 232.736 409.76 232.714 410.142 232.67C410.538 232.611 410.897 232.531 411.22 232.428V235.024C411.601 234.071 412.122 233.389 412.782 232.978C413.442 232.567 414.124 232.362 414.828 232.362ZM421.45 232.362C421.963 232.362 422.41 232.435 422.792 232.582C423.173 232.729 423.488 232.934 423.738 233.198C424.016 233.491 424.207 233.873 424.31 234.342C424.412 234.811 424.464 235.391 424.464 236.08V241.954C424.464 242.57 424.588 242.988 424.838 243.208C425.102 243.428 425.534 243.538 426.136 243.538V244C425.886 243.985 425.505 243.971 424.992 243.956C424.478 243.927 423.98 243.912 423.496 243.912C423.012 243.912 422.535 243.927 422.066 243.956C421.611 243.971 421.266 243.985 421.032 244V243.538C421.56 243.538 421.934 243.428 422.154 243.208C422.374 242.988 422.484 242.57 422.484 241.954V235.596C422.484 235.141 422.454 234.723 422.396 234.342C422.337 233.961 422.19 233.653 421.956 233.418C421.721 233.183 421.34 233.066 420.812 233.066C420.24 233.066 419.726 233.242 419.272 233.594C418.832 233.946 418.48 234.423 418.216 235.024C417.966 235.625 417.842 236.3 417.842 237.048L417.776 235.002C418.172 233.99 418.707 233.301 419.382 232.934C420.056 232.553 420.746 232.362 421.45 232.362ZM430.595 232.428V245.936C430.595 246.567 430.778 246.985 431.145 247.19C431.526 247.41 432.047 247.52 432.707 247.52V247.982C432.384 247.967 431.937 247.945 431.365 247.916C430.793 247.901 430.184 247.894 429.539 247.894C429.084 247.894 428.63 247.901 428.175 247.916C427.735 247.945 427.398 247.967 427.163 247.982V247.52C427.691 247.52 428.065 247.425 428.285 247.234C428.505 247.043 428.615 246.684 428.615 246.156V235.068C428.615 234.408 428.498 233.924 428.263 233.616C428.028 233.293 427.588 233.132 426.943 233.132V232.67C427.412 232.714 427.867 232.736 428.307 232.736C428.732 232.736 429.136 232.714 429.517 232.67C429.913 232.611 430.272 232.531 430.595 232.428ZM434.115 232.362C434.892 232.362 435.589 232.575 436.205 233C436.821 233.411 437.305 234.019 437.657 234.826C438.024 235.633 438.207 236.63 438.207 237.818C438.207 238.61 438.112 239.395 437.921 240.172C437.73 240.935 437.43 241.631 437.019 242.262C436.623 242.878 436.102 243.377 435.457 243.758C434.826 244.125 434.064 244.308 433.169 244.308C432.48 244.308 431.878 244.147 431.365 243.824C430.866 243.501 430.529 243.113 430.353 242.658L430.573 242.35C430.778 242.761 431.072 243.105 431.453 243.384C431.849 243.663 432.34 243.802 432.927 243.802C433.748 243.802 434.386 243.545 434.841 243.032C435.296 242.519 435.611 241.837 435.787 240.986C435.978 240.121 436.073 239.167 436.073 238.126C436.073 236.953 435.978 235.992 435.787 235.244C435.596 234.496 435.31 233.939 434.929 233.572C434.548 233.205 434.078 233.022 433.521 233.022C432.802 233.022 432.15 233.323 431.563 233.924C430.976 234.511 430.602 235.405 430.441 236.608L430.177 236.3C430.338 235.053 430.778 234.085 431.497 233.396C432.23 232.707 433.103 232.362 434.115 232.362ZM443.378 226.752V241.954C443.378 242.57 443.503 242.988 443.752 243.208C444.016 243.428 444.449 243.538 445.05 243.538V244C444.801 243.985 444.42 243.971 443.906 243.956C443.408 243.927 442.902 243.912 442.388 243.912C441.89 243.912 441.384 243.927 440.87 243.956C440.357 243.971 439.976 243.985 439.726 244V243.538C440.328 243.538 440.753 243.428 441.002 243.208C441.266 242.988 441.398 242.57 441.398 241.954V229.392C441.398 228.732 441.281 228.248 441.046 227.94C440.812 227.617 440.372 227.456 439.726 227.456V226.994C440.196 227.038 440.65 227.06 441.09 227.06C441.516 227.06 441.919 227.038 442.3 226.994C442.696 226.935 443.056 226.855 443.378 226.752ZM451.35 232.362C452.289 232.362 453.132 232.567 453.88 232.978C454.628 233.389 455.222 234.034 455.662 234.914C456.117 235.794 456.344 236.938 456.344 238.346C456.344 239.754 456.117 240.898 455.662 241.778C455.222 242.643 454.628 243.281 453.88 243.692C453.132 244.103 452.289 244.308 451.35 244.308C450.426 244.308 449.583 244.103 448.82 243.692C448.072 243.281 447.471 242.643 447.016 241.778C446.576 240.898 446.356 239.754 446.356 238.346C446.356 236.938 446.576 235.794 447.016 234.914C447.471 234.034 448.072 233.389 448.82 232.978C449.583 232.567 450.426 232.362 451.35 232.362ZM451.35 232.802C450.514 232.802 449.825 233.235 449.282 234.1C448.754 234.965 448.49 236.381 448.49 238.346C448.49 240.311 448.754 241.727 449.282 242.592C449.825 243.443 450.514 243.868 451.35 243.868C452.186 243.868 452.868 243.443 453.396 242.592C453.939 241.727 454.21 240.311 454.21 238.346C454.21 236.381 453.939 234.965 453.396 234.1C452.868 233.235 452.186 232.802 451.35 232.802ZM468.05 232.67V233.11C467.771 233.139 467.514 233.264 467.28 233.484C467.045 233.704 466.825 234.093 466.62 234.65L463.012 244.11H462.638L458.59 234.364C458.311 233.792 458.032 233.447 457.754 233.33C457.49 233.198 457.27 233.132 457.094 233.132V232.67C457.416 232.714 457.754 232.751 458.106 232.78C458.458 232.795 458.839 232.802 459.25 232.802C459.704 232.802 460.181 232.787 460.68 232.758C461.193 232.729 461.67 232.699 462.11 232.67V233.132C461.743 233.132 461.413 233.161 461.12 233.22C460.841 233.264 460.665 233.418 460.592 233.682C460.518 233.931 460.606 234.364 460.856 234.98L463.562 241.69L463.43 241.734L465.938 235.178C466.128 234.694 466.202 234.313 466.158 234.034C466.128 233.741 465.982 233.521 465.718 233.374C465.454 233.227 465.058 233.139 464.53 233.11V232.67C464.794 232.685 465.021 232.699 465.212 232.714C465.402 232.714 465.586 232.721 465.762 232.736C465.952 232.736 466.158 232.736 466.378 232.736C466.715 232.736 467.016 232.729 467.28 232.714C467.558 232.699 467.815 232.685 468.05 232.67ZM463.012 244.11L462.264 246.024C462.117 246.391 461.963 246.699 461.802 246.948C461.655 247.197 461.494 247.403 461.318 247.564C461.083 247.784 460.804 247.931 460.482 248.004C460.159 248.092 459.866 248.136 459.602 248.136C459.323 248.136 459.066 248.085 458.832 247.982C458.612 247.879 458.436 247.725 458.304 247.52C458.172 247.329 458.106 247.095 458.106 246.816C458.106 246.464 458.208 246.178 458.414 245.958C458.619 245.753 458.905 245.65 459.272 245.65C459.58 245.65 459.844 245.738 460.064 245.914C460.284 246.09 460.394 246.347 460.394 246.684C460.394 246.933 460.335 247.139 460.218 247.3C460.1 247.461 459.961 247.586 459.8 247.674C459.829 247.689 459.851 247.696 459.866 247.696C459.895 247.696 459.917 247.696 459.932 247.696C460.328 247.696 460.68 247.557 460.988 247.278C461.296 247.014 461.567 246.581 461.802 245.98L462.594 243.934L463.012 244.11ZM474.058 232.362C475.349 232.362 476.354 232.758 477.072 233.55C477.806 234.327 478.172 235.545 478.172 237.202H470.406L470.384 236.784H476.06C476.09 236.065 476.031 235.405 475.884 234.804C475.738 234.188 475.503 233.697 475.18 233.33C474.872 232.963 474.469 232.78 473.97 232.78C473.296 232.78 472.694 233.117 472.166 233.792C471.653 234.467 471.345 235.537 471.242 237.004L471.308 237.092C471.279 237.312 471.257 237.554 471.242 237.818C471.228 238.082 471.22 238.346 471.22 238.61C471.22 239.607 471.382 240.465 471.704 241.184C472.027 241.903 472.445 242.453 472.958 242.834C473.486 243.201 474.029 243.384 474.586 243.384C475.026 243.384 475.444 243.318 475.84 243.186C476.236 243.039 476.603 242.805 476.94 242.482C477.278 242.159 477.571 241.727 477.82 241.184L478.26 241.36C478.099 241.844 477.835 242.313 477.468 242.768C477.102 243.223 476.64 243.597 476.082 243.89C475.525 244.169 474.88 244.308 474.146 244.308C473.09 244.308 472.181 244.066 471.418 243.582C470.67 243.098 470.091 242.431 469.68 241.58C469.284 240.715 469.086 239.725 469.086 238.61C469.086 237.319 469.292 236.212 469.702 235.288C470.113 234.349 470.692 233.631 471.44 233.132C472.188 232.619 473.061 232.362 474.058 232.362ZM489.851 226.752V241.602C489.851 242.262 489.968 242.753 490.203 243.076C490.452 243.384 490.892 243.538 491.523 243.538V244C491.068 243.956 490.614 243.934 490.159 243.934C489.734 243.934 489.323 243.956 488.927 244C488.546 244.044 488.194 244.125 487.871 244.242V229.392C487.871 228.732 487.754 228.248 487.519 227.94C487.284 227.617 486.844 227.456 486.199 227.456V226.994C486.668 227.038 487.123 227.06 487.563 227.06C487.988 227.06 488.392 227.038 488.773 226.994C489.169 226.935 489.528 226.855 489.851 226.752ZM485.231 232.362C485.876 232.362 486.478 232.516 487.035 232.824C487.607 233.132 487.988 233.66 488.179 234.408L487.893 234.628C487.688 234.012 487.365 233.565 486.925 233.286C486.5 233.007 485.994 232.868 485.407 232.868C484.542 232.868 483.816 233.315 483.229 234.21C482.657 235.105 482.378 236.483 482.393 238.346C482.393 239.534 482.503 240.524 482.723 241.316C482.958 242.093 483.295 242.68 483.735 243.076C484.19 243.457 484.74 243.648 485.385 243.648C486.001 243.648 486.558 243.384 487.057 242.856C487.556 242.328 487.856 241.551 487.959 240.524L488.223 240.832C488.106 241.947 487.746 242.805 487.145 243.406C486.558 244.007 485.759 244.308 484.747 244.308C483.838 244.308 483.038 244.088 482.349 243.648C481.674 243.208 481.154 242.548 480.787 241.668C480.435 240.788 480.259 239.681 480.259 238.346C480.259 237.011 480.486 235.904 480.941 235.024C481.41 234.129 482.019 233.462 482.767 233.022C483.53 232.582 484.351 232.362 485.231 232.362Z" fill="#1D191A"/>
<path d="M376.162 262.116C377.555 262.116 378.773 262.431 379.814 263.062C380.87 263.693 381.684 264.602 382.256 265.79C382.843 266.963 383.136 268.393 383.136 270.08C383.136 271.723 382.835 273.16 382.234 274.392C381.647 275.624 380.826 276.585 379.77 277.274C378.714 277.963 377.504 278.308 376.14 278.308C374.747 278.308 373.522 277.993 372.466 277.362C371.425 276.731 370.611 275.822 370.024 274.634C369.452 273.446 369.166 272.016 369.166 270.344C369.166 268.701 369.467 267.264 370.068 266.032C370.669 264.8 371.491 263.839 372.532 263.15C373.588 262.461 374.798 262.116 376.162 262.116ZM376.074 262.512C375.121 262.512 374.292 262.842 373.588 263.502C372.884 264.162 372.334 265.071 371.938 266.23C371.557 267.389 371.366 268.731 371.366 270.256C371.366 271.811 371.579 273.167 372.004 274.326C372.444 275.47 373.031 276.357 373.764 276.988C374.512 277.604 375.333 277.912 376.228 277.912C377.181 277.912 378.01 277.582 378.714 276.922C379.418 276.262 379.961 275.353 380.342 274.194C380.738 273.021 380.936 271.679 380.936 270.168C380.936 268.599 380.716 267.242 380.276 266.098C379.851 264.954 379.271 264.074 378.538 263.458C377.805 262.827 376.983 262.512 376.074 262.512ZM388.487 263.018V266.692H391.743V267.132H388.487V275.646C388.487 276.335 388.611 276.819 388.861 277.098C389.11 277.377 389.455 277.516 389.895 277.516C390.335 277.516 390.716 277.34 391.039 276.988C391.361 276.621 391.64 276.013 391.875 275.162L392.315 275.272C392.168 276.123 391.875 276.841 391.435 277.428C391.009 278.015 390.349 278.308 389.455 278.308C388.956 278.308 388.545 278.242 388.223 278.11C387.9 277.993 387.614 277.817 387.365 277.582C387.042 277.245 386.815 276.841 386.683 276.372C386.565 275.903 386.507 275.279 386.507 274.502V267.132H384.395V266.692H386.507V263.326C386.873 263.311 387.225 263.282 387.563 263.238C387.9 263.194 388.208 263.121 388.487 263.018ZM396.176 260.774V269.002C396.557 268.005 397.085 267.315 397.76 266.934C398.449 266.553 399.168 266.362 399.916 266.362C400.473 266.362 400.935 266.435 401.302 266.582C401.683 266.729 401.999 266.934 402.248 267.198C402.527 267.491 402.725 267.858 402.842 268.298C402.959 268.738 403.018 269.332 403.018 270.08V275.954C403.018 276.57 403.143 276.988 403.392 277.208C403.656 277.428 404.089 277.538 404.69 277.538V278C404.441 277.985 404.059 277.971 403.546 277.956C403.033 277.927 402.534 277.912 402.05 277.912C401.566 277.912 401.089 277.927 400.62 277.956C400.165 277.971 399.821 277.985 399.586 278V277.538C400.114 277.538 400.488 277.428 400.708 277.208C400.928 276.988 401.038 276.57 401.038 275.954V269.596C401.038 269.141 401.001 268.723 400.928 268.342C400.855 267.961 400.686 267.653 400.422 267.418C400.173 267.183 399.784 267.066 399.256 267.066C398.655 267.066 398.119 267.235 397.65 267.572C397.195 267.909 396.836 268.379 396.572 268.98C396.308 269.581 396.176 270.271 396.176 271.048V275.954C396.176 276.57 396.286 276.988 396.506 277.208C396.726 277.428 397.1 277.538 397.628 277.538V278C397.393 277.985 397.041 277.971 396.572 277.956C396.117 277.927 395.648 277.912 395.164 277.912C394.68 277.912 394.181 277.927 393.668 277.956C393.155 277.971 392.773 277.985 392.524 278V277.538C393.125 277.538 393.551 277.428 393.8 277.208C394.064 276.988 394.196 276.57 394.196 275.954V263.414C394.196 262.754 394.079 262.27 393.844 261.962C393.609 261.639 393.169 261.478 392.524 261.478V261.016C392.993 261.06 393.448 261.082 393.888 261.082C394.313 261.082 394.717 261.06 395.098 261.016C395.494 260.957 395.853 260.877 396.176 260.774ZM411.002 266.362C412.292 266.362 413.297 266.758 414.016 267.55C414.749 268.327 415.116 269.545 415.116 271.202H407.35L407.328 270.784H413.004C413.033 270.065 412.974 269.405 412.828 268.804C412.681 268.188 412.446 267.697 412.124 267.33C411.816 266.963 411.412 266.78 410.914 266.78C410.239 266.78 409.638 267.117 409.11 267.792C408.596 268.467 408.288 269.537 408.186 271.004L408.252 271.092C408.222 271.312 408.2 271.554 408.186 271.818C408.171 272.082 408.164 272.346 408.164 272.61C408.164 273.607 408.325 274.465 408.648 275.184C408.97 275.903 409.388 276.453 409.902 276.834C410.43 277.201 410.972 277.384 411.53 277.384C411.97 277.384 412.388 277.318 412.784 277.186C413.18 277.039 413.546 276.805 413.884 276.482C414.221 276.159 414.514 275.727 414.764 275.184L415.204 275.36C415.042 275.844 414.778 276.313 414.412 276.768C414.045 277.223 413.583 277.597 413.026 277.89C412.468 278.169 411.823 278.308 411.09 278.308C410.034 278.308 409.124 278.066 408.362 277.582C407.614 277.098 407.034 276.431 406.624 275.58C406.228 274.715 406.03 273.725 406.03 272.61C406.03 271.319 406.235 270.212 406.646 269.288C407.056 268.349 407.636 267.631 408.384 267.132C409.132 266.619 410.004 266.362 411.002 266.362ZM423.626 266.362C424.022 266.362 424.367 266.443 424.66 266.604C424.968 266.765 425.203 266.978 425.364 267.242C425.54 267.491 425.628 267.777 425.628 268.1C425.628 268.467 425.511 268.789 425.276 269.068C425.056 269.347 424.756 269.486 424.374 269.486C424.066 269.486 423.795 269.391 423.56 269.2C423.326 268.995 423.208 268.709 423.208 268.342C423.208 268.063 423.282 267.829 423.428 267.638C423.59 267.433 423.766 267.271 423.956 267.154C423.854 267.007 423.7 266.934 423.494 266.934C423.04 266.934 422.622 267.073 422.24 267.352C421.859 267.616 421.536 267.961 421.272 268.386C421.008 268.811 420.803 269.266 420.656 269.75C420.51 270.219 420.436 270.659 420.436 271.07V275.734C420.436 276.453 420.642 276.937 421.052 277.186C421.478 277.421 422.05 277.538 422.768 277.538V278C422.431 277.985 421.954 277.971 421.338 277.956C420.722 277.927 420.07 277.912 419.38 277.912C418.882 277.912 418.383 277.927 417.884 277.956C417.4 277.971 417.034 277.985 416.784 278V277.538C417.386 277.538 417.811 277.428 418.06 277.208C418.324 276.988 418.456 276.57 418.456 275.954V269.068C418.456 268.408 418.339 267.924 418.104 267.616C417.87 267.293 417.43 267.132 416.784 267.132V266.67C417.254 266.714 417.708 266.736 418.148 266.736C418.574 266.736 418.977 266.714 419.358 266.67C419.754 266.611 420.114 266.531 420.436 266.428V269.178C420.598 268.753 420.825 268.327 421.118 267.902C421.426 267.462 421.793 267.095 422.218 266.802C422.644 266.509 423.113 266.362 423.626 266.362ZM430.519 266.362C431.106 266.362 431.605 266.457 432.015 266.648C432.426 266.839 432.727 267.015 432.917 267.176C433.401 267.572 433.695 267.308 433.797 266.384H434.303C434.274 266.795 434.252 267.286 434.237 267.858C434.223 268.415 434.215 269.171 434.215 270.124H433.709C433.621 269.581 433.467 269.053 433.247 268.54C433.042 268.027 432.734 267.609 432.323 267.286C431.913 266.949 431.377 266.78 430.717 266.78C430.204 266.78 429.771 266.927 429.419 267.22C429.082 267.499 428.913 267.917 428.913 268.474C428.913 268.914 429.045 269.295 429.309 269.618C429.573 269.926 429.918 270.219 430.343 270.498C430.769 270.762 431.231 271.055 431.729 271.378C432.287 271.73 432.793 272.089 433.247 272.456C433.702 272.823 434.061 273.226 434.325 273.666C434.604 274.106 434.743 274.627 434.743 275.228C434.743 275.903 434.567 276.467 434.215 276.922C433.863 277.377 433.401 277.721 432.829 277.956C432.272 278.191 431.656 278.308 430.981 278.308C430.659 278.308 430.351 278.279 430.057 278.22C429.779 278.176 429.507 278.103 429.243 278C429.097 277.927 428.943 277.839 428.781 277.736C428.635 277.633 428.488 277.523 428.341 277.406C428.195 277.289 428.063 277.296 427.945 277.428C427.828 277.545 427.74 277.787 427.681 278.154H427.175C427.205 277.685 427.227 277.113 427.241 276.438C427.256 275.763 427.263 274.869 427.263 273.754H427.769C427.872 274.575 428.019 275.294 428.209 275.91C428.4 276.526 428.701 277.01 429.111 277.362C429.522 277.699 430.094 277.868 430.827 277.868C431.121 277.868 431.414 277.802 431.707 277.67C432.015 277.538 432.272 277.318 432.477 277.01C432.683 276.702 432.785 276.291 432.785 275.778C432.785 275.133 432.551 274.605 432.081 274.194C431.612 273.783 431.018 273.351 430.299 272.896C429.771 272.559 429.273 272.221 428.803 271.884C428.349 271.547 427.975 271.165 427.681 270.74C427.403 270.315 427.263 269.801 427.263 269.2C427.263 268.54 427.41 268.005 427.703 267.594C428.011 267.169 428.415 266.861 428.913 266.67C429.412 266.465 429.947 266.362 430.519 266.362Z" fill="#1D191A"/>
<path d="M300 213C300 295.843 232.843 363 150 363C67.1573 363 0 295.843 0 213C0 130.157 67.1573 63 150 63C232.843 63 300 130.157 300 213ZM56.0571 213C56.0571 264.883 98.1168 306.943 150 306.943C201.883 306.943 243.943 264.883 243.943 213C243.943 161.117 201.883 119.057 150 119.057C98.1168 119.057 56.0571 161.117 56.0571 213Z" fill="#FF7070"/>
<path d="M300 213C300 189.649 294.548 166.62 284.079 145.748C273.61 124.875 258.412 106.735 239.695 92.7721C220.979 78.8089 199.261 69.4082 176.271 65.3185C153.281 61.2288 129.654 62.563 107.27 69.2149L123.239 122.949C137.257 118.783 152.055 117.948 166.453 120.509C180.852 123.071 194.453 128.958 206.175 137.703C217.897 146.448 227.415 157.809 233.972 170.881C240.529 183.953 243.943 198.376 243.943 213H300Z" fill="#183A1D"/>
<path d="M121.646 65.7042C90.1269 71.7716 61.3854 87.7893 39.6454 111.403C17.9054 135.018 4.3134 164.983 0.867115 196.895L56.6002 202.913C58.7586 182.927 67.271 164.161 80.8865 149.372C94.502 134.582 112.502 124.551 132.242 120.751L121.646 65.7042Z" fill="#896AEA"/>
<path d="M4.82334 175.268C-4.33707 210.512 -0.363121 247.886 16.0038 280.417C32.3708 312.947 60.013 338.413 93.7738 352.063L114.786 300.093C93.6424 291.544 76.3305 275.596 66.0801 255.222C55.8297 234.849 53.3409 211.442 59.0779 189.369L4.82334 175.268Z" fill="#F5DC70"/>
<path d="M48.786 115.406V124.778C48.786 125.467 48.9327 125.937 49.226 126.186C49.5193 126.421 50.018 126.538 50.722 126.538V127C50.4287 126.985 49.996 126.971 49.424 126.956C48.8667 126.927 48.2873 126.912 47.686 126.912C46.982 126.912 46.3073 126.927 45.662 126.956C45.0167 126.971 44.518 126.985 44.166 127V126.538C44.87 126.538 45.42 126.421 45.816 126.186C46.212 125.937 46.41 125.453 46.41 124.734V119.388C46.41 118.684 46.3367 118.163 46.19 117.826C46.058 117.489 45.8087 117.269 45.442 117.166C45.09 117.063 44.606 117.012 43.99 117.012V116.528C45.1047 116.499 46.036 116.403 46.784 116.242C47.532 116.081 48.1993 115.802 48.786 115.406ZM58.6927 114.636C58.6927 115.516 58.7 116.205 58.7147 116.704C58.7294 117.188 58.7514 117.628 58.7807 118.024C58.6634 117.995 58.436 117.973 58.0987 117.958C57.776 117.943 57.402 117.936 56.9767 117.936C56.5514 117.921 56.1334 117.914 55.7227 117.914H53.0387L52.7527 121.984C53.0754 121.793 53.4567 121.625 53.8967 121.478C54.3514 121.331 54.9087 121.258 55.5687 121.258C56.4927 121.258 57.248 121.412 57.8347 121.72C58.436 122.013 58.876 122.417 59.1547 122.93C59.448 123.443 59.5947 124.023 59.5947 124.668C59.5947 125.519 59.3674 126.289 58.9127 126.978C58.458 127.667 57.8494 128.254 57.0867 128.738C56.3387 129.222 55.51 129.596 54.6007 129.86C53.6914 130.124 52.7747 130.256 51.8507 130.256V129.86C52.5107 129.86 53.1487 129.75 53.7647 129.53C54.3954 129.325 54.96 129.009 55.4587 128.584C55.9574 128.159 56.3534 127.638 56.6467 127.022C56.9547 126.406 57.1087 125.687 57.1087 124.866C57.1087 123.942 56.874 123.223 56.4047 122.71C55.95 122.197 55.29 121.94 54.4247 121.94C54.0287 121.94 53.6914 121.984 53.4127 122.072C53.1487 122.145 52.8627 122.255 52.5547 122.402L52.3127 122.248L52.8187 115.582C52.98 115.611 53.1634 115.633 53.3687 115.648C53.5887 115.663 53.8014 115.67 54.0067 115.67H56.8667C57.4094 115.67 57.7614 115.597 57.9227 115.45C58.0987 115.289 58.2087 115.017 58.2527 114.636H58.6927ZM64.5598 110.258C65.5718 110.258 66.3858 110.573 67.0018 111.204C67.6178 111.835 67.9258 112.715 67.9258 113.844C67.9258 114.577 67.7792 115.223 67.4858 115.78C67.1925 116.337 66.7892 116.77 66.2758 117.078C65.7772 117.386 65.2052 117.54 64.5598 117.54C63.5478 117.54 62.7265 117.225 62.0958 116.594C61.4798 115.963 61.1718 115.083 61.1718 113.954C61.1718 113.221 61.3185 112.575 61.6118 112.018C61.9198 111.461 62.3232 111.028 62.8218 110.72C63.3352 110.412 63.9145 110.258 64.5598 110.258ZM72.4358 120.422C71.8932 120.422 71.4898 120.701 71.2258 121.258C70.9618 121.815 70.8298 122.629 70.8298 123.7C70.8298 124.771 70.9838 125.577 71.2918 126.12C71.5998 126.648 72.0105 126.912 72.5238 126.912C73.0665 126.912 73.4625 126.633 73.7118 126.076C73.9758 125.519 74.1078 124.712 74.1078 123.656C74.1078 122.571 73.9612 121.764 73.6678 121.236C73.3745 120.693 72.9638 120.422 72.4358 120.422ZM72.4798 120.026C73.4918 120.026 74.3058 120.341 74.9218 120.972C75.5378 121.603 75.8458 122.483 75.8458 123.612C75.8458 124.345 75.6992 124.991 75.4058 125.548C75.1125 126.105 74.7092 126.538 74.1958 126.846C73.6972 127.154 73.1252 127.308 72.4798 127.308C71.4678 127.308 70.6465 126.993 70.0158 126.362C69.3998 125.731 69.0918 124.851 69.0918 123.722C69.0918 122.989 69.2385 122.343 69.5318 121.786C69.8398 121.229 70.2432 120.796 70.7418 120.488C71.2552 120.18 71.8345 120.026 72.4798 120.026ZM64.5158 110.654C63.9732 110.654 63.5698 110.933 63.3058 111.49C63.0418 112.047 62.9098 112.861 62.9098 113.932C62.9098 115.003 63.0638 115.809 63.3718 116.352C63.6798 116.88 64.0905 117.144 64.6038 117.144C65.1465 117.144 65.5425 116.865 65.7918 116.308C66.0558 115.751 66.1878 114.944 66.1878 113.888C66.1878 112.803 66.0412 111.996 65.7478 111.468C65.4545 110.925 65.0438 110.654 64.5158 110.654ZM74.8778 108.872L75.2958 109.158L62.4258 128.21L62.0078 127.924L74.8778 108.872Z" fill="white"/>
<path d="M222.626 122.84C223.286 122.84 223.865 122.943 224.364 123.148C224.877 123.339 225.273 123.625 225.552 124.006C225.845 124.373 225.992 124.827 225.992 125.37C225.992 125.927 225.823 126.448 225.486 126.932C225.163 127.416 224.723 127.834 224.166 128.186C223.623 128.523 223.007 128.795 222.318 129C223.11 128.985 223.843 129.103 224.518 129.352C225.193 129.601 225.735 129.975 226.146 130.474C226.571 130.958 226.784 131.581 226.784 132.344C226.784 133.019 226.615 133.642 226.278 134.214C225.955 134.771 225.508 135.27 224.936 135.71C224.364 136.165 223.704 136.546 222.956 136.854C222.223 137.177 221.453 137.419 220.646 137.58C219.839 137.741 219.04 137.822 218.248 137.822V137.404C218.981 137.389 219.707 137.265 220.426 137.03C221.145 136.81 221.79 136.487 222.362 136.062C222.949 135.651 223.418 135.131 223.77 134.5C224.122 133.869 224.298 133.151 224.298 132.344C224.298 131.479 224.093 130.767 223.682 130.21C223.271 129.638 222.707 129.323 221.988 129.264C221.768 129.367 221.57 129.455 221.394 129.528C221.218 129.587 221.057 129.616 220.91 129.616C220.793 129.616 220.697 129.594 220.624 129.55C220.565 129.491 220.536 129.411 220.536 129.308C220.536 129.161 220.602 129.051 220.734 128.978C220.866 128.905 221.005 128.868 221.152 128.868C221.269 128.868 221.387 128.883 221.504 128.912C221.636 128.927 221.775 128.941 221.922 128.956C222.538 128.516 222.971 128.032 223.22 127.504C223.484 126.961 223.616 126.419 223.616 125.876C223.616 125.187 223.44 124.688 223.088 124.38C222.751 124.057 222.289 123.896 221.702 123.896C221.101 123.896 220.551 124.057 220.052 124.38C219.553 124.688 219.135 125.157 218.798 125.788L218.402 125.59C218.637 125.106 218.937 124.659 219.304 124.248C219.671 123.823 220.125 123.485 220.668 123.236C221.211 122.972 221.863 122.84 222.626 122.84ZM232.81 122.84C233.47 122.84 234.049 122.943 234.548 123.148C235.061 123.339 235.457 123.625 235.736 124.006C236.029 124.373 236.176 124.827 236.176 125.37C236.176 125.927 236.007 126.448 235.67 126.932C235.347 127.416 234.907 127.834 234.35 128.186C233.807 128.523 233.191 128.795 232.502 129C233.294 128.985 234.027 129.103 234.702 129.352C235.376 129.601 235.919 129.975 236.33 130.474C236.755 130.958 236.968 131.581 236.968 132.344C236.968 133.019 236.799 133.642 236.462 134.214C236.139 134.771 235.692 135.27 235.12 135.71C234.548 136.165 233.888 136.546 233.14 136.854C232.406 137.177 231.636 137.419 230.83 137.58C230.023 137.741 229.224 137.822 228.432 137.822V137.404C229.165 137.389 229.891 137.265 230.61 137.03C231.328 136.81 231.974 136.487 232.546 136.062C233.132 135.651 233.602 135.131 233.954 134.5C234.306 133.869 234.482 133.151 234.482 132.344C234.482 131.479 234.276 130.767 233.866 130.21C233.455 129.638 232.89 129.323 232.172 129.264C231.952 129.367 231.754 129.455 231.578 129.528C231.402 129.587 231.24 129.616 231.094 129.616C230.976 129.616 230.881 129.594 230.808 129.55C230.749 129.491 230.72 129.411 230.72 129.308C230.72 129.161 230.786 129.051 230.918 128.978C231.05 128.905 231.189 128.868 231.336 128.868C231.453 128.868 231.57 128.883 231.688 128.912C231.82 128.927 231.959 128.941 232.106 128.956C232.722 128.516 233.154 128.032 233.404 127.504C233.668 126.961 233.8 126.419 233.8 125.876C233.8 125.187 233.624 124.688 233.272 124.38C232.934 124.057 232.472 123.896 231.886 123.896C231.284 123.896 230.734 124.057 230.236 124.38C229.737 124.688 229.319 125.157 228.982 125.788L228.586 125.59C228.82 125.106 229.121 124.659 229.488 124.248C229.854 123.823 230.309 123.485 230.852 123.236C231.394 122.972 232.047 122.84 232.81 122.84ZM242.003 117.758C243.015 117.758 243.829 118.073 244.445 118.704C245.061 119.335 245.369 120.215 245.369 121.344C245.369 122.077 245.223 122.723 244.929 123.28C244.636 123.837 244.233 124.27 243.719 124.578C243.221 124.886 242.649 125.04 242.003 125.04C240.991 125.04 240.17 124.725 239.539 124.094C238.923 123.463 238.615 122.583 238.615 121.454C238.615 120.721 238.762 120.075 239.055 119.518C239.363 118.961 239.767 118.528 240.265 118.22C240.779 117.912 241.358 117.758 242.003 117.758ZM249.879 127.922C249.337 127.922 248.933 128.201 248.669 128.758C248.405 129.315 248.273 130.129 248.273 131.2C248.273 132.271 248.427 133.077 248.735 133.62C249.043 134.148 249.454 134.412 249.967 134.412C250.51 134.412 250.906 134.133 251.155 133.576C251.419 133.019 251.551 132.212 251.551 131.156C251.551 130.071 251.405 129.264 251.111 128.736C250.818 128.193 250.407 127.922 249.879 127.922ZM249.923 127.526C250.935 127.526 251.749 127.841 252.365 128.472C252.981 129.103 253.289 129.983 253.289 131.112C253.289 131.845 253.143 132.491 252.849 133.048C252.556 133.605 252.153 134.038 251.639 134.346C251.141 134.654 250.569 134.808 249.923 134.808C248.911 134.808 248.09 134.493 247.459 133.862C246.843 133.231 246.535 132.351 246.535 131.222C246.535 130.489 246.682 129.843 246.975 129.286C247.283 128.729 247.687 128.296 248.185 127.988C248.699 127.68 249.278 127.526 249.923 127.526ZM241.959 118.154C241.417 118.154 241.013 118.433 240.749 118.99C240.485 119.547 240.353 120.361 240.353 121.432C240.353 122.503 240.507 123.309 240.815 123.852C241.123 124.38 241.534 124.644 242.047 124.644C242.59 124.644 242.986 124.365 243.235 123.808C243.499 123.251 243.631 122.444 243.631 121.388C243.631 120.303 243.485 119.496 243.191 118.968C242.898 118.425 242.487 118.154 241.959 118.154ZM252.321 116.372L252.739 116.658L239.869 135.71L239.451 135.424L252.321 116.372Z" fill="white"/>
<path d="M173.985 319.769C174.645 319.769 175.225 319.871 175.723 320.077C176.237 320.267 176.633 320.553 176.911 320.935C177.205 321.301 177.351 321.756 177.351 322.299C177.351 322.856 177.183 323.377 176.845 323.861C176.523 324.345 176.083 324.763 175.525 325.115C174.983 325.452 174.367 325.723 173.677 325.929C174.469 325.914 175.203 326.031 175.877 326.281C176.552 326.53 177.095 326.904 177.505 327.403C177.931 327.887 178.143 328.51 178.143 329.273C178.143 329.947 177.975 330.571 177.637 331.143C177.315 331.7 176.867 332.199 176.295 332.639C175.723 333.093 175.063 333.475 174.315 333.783C173.582 334.105 172.812 334.347 172.005 334.509C171.199 334.67 170.399 334.751 169.607 334.751V334.333C170.341 334.318 171.067 334.193 171.785 333.959C172.504 333.739 173.149 333.416 173.721 332.991C174.308 332.58 174.777 332.059 175.129 331.429C175.481 330.798 175.657 330.079 175.657 329.273C175.657 328.407 175.452 327.696 175.041 327.139C174.631 326.567 174.066 326.251 173.347 326.193C173.127 326.295 172.929 326.383 172.753 326.457C172.577 326.515 172.416 326.545 172.269 326.545C172.152 326.545 172.057 326.523 171.983 326.479C171.925 326.42 171.895 326.339 171.895 326.237C171.895 326.09 171.961 325.98 172.093 325.907C172.225 325.833 172.365 325.797 172.511 325.797C172.629 325.797 172.746 325.811 172.863 325.841C172.995 325.855 173.135 325.87 173.281 325.885C173.897 325.445 174.33 324.961 174.579 324.433C174.843 323.89 174.975 323.347 174.975 322.805C174.975 322.115 174.799 321.617 174.447 321.309C174.11 320.986 173.648 320.825 173.061 320.825C172.46 320.825 171.91 320.986 171.411 321.309C170.913 321.617 170.495 322.086 170.157 322.717L169.761 322.519C169.996 322.035 170.297 321.587 170.663 321.177C171.03 320.751 171.485 320.414 172.027 320.165C172.57 319.901 173.223 319.769 173.985 319.769ZM186.765 319.065C186.765 319.945 186.772 320.634 186.787 321.133C186.802 321.617 186.824 322.057 186.853 322.453C186.736 322.423 186.508 322.401 186.171 322.387C185.848 322.372 185.474 322.365 185.049 322.365C184.624 322.35 184.206 322.343 183.795 322.343H181.111L180.825 326.413C181.148 326.222 181.529 326.053 181.969 325.907C182.424 325.76 182.981 325.687 183.641 325.687C184.565 325.687 185.32 325.841 185.907 326.149C186.508 326.442 186.948 326.845 187.227 327.359C187.52 327.872 187.667 328.451 187.667 329.097C187.667 329.947 187.44 330.717 186.985 331.407C186.53 332.096 185.922 332.683 185.159 333.167C184.411 333.651 183.582 334.025 182.673 334.289C181.764 334.553 180.847 334.685 179.923 334.685V334.289C180.583 334.289 181.221 334.179 181.837 333.959C182.468 333.753 183.032 333.438 183.531 333.013C184.03 332.587 184.426 332.067 184.719 331.451C185.027 330.835 185.181 330.116 185.181 329.295C185.181 328.371 184.946 327.652 184.477 327.139C184.022 326.625 183.362 326.369 182.497 326.369C182.101 326.369 181.764 326.413 181.485 326.501C181.221 326.574 180.935 326.684 180.627 326.831L180.385 326.677L180.891 320.011C181.052 320.04 181.236 320.062 181.441 320.077C181.661 320.091 181.874 320.099 182.079 320.099H184.939C185.482 320.099 185.834 320.025 185.995 319.879C186.171 319.717 186.281 319.446 186.325 319.065H186.765ZM192.632 314.687C193.644 314.687 194.458 315.002 195.074 315.633C195.69 316.263 195.998 317.143 195.998 318.273C195.998 319.006 195.851 319.651 195.558 320.209C195.265 320.766 194.861 321.199 194.348 321.507C193.849 321.815 193.277 321.969 192.632 321.969C191.62 321.969 190.799 321.653 190.168 321.023C189.552 320.392 189.244 319.512 189.244 318.383C189.244 317.649 189.391 317.004 189.684 316.447C189.992 315.889 190.395 315.457 190.894 315.149C191.407 314.841 191.987 314.687 192.632 314.687ZM200.508 324.851C199.965 324.851 199.562 325.129 199.298 325.687C199.034 326.244 198.902 327.058 198.902 328.129C198.902 329.199 199.056 330.006 199.364 330.549C199.672 331.077 200.083 331.341 200.596 331.341C201.139 331.341 201.535 331.062 201.784 330.505C202.048 329.947 202.18 329.141 202.18 328.085C202.18 326.999 202.033 326.193 201.74 325.665C201.447 325.122 201.036 324.851 200.508 324.851ZM200.552 324.455C201.564 324.455 202.378 324.77 202.994 325.401C203.61 326.031 203.918 326.911 203.918 328.041C203.918 328.774 203.771 329.419 203.478 329.977C203.185 330.534 202.781 330.967 202.268 331.275C201.769 331.583 201.197 331.737 200.552 331.737C199.54 331.737 198.719 331.421 198.088 330.791C197.472 330.16 197.164 329.28 197.164 328.151C197.164 327.417 197.311 326.772 197.604 326.215C197.912 325.657 198.315 325.225 198.814 324.917C199.327 324.609 199.907 324.455 200.552 324.455ZM192.588 315.083C192.045 315.083 191.642 315.361 191.378 315.919C191.114 316.476 190.982 317.29 190.982 318.361C190.982 319.431 191.136 320.238 191.444 320.781C191.752 321.309 192.163 321.573 192.676 321.573C193.219 321.573 193.615 321.294 193.864 320.737C194.128 320.179 194.26 319.373 194.26 318.317C194.26 317.231 194.113 316.425 193.82 315.897C193.527 315.354 193.116 315.083 192.588 315.083ZM202.95 313.301L203.368 313.587L190.498 332.639L190.08 332.353L202.95 313.301Z" fill="white"/>
<path d="M28.588 253.34C29.644 253.34 30.48 253.582 31.096 254.066C31.712 254.55 32.02 255.239 32.02 256.134C32.02 256.706 31.8807 257.249 31.602 257.762C31.3233 258.261 30.9567 258.737 30.502 259.192C30.062 259.647 29.5853 260.087 29.072 260.512C28.5587 260.937 28.06 261.355 27.576 261.766C27.1067 262.162 26.7033 262.573 26.366 262.998H30.942C31.5433 262.998 31.9247 262.917 32.086 262.756C32.2473 262.595 32.3573 262.316 32.416 261.92H32.812C32.812 262.771 32.8193 263.423 32.834 263.878C32.8487 264.333 32.8707 264.743 32.9 265.11C32.768 265.081 32.526 265.059 32.174 265.044C31.822 265.029 31.4187 265.015 30.964 265C30.5093 265 30.062 265 29.622 265H24.056V264.604C24.4813 264.135 25.002 263.629 25.618 263.086C26.234 262.543 26.828 261.949 27.4 261.304C27.9867 260.659 28.4707 259.955 28.852 259.192C29.248 258.415 29.446 257.579 29.446 256.684C29.446 255.863 29.2553 255.269 28.874 254.902C28.5073 254.535 27.9793 254.352 27.29 254.352C26.6887 254.352 26.1387 254.521 25.64 254.858C25.156 255.181 24.7233 255.665 24.342 256.31L23.99 256.09C24.2393 255.621 24.562 255.181 24.958 254.77C25.354 254.345 25.8453 254 26.432 253.736C27.0333 253.472 27.752 253.34 28.588 253.34ZM34.4431 253.56C34.5751 253.589 34.8171 253.611 35.1691 253.626C35.5211 253.641 35.9244 253.655 36.3791 253.67C36.8338 253.67 37.2811 253.67 37.7211 253.67H43.0451V254.132C42.7371 254.851 42.3631 255.606 41.9231 256.398C41.4978 257.175 41.0724 258.011 40.6471 258.906C40.2364 259.801 39.8918 260.769 39.6131 261.81C39.3344 262.851 39.2024 263.988 39.2171 265.22C39.2171 265.411 39.2244 265.609 39.2391 265.814C39.2538 266.034 39.2684 266.239 39.2831 266.43C39.2978 266.635 39.3051 266.819 39.3051 266.98C39.3051 267.332 39.1951 267.633 38.9751 267.882C38.7698 268.131 38.4691 268.256 38.0731 268.256C37.6771 268.256 37.3764 268.109 37.1711 267.816C36.9804 267.537 36.8851 267.193 36.8851 266.782C36.8851 265.858 37.0171 264.956 37.2811 264.076C37.5598 263.196 37.9118 262.338 38.3371 261.502C38.7624 260.651 39.2318 259.83 39.7451 259.038C40.2584 258.246 40.7571 257.476 41.2411 256.728C41.7398 255.98 42.1798 255.247 42.5611 254.528L41.9671 255.804H36.4011C35.7998 255.804 35.4184 255.885 35.2571 256.046C35.0958 256.193 34.9858 256.471 34.9271 256.882H34.5311C34.5311 256.031 34.5238 255.357 34.5091 254.858C34.4944 254.359 34.4724 253.927 34.4431 253.56ZM47.2883 248.258C48.3003 248.258 49.1143 248.573 49.7303 249.204C50.3463 249.835 50.6543 250.715 50.6543 251.844C50.6543 252.577 50.5077 253.223 50.2143 253.78C49.921 254.337 49.5177 254.77 49.0043 255.078C48.5057 255.386 47.9337 255.54 47.2883 255.54C46.2763 255.54 45.455 255.225 44.8243 254.594C44.2083 253.963 43.9003 253.083 43.9003 251.954C43.9003 251.221 44.047 250.575 44.3403 250.018C44.6483 249.461 45.0517 249.028 45.5503 248.72C46.0637 248.412 46.643 248.258 47.2883 248.258ZM55.1643 258.422C54.6217 258.422 54.2183 258.701 53.9543 259.258C53.6903 259.815 53.5583 260.629 53.5583 261.7C53.5583 262.771 53.7123 263.577 54.0203 264.12C54.3283 264.648 54.739 264.912 55.2523 264.912C55.795 264.912 56.191 264.633 56.4403 264.076C56.7043 263.519 56.8363 262.712 56.8363 261.656C56.8363 260.571 56.6897 259.764 56.3963 259.236C56.103 258.693 55.6923 258.422 55.1643 258.422ZM55.2083 258.026C56.2203 258.026 57.0343 258.341 57.6503 258.972C58.2663 259.603 58.5743 260.483 58.5743 261.612C58.5743 262.345 58.4277 262.991 58.1343 263.548C57.841 264.105 57.4377 264.538 56.9243 264.846C56.4257 265.154 55.8537 265.308 55.2083 265.308C54.1963 265.308 53.375 264.993 52.7443 264.362C52.1283 263.731 51.8203 262.851 51.8203 261.722C51.8203 260.989 51.967 260.343 52.2603 259.786C52.5683 259.229 52.9717 258.796 53.4703 258.488C53.9837 258.18 54.563 258.026 55.2083 258.026ZM47.2443 248.654C46.7017 248.654 46.2983 248.933 46.0343 249.49C45.7703 250.047 45.6383 250.861 45.6383 251.932C45.6383 253.003 45.7923 253.809 46.1003 254.352C46.4083 254.88 46.819 255.144 47.3323 255.144C47.875 255.144 48.271 254.865 48.5203 254.308C48.7843 253.751 48.9163 252.944 48.9163 251.888C48.9163 250.803 48.7697 249.996 48.4763 249.468C48.183 248.925 47.7723 248.654 47.2443 248.654ZM57.6063 246.872L58.0243 247.158L45.1543 266.21L44.7363 265.924L57.6063 246.872Z" fill="white"/>
<rect x="330" y="158" width="28" height="15" fill="#183A1D"/>
<rect x="330" y="194" width="28" height="14" fill="#FF7070"/>
<rect x="330" y="229" width="28" height="15" fill="#896AEA"/>
<rect x="330" y="263" width="28" height="15" fill="#F5DC70"/>
</svg>
