<svg width="482" height="363" viewBox="0 0 482 363" fill="none" xmlns="http://www.w3.org/2000/svg">
<path d="M49.396 11.176V11.736C49.0413 11.8107 48.6493 12.0253 48.22 12.38C47.7907 12.716 47.4453 13.3133 47.184 14.172L41.892 31.14C41.8547 31.14 41.8173 31.14 41.78 31.14C41.7427 31.14 41.7053 31.14 41.668 31.14C41.6307 31.14 41.5933 31.14 41.556 31.14C41.5187 31.14 41.4813 31.14 41.444 31.14L35.508 13.528C35.2653 12.8 34.9947 12.324 34.696 12.1C34.3973 11.876 34.1173 11.7547 33.856 11.736V11.176C34.192 11.1947 34.612 11.2133 35.116 11.232C35.62 11.2507 36.1053 11.26 36.572 11.26C37.3 11.26 37.9813 11.2507 38.616 11.232C39.2507 11.2133 39.764 11.1947 40.156 11.176V11.736C39.596 11.7547 39.148 11.8107 38.812 11.904C38.4947 11.9973 38.308 12.2027 38.252 12.52C38.2147 12.8373 38.308 13.36 38.532 14.088L42.704 26.996L42.312 27.332L46.008 15.712C46.344 14.6853 46.4933 13.892 46.456 13.332C46.4373 12.7533 46.232 12.352 45.84 12.128C45.448 11.8853 44.86 11.7547 44.076 11.736V11.176C44.6173 11.1947 45.168 11.2133 45.728 11.232C46.288 11.2507 46.8107 11.26 47.296 11.26C47.7813 11.26 48.1827 11.2507 48.5 11.232C48.8173 11.2133 49.116 11.1947 49.396 11.176ZM29.824 11.176V11.736C29.3387 11.7733 28.984 11.8667 28.76 12.016C28.5547 12.1653 28.452 12.408 28.452 12.744C28.4707 13.0613 28.5733 13.5093 28.76 14.088L33.1 27.332L32.4 28.032L36.32 15.516L36.74 16.188L32.12 31.14C32.0827 31.14 32.0453 31.14 32.008 31.14C31.9707 31.14 31.9333 31.14 31.896 31.14C31.8587 31.14 31.8213 31.14 31.784 31.14C31.7467 31.14 31.7093 31.14 31.672 31.14L25.736 13.528C25.4933 12.8 25.1853 12.324 24.812 12.1C24.4387 11.876 24.1027 11.7547 23.804 11.736V11.176C24.1773 11.1947 24.6347 11.2133 25.176 11.232C25.736 11.2507 26.2773 11.26 26.8 11.26C27.416 11.26 27.9853 11.2507 28.508 11.232C29.0493 11.2133 29.488 11.1947 29.824 11.176ZM54.3643 9.076V19.548C54.8496 18.2787 55.5216 17.4013 56.3803 16.916C57.2576 16.4307 58.1723 16.188 59.1243 16.188C59.8336 16.188 60.4216 16.2813 60.8883 16.468C61.3736 16.6547 61.7749 16.916 62.0923 17.252C62.4469 17.6253 62.6989 18.092 62.8483 18.652C62.9976 19.212 63.0723 19.968 63.0723 20.92V28.396C63.0723 29.18 63.2309 29.712 63.5482 29.992C63.8843 30.272 64.4349 30.412 65.2003 30.412V31C64.8829 30.9813 64.3976 30.9627 63.7443 30.944C63.0909 30.9067 62.4563 30.888 61.8403 30.888C61.2243 30.888 60.6176 30.9067 60.0203 30.944C59.4416 30.9627 59.0029 30.9813 58.7043 31V30.412C59.3763 30.412 59.8523 30.272 60.1323 29.992C60.4123 29.712 60.5523 29.18 60.5523 28.396V20.304C60.5523 19.7253 60.5056 19.1933 60.4123 18.708C60.3189 18.2227 60.1043 17.8307 59.7683 17.532C59.4509 17.2333 58.9563 17.084 58.2843 17.084C57.5189 17.084 56.8376 17.2987 56.2403 17.728C55.6616 18.1573 55.2043 18.7547 54.8683 19.52C54.5323 20.2853 54.3643 21.1627 54.3643 22.152V28.396C54.3643 29.18 54.5043 29.712 54.7843 29.992C55.0643 30.272 55.5403 30.412 56.2123 30.412V31C55.9136 30.9813 55.4656 30.9627 54.8683 30.944C54.2896 30.9067 53.6923 30.888 53.0763 30.888C52.4603 30.888 51.8256 30.9067 51.1723 30.944C50.5189 30.9627 50.0336 30.9813 49.7163 31V30.412C50.4816 30.412 51.0229 30.272 51.3403 29.992C51.6763 29.712 51.8443 29.18 51.8443 28.396V12.436C51.8443 11.596 51.6949 10.98 51.3963 10.588C51.0976 10.1773 50.5376 9.972 49.7163 9.972V9.384C50.3136 9.44 50.8923 9.468 51.4523 9.468C51.9936 9.468 52.5069 9.44 52.9923 9.384C53.4963 9.30933 53.9536 9.20667 54.3643 9.076ZM70.4052 31.196C69.6399 31.196 68.9772 31.056 68.4172 30.776C67.8572 30.4773 67.4279 30.0667 67.1292 29.544C66.8492 29.0213 66.7092 28.4147 66.7092 27.724C66.7092 26.9027 66.8959 26.2307 67.2692 25.708C67.6612 25.1853 68.1559 24.7653 68.7532 24.448C69.3505 24.1307 69.9759 23.8693 70.6292 23.664C71.3012 23.44 71.9359 23.2347 72.5332 23.048C73.1305 22.8427 73.6159 22.6093 73.9892 22.348C74.3812 22.0867 74.5772 21.7413 74.5772 21.312V19.576C74.5772 18.792 74.4559 18.1947 74.2132 17.784C73.9892 17.3733 73.6812 17.1027 73.2892 16.972C72.8972 16.8227 72.4585 16.748 71.9732 16.748C71.5065 16.748 71.0025 16.8133 70.4612 16.944C69.9385 17.0747 69.5185 17.3453 69.2012 17.756C69.5559 17.8307 69.8639 18.0173 70.1252 18.316C70.3865 18.6147 70.5172 18.9973 70.5172 19.464C70.5172 19.9307 70.3679 20.304 70.0692 20.584C69.7705 20.8453 69.3879 20.976 68.9212 20.976C68.3799 20.976 67.9785 20.808 67.7172 20.472C67.4745 20.1173 67.3532 19.7253 67.3532 19.296C67.3532 18.8107 67.4745 18.4187 67.7172 18.12C67.9599 17.8213 68.2679 17.5413 68.6412 17.28C69.0705 16.9813 69.6212 16.7293 70.2932 16.524C70.9839 16.3 71.7585 16.188 72.6172 16.188C73.3825 16.188 74.0359 16.2813 74.5772 16.468C75.1185 16.636 75.5665 16.888 75.9212 17.224C76.4065 17.672 76.7239 18.2227 76.8732 18.876C77.0225 19.5107 77.0972 20.276 77.0972 21.172V28.956C77.0972 29.4227 77.1625 29.7587 77.2932 29.964C77.4425 30.1693 77.6665 30.272 77.9652 30.272C78.1705 30.272 78.3665 30.2253 78.5532 30.132C78.7399 30.0387 78.9639 29.8893 79.2252 29.684L79.5332 30.16C79.1412 30.4587 78.7679 30.7107 78.4132 30.916C78.0585 31.1027 77.5825 31.196 76.9852 31.196C76.4439 31.196 75.9959 31.1027 75.6412 30.916C75.2865 30.7293 75.0159 30.4587 74.8292 30.104C74.6612 29.7307 74.5772 29.264 74.5772 28.704C74.0732 29.544 73.4665 30.1693 72.7572 30.58C72.0665 30.9907 71.2825 31.196 70.4052 31.196ZM71.4132 30.076C72.0292 30.076 72.5985 29.8987 73.1212 29.544C73.6625 29.1893 74.1479 28.6573 74.5772 27.948V22.46C74.3532 22.7773 74.0265 23.048 73.5972 23.272C73.1679 23.4773 72.7012 23.692 72.1972 23.916C71.6932 24.1213 71.2079 24.3733 70.7412 24.672C70.2932 24.952 69.9199 25.3253 69.6212 25.792C69.3225 26.2587 69.1732 26.8653 69.1732 27.612C69.1732 28.3587 69.3692 28.956 69.7612 29.404C70.1719 29.852 70.7225 30.076 71.4132 30.076ZM84.8825 11.932V16.608H89.0265V17.168H84.8825V28.004C84.8825 28.8813 85.0412 29.4973 85.3585 29.852C85.6758 30.2067 86.1145 30.384 86.6745 30.384C87.2345 30.384 87.7198 30.16 88.1305 29.712C88.5412 29.2453 88.8958 28.4707 89.1945 27.388L89.7545 27.528C89.5678 28.6107 89.1945 29.5253 88.6345 30.272C88.0932 31.0187 87.2532 31.392 86.1145 31.392C85.4798 31.392 84.9572 31.308 84.5465 31.14C84.1358 30.9907 83.7718 30.7667 83.4545 30.468C83.0438 30.0387 82.7545 29.5253 82.5865 28.928C82.4372 28.3307 82.3625 27.5373 82.3625 26.548V17.168H79.6745V16.608H82.3625V12.324C82.8292 12.3053 83.2772 12.268 83.7065 12.212C84.1358 12.156 84.5278 12.0627 84.8825 11.932ZM99.9728 9.58C100.458 9.58 100.878 9.75733 101.233 10.112C101.587 10.4667 101.765 10.8867 101.765 11.372C101.765 11.8573 101.587 12.2773 101.233 12.632C100.878 12.9867 100.458 13.164 99.9728 13.164C99.4874 13.164 99.0674 12.9867 98.7128 12.632C98.3581 12.2773 98.1808 11.8573 98.1808 11.372C98.1808 10.8867 98.3581 10.4667 98.7128 10.112C99.0674 9.75733 99.4874 9.58 99.9728 9.58ZM101.429 16.272V28.396C101.429 29.18 101.587 29.712 101.905 29.992C102.241 30.272 102.791 30.412 103.557 30.412V31C103.239 30.9813 102.754 30.9627 102.101 30.944C101.466 30.9067 100.822 30.888 100.169 30.888C99.5341 30.888 98.8901 30.9067 98.2368 30.944C97.5834 30.9627 97.0981 30.9813 96.7808 31V30.412C97.5461 30.412 98.0874 30.272 98.4048 29.992C98.7408 29.712 98.9088 29.18 98.9088 28.396V19.632C98.9088 18.792 98.7594 18.176 98.4608 17.784C98.1621 17.3733 97.6021 17.168 96.7808 17.168V16.58C97.3781 16.636 97.9568 16.664 98.5168 16.664C99.0581 16.664 99.5714 16.636 100.057 16.58C100.561 16.5053 101.018 16.4027 101.429 16.272ZM109.996 16.188C110.743 16.188 111.377 16.3093 111.9 16.552C112.423 16.7947 112.805 17.0187 113.048 17.224C113.664 17.728 114.037 17.392 114.168 16.216H114.812C114.775 16.7387 114.747 17.364 114.728 18.092C114.709 18.8013 114.7 19.7627 114.7 20.976H114.056C113.944 20.2853 113.748 19.6133 113.468 18.96C113.207 18.3067 112.815 17.7747 112.292 17.364C111.769 16.9347 111.088 16.72 110.248 16.72C109.595 16.72 109.044 16.9067 108.596 17.28C108.167 17.6347 107.952 18.1667 107.952 18.876C107.952 19.436 108.12 19.9213 108.456 20.332C108.792 20.724 109.231 21.0973 109.772 21.452C110.313 21.788 110.901 22.1613 111.536 22.572C112.245 23.02 112.889 23.4773 113.468 23.944C114.047 24.4107 114.504 24.924 114.84 25.484C115.195 26.044 115.372 26.7067 115.372 27.472C115.372 28.3307 115.148 29.0493 114.7 29.628C114.252 30.2067 113.664 30.6453 112.936 30.944C112.227 31.2427 111.443 31.392 110.584 31.392C110.173 31.392 109.781 31.3547 109.408 31.28C109.053 31.224 108.708 31.1307 108.372 31C108.185 30.9067 107.989 30.7947 107.784 30.664C107.597 30.5333 107.411 30.3933 107.224 30.244C107.037 30.0947 106.869 30.104 106.72 30.272C106.571 30.4213 106.459 30.7293 106.384 31.196H105.74C105.777 30.5987 105.805 29.8707 105.824 29.012C105.843 28.1533 105.852 27.0147 105.852 25.596H106.496C106.627 26.6413 106.813 27.556 107.056 28.34C107.299 29.124 107.681 29.74 108.204 30.188C108.727 30.6173 109.455 30.832 110.388 30.832C110.761 30.832 111.135 30.748 111.508 30.58C111.9 30.412 112.227 30.132 112.488 29.74C112.749 29.348 112.88 28.8253 112.88 28.172C112.88 27.3507 112.581 26.6787 111.984 26.156C111.387 25.6333 110.631 25.0827 109.716 24.504C109.044 24.0747 108.409 23.6453 107.812 23.216C107.233 22.7867 106.757 22.3013 106.384 21.76C106.029 21.2187 105.852 20.5653 105.852 19.8C105.852 18.96 106.039 18.2787 106.412 17.756C106.804 17.2147 107.317 16.8227 107.952 16.58C108.587 16.3187 109.268 16.188 109.996 16.188ZM136.762 16.58V17.14C136.407 17.1773 136.08 17.336 135.782 17.616C135.483 17.896 135.203 18.3907 134.942 19.1L130.35 31.14H129.874L124.722 18.736C124.367 18.008 124.012 17.5693 123.658 17.42C123.322 17.252 123.042 17.168 122.818 17.168V16.58C123.228 16.636 123.658 16.6827 124.106 16.72C124.554 16.7387 125.039 16.748 125.562 16.748C126.14 16.748 126.747 16.7293 127.382 16.692C128.035 16.6547 128.642 16.6173 129.202 16.58V17.168C128.735 17.168 128.315 17.2053 127.942 17.28C127.587 17.336 127.363 17.532 127.27 17.868C127.176 18.1853 127.288 18.736 127.606 19.52L131.05 28.06L130.882 28.116L134.074 19.772C134.316 19.156 134.41 18.6707 134.354 18.316C134.316 17.9427 134.13 17.6627 133.794 17.476C133.458 17.2893 132.954 17.1773 132.282 17.14V16.58C132.618 16.5987 132.907 16.6173 133.15 16.636C133.392 16.636 133.626 16.6453 133.85 16.664C134.092 16.664 134.354 16.664 134.634 16.664C135.063 16.664 135.446 16.6547 135.782 16.636C136.136 16.6173 136.463 16.5987 136.762 16.58ZM130.35 31.14L129.398 33.576C129.211 34.0427 129.015 34.4347 128.81 34.752C128.623 35.0693 128.418 35.3307 128.194 35.536C127.895 35.816 127.54 36.0027 127.13 36.096C126.719 36.208 126.346 36.264 126.01 36.264C125.655 36.264 125.328 36.1987 125.03 36.068C124.75 35.9373 124.526 35.7413 124.358 35.48C124.19 35.2373 124.106 34.9387 124.106 34.584C124.106 34.136 124.236 33.772 124.498 33.492C124.759 33.2307 125.123 33.1 125.59 33.1C125.982 33.1 126.318 33.212 126.598 33.436C126.878 33.66 127.018 33.9867 127.018 34.416C127.018 34.7333 126.943 34.9947 126.794 35.2C126.644 35.4053 126.467 35.564 126.262 35.676C126.299 35.6947 126.327 35.704 126.346 35.704C126.383 35.704 126.411 35.704 126.43 35.704C126.934 35.704 127.382 35.5267 127.774 35.172C128.166 34.836 128.511 34.2853 128.81 33.52L129.818 30.916L130.35 31.14ZM144.465 16.188C145.66 16.188 146.733 16.4493 147.685 16.972C148.637 17.4947 149.393 18.316 149.953 19.436C150.532 20.556 150.821 22.012 150.821 23.804C150.821 25.596 150.532 27.052 149.953 28.172C149.393 29.2733 148.637 30.0853 147.685 30.608C146.733 31.1307 145.66 31.392 144.465 31.392C143.289 31.392 142.216 31.1307 141.245 30.608C140.293 30.0853 139.528 29.2733 138.949 28.172C138.389 27.052 138.109 25.596 138.109 23.804C138.109 22.012 138.389 20.556 138.949 19.436C139.528 18.316 140.293 17.4947 141.245 16.972C142.216 16.4493 143.289 16.188 144.465 16.188ZM144.465 16.748C143.401 16.748 142.524 17.2987 141.833 18.4C141.161 19.5013 140.825 21.3027 140.825 23.804C140.825 26.3053 141.161 28.1067 141.833 29.208C142.524 30.2907 143.401 30.832 144.465 30.832C145.529 30.832 146.397 30.2907 147.069 29.208C147.76 28.1067 148.105 26.3053 148.105 23.804C148.105 21.3027 147.76 19.5013 147.069 18.4C146.397 17.2987 145.529 16.748 144.465 16.748ZM165.657 16.272V27.976C165.657 28.816 165.806 29.4413 166.105 29.852C166.422 30.244 166.982 30.44 167.785 30.44V31.028C167.206 30.972 166.627 30.944 166.049 30.944C165.507 30.944 164.985 30.972 164.481 31.028C163.995 31.084 163.547 31.1867 163.137 31.336V28.032C162.67 29.2453 162.007 30.1133 161.149 30.636C160.309 31.14 159.441 31.392 158.545 31.392C157.891 31.392 157.322 31.2987 156.837 31.112C156.351 30.9253 155.95 30.664 155.633 30.328C155.278 29.9547 155.035 29.4693 154.905 28.872C154.774 28.2747 154.709 27.5373 154.709 26.66V19.632C154.709 18.792 154.559 18.176 154.261 17.784C153.962 17.3733 153.402 17.168 152.581 17.168V16.58C153.178 16.636 153.757 16.664 154.317 16.664C154.858 16.664 155.371 16.636 155.857 16.58C156.361 16.5053 156.818 16.4027 157.229 16.272V27.276C157.229 27.8547 157.266 28.3867 157.341 28.872C157.415 29.3573 157.602 29.7493 157.901 30.048C158.199 30.3467 158.685 30.496 159.357 30.496C160.085 30.496 160.729 30.272 161.289 29.824C161.867 29.376 162.315 28.7693 162.633 28.004C162.969 27.2387 163.137 26.38 163.137 25.428V19.632C163.137 18.792 162.987 18.176 162.689 17.784C162.39 17.3733 161.83 17.168 161.009 17.168V16.58C161.606 16.636 162.185 16.664 162.745 16.664C163.286 16.664 163.799 16.636 164.285 16.58C164.789 16.5053 165.246 16.4027 165.657 16.272ZM177.922 16.188C178.426 16.188 178.865 16.2907 179.238 16.496C179.63 16.7013 179.929 16.972 180.134 17.308C180.358 17.6253 180.47 17.9893 180.47 18.4C180.47 18.8667 180.321 19.2773 180.022 19.632C179.742 19.9867 179.36 20.164 178.874 20.164C178.482 20.164 178.137 20.0427 177.838 19.8C177.54 19.5387 177.39 19.1747 177.39 18.708C177.39 18.3533 177.484 18.0547 177.67 17.812C177.876 17.5507 178.1 17.3453 178.342 17.196C178.212 17.0093 178.016 16.916 177.754 16.916C177.176 16.916 176.644 17.0933 176.158 17.448C175.673 17.784 175.262 18.2227 174.926 18.764C174.59 19.3053 174.329 19.884 174.142 20.5C173.956 21.0973 173.862 21.6573 173.862 22.18V28.116C173.862 29.0307 174.124 29.6467 174.646 29.964C175.188 30.2627 175.916 30.412 176.83 30.412V31C176.401 30.9813 175.794 30.9627 175.01 30.944C174.226 30.9067 173.396 30.888 172.518 30.888C171.884 30.888 171.249 30.9067 170.614 30.944C169.998 30.9627 169.532 30.9813 169.214 31V30.412C169.98 30.412 170.521 30.272 170.838 29.992C171.174 29.712 171.342 29.18 171.342 28.396V19.632C171.342 18.792 171.193 18.176 170.894 17.784C170.596 17.3733 170.036 17.168 169.214 17.168V16.58C169.812 16.636 170.39 16.664 170.95 16.664C171.492 16.664 172.005 16.636 172.49 16.58C172.994 16.5053 173.452 16.4027 173.862 16.272V19.772C174.068 19.2307 174.357 18.6893 174.73 18.148C175.122 17.588 175.589 17.1213 176.13 16.748C176.672 16.3747 177.269 16.188 177.922 16.188ZM192.03 31.196C191.265 31.196 190.602 31.056 190.042 30.776C189.482 30.4773 189.053 30.0667 188.754 29.544C188.474 29.0213 188.334 28.4147 188.334 27.724C188.334 26.9027 188.521 26.2307 188.894 25.708C189.286 25.1853 189.781 24.7653 190.378 24.448C190.976 24.1307 191.601 23.8693 192.254 23.664C192.926 23.44 193.561 23.2347 194.158 23.048C194.756 22.8427 195.241 22.6093 195.614 22.348C196.006 22.0867 196.202 21.7413 196.202 21.312V19.576C196.202 18.792 196.081 18.1947 195.838 17.784C195.614 17.3733 195.306 17.1027 194.914 16.972C194.522 16.8227 194.084 16.748 193.598 16.748C193.132 16.748 192.628 16.8133 192.086 16.944C191.564 17.0747 191.144 17.3453 190.826 17.756C191.181 17.8307 191.489 18.0173 191.75 18.316C192.012 18.6147 192.142 18.9973 192.142 19.464C192.142 19.9307 191.993 20.304 191.694 20.584C191.396 20.8453 191.013 20.976 190.546 20.976C190.005 20.976 189.604 20.808 189.342 20.472C189.1 20.1173 188.978 19.7253 188.978 19.296C188.978 18.8107 189.1 18.4187 189.342 18.12C189.585 17.8213 189.893 17.5413 190.266 17.28C190.696 16.9813 191.246 16.7293 191.918 16.524C192.609 16.3 193.384 16.188 194.242 16.188C195.008 16.188 195.661 16.2813 196.202 16.468C196.744 16.636 197.192 16.888 197.546 17.224C198.032 17.672 198.349 18.2227 198.498 18.876C198.648 19.5107 198.722 20.276 198.722 21.172V28.956C198.722 29.4227 198.788 29.7587 198.918 29.964C199.068 30.1693 199.292 30.272 199.59 30.272C199.796 30.272 199.992 30.2253 200.178 30.132C200.365 30.0387 200.589 29.8893 200.85 29.684L201.158 30.16C200.766 30.4587 200.393 30.7107 200.038 30.916C199.684 31.1027 199.208 31.196 198.61 31.196C198.069 31.196 197.621 31.1027 197.266 30.916C196.912 30.7293 196.641 30.4587 196.454 30.104C196.286 29.7307 196.202 29.264 196.202 28.704C195.698 29.544 195.092 30.1693 194.382 30.58C193.692 30.9907 192.908 31.196 192.03 31.196ZM193.038 30.076C193.654 30.076 194.224 29.8987 194.746 29.544C195.288 29.1893 195.773 28.6573 196.202 27.948V22.46C195.978 22.7773 195.652 23.048 195.222 23.272C194.793 23.4773 194.326 23.692 193.822 23.916C193.318 24.1213 192.833 24.3733 192.366 24.672C191.918 24.952 191.545 25.3253 191.246 25.792C190.948 26.2587 190.798 26.8653 190.798 27.612C190.798 28.3587 190.994 28.956 191.386 29.404C191.797 29.852 192.348 30.076 193.038 30.076ZM207.152 36.264C206.162 36.264 205.229 36.1613 204.352 35.956C203.474 35.7507 202.765 35.424 202.224 34.976C201.701 34.5467 201.44 33.996 201.44 33.324C201.44 32.6707 201.701 32.1107 202.224 31.644C202.746 31.1773 203.456 30.8227 204.352 30.58L204.52 31.028C204.109 31.1587 203.782 31.42 203.54 31.812C203.297 32.204 203.176 32.6427 203.176 33.128C203.176 33.9867 203.568 34.64 204.352 35.088C205.154 35.5547 206.19 35.788 207.46 35.788C208.3 35.788 209.121 35.676 209.924 35.452C210.726 35.2467 211.389 34.892 211.912 34.388C212.434 33.884 212.696 33.2213 212.696 32.4C212.696 31.784 212.472 31.28 212.024 30.888C211.594 30.4773 210.736 30.272 209.448 30.272H207.376C206.778 30.272 206.2 30.2253 205.64 30.132C205.08 30.0387 204.622 29.8427 204.268 29.544C203.913 29.2453 203.736 28.788 203.736 28.172C203.736 27.5373 203.997 26.9307 204.52 26.352C205.042 25.7547 206.004 25.148 207.404 24.532L207.74 24.784C207.105 25.12 206.554 25.4653 206.088 25.82C205.621 26.156 205.388 26.5573 205.388 27.024C205.388 27.6213 205.836 27.92 206.732 27.92H210.232C211.016 27.92 211.734 28.032 212.388 28.256C213.06 28.48 213.601 28.8347 214.012 29.32C214.422 29.8053 214.628 30.44 214.628 31.224C214.628 32.1013 214.348 32.9227 213.788 33.688C213.228 34.4533 212.388 35.0693 211.268 35.536C210.166 36.0213 208.794 36.264 207.152 36.264ZM207.292 25.036C206.377 25.036 205.546 24.8867 204.8 24.588C204.053 24.2707 203.465 23.7853 203.035 23.132C202.606 22.4787 202.392 21.6387 202.392 20.612C202.392 19.5853 202.606 18.7453 203.035 18.092C203.465 17.4387 204.053 16.9627 204.8 16.664C205.546 16.3467 206.377 16.188 207.292 16.188C208.225 16.188 209.056 16.3467 209.784 16.664C210.53 16.9627 211.118 17.4387 211.548 18.092C211.977 18.7453 212.192 19.5853 212.192 20.612C212.192 21.6387 211.977 22.4787 211.548 23.132C211.118 23.7853 210.53 24.2707 209.784 24.588C209.056 24.8867 208.225 25.036 207.292 25.036ZM207.292 24.532C208.001 24.532 208.552 24.252 208.944 23.692C209.354 23.132 209.56 22.1053 209.56 20.612C209.56 19.1187 209.354 18.092 208.944 17.532C208.552 16.972 208.001 16.692 207.292 16.692C206.601 16.692 206.05 16.972 205.64 17.532C205.229 18.092 205.024 19.1187 205.024 20.612C205.024 22.1053 205.229 23.132 205.64 23.692C206.05 24.252 206.601 24.532 207.292 24.532ZM211.324 18.512L210.82 18.316C211.081 17.6813 211.529 17.1213 212.164 16.636C212.798 16.1507 213.461 15.908 214.152 15.908C214.637 15.908 215.029 16.048 215.327 16.328C215.626 16.5893 215.776 16.9907 215.776 17.532C215.776 18.1107 215.617 18.5213 215.3 18.764C215.001 18.988 214.693 19.1 214.376 19.1C214.096 19.1 213.834 19.0067 213.592 18.82C213.349 18.6147 213.209 18.2973 213.172 17.868C213.134 17.4387 213.265 16.888 213.564 16.216L213.928 16.3C213.144 16.5987 212.584 16.916 212.248 17.252C211.912 17.5693 211.604 17.9893 211.324 18.512ZM223.323 16.188C224.966 16.188 226.244 16.692 227.159 17.7C228.092 18.6893 228.559 20.2387 228.559 22.348H218.675L218.647 21.816H225.871C225.908 20.9013 225.834 20.0613 225.647 19.296C225.46 18.512 225.162 17.8867 224.751 17.42C224.359 16.9533 223.846 16.72 223.211 16.72C222.352 16.72 221.587 17.1493 220.915 18.008C220.262 18.8667 219.87 20.2293 219.739 22.096L219.823 22.208C219.786 22.488 219.758 22.796 219.739 23.132C219.72 23.468 219.711 23.804 219.711 24.14C219.711 25.4093 219.916 26.5013 220.327 27.416C220.738 28.3307 221.27 29.0307 221.923 29.516C222.595 29.9827 223.286 30.216 223.995 30.216C224.555 30.216 225.087 30.132 225.591 29.964C226.095 29.7773 226.562 29.4787 226.991 29.068C227.42 28.6573 227.794 28.1067 228.111 27.416L228.671 27.64C228.466 28.256 228.13 28.8533 227.663 29.432C227.196 30.0107 226.608 30.4867 225.899 30.86C225.19 31.2147 224.368 31.392 223.435 31.392C222.091 31.392 220.934 31.084 219.963 30.468C219.011 29.852 218.274 29.0027 217.751 27.92C217.247 26.8187 216.995 25.5587 216.995 24.14C216.995 22.4973 217.256 21.088 217.779 19.912C218.302 18.7173 219.039 17.8027 219.991 17.168C220.943 16.5147 222.054 16.188 223.323 16.188ZM246.364 16.188C246.868 16.188 247.306 16.2907 247.68 16.496C248.072 16.7013 248.37 16.972 248.576 17.308C248.8 17.6253 248.912 17.9893 248.912 18.4C248.912 18.8667 248.762 19.2773 248.464 19.632C248.184 19.9867 247.801 20.164 247.316 20.164C246.924 20.164 246.578 20.0427 246.28 19.8C245.981 19.5387 245.832 19.1747 245.832 18.708C245.832 18.3533 245.925 18.0547 246.112 17.812C246.317 17.5507 246.541 17.3453 246.784 17.196C246.653 17.0093 246.457 16.916 246.196 16.916C245.617 16.916 245.085 17.0933 244.6 17.448C244.114 17.784 243.704 18.2227 243.368 18.764C243.032 19.3053 242.77 19.884 242.584 20.5C242.397 21.0973 242.304 21.6573 242.304 22.18V28.116C242.304 29.0307 242.565 29.6467 243.088 29.964C243.629 30.2627 244.357 30.412 245.272 30.412V31C244.842 30.9813 244.236 30.9627 243.452 30.944C242.668 30.9067 241.837 30.888 240.96 30.888C240.325 30.888 239.69 30.9067 239.056 30.944C238.44 30.9627 237.973 30.9813 237.656 31V30.412C238.421 30.412 238.962 30.272 239.28 29.992C239.616 29.712 239.784 29.18 239.784 28.396V19.632C239.784 18.792 239.634 18.176 239.336 17.784C239.037 17.3733 238.477 17.168 237.656 17.168V16.58C238.253 16.636 238.832 16.664 239.392 16.664C239.933 16.664 240.446 16.636 240.932 16.58C241.436 16.5053 241.893 16.4027 242.304 16.272V19.772C242.509 19.2307 242.798 18.6893 243.172 18.148C243.564 17.588 244.03 17.1213 244.572 16.748C245.113 16.3747 245.71 16.188 246.364 16.188ZM254.101 31.196C253.335 31.196 252.673 31.056 252.113 30.776C251.553 30.4773 251.123 30.0667 250.825 29.544C250.545 29.0213 250.405 28.4147 250.405 27.724C250.405 26.9027 250.591 26.2307 250.965 25.708C251.357 25.1853 251.851 24.7653 252.449 24.448C253.046 24.1307 253.671 23.8693 254.325 23.664C254.997 23.44 255.631 23.2347 256.229 23.048C256.826 22.8427 257.311 22.6093 257.685 22.348C258.077 22.0867 258.273 21.7413 258.273 21.312V19.576C258.273 18.792 258.151 18.1947 257.909 17.784C257.685 17.3733 257.377 17.1027 256.985 16.972C256.593 16.8227 256.154 16.748 255.669 16.748C255.202 16.748 254.698 16.8133 254.157 16.944C253.634 17.0747 253.214 17.3453 252.897 17.756C253.251 17.8307 253.559 18.0173 253.821 18.316C254.082 18.6147 254.213 18.9973 254.213 19.464C254.213 19.9307 254.063 20.304 253.765 20.584C253.466 20.8453 253.083 20.976 252.617 20.976C252.075 20.976 251.674 20.808 251.413 20.472C251.17 20.1173 251.049 19.7253 251.049 19.296C251.049 18.8107 251.17 18.4187 251.413 18.12C251.655 17.8213 251.963 17.5413 252.337 17.28C252.766 16.9813 253.317 16.7293 253.989 16.524C254.679 16.3 255.454 16.188 256.312 16.188C257.078 16.188 257.731 16.2813 258.273 16.468C258.814 16.636 259.262 16.888 259.617 17.224C260.102 17.672 260.419 18.2227 260.569 18.876C260.718 19.5107 260.793 20.276 260.793 21.172V28.956C260.793 29.4227 260.858 29.7587 260.989 29.964C261.138 30.1693 261.362 30.272 261.661 30.272C261.866 30.272 262.062 30.2253 262.249 30.132C262.435 30.0387 262.659 29.8893 262.921 29.684L263.229 30.16C262.837 30.4587 262.463 30.7107 262.109 30.916C261.754 31.1027 261.278 31.196 260.681 31.196C260.139 31.196 259.691 31.1027 259.337 30.916C258.982 30.7293 258.711 30.4587 258.525 30.104C258.357 29.7307 258.273 29.264 258.273 28.704C257.769 29.544 257.162 30.1693 256.453 30.58C255.762 30.9907 254.978 31.196 254.101 31.196ZM255.109 30.076C255.725 30.076 256.294 29.8987 256.817 29.544C257.358 29.1893 257.843 28.6573 258.273 27.948V22.46C258.049 22.7773 257.722 23.048 257.293 23.272C256.863 23.4773 256.397 23.692 255.893 23.916C255.389 24.1213 254.903 24.3733 254.437 24.672C253.989 24.952 253.615 25.3253 253.317 25.792C253.018 26.2587 252.869 26.8653 252.869 27.612C252.869 28.3587 253.065 28.956 253.457 29.404C253.867 29.852 254.418 30.076 255.109 30.076ZM273.478 16.188C274.187 16.188 274.775 16.2813 275.242 16.468C275.727 16.6547 276.128 16.916 276.446 17.252C276.8 17.6253 277.052 18.092 277.202 18.652C277.351 19.212 277.426 19.968 277.426 20.92V28.396C277.426 29.18 277.584 29.712 277.902 29.992C278.238 30.272 278.788 30.412 279.554 30.412V31C279.236 30.9813 278.751 30.9627 278.098 30.944C277.444 30.9067 276.81 30.888 276.194 30.888C275.578 30.888 274.971 30.9067 274.374 30.944C273.795 30.9627 273.356 30.9813 273.058 31V30.412C273.73 30.412 274.206 30.272 274.486 29.992C274.766 29.712 274.906 29.18 274.906 28.396V20.304C274.906 19.7253 274.859 19.1933 274.766 18.708C274.672 18.2227 274.458 17.8307 274.122 17.532C273.804 17.2333 273.31 17.084 272.638 17.084C271.854 17.084 271.163 17.308 270.566 17.756C269.987 18.204 269.53 18.82 269.194 19.604C268.876 20.3693 268.718 21.228 268.718 22.18V28.396C268.718 29.18 268.858 29.712 269.138 29.992C269.418 30.272 269.894 30.412 270.566 30.412V31C270.267 30.9813 269.819 30.9627 269.222 30.944C268.643 30.9067 268.046 30.888 267.43 30.888C266.814 30.888 266.179 30.9067 265.526 30.944C264.872 30.9627 264.387 30.9813 264.07 31V30.412C264.835 30.412 265.376 30.272 265.694 29.992C266.03 29.712 266.198 29.18 266.198 28.396V19.632C266.198 18.792 266.048 18.176 265.75 17.784C265.451 17.3733 264.891 17.168 264.07 17.168V16.58C264.667 16.636 265.246 16.664 265.806 16.664C266.347 16.664 266.86 16.636 267.346 16.58C267.85 16.5053 268.307 16.4027 268.718 16.272V19.576C269.203 18.3067 269.875 17.4293 270.734 16.944C271.611 16.44 272.526 16.188 273.478 16.188ZM285.655 36.264C284.666 36.264 283.733 36.1613 282.855 35.956C281.978 35.7507 281.269 35.424 280.727 34.976C280.205 34.5467 279.943 33.996 279.943 33.324C279.943 32.6707 280.205 32.1107 280.727 31.644C281.25 31.1773 281.959 30.8227 282.855 30.58L283.023 31.028C282.613 31.1587 282.286 31.42 282.043 31.812C281.801 32.204 281.679 32.6427 281.679 33.128C281.679 33.9867 282.071 34.64 282.855 35.088C283.658 35.5547 284.694 35.788 285.963 35.788C286.803 35.788 287.625 35.676 288.427 35.452C289.23 35.2467 289.893 34.892 290.415 34.388C290.938 33.884 291.199 33.2213 291.199 32.4C291.199 31.784 290.975 31.28 290.527 30.888C290.098 30.4773 289.239 30.272 287.951 30.272H285.879C285.282 30.272 284.703 30.2253 284.143 30.132C283.583 30.0387 283.126 29.8427 282.771 29.544C282.417 29.2453 282.239 28.788 282.239 28.172C282.239 27.5373 282.501 26.9307 283.023 26.352C283.546 25.7547 284.507 25.148 285.907 24.532L286.243 24.784C285.609 25.12 285.058 25.4653 284.591 25.82C284.125 26.156 283.891 26.5573 283.891 27.024C283.891 27.6213 284.339 27.92 285.235 27.92H288.735C289.519 27.92 290.238 28.032 290.891 28.256C291.563 28.48 292.105 28.8347 292.515 29.32C292.926 29.8053 293.131 30.44 293.131 31.224C293.131 32.1013 292.851 32.9227 292.291 33.688C291.731 34.4533 290.891 35.0693 289.771 35.536C288.67 36.0213 287.298 36.264 285.655 36.264ZM285.795 25.036C284.881 25.036 284.05 24.8867 283.303 24.588C282.557 24.2707 281.969 23.7853 281.539 23.132C281.11 22.4787 280.895 21.6387 280.895 20.612C280.895 19.5853 281.11 18.7453 281.539 18.092C281.969 17.4387 282.557 16.9627 283.303 16.664C284.05 16.3467 284.881 16.188 285.795 16.188C286.729 16.188 287.559 16.3467 288.287 16.664C289.034 16.9627 289.622 17.4387 290.051 18.092C290.481 18.7453 290.695 19.5853 290.695 20.612C290.695 21.6387 290.481 22.4787 290.051 23.132C289.622 23.7853 289.034 24.2707 288.287 24.588C287.559 24.8867 286.729 25.036 285.795 25.036ZM285.795 24.532C286.505 24.532 287.055 24.252 287.447 23.692C287.858 23.132 288.063 22.1053 288.063 20.612C288.063 19.1187 287.858 18.092 287.447 17.532C287.055 16.972 286.505 16.692 285.795 16.692C285.105 16.692 284.554 16.972 284.143 17.532C283.733 18.092 283.527 19.1187 283.527 20.612C283.527 22.1053 283.733 23.132 284.143 23.692C284.554 24.252 285.105 24.532 285.795 24.532ZM289.827 18.512L289.323 18.316C289.585 17.6813 290.033 17.1213 290.667 16.636C291.302 16.1507 291.965 15.908 292.655 15.908C293.141 15.908 293.533 16.048 293.831 16.328C294.13 16.5893 294.279 16.9907 294.279 17.532C294.279 18.1107 294.121 18.5213 293.803 18.764C293.505 18.988 293.197 19.1 292.879 19.1C292.599 19.1 292.338 19.0067 292.095 18.82C291.853 18.6147 291.713 18.2973 291.675 17.868C291.638 17.4387 291.769 16.888 292.067 16.216L292.431 16.3C291.647 16.5987 291.087 16.916 290.751 17.252C290.415 17.5693 290.107 17.9893 289.827 18.512ZM301.827 16.188C303.47 16.188 304.748 16.692 305.663 17.7C306.596 18.6893 307.063 20.2387 307.063 22.348H297.179L297.151 21.816H304.375C304.412 20.9013 304.338 20.0613 304.151 19.296C303.964 18.512 303.666 17.8867 303.255 17.42C302.863 16.9533 302.35 16.72 301.715 16.72C300.856 16.72 300.091 17.1493 299.419 18.008C298.766 18.8667 298.374 20.2293 298.243 22.096L298.327 22.208C298.29 22.488 298.262 22.796 298.243 23.132C298.224 23.468 298.215 23.804 298.215 24.14C298.215 25.4093 298.42 26.5013 298.831 27.416C299.242 28.3307 299.774 29.0307 300.427 29.516C301.099 29.9827 301.79 30.216 302.499 30.216C303.059 30.216 303.591 30.132 304.095 29.964C304.599 29.7773 305.066 29.4787 305.495 29.068C305.924 28.6573 306.298 28.1067 306.615 27.416L307.175 27.64C306.97 28.256 306.634 28.8533 306.167 29.432C305.7 30.0107 305.112 30.4867 304.403 30.86C303.694 31.2147 302.872 31.392 301.939 31.392C300.595 31.392 299.438 31.084 298.467 30.468C297.515 29.852 296.778 29.0027 296.255 27.92C295.751 26.8187 295.499 25.5587 295.499 24.14C295.499 22.4973 295.76 21.088 296.283 19.912C296.806 18.7173 297.543 17.8027 298.495 17.168C299.447 16.5147 300.558 16.188 301.827 16.188ZM314.012 9.104C315.188 9.104 316.215 9.30933 317.092 9.72C317.97 10.112 318.651 10.6907 319.136 11.456C319.64 12.2027 319.892 13.0987 319.892 14.144C319.892 15.1893 319.622 16.1227 319.08 16.944C318.558 17.7653 317.82 18.4653 316.868 19.044C315.935 19.604 314.843 20.0427 313.592 20.36V24.448H313.032V20.108C314.283 19.6413 315.216 19.128 315.832 18.568C316.448 18.008 316.859 17.4013 317.064 16.748C317.288 16.0947 317.4 15.404 317.4 14.676C317.4 12.9027 317.036 11.624 316.308 10.84C315.58 10.056 314.638 9.664 313.48 9.664C313.032 9.664 312.538 9.72933 311.996 9.86C311.474 9.99067 311.054 10.2613 310.736 10.672C311.091 10.7467 311.371 10.9053 311.576 11.148C311.8 11.3907 311.912 11.708 311.912 12.1C311.912 12.5667 311.763 12.94 311.464 13.22C311.166 13.4813 310.802 13.612 310.372 13.612C309.943 13.612 309.588 13.472 309.308 13.192C309.028 12.912 308.888 12.5573 308.888 12.128C308.888 11.736 309.01 11.372 309.252 11.036C309.495 10.6813 309.812 10.3733 310.204 10.112C310.596 9.85067 311.1 9.61733 311.716 9.412C312.351 9.20667 313.116 9.104 314.012 9.104ZM313.34 27.808C313.826 27.808 314.246 27.9853 314.6 28.34C314.955 28.6947 315.132 29.1147 315.132 29.6C315.132 30.0853 314.955 30.5053 314.6 30.86C314.246 31.2147 313.826 31.392 313.34 31.392C312.855 31.392 312.435 31.2147 312.08 30.86C311.726 30.5053 311.548 30.0853 311.548 29.6C311.548 29.1147 311.726 28.6947 312.08 28.34C312.435 27.9853 312.855 27.808 313.34 27.808Z" fill="#1D191A"/>
<path d="M370.086 158.478C370.59 158.478 371.034 158.562 371.418 158.73C371.814 158.886 372.12 159.12 372.336 159.432C372.564 159.732 372.678 160.098 372.678 160.53C372.678 160.998 372.546 161.43 372.282 161.826C372.03 162.21 371.7 162.546 371.292 162.834C370.884 163.11 370.452 163.332 369.996 163.5C370.56 163.512 371.094 163.62 371.598 163.824C372.102 164.016 372.516 164.31 372.84 164.706C373.164 165.102 373.326 165.612 373.326 166.236C373.326 166.788 373.194 167.298 372.93 167.766C372.678 168.222 372.324 168.63 371.868 168.99C371.424 169.362 370.914 169.674 370.338 169.926C369.762 170.19 369.156 170.388 368.52 170.52C367.896 170.652 367.278 170.718 366.666 170.718V170.394C367.278 170.382 367.878 170.28 368.466 170.088C369.054 169.908 369.582 169.644 370.05 169.296C370.53 168.948 370.908 168.516 371.184 168C371.472 167.484 371.616 166.896 371.616 166.236C371.616 165.528 371.442 164.946 371.094 164.49C370.758 164.022 370.296 163.764 369.708 163.716C369.528 163.788 369.366 163.854 369.222 163.914C369.09 163.962 368.97 163.986 368.862 163.986C368.766 163.986 368.694 163.968 368.646 163.932C368.598 163.884 368.574 163.824 368.574 163.752C368.574 163.644 368.622 163.56 368.718 163.5C368.814 163.44 368.922 163.41 369.042 163.41C369.138 163.41 369.234 163.422 369.33 163.446C369.438 163.458 369.552 163.47 369.672 163.482C370.164 163.11 370.518 162.702 370.734 162.258C370.95 161.802 371.058 161.346 371.058 160.89C371.058 160.326 370.914 159.918 370.626 159.666C370.35 159.402 369.972 159.27 369.492 159.27C369 159.27 368.544 159.402 368.124 159.666C367.716 159.93 367.374 160.332 367.098 160.872L366.792 160.728C366.972 160.332 367.206 159.966 367.494 159.63C367.782 159.282 368.136 159.006 368.556 158.802C368.988 158.586 369.498 158.478 370.086 158.478ZM379.611 158.478C380.463 158.478 381.213 158.676 381.861 159.072C382.521 159.456 383.037 160.002 383.409 160.71C383.781 161.418 383.967 162.252 383.967 163.212C383.967 164.172 383.775 165.036 383.391 165.804C383.007 166.56 382.473 167.16 381.789 167.604C381.117 168.036 380.325 168.252 379.413 168.252C378.585 168.252 377.841 168.06 377.181 167.676C376.521 167.28 375.999 166.728 375.615 166.02C375.243 165.3 375.057 164.46 375.057 163.5C375.057 162.552 375.243 161.7 375.615 160.944C375.999 160.188 376.533 159.588 377.217 159.144C377.901 158.7 378.699 158.478 379.611 158.478ZM379.449 158.802C378.681 158.802 378.045 159.21 377.541 160.026C377.049 160.842 376.803 161.982 376.803 163.446C376.803 164.526 376.929 165.396 377.181 166.056C377.433 166.704 377.769 167.178 378.189 167.478C378.621 167.778 379.083 167.928 379.575 167.928C380.355 167.928 380.991 167.52 381.483 166.704C381.975 165.876 382.221 164.73 382.221 163.266C382.221 162.186 382.095 161.322 381.843 160.674C381.591 160.014 381.255 159.54 380.835 159.252C380.415 158.952 379.953 158.802 379.449 158.802ZM392.654 162.636V163.68H386.156V162.636H392.654ZM400.052 158.478L400.124 158.946L395.066 166.11L395.048 165.822H400.556C401.048 165.822 401.36 165.756 401.492 165.624C401.624 165.48 401.714 165.24 401.762 164.904H402.068C402.068 165.492 402.074 165.942 402.086 166.254C402.098 166.566 402.116 166.854 402.14 167.118C402.056 167.094 401.918 167.082 401.726 167.082C401.546 167.07 401.33 167.058 401.078 167.046C400.826 167.034 400.562 167.028 400.286 167.028C400.01 167.028 399.734 167.028 399.458 167.028H394.202V166.65L400.052 158.478ZM400.34 158.478V170.538H398.9V160.386L400.052 158.478H400.34ZM408.281 158.478C409.133 158.478 409.883 158.676 410.531 159.072C411.191 159.456 411.707 160.002 412.079 160.71C412.451 161.418 412.637 162.252 412.637 163.212C412.637 164.172 412.445 165.036 412.061 165.804C411.677 166.56 411.143 167.16 410.459 167.604C409.787 168.036 408.995 168.252 408.083 168.252C407.255 168.252 406.511 168.06 405.851 167.676C405.191 167.28 404.669 166.728 404.285 166.02C403.913 165.3 403.727 164.46 403.727 163.5C403.727 162.552 403.913 161.7 404.285 160.944C404.669 160.188 405.203 159.588 405.887 159.144C406.571 158.7 407.369 158.478 408.281 158.478ZM408.119 158.802C407.351 158.802 406.715 159.21 406.211 160.026C405.719 160.842 405.473 161.982 405.473 163.446C405.473 164.526 405.599 165.396 405.851 166.056C406.103 166.704 406.439 167.178 406.859 167.478C407.291 167.778 407.753 167.928 408.245 167.928C409.025 167.928 409.661 167.52 410.153 166.704C410.645 165.876 410.891 164.73 410.891 163.266C410.891 162.186 410.765 161.322 410.513 160.674C410.261 160.014 409.925 159.54 409.505 159.252C409.085 158.952 408.623 158.802 408.119 158.802ZM422.476 158.73V159.09C422.248 159.114 422.038 159.216 421.846 159.396C421.654 159.576 421.474 159.894 421.306 160.35L418.354 168.09H418.048L414.736 160.116C414.508 159.648 414.28 159.366 414.052 159.27C413.836 159.162 413.656 159.108 413.512 159.108V158.73C413.776 158.766 414.052 158.796 414.34 158.82C414.628 158.832 414.94 158.838 415.276 158.838C415.648 158.838 416.038 158.826 416.446 158.802C416.866 158.778 417.256 158.754 417.616 158.73V159.108C417.316 159.108 417.046 159.132 416.806 159.18C416.578 159.216 416.434 159.342 416.374 159.558C416.314 159.762 416.386 160.116 416.59 160.62L418.804 166.11L418.696 166.146L420.748 160.782C420.904 160.386 420.964 160.074 420.928 159.846C420.904 159.606 420.784 159.426 420.568 159.306C420.352 159.186 420.028 159.114 419.596 159.09V158.73C419.812 158.742 419.998 158.754 420.154 158.766C420.31 158.766 420.46 158.772 420.604 158.784C420.76 158.784 420.928 158.784 421.108 158.784C421.384 158.784 421.63 158.778 421.846 158.766C422.074 158.754 422.284 158.742 422.476 158.73ZM418.354 168.09L417.742 169.656C417.622 169.956 417.496 170.208 417.364 170.412C417.244 170.616 417.112 170.784 416.968 170.916C416.776 171.096 416.548 171.216 416.284 171.276C416.02 171.348 415.78 171.384 415.564 171.384C415.336 171.384 415.126 171.342 414.934 171.258C414.754 171.174 414.61 171.048 414.502 170.88C414.394 170.724 414.34 170.532 414.34 170.304C414.34 170.016 414.424 169.782 414.592 169.602C414.76 169.434 414.994 169.35 415.294 169.35C415.546 169.35 415.762 169.422 415.942 169.566C416.122 169.71 416.212 169.92 416.212 170.196C416.212 170.4 416.164 170.568 416.068 170.7C415.972 170.832 415.858 170.934 415.726 171.006C415.75 171.018 415.768 171.024 415.78 171.024C415.804 171.024 415.822 171.024 415.834 171.024C416.158 171.024 416.446 170.91 416.698 170.682C416.95 170.466 417.172 170.112 417.364 169.62L418.012 167.946L418.354 168.09ZM427.392 158.478C428.448 158.478 429.27 158.802 429.858 159.45C430.458 160.086 430.758 161.082 430.758 162.438H424.404L424.386 162.096H429.03C429.054 161.508 429.006 160.968 428.886 160.476C428.766 159.972 428.574 159.57 428.31 159.27C428.058 158.97 427.728 158.82 427.32 158.82C426.768 158.82 426.276 159.096 425.844 159.648C425.424 160.2 425.172 161.076 425.088 162.276L425.142 162.348C425.118 162.528 425.1 162.726 425.088 162.942C425.076 163.158 425.07 163.374 425.07 163.59C425.07 164.406 425.202 165.108 425.466 165.696C425.73 166.284 426.072 166.734 426.492 167.046C426.924 167.346 427.368 167.496 427.824 167.496C428.184 167.496 428.526 167.442 428.85 167.334C429.174 167.214 429.474 167.022 429.75 166.758C430.026 166.494 430.266 166.14 430.47 165.696L430.83 165.84C430.698 166.236 430.482 166.62 430.182 166.992C429.882 167.364 429.504 167.67 429.048 167.91C428.592 168.138 428.064 168.252 427.464 168.252C426.6 168.252 425.856 168.054 425.232 167.658C424.62 167.262 424.146 166.716 423.81 166.02C423.486 165.312 423.324 164.502 423.324 163.59C423.324 162.534 423.492 161.628 423.828 160.872C424.164 160.104 424.638 159.516 425.25 159.108C425.862 158.688 426.576 158.478 427.392 158.478ZM434.68 168.126C434.188 168.126 433.762 168.036 433.402 167.856C433.042 167.664 432.766 167.4 432.574 167.064C432.394 166.728 432.304 166.338 432.304 165.894C432.304 165.366 432.424 164.934 432.664 164.598C432.916 164.262 433.234 163.992 433.618 163.788C434.002 163.584 434.404 163.416 434.824 163.284C435.256 163.14 435.664 163.008 436.048 162.888C436.432 162.756 436.744 162.606 436.984 162.438C437.236 162.27 437.362 162.048 437.362 161.772V160.656C437.362 160.152 437.284 159.768 437.128 159.504C436.984 159.24 436.786 159.066 436.534 158.982C436.282 158.886 436 158.838 435.688 158.838C435.388 158.838 435.064 158.88 434.716 158.964C434.38 159.048 434.11 159.222 433.906 159.486C434.134 159.534 434.332 159.654 434.5 159.846C434.668 160.038 434.752 160.284 434.752 160.584C434.752 160.884 434.656 161.124 434.464 161.304C434.272 161.472 434.026 161.556 433.726 161.556C433.378 161.556 433.12 161.448 432.952 161.232C432.796 161.004 432.718 160.752 432.718 160.476C432.718 160.164 432.796 159.912 432.952 159.72C433.108 159.528 433.306 159.348 433.546 159.18C433.822 158.988 434.176 158.826 434.608 158.694C435.052 158.55 435.55 158.478 436.102 158.478C436.594 158.478 437.014 158.538 437.362 158.658C437.71 158.766 437.998 158.928 438.226 159.144C438.538 159.432 438.742 159.786 438.838 160.206C438.934 160.614 438.982 161.106 438.982 161.682V166.686C438.982 166.986 439.024 167.202 439.108 167.334C439.204 167.466 439.348 167.532 439.54 167.532C439.672 167.532 439.798 167.502 439.918 167.442C440.038 167.382 440.182 167.286 440.35 167.154L440.548 167.46C440.296 167.652 440.056 167.814 439.828 167.946C439.6 168.066 439.294 168.126 438.91 168.126C438.562 168.126 438.274 168.066 438.046 167.946C437.818 167.826 437.644 167.652 437.524 167.424C437.416 167.184 437.362 166.884 437.362 166.524C437.038 167.064 436.648 167.466 436.192 167.73C435.748 167.994 435.244 168.126 434.68 168.126ZM435.328 167.406C435.724 167.406 436.09 167.292 436.426 167.064C436.774 166.836 437.086 166.494 437.362 166.038V162.51C437.218 162.714 437.008 162.888 436.732 163.032C436.456 163.164 436.156 163.302 435.832 163.446C435.508 163.578 435.196 163.74 434.896 163.932C434.608 164.112 434.368 164.352 434.176 164.652C433.984 164.952 433.888 165.342 433.888 165.822C433.888 166.302 434.014 166.686 434.266 166.974C434.53 167.262 434.884 167.406 435.328 167.406ZM446.686 158.478C447.01 158.478 447.292 158.544 447.532 158.676C447.784 158.808 447.976 158.982 448.108 159.198C448.252 159.402 448.324 159.636 448.324 159.9C448.324 160.2 448.228 160.464 448.036 160.692C447.856 160.92 447.61 161.034 447.298 161.034C447.046 161.034 446.824 160.956 446.632 160.8C446.44 160.632 446.344 160.398 446.344 160.098C446.344 159.87 446.404 159.678 446.524 159.522C446.656 159.354 446.8 159.222 446.956 159.126C446.872 159.006 446.746 158.946 446.578 158.946C446.206 158.946 445.864 159.06 445.552 159.288C445.24 159.504 444.976 159.786 444.76 160.134C444.544 160.482 444.376 160.854 444.256 161.25C444.136 161.634 444.076 161.994 444.076 162.33V166.146C444.076 166.734 444.244 167.13 444.58 167.334C444.928 167.526 445.396 167.622 445.984 167.622V168C445.708 167.988 445.318 167.976 444.814 167.964C444.31 167.94 443.776 167.928 443.212 167.928C442.804 167.928 442.396 167.94 441.988 167.964C441.592 167.976 441.292 167.988 441.088 168V167.622C441.58 167.622 441.928 167.532 442.132 167.352C442.348 167.172 442.456 166.83 442.456 166.326V160.692C442.456 160.152 442.36 159.756 442.168 159.504C441.976 159.24 441.616 159.108 441.088 159.108V158.73C441.472 158.766 441.844 158.784 442.204 158.784C442.552 158.784 442.882 158.766 443.194 158.73C443.518 158.682 443.812 158.616 444.076 158.532V160.782C444.208 160.434 444.394 160.086 444.634 159.738C444.886 159.378 445.186 159.078 445.534 158.838C445.882 158.598 446.266 158.478 446.686 158.478ZM452.326 158.478C452.806 158.478 453.214 158.556 453.55 158.712C453.886 158.868 454.132 159.012 454.288 159.144C454.684 159.468 454.924 159.252 455.008 158.496H455.422C455.398 158.832 455.38 159.234 455.368 159.702C455.356 160.158 455.35 160.776 455.35 161.556H454.936C454.864 161.112 454.738 160.68 454.558 160.26C454.39 159.84 454.138 159.498 453.802 159.234C453.466 158.958 453.028 158.82 452.488 158.82C452.068 158.82 451.714 158.94 451.426 159.18C451.15 159.408 451.012 159.75 451.012 160.206C451.012 160.566 451.12 160.878 451.336 161.142C451.552 161.394 451.834 161.634 452.182 161.862C452.53 162.078 452.908 162.318 453.316 162.582C453.772 162.87 454.186 163.164 454.558 163.464C454.93 163.764 455.224 164.094 455.44 164.454C455.668 164.814 455.782 165.24 455.782 165.732C455.782 166.284 455.638 166.746 455.35 167.118C455.062 167.49 454.684 167.772 454.216 167.964C453.76 168.156 453.256 168.252 452.704 168.252C452.44 168.252 452.188 168.228 451.948 168.18C451.72 168.144 451.498 168.084 451.282 168C451.162 167.94 451.036 167.868 450.904 167.784C450.784 167.7 450.664 167.61 450.544 167.514C450.424 167.418 450.316 167.424 450.22 167.532C450.124 167.628 450.052 167.826 450.004 168.126H449.59C449.614 167.742 449.632 167.274 449.644 166.722C449.656 166.17 449.662 165.438 449.662 164.526H450.076C450.16 165.198 450.28 165.786 450.436 166.29C450.592 166.794 450.838 167.19 451.174 167.478C451.51 167.754 451.978 167.892 452.578 167.892C452.818 167.892 453.058 167.838 453.298 167.73C453.55 167.622 453.76 167.442 453.928 167.19C454.096 166.938 454.18 166.602 454.18 166.182C454.18 165.654 453.988 165.222 453.604 164.886C453.22 164.55 452.734 164.196 452.146 163.824C451.714 163.548 451.306 163.272 450.922 162.996C450.55 162.72 450.244 162.408 450.004 162.06C449.776 161.712 449.662 161.292 449.662 160.8C449.662 160.26 449.782 159.822 450.022 159.486C450.274 159.138 450.604 158.886 451.012 158.73C451.42 158.562 451.858 158.478 452.326 158.478Z" fill="#1D191A"/>
<path d="M370.392 193.478C371.22 193.478 371.874 193.676 372.354 194.072C372.846 194.456 373.092 195.014 373.092 195.746C373.092 196.226 372.978 196.682 372.75 197.114C372.534 197.534 372.246 197.942 371.886 198.338C371.526 198.722 371.142 199.1 370.734 199.472C370.326 199.832 369.93 200.192 369.546 200.552C369.162 200.9 368.838 201.254 368.574 201.614H372.228C372.72 201.614 373.032 201.548 373.164 201.416C373.296 201.272 373.386 201.032 373.434 200.696H373.74C373.74 201.332 373.746 201.824 373.758 202.172C373.77 202.508 373.788 202.814 373.812 203.09C373.704 203.066 373.506 203.048 373.218 203.036C372.93 203.024 372.6 203.012 372.228 203C371.856 203 371.49 203 371.13 203H366.918V202.694C367.278 202.298 367.71 201.878 368.214 201.434C368.718 200.978 369.204 200.486 369.672 199.958C370.152 199.418 370.548 198.836 370.86 198.212C371.184 197.576 371.346 196.886 371.346 196.142C371.346 195.458 371.184 194.966 370.86 194.666C370.548 194.354 370.11 194.198 369.546 194.198C369.066 194.198 368.622 194.342 368.214 194.63C367.806 194.906 367.446 195.326 367.134 195.89L366.846 195.728C367.026 195.344 367.266 194.984 367.566 194.648C367.878 194.3 368.262 194.018 368.718 193.802C369.186 193.586 369.744 193.478 370.392 193.478ZM380.103 193.478C380.955 193.478 381.705 193.676 382.353 194.072C383.013 194.456 383.529 195.002 383.901 195.71C384.273 196.418 384.459 197.252 384.459 198.212C384.459 199.172 384.267 200.036 383.883 200.804C383.499 201.56 382.965 202.16 382.281 202.604C381.609 203.036 380.817 203.252 379.905 203.252C379.077 203.252 378.333 203.06 377.673 202.676C377.013 202.28 376.491 201.728 376.107 201.02C375.735 200.3 375.549 199.46 375.549 198.5C375.549 197.552 375.735 196.7 376.107 195.944C376.491 195.188 377.025 194.588 377.709 194.144C378.393 193.7 379.191 193.478 380.103 193.478ZM379.941 193.802C379.173 193.802 378.537 194.21 378.033 195.026C377.541 195.842 377.295 196.982 377.295 198.446C377.295 199.526 377.421 200.396 377.673 201.056C377.925 201.704 378.261 202.178 378.681 202.478C379.113 202.778 379.575 202.928 380.067 202.928C380.847 202.928 381.483 202.52 381.975 201.704C382.467 200.876 382.713 199.73 382.713 198.266C382.713 197.186 382.587 196.322 382.335 195.674C382.083 195.014 381.747 194.54 381.327 194.252C380.907 193.952 380.445 193.802 379.941 193.802ZM393.146 197.636V198.68H386.648V197.636H393.146ZM398.475 193.478C398.979 193.478 399.423 193.562 399.807 193.73C400.203 193.886 400.509 194.12 400.725 194.432C400.953 194.732 401.067 195.098 401.067 195.53C401.067 195.998 400.935 196.43 400.671 196.826C400.419 197.21 400.089 197.546 399.681 197.834C399.273 198.11 398.841 198.332 398.385 198.5C398.949 198.512 399.483 198.62 399.987 198.824C400.491 199.016 400.905 199.31 401.229 199.706C401.553 200.102 401.715 200.612 401.715 201.236C401.715 201.788 401.583 202.298 401.319 202.766C401.067 203.222 400.713 203.63 400.257 203.99C399.813 204.362 399.303 204.674 398.727 204.926C398.151 205.19 397.545 205.388 396.909 205.52C396.285 205.652 395.667 205.718 395.055 205.718V205.394C395.667 205.382 396.267 205.28 396.855 205.088C397.443 204.908 397.971 204.644 398.439 204.296C398.919 203.948 399.297 203.516 399.573 203C399.861 202.484 400.005 201.896 400.005 201.236C400.005 200.528 399.831 199.946 399.483 199.49C399.147 199.022 398.685 198.764 398.097 198.716C397.917 198.788 397.755 198.854 397.611 198.914C397.479 198.962 397.359 198.986 397.251 198.986C397.155 198.986 397.083 198.968 397.035 198.932C396.987 198.884 396.963 198.824 396.963 198.752C396.963 198.644 397.011 198.56 397.107 198.5C397.203 198.44 397.311 198.41 397.431 198.41C397.527 198.41 397.623 198.422 397.719 198.446C397.827 198.458 397.941 198.47 398.061 198.482C398.553 198.11 398.907 197.702 399.123 197.258C399.339 196.802 399.447 196.346 399.447 195.89C399.447 195.326 399.303 194.918 399.015 194.666C398.739 194.402 398.361 194.27 397.881 194.27C397.389 194.27 396.933 194.402 396.513 194.666C396.105 194.93 395.763 195.332 395.487 195.872L395.181 195.728C395.361 195.332 395.595 194.966 395.883 194.63C396.171 194.282 396.525 194.006 396.945 193.802C397.377 193.586 397.887 193.478 398.475 193.478ZM408 193.478C408.852 193.478 409.602 193.676 410.25 194.072C410.91 194.456 411.426 195.002 411.798 195.71C412.17 196.418 412.356 197.252 412.356 198.212C412.356 199.172 412.164 200.036 411.78 200.804C411.396 201.56 410.862 202.16 410.178 202.604C409.506 203.036 408.714 203.252 407.802 203.252C406.974 203.252 406.23 203.06 405.57 202.676C404.91 202.28 404.388 201.728 404.004 201.02C403.632 200.3 403.446 199.46 403.446 198.5C403.446 197.552 403.632 196.7 404.004 195.944C404.388 195.188 404.922 194.588 405.606 194.144C406.29 193.7 407.088 193.478 408 193.478ZM407.838 193.802C407.07 193.802 406.434 194.21 405.93 195.026C405.438 195.842 405.192 196.982 405.192 198.446C405.192 199.526 405.318 200.396 405.57 201.056C405.822 201.704 406.158 202.178 406.578 202.478C407.01 202.778 407.472 202.928 407.964 202.928C408.744 202.928 409.38 202.52 409.872 201.704C410.364 200.876 410.61 199.73 410.61 198.266C410.61 197.186 410.484 196.322 410.232 195.674C409.98 195.014 409.644 194.54 409.224 194.252C408.804 193.952 408.342 193.802 407.838 193.802ZM422.195 193.73V194.09C421.967 194.114 421.757 194.216 421.565 194.396C421.373 194.576 421.193 194.894 421.025 195.35L418.073 203.09H417.767L414.455 195.116C414.227 194.648 413.999 194.366 413.771 194.27C413.555 194.162 413.375 194.108 413.231 194.108V193.73C413.495 193.766 413.771 193.796 414.059 193.82C414.347 193.832 414.659 193.838 414.995 193.838C415.367 193.838 415.757 193.826 416.165 193.802C416.585 193.778 416.975 193.754 417.335 193.73V194.108C417.035 194.108 416.765 194.132 416.525 194.18C416.297 194.216 416.153 194.342 416.093 194.558C416.033 194.762 416.105 195.116 416.309 195.62L418.523 201.11L418.415 201.146L420.467 195.782C420.623 195.386 420.683 195.074 420.647 194.846C420.623 194.606 420.503 194.426 420.287 194.306C420.071 194.186 419.747 194.114 419.315 194.09V193.73C419.531 193.742 419.717 193.754 419.873 193.766C420.029 193.766 420.179 193.772 420.323 193.784C420.479 193.784 420.647 193.784 420.827 193.784C421.103 193.784 421.349 193.778 421.565 193.766C421.793 193.754 422.003 193.742 422.195 193.73ZM418.073 203.09L417.461 204.656C417.341 204.956 417.215 205.208 417.083 205.412C416.963 205.616 416.831 205.784 416.687 205.916C416.495 206.096 416.267 206.216 416.003 206.276C415.739 206.348 415.499 206.384 415.283 206.384C415.055 206.384 414.845 206.342 414.653 206.258C414.473 206.174 414.329 206.048 414.221 205.88C414.113 205.724 414.059 205.532 414.059 205.304C414.059 205.016 414.143 204.782 414.311 204.602C414.479 204.434 414.713 204.35 415.013 204.35C415.265 204.35 415.481 204.422 415.661 204.566C415.841 204.71 415.931 204.92 415.931 205.196C415.931 205.4 415.883 205.568 415.787 205.7C415.691 205.832 415.577 205.934 415.445 206.006C415.469 206.018 415.487 206.024 415.499 206.024C415.523 206.024 415.541 206.024 415.553 206.024C415.877 206.024 416.165 205.91 416.417 205.682C416.669 205.466 416.891 205.112 417.083 204.62L417.731 202.946L418.073 203.09ZM427.111 193.478C428.167 193.478 428.989 193.802 429.577 194.45C430.177 195.086 430.477 196.082 430.477 197.438H424.123L424.105 197.096H428.749C428.773 196.508 428.725 195.968 428.605 195.476C428.485 194.972 428.293 194.57 428.029 194.27C427.777 193.97 427.447 193.82 427.039 193.82C426.487 193.82 425.995 194.096 425.563 194.648C425.143 195.2 424.891 196.076 424.807 197.276L424.861 197.348C424.837 197.528 424.819 197.726 424.807 197.942C424.795 198.158 424.789 198.374 424.789 198.59C424.789 199.406 424.921 200.108 425.185 200.696C425.449 201.284 425.791 201.734 426.211 202.046C426.643 202.346 427.087 202.496 427.543 202.496C427.903 202.496 428.245 202.442 428.569 202.334C428.893 202.214 429.193 202.022 429.469 201.758C429.745 201.494 429.985 201.14 430.189 200.696L430.549 200.84C430.417 201.236 430.201 201.62 429.901 201.992C429.601 202.364 429.223 202.67 428.767 202.91C428.311 203.138 427.783 203.252 427.183 203.252C426.319 203.252 425.575 203.054 424.951 202.658C424.339 202.262 423.865 201.716 423.529 201.02C423.205 200.312 423.043 199.502 423.043 198.59C423.043 197.534 423.211 196.628 423.547 195.872C423.883 195.104 424.357 194.516 424.969 194.108C425.581 193.688 426.295 193.478 427.111 193.478ZM434.398 203.126C433.906 203.126 433.48 203.036 433.12 202.856C432.76 202.664 432.484 202.4 432.292 202.064C432.112 201.728 432.022 201.338 432.022 200.894C432.022 200.366 432.142 199.934 432.382 199.598C432.634 199.262 432.952 198.992 433.336 198.788C433.72 198.584 434.122 198.416 434.542 198.284C434.974 198.14 435.382 198.008 435.766 197.888C436.15 197.756 436.462 197.606 436.702 197.438C436.954 197.27 437.08 197.048 437.08 196.772V195.656C437.08 195.152 437.002 194.768 436.846 194.504C436.702 194.24 436.504 194.066 436.252 193.982C436 193.886 435.718 193.838 435.406 193.838C435.106 193.838 434.782 193.88 434.434 193.964C434.098 194.048 433.828 194.222 433.624 194.486C433.852 194.534 434.05 194.654 434.218 194.846C434.386 195.038 434.47 195.284 434.47 195.584C434.47 195.884 434.374 196.124 434.182 196.304C433.99 196.472 433.744 196.556 433.444 196.556C433.096 196.556 432.838 196.448 432.67 196.232C432.514 196.004 432.436 195.752 432.436 195.476C432.436 195.164 432.514 194.912 432.67 194.72C432.826 194.528 433.024 194.348 433.264 194.18C433.54 193.988 433.894 193.826 434.326 193.694C434.77 193.55 435.268 193.478 435.82 193.478C436.312 193.478 436.732 193.538 437.08 193.658C437.428 193.766 437.716 193.928 437.944 194.144C438.256 194.432 438.46 194.786 438.556 195.206C438.652 195.614 438.7 196.106 438.7 196.682V201.686C438.7 201.986 438.742 202.202 438.826 202.334C438.922 202.466 439.066 202.532 439.258 202.532C439.39 202.532 439.516 202.502 439.636 202.442C439.756 202.382 439.9 202.286 440.068 202.154L440.266 202.46C440.014 202.652 439.774 202.814 439.546 202.946C439.318 203.066 439.012 203.126 438.628 203.126C438.28 203.126 437.992 203.066 437.764 202.946C437.536 202.826 437.362 202.652 437.242 202.424C437.134 202.184 437.08 201.884 437.08 201.524C436.756 202.064 436.366 202.466 435.91 202.73C435.466 202.994 434.962 203.126 434.398 203.126ZM435.046 202.406C435.442 202.406 435.808 202.292 436.144 202.064C436.492 201.836 436.804 201.494 437.08 201.038V197.51C436.936 197.714 436.726 197.888 436.45 198.032C436.174 198.164 435.874 198.302 435.55 198.446C435.226 198.578 434.914 198.74 434.614 198.932C434.326 199.112 434.086 199.352 433.894 199.652C433.702 199.952 433.606 200.342 433.606 200.822C433.606 201.302 433.732 201.686 433.984 201.974C434.248 202.262 434.602 202.406 435.046 202.406ZM446.405 193.478C446.729 193.478 447.011 193.544 447.251 193.676C447.503 193.808 447.695 193.982 447.827 194.198C447.971 194.402 448.043 194.636 448.043 194.9C448.043 195.2 447.947 195.464 447.755 195.692C447.575 195.92 447.329 196.034 447.017 196.034C446.765 196.034 446.543 195.956 446.351 195.8C446.159 195.632 446.063 195.398 446.063 195.098C446.063 194.87 446.123 194.678 446.243 194.522C446.375 194.354 446.519 194.222 446.675 194.126C446.591 194.006 446.465 193.946 446.297 193.946C445.925 193.946 445.583 194.06 445.271 194.288C444.959 194.504 444.695 194.786 444.479 195.134C444.263 195.482 444.095 195.854 443.975 196.25C443.855 196.634 443.795 196.994 443.795 197.33V201.146C443.795 201.734 443.963 202.13 444.299 202.334C444.647 202.526 445.115 202.622 445.703 202.622V203C445.427 202.988 445.037 202.976 444.533 202.964C444.029 202.94 443.495 202.928 442.931 202.928C442.523 202.928 442.115 202.94 441.707 202.964C441.311 202.976 441.011 202.988 440.807 203V202.622C441.299 202.622 441.647 202.532 441.851 202.352C442.067 202.172 442.175 201.83 442.175 201.326V195.692C442.175 195.152 442.079 194.756 441.887 194.504C441.695 194.24 441.335 194.108 440.807 194.108V193.73C441.191 193.766 441.563 193.784 441.923 193.784C442.271 193.784 442.601 193.766 442.913 193.73C443.237 193.682 443.531 193.616 443.795 193.532V195.782C443.927 195.434 444.113 195.086 444.353 194.738C444.605 194.378 444.905 194.078 445.253 193.838C445.601 193.598 445.985 193.478 446.405 193.478ZM452.045 193.478C452.525 193.478 452.933 193.556 453.269 193.712C453.605 193.868 453.851 194.012 454.007 194.144C454.403 194.468 454.643 194.252 454.727 193.496H455.141C455.117 193.832 455.099 194.234 455.087 194.702C455.075 195.158 455.069 195.776 455.069 196.556H454.655C454.583 196.112 454.457 195.68 454.277 195.26C454.109 194.84 453.857 194.498 453.521 194.234C453.185 193.958 452.747 193.82 452.207 193.82C451.787 193.82 451.433 193.94 451.145 194.18C450.869 194.408 450.731 194.75 450.731 195.206C450.731 195.566 450.839 195.878 451.055 196.142C451.271 196.394 451.553 196.634 451.901 196.862C452.249 197.078 452.627 197.318 453.035 197.582C453.491 197.87 453.905 198.164 454.277 198.464C454.649 198.764 454.943 199.094 455.159 199.454C455.387 199.814 455.501 200.24 455.501 200.732C455.501 201.284 455.357 201.746 455.069 202.118C454.781 202.49 454.403 202.772 453.935 202.964C453.479 203.156 452.975 203.252 452.423 203.252C452.159 203.252 451.907 203.228 451.667 203.18C451.439 203.144 451.217 203.084 451.001 203C450.881 202.94 450.755 202.868 450.623 202.784C450.503 202.7 450.383 202.61 450.263 202.514C450.143 202.418 450.035 202.424 449.939 202.532C449.843 202.628 449.771 202.826 449.723 203.126H449.309C449.333 202.742 449.351 202.274 449.363 201.722C449.375 201.17 449.381 200.438 449.381 199.526H449.795C449.879 200.198 449.999 200.786 450.155 201.29C450.311 201.794 450.557 202.19 450.893 202.478C451.229 202.754 451.697 202.892 452.297 202.892C452.537 202.892 452.777 202.838 453.017 202.73C453.269 202.622 453.479 202.442 453.647 202.19C453.815 201.938 453.899 201.602 453.899 201.182C453.899 200.654 453.707 200.222 453.323 199.886C452.939 199.55 452.453 199.196 451.865 198.824C451.433 198.548 451.025 198.272 450.641 197.996C450.269 197.72 449.963 197.408 449.723 197.06C449.495 196.712 449.381 196.292 449.381 195.8C449.381 195.26 449.501 194.822 449.741 194.486C449.993 194.138 450.323 193.886 450.731 193.73C451.139 193.562 451.577 193.478 452.045 193.478Z" fill="#1D191A"/>
<path d="M370.554 229.532V237.146C370.554 237.722 370.686 238.112 370.95 238.316C371.214 238.52 371.658 238.622 372.282 238.622V239C372.042 238.988 371.688 238.976 371.22 238.964C370.764 238.94 370.29 238.928 369.798 238.928C369.246 238.928 368.712 238.94 368.196 238.964C367.692 238.976 367.302 238.988 367.026 239V238.622C367.626 238.622 368.094 238.526 368.43 238.334C368.766 238.13 368.934 237.734 368.934 237.146V232.79C368.934 232.214 368.874 231.788 368.754 231.512C368.634 231.236 368.418 231.056 368.106 230.972C367.806 230.888 367.386 230.846 366.846 230.846V230.45C367.71 230.426 368.43 230.348 369.006 230.216C369.582 230.084 370.098 229.856 370.554 229.532ZM378.152 229.478C379.004 229.478 379.754 229.676 380.402 230.072C381.062 230.456 381.578 231.002 381.95 231.71C382.322 232.418 382.508 233.252 382.508 234.212C382.508 235.172 382.316 236.036 381.932 236.804C381.548 237.56 381.014 238.16 380.33 238.604C379.658 239.036 378.866 239.252 377.954 239.252C377.126 239.252 376.382 239.06 375.722 238.676C375.062 238.28 374.54 237.728 374.156 237.02C373.784 236.3 373.598 235.46 373.598 234.5C373.598 233.552 373.784 232.7 374.156 231.944C374.54 231.188 375.074 230.588 375.758 230.144C376.442 229.7 377.24 229.478 378.152 229.478ZM377.99 229.802C377.222 229.802 376.586 230.21 376.082 231.026C375.59 231.842 375.344 232.982 375.344 234.446C375.344 235.526 375.47 236.396 375.722 237.056C375.974 237.704 376.31 238.178 376.73 238.478C377.162 238.778 377.624 238.928 378.116 238.928C378.896 238.928 379.532 238.52 380.024 237.704C380.516 236.876 380.762 235.73 380.762 234.266C380.762 233.186 380.636 232.322 380.384 231.674C380.132 231.014 379.796 230.54 379.376 230.252C378.956 229.952 378.494 229.802 377.99 229.802ZM391.195 233.636V234.68H384.697V233.636H391.195ZM396.83 229.478C397.658 229.478 398.312 229.676 398.792 230.072C399.284 230.456 399.53 231.014 399.53 231.746C399.53 232.226 399.416 232.682 399.188 233.114C398.972 233.534 398.684 233.942 398.324 234.338C397.964 234.722 397.58 235.1 397.172 235.472C396.764 235.832 396.368 236.192 395.984 236.552C395.6 236.9 395.276 237.254 395.012 237.614H398.666C399.158 237.614 399.47 237.548 399.602 237.416C399.734 237.272 399.824 237.032 399.872 236.696H400.178C400.178 237.332 400.184 237.824 400.196 238.172C400.208 238.508 400.226 238.814 400.25 239.09C400.142 239.066 399.944 239.048 399.656 239.036C399.368 239.024 399.038 239.012 398.666 239C398.294 239 397.928 239 397.568 239H393.356V238.694C393.716 238.298 394.148 237.878 394.652 237.434C395.156 236.978 395.642 236.486 396.11 235.958C396.59 235.418 396.986 234.836 397.298 234.212C397.622 233.576 397.784 232.886 397.784 232.142C397.784 231.458 397.622 230.966 397.298 230.666C396.986 230.354 396.548 230.198 395.984 230.198C395.504 230.198 395.06 230.342 394.652 230.63C394.244 230.906 393.884 231.326 393.572 231.89L393.284 231.728C393.464 231.344 393.704 230.984 394.004 230.648C394.316 230.3 394.7 230.018 395.156 229.802C395.624 229.586 396.182 229.478 396.83 229.478ZM406.541 229.478C407.393 229.478 408.143 229.676 408.791 230.072C409.451 230.456 409.967 231.002 410.339 231.71C410.711 232.418 410.897 233.252 410.897 234.212C410.897 235.172 410.705 236.036 410.321 236.804C409.937 237.56 409.403 238.16 408.719 238.604C408.047 239.036 407.255 239.252 406.343 239.252C405.515 239.252 404.771 239.06 404.111 238.676C403.451 238.28 402.929 237.728 402.545 237.02C402.173 236.3 401.987 235.46 401.987 234.5C401.987 233.552 402.173 232.7 402.545 231.944C402.929 231.188 403.463 230.588 404.147 230.144C404.831 229.7 405.629 229.478 406.541 229.478ZM406.379 229.802C405.611 229.802 404.975 230.21 404.471 231.026C403.979 231.842 403.733 232.982 403.733 234.446C403.733 235.526 403.859 236.396 404.111 237.056C404.363 237.704 404.699 238.178 405.119 238.478C405.551 238.778 406.013 238.928 406.505 238.928C407.285 238.928 407.921 238.52 408.413 237.704C408.905 236.876 409.151 235.73 409.151 234.266C409.151 233.186 409.025 232.322 408.773 231.674C408.521 231.014 408.185 230.54 407.765 230.252C407.345 229.952 406.883 229.802 406.379 229.802ZM420.736 229.73V230.09C420.508 230.114 420.298 230.216 420.106 230.396C419.914 230.576 419.734 230.894 419.566 231.35L416.614 239.09H416.308L412.996 231.116C412.768 230.648 412.54 230.366 412.312 230.27C412.096 230.162 411.916 230.108 411.772 230.108V229.73C412.036 229.766 412.312 229.796 412.6 229.82C412.888 229.832 413.2 229.838 413.536 229.838C413.908 229.838 414.298 229.826 414.706 229.802C415.126 229.778 415.516 229.754 415.876 229.73V230.108C415.576 230.108 415.306 230.132 415.066 230.18C414.838 230.216 414.694 230.342 414.634 230.558C414.574 230.762 414.646 231.116 414.85 231.62L417.064 237.11L416.956 237.146L419.008 231.782C419.164 231.386 419.224 231.074 419.188 230.846C419.164 230.606 419.044 230.426 418.828 230.306C418.612 230.186 418.288 230.114 417.856 230.09V229.73C418.072 229.742 418.258 229.754 418.414 229.766C418.57 229.766 418.72 229.772 418.864 229.784C419.02 229.784 419.188 229.784 419.368 229.784C419.644 229.784 419.89 229.778 420.106 229.766C420.334 229.754 420.544 229.742 420.736 229.73ZM416.614 239.09L416.002 240.656C415.882 240.956 415.756 241.208 415.624 241.412C415.504 241.616 415.372 241.784 415.228 241.916C415.036 242.096 414.808 242.216 414.544 242.276C414.28 242.348 414.04 242.384 413.824 242.384C413.596 242.384 413.386 242.342 413.194 242.258C413.014 242.174 412.87 242.048 412.762 241.88C412.654 241.724 412.6 241.532 412.6 241.304C412.6 241.016 412.684 240.782 412.852 240.602C413.02 240.434 413.254 240.35 413.554 240.35C413.806 240.35 414.022 240.422 414.202 240.566C414.382 240.71 414.472 240.92 414.472 241.196C414.472 241.4 414.424 241.568 414.328 241.7C414.232 241.832 414.118 241.934 413.986 242.006C414.01 242.018 414.028 242.024 414.04 242.024C414.064 242.024 414.082 242.024 414.094 242.024C414.418 242.024 414.706 241.91 414.958 241.682C415.21 241.466 415.432 241.112 415.624 240.62L416.272 238.946L416.614 239.09ZM425.652 229.478C426.708 229.478 427.53 229.802 428.118 230.45C428.718 231.086 429.018 232.082 429.018 233.438H422.664L422.646 233.096H427.29C427.314 232.508 427.266 231.968 427.146 231.476C427.026 230.972 426.834 230.57 426.57 230.27C426.318 229.97 425.988 229.82 425.58 229.82C425.028 229.82 424.536 230.096 424.104 230.648C423.684 231.2 423.432 232.076 423.348 233.276L423.402 233.348C423.378 233.528 423.36 233.726 423.348 233.942C423.336 234.158 423.33 234.374 423.33 234.59C423.33 235.406 423.462 236.108 423.726 236.696C423.99 237.284 424.332 237.734 424.752 238.046C425.184 238.346 425.628 238.496 426.084 238.496C426.444 238.496 426.786 238.442 427.11 238.334C427.434 238.214 427.734 238.022 428.01 237.758C428.286 237.494 428.526 237.14 428.73 236.696L429.09 236.84C428.958 237.236 428.742 237.62 428.442 237.992C428.142 238.364 427.764 238.67 427.308 238.91C426.852 239.138 426.324 239.252 425.724 239.252C424.86 239.252 424.116 239.054 423.492 238.658C422.88 238.262 422.406 237.716 422.07 237.02C421.746 236.312 421.584 235.502 421.584 234.59C421.584 233.534 421.752 232.628 422.088 231.872C422.424 231.104 422.898 230.516 423.51 230.108C424.122 229.688 424.836 229.478 425.652 229.478ZM432.939 239.126C432.447 239.126 432.021 239.036 431.661 238.856C431.301 238.664 431.025 238.4 430.833 238.064C430.653 237.728 430.563 237.338 430.563 236.894C430.563 236.366 430.683 235.934 430.923 235.598C431.175 235.262 431.493 234.992 431.877 234.788C432.261 234.584 432.663 234.416 433.083 234.284C433.515 234.14 433.923 234.008 434.307 233.888C434.691 233.756 435.003 233.606 435.243 233.438C435.495 233.27 435.621 233.048 435.621 232.772V231.656C435.621 231.152 435.543 230.768 435.387 230.504C435.243 230.24 435.045 230.066 434.793 229.982C434.541 229.886 434.259 229.838 433.947 229.838C433.647 229.838 433.323 229.88 432.975 229.964C432.639 230.048 432.369 230.222 432.165 230.486C432.393 230.534 432.591 230.654 432.759 230.846C432.927 231.038 433.011 231.284 433.011 231.584C433.011 231.884 432.915 232.124 432.723 232.304C432.531 232.472 432.285 232.556 431.985 232.556C431.637 232.556 431.379 232.448 431.211 232.232C431.055 232.004 430.977 231.752 430.977 231.476C430.977 231.164 431.055 230.912 431.211 230.72C431.367 230.528 431.565 230.348 431.805 230.18C432.081 229.988 432.435 229.826 432.867 229.694C433.311 229.55 433.809 229.478 434.361 229.478C434.853 229.478 435.273 229.538 435.621 229.658C435.969 229.766 436.257 229.928 436.485 230.144C436.797 230.432 437.001 230.786 437.097 231.206C437.193 231.614 437.241 232.106 437.241 232.682V237.686C437.241 237.986 437.283 238.202 437.367 238.334C437.463 238.466 437.607 238.532 437.799 238.532C437.931 238.532 438.057 238.502 438.177 238.442C438.297 238.382 438.441 238.286 438.609 238.154L438.807 238.46C438.555 238.652 438.315 238.814 438.087 238.946C437.859 239.066 437.553 239.126 437.169 239.126C436.821 239.126 436.533 239.066 436.305 238.946C436.077 238.826 435.903 238.652 435.783 238.424C435.675 238.184 435.621 237.884 435.621 237.524C435.297 238.064 434.907 238.466 434.451 238.73C434.007 238.994 433.503 239.126 432.939 239.126ZM433.587 238.406C433.983 238.406 434.349 238.292 434.685 238.064C435.033 237.836 435.345 237.494 435.621 237.038V233.51C435.477 233.714 435.267 233.888 434.991 234.032C434.715 234.164 434.415 234.302 434.091 234.446C433.767 234.578 433.455 234.74 433.155 234.932C432.867 235.112 432.627 235.352 432.435 235.652C432.243 235.952 432.147 236.342 432.147 236.822C432.147 237.302 432.273 237.686 432.525 237.974C432.789 238.262 433.143 238.406 433.587 238.406ZM444.946 229.478C445.27 229.478 445.552 229.544 445.792 229.676C446.044 229.808 446.236 229.982 446.368 230.198C446.512 230.402 446.584 230.636 446.584 230.9C446.584 231.2 446.488 231.464 446.296 231.692C446.116 231.92 445.87 232.034 445.558 232.034C445.306 232.034 445.084 231.956 444.892 231.8C444.7 231.632 444.604 231.398 444.604 231.098C444.604 230.87 444.664 230.678 444.784 230.522C444.916 230.354 445.06 230.222 445.216 230.126C445.132 230.006 445.006 229.946 444.838 229.946C444.466 229.946 444.124 230.06 443.812 230.288C443.5 230.504 443.236 230.786 443.02 231.134C442.804 231.482 442.636 231.854 442.516 232.25C442.396 232.634 442.336 232.994 442.336 233.33V237.146C442.336 237.734 442.504 238.13 442.84 238.334C443.188 238.526 443.656 238.622 444.244 238.622V239C443.968 238.988 443.578 238.976 443.074 238.964C442.57 238.94 442.036 238.928 441.472 238.928C441.064 238.928 440.656 238.94 440.248 238.964C439.852 238.976 439.552 238.988 439.348 239V238.622C439.84 238.622 440.188 238.532 440.392 238.352C440.608 238.172 440.716 237.83 440.716 237.326V231.692C440.716 231.152 440.62 230.756 440.428 230.504C440.236 230.24 439.876 230.108 439.348 230.108V229.73C439.732 229.766 440.104 229.784 440.464 229.784C440.812 229.784 441.142 229.766 441.454 229.73C441.778 229.682 442.072 229.616 442.336 229.532V231.782C442.468 231.434 442.654 231.086 442.894 230.738C443.146 230.378 443.446 230.078 443.794 229.838C444.142 229.598 444.526 229.478 444.946 229.478ZM450.586 229.478C451.066 229.478 451.474 229.556 451.81 229.712C452.146 229.868 452.392 230.012 452.548 230.144C452.944 230.468 453.184 230.252 453.268 229.496H453.682C453.658 229.832 453.64 230.234 453.628 230.702C453.616 231.158 453.61 231.776 453.61 232.556H453.196C453.124 232.112 452.998 231.68 452.818 231.26C452.65 230.84 452.398 230.498 452.062 230.234C451.726 229.958 451.288 229.82 450.748 229.82C450.328 229.82 449.974 229.94 449.686 230.18C449.41 230.408 449.272 230.75 449.272 231.206C449.272 231.566 449.38 231.878 449.596 232.142C449.812 232.394 450.094 232.634 450.442 232.862C450.79 233.078 451.168 233.318 451.576 233.582C452.032 233.87 452.446 234.164 452.818 234.464C453.19 234.764 453.484 235.094 453.7 235.454C453.928 235.814 454.042 236.24 454.042 236.732C454.042 237.284 453.898 237.746 453.61 238.118C453.322 238.49 452.944 238.772 452.476 238.964C452.02 239.156 451.516 239.252 450.964 239.252C450.7 239.252 450.448 239.228 450.208 239.18C449.98 239.144 449.758 239.084 449.542 239C449.422 238.94 449.296 238.868 449.164 238.784C449.044 238.7 448.924 238.61 448.804 238.514C448.684 238.418 448.576 238.424 448.48 238.532C448.384 238.628 448.312 238.826 448.264 239.126H447.85C447.874 238.742 447.892 238.274 447.904 237.722C447.916 237.17 447.922 236.438 447.922 235.526H448.336C448.42 236.198 448.54 236.786 448.696 237.29C448.852 237.794 449.098 238.19 449.434 238.478C449.77 238.754 450.238 238.892 450.838 238.892C451.078 238.892 451.318 238.838 451.558 238.73C451.81 238.622 452.02 238.442 452.188 238.19C452.356 237.938 452.44 237.602 452.44 237.182C452.44 236.654 452.248 236.222 451.864 235.886C451.48 235.55 450.994 235.196 450.406 234.824C449.974 234.548 449.566 234.272 449.182 233.996C448.81 233.72 448.504 233.408 448.264 233.06C448.036 232.712 447.922 232.292 447.922 231.8C447.922 231.26 448.042 230.822 448.282 230.486C448.534 230.138 448.864 229.886 449.272 229.73C449.68 229.562 450.118 229.478 450.586 229.478Z" fill="#1D191A"/>
<path d="M372.012 262.83C372.012 263.514 372.018 264.048 372.03 264.432C372.042 264.816 372.06 265.158 372.084 265.458C371.988 265.434 371.802 265.416 371.526 265.404C371.262 265.392 370.956 265.386 370.608 265.386C370.26 265.374 369.918 265.368 369.582 265.368H367.674L367.458 268.842C367.722 268.71 368.016 268.59 368.34 268.482C368.664 268.362 369.072 268.302 369.564 268.302C370.296 268.302 370.896 268.422 371.364 268.662C371.832 268.902 372.18 269.232 372.408 269.652C372.636 270.072 372.75 270.546 372.75 271.074C372.75 271.77 372.576 272.4 372.228 272.964C371.88 273.528 371.412 274.008 370.824 274.404C370.248 274.812 369.612 275.124 368.916 275.34C368.22 275.556 367.518 275.664 366.81 275.664V275.34C367.338 275.34 367.854 275.25 368.358 275.07C368.862 274.902 369.312 274.644 369.708 274.296C370.116 273.96 370.44 273.54 370.68 273.036C370.92 272.532 371.04 271.938 371.04 271.254C371.04 270.498 370.842 269.91 370.446 269.49C370.062 269.058 369.504 268.842 368.772 268.842C368.46 268.842 368.196 268.872 367.98 268.932C367.776 268.98 367.548 269.052 367.296 269.148L367.116 269.04L367.458 263.676C367.59 263.7 367.74 263.718 367.908 263.73C368.088 263.742 368.262 263.748 368.43 263.748H370.464C370.956 263.748 371.268 263.682 371.4 263.55C371.532 263.406 371.622 263.166 371.67 262.83H372.012ZM378.961 263.478C379.813 263.478 380.563 263.676 381.211 264.072C381.871 264.456 382.387 265.002 382.759 265.71C383.131 266.418 383.317 267.252 383.317 268.212C383.317 269.172 383.125 270.036 382.741 270.804C382.357 271.56 381.823 272.16 381.139 272.604C380.467 273.036 379.675 273.252 378.763 273.252C377.935 273.252 377.191 273.06 376.531 272.676C375.871 272.28 375.349 271.728 374.965 271.02C374.593 270.3 374.407 269.46 374.407 268.5C374.407 267.552 374.593 266.7 374.965 265.944C375.349 265.188 375.883 264.588 376.567 264.144C377.251 263.7 378.049 263.478 378.961 263.478ZM378.799 263.802C378.031 263.802 377.395 264.21 376.891 265.026C376.399 265.842 376.153 266.982 376.153 268.446C376.153 269.526 376.279 270.396 376.531 271.056C376.783 271.704 377.119 272.178 377.539 272.478C377.971 272.778 378.433 272.928 378.925 272.928C379.705 272.928 380.341 272.52 380.833 271.704C381.325 270.876 381.571 269.73 381.571 268.266C381.571 267.186 381.445 266.322 381.193 265.674C380.941 265.014 380.605 264.54 380.185 264.252C379.765 263.952 379.303 263.802 378.799 263.802ZM393.945 260.166L398.337 271.488C398.517 271.944 398.721 272.25 398.949 272.406C399.177 272.55 399.387 272.628 399.579 272.64V273C399.339 272.976 399.045 272.964 398.697 272.964C398.349 272.952 398.001 272.946 397.653 272.946C397.185 272.946 396.747 272.952 396.339 272.964C395.931 272.964 395.601 272.976 395.349 273V272.64C395.961 272.616 396.351 272.514 396.519 272.334C396.687 272.142 396.651 271.74 396.411 271.128L393.063 262.182L393.351 261.948L390.219 270.084C390.027 270.564 389.913 270.972 389.877 271.308C389.841 271.632 389.871 271.89 389.967 272.082C390.075 272.274 390.249 272.412 390.489 272.496C390.741 272.58 391.053 272.628 391.425 272.64V273C391.089 272.976 390.735 272.964 390.363 272.964C390.003 272.952 389.667 272.946 389.355 272.946C389.055 272.946 388.797 272.952 388.581 272.964C388.377 272.964 388.185 272.976 388.005 273V272.64C388.245 272.58 388.491 272.442 388.743 272.226C388.995 271.998 389.223 271.614 389.427 271.074L393.657 260.166C393.705 260.166 393.753 260.166 393.801 260.166C393.849 260.166 393.897 260.166 393.945 260.166ZM396.141 267.816V268.176H390.777L390.957 267.816H396.141ZM405.337 263.478C406.321 263.478 407.137 263.886 407.785 264.702C408.433 265.506 408.757 266.73 408.757 268.374C408.757 269.454 408.571 270.36 408.199 271.092C407.839 271.812 407.353 272.352 406.741 272.712C406.129 273.072 405.463 273.252 404.743 273.252C404.143 273.252 403.561 273.084 402.997 272.748C402.445 272.4 402.031 271.89 401.755 271.218L402.115 271.416C402.415 271.896 402.787 272.256 403.231 272.496C403.675 272.724 404.131 272.838 404.599 272.838C405.403 272.838 406.003 272.478 406.399 271.758C406.807 271.026 407.011 269.898 407.011 268.374C407.011 267.402 406.933 266.592 406.777 265.944C406.621 265.296 406.381 264.816 406.057 264.504C405.733 264.18 405.319 264.018 404.815 264.018C404.263 264.018 403.747 264.27 403.267 264.774C402.799 265.266 402.511 265.992 402.403 266.952L402.187 266.7C402.319 265.68 402.673 264.888 403.249 264.324C403.837 263.76 404.533 263.478 405.337 263.478ZM402.529 258.906V272.064C402.373 272.196 402.211 272.334 402.043 272.478C401.887 272.61 401.731 272.742 401.575 272.874C401.419 273.006 401.257 273.144 401.089 273.288L400.783 273.162C400.831 272.994 400.861 272.826 400.873 272.658C400.897 272.478 400.909 272.298 400.909 272.118V261.066C400.909 260.526 400.813 260.13 400.621 259.878C400.429 259.614 400.069 259.482 399.541 259.482V259.104C399.925 259.14 400.297 259.158 400.657 259.158C401.005 259.158 401.335 259.14 401.647 259.104C401.971 259.056 402.265 258.99 402.529 258.906ZM414.543 263.478C415.311 263.478 416.001 263.646 416.613 263.982C417.225 264.318 417.711 264.846 418.071 265.566C418.443 266.286 418.629 267.222 418.629 268.374C418.629 269.526 418.443 270.462 418.071 271.182C417.711 271.89 417.225 272.412 416.613 272.748C416.001 273.084 415.311 273.252 414.543 273.252C413.787 273.252 413.097 273.084 412.473 272.748C411.861 272.412 411.369 271.89 410.997 271.182C410.637 270.462 410.457 269.526 410.457 268.374C410.457 267.222 410.637 266.286 410.997 265.566C411.369 264.846 411.861 264.318 412.473 263.982C413.097 263.646 413.787 263.478 414.543 263.478ZM414.543 263.838C413.859 263.838 413.295 264.192 412.851 264.9C412.419 265.608 412.203 266.766 412.203 268.374C412.203 269.982 412.419 271.14 412.851 271.848C413.295 272.544 413.859 272.892 414.543 272.892C415.227 272.892 415.785 272.544 416.217 271.848C416.661 271.14 416.883 269.982 416.883 268.374C416.883 266.766 416.661 265.608 416.217 264.9C415.785 264.192 415.227 263.838 414.543 263.838ZM428.098 263.73V264.09C427.87 264.114 427.66 264.216 427.468 264.396C427.276 264.576 427.096 264.894 426.928 265.35L423.976 273.09C423.928 273.09 423.88 273.09 423.832 273.09C423.784 273.09 423.73 273.09 423.67 273.09L420.358 265.116C420.166 264.648 419.974 264.366 419.782 264.27C419.602 264.162 419.446 264.108 419.314 264.108V263.73C419.554 263.742 419.8 263.76 420.052 263.784C420.316 263.796 420.598 263.802 420.898 263.802C421.27 263.802 421.66 263.796 422.068 263.784C422.488 263.772 422.878 263.754 423.238 263.73V264.108C422.938 264.108 422.668 264.132 422.428 264.18C422.2 264.216 422.05 264.33 421.978 264.522C421.918 264.714 421.978 265.044 422.158 265.512L424.408 271.074L424.3 271.164L426.352 265.782C426.508 265.386 426.568 265.074 426.532 264.846C426.508 264.606 426.388 264.426 426.172 264.306C425.968 264.186 425.65 264.114 425.218 264.09V263.73C425.434 263.742 425.62 263.754 425.776 263.766C425.932 263.766 426.082 263.772 426.226 263.784C426.382 263.784 426.55 263.784 426.73 263.784C427.006 263.784 427.252 263.778 427.468 263.766C427.696 263.754 427.906 263.742 428.098 263.73ZM432.894 263.478C433.95 263.478 434.772 263.802 435.36 264.45C435.96 265.086 436.26 266.082 436.26 267.438H429.906L429.888 267.096H434.532C434.556 266.508 434.508 265.968 434.388 265.476C434.268 264.972 434.076 264.57 433.812 264.27C433.56 263.97 433.23 263.82 432.822 263.82C432.27 263.82 431.778 264.096 431.346 264.648C430.926 265.2 430.674 266.076 430.59 267.276L430.644 267.348C430.62 267.528 430.602 267.726 430.59 267.942C430.578 268.158 430.572 268.374 430.572 268.59C430.572 269.406 430.704 270.108 430.968 270.696C431.232 271.284 431.574 271.734 431.994 272.046C432.426 272.346 432.87 272.496 433.326 272.496C433.686 272.496 434.028 272.442 434.352 272.334C434.676 272.214 434.976 272.022 435.252 271.758C435.528 271.494 435.768 271.14 435.972 270.696L436.332 270.84C436.2 271.236 435.984 271.62 435.684 271.992C435.384 272.364 435.006 272.67 434.55 272.91C434.094 273.138 433.566 273.252 432.966 273.252C432.102 273.252 431.358 273.054 430.734 272.658C430.122 272.262 429.648 271.716 429.312 271.02C428.988 270.312 428.826 269.502 428.826 268.59C428.826 267.534 428.994 266.628 429.33 265.872C429.666 265.104 430.14 264.516 430.752 264.108C431.364 263.688 432.078 263.478 432.894 263.478Z" fill="#1D191A"/>
<path d="M300 213C300 295.843 232.843 363 150 363C67.1573 363 0 295.843 0 213C0 130.157 67.1573 63 150 63C232.843 63 300 130.157 300 213ZM56.0571 213C56.0571 264.883 98.1168 306.943 150 306.943C201.883 306.943 243.943 264.883 243.943 213C243.943 161.117 201.883 119.057 150 119.057C98.1168 119.057 56.0571 161.117 56.0571 213Z" fill="#FF7070"/>
<path d="M300 213C300 189.754 294.597 166.826 284.218 146.026C273.839 125.226 258.767 107.122 240.193 93.1449C221.619 79.1674 200.05 69.6982 177.189 65.4847C154.328 61.2711 130.8 62.4286 108.463 68.8656L123.986 122.731C137.976 118.699 152.71 117.974 167.028 120.613C181.345 123.252 194.854 129.183 206.487 137.936C218.119 146.69 227.558 158.028 234.059 171.055C240.559 184.082 243.943 198.441 243.943 213H300Z" fill="#183A1D"/>
<path d="M121.646 65.7042C99.3925 69.988 78.399 79.2582 60.2421 92.8188C42.0852 106.379 27.2368 123.878 16.8123 144L66.5864 169.786C73.1152 157.184 82.4145 146.225 93.7859 137.732C105.157 129.239 118.305 123.434 132.242 120.751L121.646 65.7042Z" fill="#896AEA"/>
<path d="M31.5709 120.943C11.257 147.076 0.157432 179.195 0.00166106 212.294C-0.15411 245.394 10.6426 277.615 30.7097 303.939L75.2902 269.954C62.7225 253.468 55.9606 233.288 56.0582 212.558C56.1557 191.828 63.1072 171.713 75.8295 155.346L31.5709 120.943Z" fill="#F5DC70"/>
<path d="M78.722 105.636C78.722 106.516 78.7293 107.205 78.744 107.704C78.7587 108.188 78.7807 108.628 78.81 109.024C78.6927 108.995 78.4653 108.973 78.128 108.958C77.8053 108.943 77.4313 108.936 77.006 108.936C76.5807 108.921 76.1627 108.914 75.752 108.914H73.068L72.782 112.984C73.1047 112.793 73.486 112.625 73.926 112.478C74.3807 112.331 74.938 112.258 75.598 112.258C76.522 112.258 77.2773 112.412 77.864 112.72C78.4653 113.013 78.9053 113.417 79.184 113.93C79.4773 114.443 79.624 115.023 79.624 115.668C79.624 116.519 79.3967 117.289 78.942 117.978C78.4873 118.667 77.8787 119.254 77.116 119.738C76.368 120.222 75.5393 120.596 74.63 120.86C73.7207 121.124 72.804 121.256 71.88 121.256V120.86C72.54 120.86 73.178 120.75 73.794 120.53C74.4247 120.325 74.9893 120.009 75.488 119.584C75.9867 119.159 76.3827 118.638 76.676 118.022C76.984 117.406 77.138 116.687 77.138 115.866C77.138 114.942 76.9033 114.223 76.434 113.71C75.9793 113.197 75.3193 112.94 74.454 112.94C74.058 112.94 73.7207 112.984 73.442 113.072C73.178 113.145 72.892 113.255 72.584 113.402L72.342 113.248L72.848 106.582C73.0093 106.611 73.1927 106.633 73.398 106.648C73.618 106.663 73.8307 106.67 74.036 106.67H76.896C77.4387 106.67 77.7907 106.597 77.952 106.45C78.128 106.289 78.238 106.017 78.282 105.636H78.722ZM84.5891 101.258C85.6011 101.258 86.4151 101.573 87.0311 102.204C87.6471 102.835 87.9551 103.715 87.9551 104.844C87.9551 105.577 87.8085 106.223 87.5151 106.78C87.2218 107.337 86.8185 107.77 86.3051 108.078C85.8065 108.386 85.2345 108.54 84.5891 108.54C83.5771 108.54 82.7558 108.225 82.1251 107.594C81.5091 106.963 81.2011 106.083 81.2011 104.954C81.2011 104.221 81.3478 103.575 81.6411 103.018C81.9491 102.461 82.3525 102.028 82.8511 101.72C83.3645 101.412 83.9438 101.258 84.5891 101.258ZM92.4651 111.422C91.9225 111.422 91.5191 111.701 91.2551 112.258C90.9911 112.815 90.8591 113.629 90.8591 114.7C90.8591 115.771 91.0131 116.577 91.3211 117.12C91.6291 117.648 92.0398 117.912 92.5531 117.912C93.0958 117.912 93.4918 117.633 93.7411 117.076C94.0051 116.519 94.1371 115.712 94.1371 114.656C94.1371 113.571 93.9905 112.764 93.6971 112.236C93.4038 111.693 92.9931 111.422 92.4651 111.422ZM92.5091 111.026C93.5211 111.026 94.3351 111.341 94.9511 111.972C95.5671 112.603 95.8751 113.483 95.8751 114.612C95.8751 115.345 95.7285 115.991 95.4351 116.548C95.1418 117.105 94.7385 117.538 94.2251 117.846C93.7265 118.154 93.1545 118.308 92.5091 118.308C91.4971 118.308 90.6758 117.993 90.0451 117.362C89.4291 116.731 89.1211 115.851 89.1211 114.722C89.1211 113.989 89.2678 113.343 89.5611 112.786C89.8691 112.229 90.2725 111.796 90.7711 111.488C91.2845 111.18 91.8638 111.026 92.5091 111.026ZM84.5451 101.654C84.0025 101.654 83.5991 101.933 83.3351 102.49C83.0711 103.047 82.9391 103.861 82.9391 104.932C82.9391 106.003 83.0931 106.809 83.4011 107.352C83.7091 107.88 84.1198 108.144 84.6331 108.144C85.1758 108.144 85.5718 107.865 85.8211 107.308C86.0851 106.751 86.2171 105.944 86.2171 104.888C86.2171 103.803 86.0705 102.996 85.7771 102.468C85.4838 101.925 85.0731 101.654 84.5451 101.654ZM94.9071 99.872L95.3251 100.158L82.4551 119.21L82.0371 118.924L94.9071 99.872Z" fill="white"/>
<path d="M222.626 122.84C223.286 122.84 223.865 122.943 224.364 123.148C224.877 123.339 225.273 123.625 225.552 124.006C225.845 124.373 225.992 124.827 225.992 125.37C225.992 125.927 225.823 126.448 225.486 126.932C225.163 127.416 224.723 127.834 224.166 128.186C223.623 128.523 223.007 128.795 222.318 129C223.11 128.985 223.843 129.103 224.518 129.352C225.193 129.601 225.735 129.975 226.146 130.474C226.571 130.958 226.784 131.581 226.784 132.344C226.784 133.019 226.615 133.642 226.278 134.214C225.955 134.771 225.508 135.27 224.936 135.71C224.364 136.165 223.704 136.546 222.956 136.854C222.223 137.177 221.453 137.419 220.646 137.58C219.839 137.741 219.04 137.822 218.248 137.822V137.404C218.981 137.389 219.707 137.265 220.426 137.03C221.145 136.81 221.79 136.487 222.362 136.062C222.949 135.651 223.418 135.131 223.77 134.5C224.122 133.869 224.298 133.151 224.298 132.344C224.298 131.479 224.093 130.767 223.682 130.21C223.271 129.638 222.707 129.323 221.988 129.264C221.768 129.367 221.57 129.455 221.394 129.528C221.218 129.587 221.057 129.616 220.91 129.616C220.793 129.616 220.697 129.594 220.624 129.55C220.565 129.491 220.536 129.411 220.536 129.308C220.536 129.161 220.602 129.051 220.734 128.978C220.866 128.905 221.005 128.868 221.152 128.868C221.269 128.868 221.387 128.883 221.504 128.912C221.636 128.927 221.775 128.941 221.922 128.956C222.538 128.516 222.971 128.032 223.22 127.504C223.484 126.961 223.616 126.419 223.616 125.876C223.616 125.187 223.44 124.688 223.088 124.38C222.751 124.057 222.289 123.896 221.702 123.896C221.101 123.896 220.551 124.057 220.052 124.38C219.553 124.688 219.135 125.157 218.798 125.788L218.402 125.59C218.637 125.106 218.937 124.659 219.304 124.248C219.671 123.823 220.125 123.485 220.668 123.236C221.211 122.972 221.863 122.84 222.626 122.84ZM234.57 122.84C235.655 122.84 236.608 123.082 237.43 123.566C238.266 124.035 238.918 124.71 239.388 125.59C239.872 126.455 240.114 127.475 240.114 128.648C240.114 129.821 239.864 130.877 239.366 131.816C238.882 132.74 238.207 133.473 237.342 134.016C236.491 134.544 235.486 134.808 234.328 134.808C233.272 134.808 232.318 134.573 231.468 134.104C230.632 133.62 229.972 132.945 229.488 132.08C229.018 131.2 228.784 130.173 228.784 129C228.784 127.841 229.018 126.8 229.488 125.876C229.972 124.937 230.646 124.197 231.512 123.654C232.392 123.111 233.411 122.84 234.57 122.84ZM234.372 123.236C233.477 123.236 232.744 123.742 232.172 124.754C231.6 125.751 231.314 127.145 231.314 128.934C231.314 130.254 231.46 131.317 231.754 132.124C232.047 132.916 232.436 133.495 232.92 133.862C233.418 134.229 233.954 134.412 234.526 134.412C235.42 134.412 236.154 133.913 236.726 132.916C237.298 131.904 237.584 130.503 237.584 128.714C237.584 127.394 237.437 126.331 237.144 125.524C236.85 124.717 236.454 124.138 235.956 123.786C235.472 123.419 234.944 123.236 234.372 123.236ZM245.355 117.758C246.367 117.758 247.181 118.073 247.797 118.704C248.413 119.335 248.721 120.215 248.721 121.344C248.721 122.077 248.574 122.723 248.281 123.28C247.987 123.837 247.584 124.27 247.071 124.578C246.572 124.886 246 125.04 245.355 125.04C244.343 125.04 243.521 124.725 242.891 124.094C242.275 123.463 241.967 122.583 241.967 121.454C241.967 120.721 242.113 120.075 242.407 119.518C242.715 118.961 243.118 118.528 243.617 118.22C244.13 117.912 244.709 117.758 245.355 117.758ZM253.231 127.922C252.688 127.922 252.285 128.201 252.021 128.758C251.757 129.315 251.625 130.129 251.625 131.2C251.625 132.271 251.779 133.077 252.087 133.62C252.395 134.148 252.805 134.412 253.319 134.412C253.861 134.412 254.257 134.133 254.507 133.576C254.771 133.019 254.903 132.212 254.903 131.156C254.903 130.071 254.756 129.264 254.463 128.736C254.169 128.193 253.759 127.922 253.231 127.922ZM253.275 127.526C254.287 127.526 255.101 127.841 255.717 128.472C256.333 129.103 256.641 129.983 256.641 131.112C256.641 131.845 256.494 132.491 256.201 133.048C255.907 133.605 255.504 134.038 254.991 134.346C254.492 134.654 253.92 134.808 253.275 134.808C252.263 134.808 251.441 134.493 250.811 133.862C250.195 133.231 249.887 132.351 249.887 131.222C249.887 130.489 250.033 129.843 250.327 129.286C250.635 128.729 251.038 128.296 251.537 127.988C252.05 127.68 252.629 127.526 253.275 127.526ZM245.311 118.154C244.768 118.154 244.365 118.433 244.101 118.99C243.837 119.547 243.705 120.361 243.705 121.432C243.705 122.503 243.859 123.309 244.167 123.852C244.475 124.38 244.885 124.644 245.399 124.644C245.941 124.644 246.337 124.365 246.587 123.808C246.851 123.251 246.983 122.444 246.983 121.388C246.983 120.303 246.836 119.496 246.543 118.968C246.249 118.425 245.839 118.154 245.311 118.154ZM255.673 116.372L256.091 116.658L243.221 135.71L242.803 135.424L255.673 116.372Z" fill="white"/>
<path d="M176.581 319.065C176.581 319.945 176.589 320.634 176.603 321.133C176.618 321.617 176.64 322.057 176.669 322.453C176.552 322.423 176.325 322.401 175.987 322.387C175.665 322.372 175.291 322.365 174.865 322.365C174.44 322.35 174.022 322.343 173.611 322.343H170.927L170.641 326.413C170.964 326.222 171.345 326.053 171.785 325.907C172.24 325.76 172.797 325.687 173.457 325.687C174.381 325.687 175.137 325.841 175.723 326.149C176.325 326.442 176.765 326.845 177.043 327.359C177.337 327.872 177.483 328.451 177.483 329.097C177.483 329.947 177.256 330.717 176.801 331.407C176.347 332.096 175.738 332.683 174.975 333.167C174.227 333.651 173.399 334.025 172.489 334.289C171.58 334.553 170.663 334.685 169.739 334.685V334.289C170.399 334.289 171.037 334.179 171.653 333.959C172.284 333.753 172.849 333.438 173.347 333.013C173.846 332.587 174.242 332.067 174.535 331.451C174.843 330.835 174.997 330.116 174.997 329.295C174.997 328.371 174.763 327.652 174.293 327.139C173.839 326.625 173.179 326.369 172.313 326.369C171.917 326.369 171.58 326.413 171.301 326.501C171.037 326.574 170.751 326.684 170.443 326.831L170.201 326.677L170.707 320.011C170.869 320.04 171.052 320.062 171.257 320.077C171.477 320.091 171.69 320.099 171.895 320.099H174.755C175.298 320.099 175.65 320.025 175.811 319.879C175.987 319.717 176.097 319.446 176.141 319.065H176.581ZM185.199 319.769C186.284 319.769 187.237 320.011 188.059 320.495C188.895 320.964 189.547 321.639 190.017 322.519C190.501 323.384 190.742 324.403 190.742 325.577C190.742 326.75 190.493 327.806 189.995 328.745C189.511 329.669 188.836 330.402 187.971 330.945C187.12 331.473 186.115 331.737 184.957 331.737C183.901 331.737 182.947 331.502 182.097 331.033C181.261 330.549 180.601 329.874 180.117 329.009C179.647 328.129 179.413 327.102 179.413 325.929C179.413 324.77 179.647 323.729 180.117 322.805C180.601 321.866 181.275 321.125 182.141 320.583C183.021 320.04 184.04 319.769 185.199 319.769ZM185.001 320.165C184.106 320.165 183.373 320.671 182.801 321.683C182.229 322.68 181.943 324.073 181.943 325.863C181.943 327.183 182.089 328.246 182.383 329.053C182.676 329.845 183.065 330.424 183.549 330.791C184.047 331.157 184.583 331.341 185.155 331.341C186.049 331.341 186.783 330.842 187.355 329.845C187.927 328.833 188.213 327.432 188.213 325.643C188.213 324.323 188.066 323.259 187.773 322.453C187.479 321.646 187.083 321.067 186.585 320.715C186.101 320.348 185.573 320.165 185.001 320.165ZM195.984 314.687C196.996 314.687 197.81 315.002 198.426 315.633C199.042 316.263 199.35 317.143 199.35 318.273C199.35 319.006 199.203 319.651 198.91 320.209C198.616 320.766 198.213 321.199 197.7 321.507C197.201 321.815 196.629 321.969 195.984 321.969C194.972 321.969 194.15 321.653 193.52 321.023C192.904 320.392 192.596 319.512 192.596 318.383C192.596 317.649 192.742 317.004 193.036 316.447C193.344 315.889 193.747 315.457 194.246 315.149C194.759 314.841 195.338 314.687 195.984 314.687ZM203.86 324.851C203.317 324.851 202.914 325.129 202.65 325.687C202.386 326.244 202.254 327.058 202.254 328.129C202.254 329.199 202.408 330.006 202.716 330.549C203.024 331.077 203.434 331.341 203.948 331.341C204.49 331.341 204.886 331.062 205.136 330.505C205.4 329.947 205.532 329.141 205.532 328.085C205.532 326.999 205.385 326.193 205.092 325.665C204.798 325.122 204.388 324.851 203.86 324.851ZM203.904 324.455C204.916 324.455 205.73 324.77 206.346 325.401C206.962 326.031 207.27 326.911 207.27 328.041C207.27 328.774 207.123 329.419 206.83 329.977C206.536 330.534 206.133 330.967 205.62 331.275C205.121 331.583 204.549 331.737 203.904 331.737C202.892 331.737 202.07 331.421 201.44 330.791C200.824 330.16 200.516 329.28 200.516 328.151C200.516 327.417 200.662 326.772 200.956 326.215C201.264 325.657 201.667 325.225 202.166 324.917C202.679 324.609 203.258 324.455 203.904 324.455ZM195.94 315.083C195.397 315.083 194.994 315.361 194.73 315.919C194.466 316.476 194.334 317.29 194.334 318.361C194.334 319.431 194.488 320.238 194.796 320.781C195.104 321.309 195.514 321.573 196.028 321.573C196.57 321.573 196.966 321.294 197.216 320.737C197.48 320.179 197.612 319.373 197.612 318.317C197.612 317.231 197.465 316.425 197.172 315.897C196.878 315.354 196.468 315.083 195.94 315.083ZM206.302 313.301L206.72 313.587L193.85 332.639L193.432 332.353L206.302 313.301Z" fill="white"/>
<path d="M18.4435 216.911C19.4995 216.911 20.3355 217.153 20.9515 217.637C21.5675 218.121 21.8755 218.811 21.8755 219.705C21.8755 220.277 21.7361 220.82 21.4575 221.333C21.1788 221.832 20.8121 222.309 20.3575 222.763C19.9175 223.218 19.4408 223.658 18.9275 224.083C18.4141 224.509 17.9155 224.927 17.4315 225.337C16.9621 225.733 16.5588 226.144 16.2215 226.569H20.7975C21.3988 226.569 21.7801 226.489 21.9415 226.327C22.1028 226.166 22.2128 225.887 22.2715 225.491H22.6675C22.6675 226.342 22.6748 226.995 22.6895 227.449C22.7041 227.904 22.7261 228.315 22.7555 228.681C22.6235 228.652 22.3815 228.63 22.0295 228.615C21.6775 228.601 21.2741 228.586 20.8195 228.571C20.3648 228.571 19.9175 228.571 19.4775 228.571H13.9115V228.175C14.3368 227.706 14.8575 227.2 15.4735 226.657C16.0895 226.115 16.6835 225.521 17.2555 224.875C17.8421 224.23 18.3261 223.526 18.7075 222.763C19.1035 221.986 19.3015 221.15 19.3015 220.255C19.3015 219.434 19.1108 218.84 18.7295 218.473C18.3628 218.107 17.8348 217.923 17.1455 217.923C16.5441 217.923 15.9941 218.092 15.4955 218.429C15.0115 218.752 14.5788 219.236 14.1975 219.881L13.8455 219.661C14.0948 219.192 14.4175 218.752 14.8135 218.341C15.2095 217.916 15.7008 217.571 16.2875 217.307C16.8888 217.043 17.6075 216.911 18.4435 216.911ZM31.4486 216.207C31.4486 217.087 31.4559 217.777 31.4706 218.275C31.4852 218.759 31.5072 219.199 31.5366 219.595C31.4192 219.566 31.1919 219.544 30.8546 219.529C30.5319 219.515 30.1579 219.507 29.7326 219.507C29.3072 219.493 28.8892 219.485 28.4786 219.485H25.7946L25.5086 223.555C25.8312 223.365 26.2126 223.196 26.6526 223.049C27.1072 222.903 27.6646 222.829 28.3246 222.829C29.2486 222.829 30.0039 222.983 30.5906 223.291C31.1919 223.585 31.6319 223.988 31.9106 224.501C32.2039 225.015 32.3506 225.594 32.3506 226.239C32.3506 227.09 32.1232 227.86 31.6686 228.549C31.2139 229.239 30.6052 229.825 29.8426 230.309C29.0946 230.793 28.2659 231.167 27.3566 231.431C26.4472 231.695 25.5306 231.827 24.6066 231.827V231.431C25.2666 231.431 25.9046 231.321 26.5206 231.101C27.1512 230.896 27.7159 230.581 28.2146 230.155C28.7132 229.73 29.1092 229.209 29.4026 228.593C29.7106 227.977 29.8646 227.259 29.8646 226.437C29.8646 225.513 29.6299 224.795 29.1606 224.281C28.7059 223.768 28.0459 223.511 27.1806 223.511C26.7846 223.511 26.4472 223.555 26.1686 223.643C25.9046 223.717 25.6186 223.827 25.3106 223.973L25.0686 223.819L25.5746 217.153C25.7359 217.183 25.9192 217.205 26.1246 217.219C26.3446 217.234 26.5572 217.241 26.7626 217.241H29.6226C30.1652 217.241 30.5172 217.168 30.6786 217.021C30.8546 216.86 30.9646 216.589 31.0086 216.207H31.4486ZM37.3157 211.829C38.3277 211.829 39.1417 212.145 39.7577 212.775C40.3737 213.406 40.6817 214.286 40.6817 215.415C40.6817 216.149 40.535 216.794 40.2417 217.351C39.9484 217.909 39.545 218.341 39.0317 218.649C38.533 218.957 37.961 219.111 37.3157 219.111C36.3037 219.111 35.4824 218.796 34.8517 218.165C34.2357 217.535 33.9277 216.655 33.9277 215.525C33.9277 214.792 34.0744 214.147 34.3677 213.589C34.6757 213.032 35.079 212.599 35.5777 212.291C36.091 211.983 36.6704 211.829 37.3157 211.829ZM45.1917 221.993C44.649 221.993 44.2457 222.272 43.9817 222.829C43.7177 223.387 43.5857 224.201 43.5857 225.271C43.5857 226.342 43.7397 227.149 44.0477 227.691C44.3557 228.219 44.7664 228.483 45.2797 228.483C45.8224 228.483 46.2184 228.205 46.4677 227.647C46.7317 227.09 46.8637 226.283 46.8637 225.227C46.8637 224.142 46.717 223.335 46.4237 222.807C46.1304 222.265 45.7197 221.993 45.1917 221.993ZM45.2357 221.597C46.2477 221.597 47.0617 221.913 47.6777 222.543C48.2937 223.174 48.6017 224.054 48.6017 225.183C48.6017 225.917 48.455 226.562 48.1617 227.119C47.8684 227.677 47.465 228.109 46.9517 228.417C46.453 228.725 45.881 228.879 45.2357 228.879C44.2237 228.879 43.4024 228.564 42.7717 227.933C42.1557 227.303 41.8477 226.423 41.8477 225.293C41.8477 224.56 41.9944 223.915 42.2877 223.357C42.5957 222.8 42.999 222.367 43.4977 222.059C44.011 221.751 44.5904 221.597 45.2357 221.597ZM37.2717 212.225C36.729 212.225 36.3257 212.504 36.0617 213.061C35.7977 213.619 35.6657 214.433 35.6657 215.503C35.6657 216.574 35.8197 217.381 36.1277 217.923C36.4357 218.451 36.8464 218.715 37.3597 218.715C37.9024 218.715 38.2984 218.437 38.5477 217.879C38.8117 217.322 38.9437 216.515 38.9437 215.459C38.9437 214.374 38.797 213.567 38.5037 213.039C38.2104 212.497 37.7997 212.225 37.2717 212.225ZM47.6337 210.443L48.0517 210.729L35.1817 229.781L34.7637 229.495L47.6337 210.443Z" fill="white"/>
<rect x="328" y="158" width="28" height="15" fill="#183A1D"/>
<rect x="328" y="194" width="28" height="14" fill="#FF7070"/>
<rect x="328" y="229" width="28" height="15" fill="#896AEA"/>
<rect x="328" y="263" width="28" height="15" fill="#F5DC70"/>
</svg>
