<svg width="476" height="364" viewBox="0 0 476 364" fill="none" xmlns="http://www.w3.org/2000/svg">
<path d="M12.88 31V30.44C13.5147 30.4027 13.9907 30.328 14.308 30.216C14.644 30.104 14.868 29.88 14.98 29.544C15.092 29.208 15.148 28.704 15.148 28.032V14.144C15.148 13.4533 15.092 12.9493 14.98 12.632C14.868 12.296 14.644 12.072 14.308 11.96C13.9907 11.8293 13.5147 11.7547 12.88 11.736V11.176C13.3093 11.1947 13.8507 11.2133 14.504 11.232C15.1573 11.2507 15.8013 11.26 16.436 11.26C17.164 11.26 17.8453 11.2507 18.48 11.232C19.1147 11.2133 19.628 11.1947 20.02 11.176V11.736C19.3853 11.7547 18.9 11.8293 18.564 11.96C18.2467 12.072 18.032 12.296 17.92 12.632C17.808 12.9493 17.752 13.4533 17.752 14.144V28.032C17.752 28.704 17.808 29.208 17.92 29.544C18.032 29.88 18.2467 30.104 18.564 30.216C18.9 30.328 19.3853 30.4027 20.02 30.44V31C19.628 30.9627 19.1147 30.944 18.48 30.944C17.8453 30.9253 17.164 30.916 16.436 30.916C15.8013 30.916 15.1573 30.9253 14.504 30.944C13.8507 30.944 13.3093 30.9627 12.88 31ZM1.176 31V30.44C1.81067 30.4027 2.28667 30.328 2.604 30.216C2.94 30.104 3.164 29.88 3.276 29.544C3.388 29.208 3.444 28.704 3.444 28.032V14.144C3.444 13.4533 3.388 12.9493 3.276 12.632C3.164 12.296 2.94 12.072 2.604 11.96C2.28667 11.8293 1.81067 11.7547 1.176 11.736V11.176C1.568 11.1947 2.08133 11.2133 2.716 11.232C3.35067 11.2507 4.032 11.26 4.76 11.26C5.41333 11.26 6.05733 11.2507 6.692 11.232C7.34533 11.2133 7.88667 11.1947 8.316 11.176V11.736C7.68133 11.7547 7.196 11.8293 6.86 11.96C6.54267 12.072 6.328 12.296 6.216 12.632C6.104 12.9493 6.048 13.4533 6.048 14.144V28.032C6.048 28.704 6.104 29.208 6.216 29.544C6.328 29.88 6.54267 30.104 6.86 30.216C7.196 30.328 7.68133 30.4027 8.316 30.44V31C7.88667 30.9627 7.34533 30.944 6.692 30.944C6.05733 30.9253 5.41333 30.916 4.76 30.916C4.032 30.916 3.35067 30.9253 2.716 30.944C2.08133 30.944 1.568 30.9627 1.176 31ZM5.068 21.312V20.752H16.128V21.312H5.068ZM28.3712 16.188C29.5659 16.188 30.6392 16.4493 31.5912 16.972C32.5432 17.4947 33.2992 18.316 33.8592 19.436C34.4379 20.556 34.7272 22.012 34.7272 23.804C34.7272 25.596 34.4379 27.052 33.8592 28.172C33.2992 29.2733 32.5432 30.0853 31.5912 30.608C30.6392 31.1307 29.5659 31.392 28.3712 31.392C27.1952 31.392 26.1219 31.1307 25.1512 30.608C24.1992 30.0853 23.4339 29.2733 22.8552 28.172C22.2952 27.052 22.0152 25.596 22.0152 23.804C22.0152 22.012 22.2952 20.556 22.8552 19.436C23.4339 18.316 24.1992 17.4947 25.1512 16.972C26.1219 16.4493 27.1952 16.188 28.3712 16.188ZM28.3712 16.748C27.3072 16.748 26.4299 17.2987 25.7392 18.4C25.0672 19.5013 24.7312 21.3027 24.7312 23.804C24.7312 26.3053 25.0672 28.1067 25.7392 29.208C26.4299 30.2907 27.3072 30.832 28.3712 30.832C29.4352 30.832 30.3032 30.2907 30.9752 29.208C31.6659 28.1067 32.0112 26.3053 32.0112 23.804C32.0112 21.3027 31.6659 19.5013 30.9752 18.4C30.3032 17.2987 29.4352 16.748 28.3712 16.748ZM41.9517 16.58V17.168C41.485 17.168 41.0743 17.2053 40.7197 17.28C40.365 17.336 40.1317 17.5227 40.0197 17.84C39.9077 18.1573 39.9917 18.7173 40.2717 19.52L43.1837 27.864L42.9877 27.836L47.1037 16.468L47.6637 16.692L42.5397 31.14C42.465 31.14 42.3903 31.14 42.3157 31.14C42.241 31.14 42.157 31.14 42.0637 31.14L37.4717 18.736C37.173 17.9893 36.8743 17.5413 36.5757 17.392C36.2957 17.2427 36.053 17.168 35.8477 17.168V16.58C36.221 16.636 36.6037 16.6827 36.9957 16.72C37.4063 16.7387 37.845 16.748 38.3117 16.748C38.8903 16.748 39.497 16.7293 40.1317 16.692C40.785 16.6547 41.3917 16.6173 41.9517 16.58ZM57.3237 16.58V17.14C56.969 17.1773 56.633 17.336 56.3157 17.616C56.017 17.8773 55.7463 18.372 55.5037 19.1L51.4437 31.14C51.369 31.14 51.2943 31.14 51.2197 31.14C51.145 31.14 51.061 31.14 50.9677 31.14L46.4597 19.688L47.1037 16.468C47.2157 16.468 47.3183 16.468 47.4117 16.468C47.5237 16.468 47.6357 16.468 47.7477 16.468L52.1157 28.032L51.8917 28.2L54.6637 19.772C54.869 19.1373 54.9437 18.6427 54.8877 18.288C54.8503 17.9147 54.6637 17.644 54.3277 17.476C54.0103 17.2893 53.5157 17.1773 52.8437 17.14V16.58C53.1797 16.5987 53.469 16.6173 53.7117 16.636C53.9543 16.636 54.1877 16.6453 54.4117 16.664C54.6543 16.664 54.9157 16.664 55.1957 16.664C55.625 16.664 56.0077 16.6547 56.3437 16.636C56.6983 16.6173 57.025 16.5987 57.3237 16.58ZM77.1809 9.048V27.948C77.1809 28.788 77.3302 29.4133 77.6289 29.824C77.9462 30.216 78.5062 30.412 79.3089 30.412V31C78.7302 30.944 78.1516 30.916 77.5729 30.916C77.0316 30.916 76.5089 30.944 76.0049 31C75.5196 31.056 75.0716 31.1587 74.6609 31.308V12.408C74.6609 11.568 74.5116 10.952 74.2129 10.56C73.9142 10.1493 73.3542 9.944 72.5329 9.944V9.356C73.1302 9.412 73.7089 9.44 74.2689 9.44C74.8102 9.44 75.3236 9.412 75.8089 9.356C76.3129 9.28133 76.7702 9.17867 77.1809 9.048ZM71.3009 16.188C72.1222 16.188 72.8876 16.384 73.5969 16.776C74.3249 17.168 74.8102 17.84 75.0529 18.792L74.6889 19.072C74.4276 18.288 74.0169 17.7187 73.4569 17.364C72.9156 17.0093 72.2716 16.832 71.5249 16.832C70.4236 16.832 69.4996 17.4013 68.7529 18.54C68.0249 19.6787 67.6702 21.4333 67.6889 23.804C67.6889 25.316 67.8289 26.576 68.1089 27.584C68.4076 28.5733 68.8369 29.32 69.3969 29.824C69.9756 30.3093 70.6756 30.552 71.4969 30.552C72.2809 30.552 72.9902 30.216 73.6249 29.544C74.2596 28.872 74.6422 27.8827 74.7729 26.576L75.1089 26.968C74.9596 28.3867 74.5022 29.4787 73.7369 30.244C72.9902 31.0093 71.9729 31.392 70.6849 31.392C69.5276 31.392 68.5102 31.112 67.6329 30.552C66.7742 29.992 66.1116 29.152 65.6449 28.032C65.1969 26.912 64.9729 25.5027 64.9729 23.804C64.9729 22.1053 65.2622 20.696 65.8409 19.576C66.4382 18.4373 67.2129 17.588 68.1649 17.028C69.1356 16.468 70.1809 16.188 71.3009 16.188ZM87.5704 16.188C88.7651 16.188 89.8384 16.4493 90.7904 16.972C91.7424 17.4947 92.4984 18.316 93.0584 19.436C93.6371 20.556 93.9264 22.012 93.9264 23.804C93.9264 25.596 93.6371 27.052 93.0584 28.172C92.4984 29.2733 91.7424 30.0853 90.7904 30.608C89.8384 31.1307 88.7651 31.392 87.5704 31.392C86.3944 31.392 85.3211 31.1307 84.3504 30.608C83.3984 30.0853 82.6331 29.2733 82.0544 28.172C81.4944 27.052 81.2144 25.596 81.2144 23.804C81.2144 22.012 81.4944 20.556 82.0544 19.436C82.6331 18.316 83.3984 17.4947 84.3504 16.972C85.3211 16.4493 86.3944 16.188 87.5704 16.188ZM87.5704 16.748C86.5064 16.748 85.6291 17.2987 84.9384 18.4C84.2664 19.5013 83.9304 21.3027 83.9304 23.804C83.9304 26.3053 84.2664 28.1067 84.9384 29.208C85.6291 30.2907 86.5064 30.832 87.5704 30.832C88.6344 30.832 89.5024 30.2907 90.1744 29.208C90.8651 28.1067 91.2104 26.3053 91.2104 23.804C91.2104 21.3027 90.8651 19.5013 90.1744 18.4C89.5024 17.2987 88.6344 16.748 87.5704 16.748ZM115.305 16.58V17.14C114.95 17.1773 114.623 17.336 114.325 17.616C114.026 17.896 113.746 18.3907 113.485 19.1L108.893 31.14H108.417L103.265 18.736C102.91 18.008 102.555 17.5693 102.201 17.42C101.865 17.252 101.585 17.168 101.361 17.168V16.58C101.771 16.636 102.201 16.6827 102.649 16.72C103.097 16.7387 103.582 16.748 104.105 16.748C104.683 16.748 105.29 16.7293 105.925 16.692C106.578 16.6547 107.185 16.6173 107.745 16.58V17.168C107.278 17.168 106.858 17.2053 106.485 17.28C106.13 17.336 105.906 17.532 105.813 17.868C105.719 18.1853 105.831 18.736 106.149 19.52L109.593 28.06L109.425 28.116L112.617 19.772C112.859 19.156 112.953 18.6707 112.897 18.316C112.859 17.9427 112.673 17.6627 112.337 17.476C112.001 17.2893 111.497 17.1773 110.825 17.14V16.58C111.161 16.5987 111.45 16.6173 111.693 16.636C111.935 16.636 112.169 16.6453 112.393 16.664C112.635 16.664 112.897 16.664 113.177 16.664C113.606 16.664 113.989 16.6547 114.325 16.636C114.679 16.6173 115.006 16.5987 115.305 16.58ZM108.893 31.14L107.941 33.576C107.754 34.0427 107.558 34.4347 107.353 34.752C107.166 35.0693 106.961 35.3307 106.737 35.536C106.438 35.816 106.083 36.0027 105.673 36.096C105.262 36.208 104.889 36.264 104.553 36.264C104.198 36.264 103.871 36.1987 103.573 36.068C103.293 35.9373 103.069 35.7413 102.901 35.48C102.733 35.2373 102.649 34.9387 102.649 34.584C102.649 34.136 102.779 33.772 103.041 33.492C103.302 33.2307 103.666 33.1 104.133 33.1C104.525 33.1 104.861 33.212 105.141 33.436C105.421 33.66 105.561 33.9867 105.561 34.416C105.561 34.7333 105.486 34.9947 105.337 35.2C105.187 35.4053 105.01 35.564 104.805 35.676C104.842 35.6947 104.87 35.704 104.889 35.704C104.926 35.704 104.954 35.704 104.973 35.704C105.477 35.704 105.925 35.5267 106.317 35.172C106.709 34.836 107.054 34.2853 107.353 33.52L108.361 30.916L108.893 31.14ZM123.008 16.188C124.203 16.188 125.276 16.4493 126.228 16.972C127.18 17.4947 127.936 18.316 128.496 19.436C129.075 20.556 129.364 22.012 129.364 23.804C129.364 25.596 129.075 27.052 128.496 28.172C127.936 29.2733 127.18 30.0853 126.228 30.608C125.276 31.1307 124.203 31.392 123.008 31.392C121.832 31.392 120.759 31.1307 119.788 30.608C118.836 30.0853 118.071 29.2733 117.492 28.172C116.932 27.052 116.652 25.596 116.652 23.804C116.652 22.012 116.932 20.556 117.492 19.436C118.071 18.316 118.836 17.4947 119.788 16.972C120.759 16.4493 121.832 16.188 123.008 16.188ZM123.008 16.748C121.944 16.748 121.067 17.2987 120.376 18.4C119.704 19.5013 119.368 21.3027 119.368 23.804C119.368 26.3053 119.704 28.1067 120.376 29.208C121.067 30.2907 121.944 30.832 123.008 30.832C124.072 30.832 124.94 30.2907 125.612 29.208C126.303 28.1067 126.648 26.3053 126.648 23.804C126.648 21.3027 126.303 19.5013 125.612 18.4C124.94 17.2987 124.072 16.748 123.008 16.748ZM144.2 16.272V27.976C144.2 28.816 144.349 29.4413 144.648 29.852C144.965 30.244 145.525 30.44 146.328 30.44V31.028C145.749 30.972 145.17 30.944 144.592 30.944C144.05 30.944 143.528 30.972 143.024 31.028C142.538 31.084 142.09 31.1867 141.68 31.336V28.032C141.213 29.2453 140.55 30.1133 139.692 30.636C138.852 31.14 137.984 31.392 137.088 31.392C136.434 31.392 135.865 31.2987 135.38 31.112C134.894 30.9253 134.493 30.664 134.176 30.328C133.821 29.9547 133.578 29.4693 133.448 28.872C133.317 28.2747 133.252 27.5373 133.252 26.66V19.632C133.252 18.792 133.102 18.176 132.804 17.784C132.505 17.3733 131.945 17.168 131.124 17.168V16.58C131.721 16.636 132.3 16.664 132.86 16.664C133.401 16.664 133.914 16.636 134.4 16.58C134.904 16.5053 135.361 16.4027 135.772 16.272V27.276C135.772 27.8547 135.809 28.3867 135.884 28.872C135.958 29.3573 136.145 29.7493 136.444 30.048C136.742 30.3467 137.228 30.496 137.9 30.496C138.628 30.496 139.272 30.272 139.832 29.824C140.41 29.376 140.858 28.7693 141.176 28.004C141.512 27.2387 141.68 26.38 141.68 25.428V19.632C141.68 18.792 141.53 18.176 141.232 17.784C140.933 17.3733 140.373 17.168 139.552 17.168V16.58C140.149 16.636 140.728 16.664 141.288 16.664C141.829 16.664 142.342 16.636 142.828 16.58C143.332 16.5053 143.789 16.4027 144.2 16.272ZM159.182 16.272V33.464C159.182 34.2667 159.415 34.7987 159.882 35.06C160.367 35.34 161.03 35.48 161.87 35.48V36.068C161.459 36.0493 160.89 36.0213 160.162 35.984C159.434 35.9653 158.659 35.956 157.838 35.956C157.259 35.956 156.681 35.9653 156.102 35.984C155.542 36.0213 155.113 36.0493 154.814 36.068V35.48C155.486 35.48 155.962 35.3587 156.242 35.116C156.522 34.8733 156.662 34.416 156.662 33.744V19.632C156.662 18.792 156.513 18.176 156.214 17.784C155.915 17.3733 155.355 17.168 154.534 17.168V16.58C155.131 16.636 155.71 16.664 156.27 16.664C156.811 16.664 157.325 16.636 157.81 16.58C158.314 16.5053 158.771 16.4027 159.182 16.272ZM163.662 16.188C164.651 16.188 165.538 16.4587 166.322 17C167.106 17.5227 167.722 18.2973 168.17 19.324C168.637 20.3507 168.87 21.62 168.87 23.132C168.87 24.14 168.749 25.1387 168.506 26.128C168.263 27.0987 167.881 27.9853 167.358 28.788C166.854 29.572 166.191 30.2067 165.37 30.692C164.567 31.1587 163.597 31.392 162.458 31.392C161.581 31.392 160.815 31.1867 160.162 30.776C159.527 30.3653 159.098 29.8707 158.874 29.292L159.154 28.9C159.415 29.4227 159.789 29.8613 160.274 30.216C160.778 30.5707 161.403 30.748 162.15 30.748C163.195 30.748 164.007 30.4213 164.586 29.768C165.165 29.1147 165.566 28.2467 165.79 27.164C166.033 26.0627 166.154 24.8493 166.154 23.524C166.154 22.0307 166.033 20.808 165.79 19.856C165.547 18.904 165.183 18.1947 164.698 17.728C164.213 17.2613 163.615 17.028 162.906 17.028C161.991 17.028 161.161 17.4107 160.414 18.176C159.667 18.9227 159.191 20.0613 158.986 21.592L158.65 21.2C158.855 19.6133 159.415 18.3813 160.33 17.504C161.263 16.6267 162.374 16.188 163.662 16.188ZM183.712 16.272V27.976C183.712 28.816 183.861 29.4413 184.16 29.852C184.477 30.244 185.037 30.44 185.84 30.44V31.028C185.261 30.972 184.682 30.944 184.104 30.944C183.562 30.944 183.04 30.972 182.536 31.028C182.05 31.084 181.602 31.1867 181.192 31.336V28.032C180.725 29.2453 180.062 30.1133 179.204 30.636C178.364 31.14 177.496 31.392 176.6 31.392C175.946 31.392 175.377 31.2987 174.892 31.112C174.406 30.9253 174.005 30.664 173.688 30.328C173.333 29.9547 173.09 29.4693 172.96 28.872C172.829 28.2747 172.764 27.5373 172.764 26.66V19.632C172.764 18.792 172.614 18.176 172.316 17.784C172.017 17.3733 171.457 17.168 170.636 17.168V16.58C171.233 16.636 171.812 16.664 172.372 16.664C172.913 16.664 173.426 16.636 173.912 16.58C174.416 16.5053 174.873 16.4027 175.284 16.272V27.276C175.284 27.8547 175.321 28.3867 175.396 28.872C175.47 29.3573 175.657 29.7493 175.956 30.048C176.254 30.3467 176.74 30.496 177.412 30.496C178.14 30.496 178.784 30.272 179.344 29.824C179.922 29.376 180.37 28.7693 180.688 28.004C181.024 27.2387 181.192 26.38 181.192 25.428V19.632C181.192 18.792 181.042 18.176 180.744 17.784C180.445 17.3733 179.885 17.168 179.064 17.168V16.58C179.661 16.636 180.24 16.664 180.8 16.664C181.341 16.664 181.854 16.636 182.34 16.58C182.844 16.5053 183.301 16.4027 183.712 16.272ZM195.977 16.188C196.481 16.188 196.92 16.2907 197.293 16.496C197.685 16.7013 197.984 16.972 198.189 17.308C198.413 17.6253 198.525 17.9893 198.525 18.4C198.525 18.8667 198.376 19.2773 198.077 19.632C197.797 19.9867 197.414 20.164 196.929 20.164C196.537 20.164 196.192 20.0427 195.893 19.8C195.594 19.5387 195.445 19.1747 195.445 18.708C195.445 18.3533 195.538 18.0547 195.725 17.812C195.93 17.5507 196.154 17.3453 196.397 17.196C196.266 17.0093 196.07 16.916 195.809 16.916C195.23 16.916 194.698 17.0933 194.213 17.448C193.728 17.784 193.317 18.2227 192.981 18.764C192.645 19.3053 192.384 19.884 192.197 20.5C192.01 21.0973 191.917 21.6573 191.917 22.18V28.116C191.917 29.0307 192.178 29.6467 192.701 29.964C193.242 30.2627 193.97 30.412 194.885 30.412V31C194.456 30.9813 193.849 30.9627 193.065 30.944C192.281 30.9067 191.45 30.888 190.573 30.888C189.938 30.888 189.304 30.9067 188.669 30.944C188.053 30.9627 187.586 30.9813 187.269 31V30.412C188.034 30.412 188.576 30.272 188.893 29.992C189.229 29.712 189.397 29.18 189.397 28.396V19.632C189.397 18.792 189.248 18.176 188.949 17.784C188.65 17.3733 188.09 17.168 187.269 17.168V16.58C187.866 16.636 188.445 16.664 189.005 16.664C189.546 16.664 190.06 16.636 190.545 16.58C191.049 16.5053 191.506 16.4027 191.917 16.272V19.772C192.122 19.2307 192.412 18.6893 192.785 18.148C193.177 17.588 193.644 17.1213 194.185 16.748C194.726 16.3747 195.324 16.188 195.977 16.188ZM206.191 16.188C206.788 16.188 207.367 16.2627 207.927 16.412C208.487 16.5613 208.991 16.7853 209.439 17.084C209.868 17.364 210.195 17.6907 210.419 18.064C210.643 18.4187 210.755 18.8107 210.755 19.24C210.755 19.744 210.615 20.136 210.335 20.416C210.055 20.6773 209.7 20.808 209.271 20.808C208.86 20.808 208.496 20.6867 208.179 20.444C207.88 20.2013 207.731 19.856 207.731 19.408C207.731 18.9787 207.843 18.6333 208.067 18.372C208.31 18.1107 208.59 17.9427 208.907 17.868C208.72 17.532 208.384 17.252 207.899 17.028C207.432 16.804 206.928 16.692 206.387 16.692C205.92 16.692 205.454 16.804 204.987 17.028C204.52 17.252 204.091 17.6253 203.699 18.148C203.307 18.652 202.99 19.352 202.747 20.248C202.504 21.1253 202.383 22.2267 202.383 23.552C202.383 25.1947 202.57 26.5013 202.943 27.472C203.316 28.4427 203.802 29.1427 204.399 29.572C205.015 29.9827 205.687 30.188 206.415 30.188C206.9 30.188 207.395 30.0947 207.899 29.908C208.403 29.7213 208.879 29.4227 209.327 29.012C209.775 28.5827 210.158 28.0133 210.475 27.304L211.007 27.5C210.82 28.0973 210.512 28.704 210.083 29.32C209.654 29.9173 209.094 30.412 208.403 30.804C207.712 31.196 206.863 31.392 205.855 31.392C204.698 31.392 203.652 31.0933 202.719 30.496C201.786 29.8987 201.039 29.0493 200.479 27.948C199.938 26.828 199.667 25.5027 199.667 23.972C199.667 22.4413 199.938 21.0973 200.479 19.94C201.039 18.764 201.814 17.8493 202.803 17.196C203.792 16.524 204.922 16.188 206.191 16.188ZM217.204 9.076V19.548C217.689 18.2787 218.361 17.4013 219.22 16.916C220.097 16.4307 221.012 16.188 221.964 16.188C222.673 16.188 223.261 16.2813 223.728 16.468C224.213 16.6547 224.615 16.916 224.932 17.252C225.287 17.6253 225.539 18.092 225.688 18.652C225.837 19.212 225.912 19.968 225.912 20.92V28.396C225.912 29.18 226.071 29.712 226.388 29.992C226.724 30.272 227.275 30.412 228.04 30.412V31C227.723 30.9813 227.237 30.9627 226.584 30.944C225.931 30.9067 225.296 30.888 224.68 30.888C224.064 30.888 223.457 30.9067 222.86 30.944C222.281 30.9627 221.843 30.9813 221.544 31V30.412C222.216 30.412 222.692 30.272 222.972 29.992C223.252 29.712 223.392 29.18 223.392 28.396V20.304C223.392 19.7253 223.345 19.1933 223.252 18.708C223.159 18.2227 222.944 17.8307 222.608 17.532C222.291 17.2333 221.796 17.084 221.124 17.084C220.359 17.084 219.677 17.2987 219.08 17.728C218.501 18.1573 218.044 18.7547 217.708 19.52C217.372 20.2853 217.204 21.1627 217.204 22.152V28.396C217.204 29.18 217.344 29.712 217.624 29.992C217.904 30.272 218.38 30.412 219.052 30.412V31C218.753 30.9813 218.305 30.9627 217.708 30.944C217.129 30.9067 216.532 30.888 215.916 30.888C215.3 30.888 214.665 30.9067 214.012 30.944C213.359 30.9627 212.873 30.9813 212.556 31V30.412C213.321 30.412 213.863 30.272 214.18 29.992C214.516 29.712 214.684 29.18 214.684 28.396V12.436C214.684 11.596 214.535 10.98 214.236 10.588C213.937 10.1773 213.377 9.972 212.556 9.972V9.384C213.153 9.44 213.732 9.468 214.292 9.468C214.833 9.468 215.347 9.44 215.832 9.384C216.336 9.30933 216.793 9.20667 217.204 9.076ZM233.245 31.196C232.48 31.196 231.817 31.056 231.257 30.776C230.697 30.4773 230.268 30.0667 229.969 29.544C229.689 29.0213 229.549 28.4147 229.549 27.724C229.549 26.9027 229.736 26.2307 230.109 25.708C230.501 25.1853 230.996 24.7653 231.593 24.448C232.19 24.1307 232.816 23.8693 233.469 23.664C234.141 23.44 234.776 23.2347 235.373 23.048C235.97 22.8427 236.456 22.6093 236.829 22.348C237.221 22.0867 237.417 21.7413 237.417 21.312V19.576C237.417 18.792 237.296 18.1947 237.053 17.784C236.829 17.3733 236.521 17.1027 236.129 16.972C235.737 16.8227 235.298 16.748 234.813 16.748C234.346 16.748 233.842 16.8133 233.301 16.944C232.778 17.0747 232.358 17.3453 232.041 17.756C232.396 17.8307 232.704 18.0173 232.965 18.316C233.226 18.6147 233.357 18.9973 233.357 19.464C233.357 19.9307 233.208 20.304 232.909 20.584C232.61 20.8453 232.228 20.976 231.761 20.976C231.22 20.976 230.818 20.808 230.557 20.472C230.314 20.1173 230.193 19.7253 230.193 19.296C230.193 18.8107 230.314 18.4187 230.557 18.12C230.8 17.8213 231.108 17.5413 231.481 17.28C231.91 16.9813 232.461 16.7293 233.133 16.524C233.824 16.3 234.598 16.188 235.457 16.188C236.222 16.188 236.876 16.2813 237.417 16.468C237.958 16.636 238.406 16.888 238.761 17.224C239.246 17.672 239.564 18.2227 239.713 18.876C239.862 19.5107 239.937 20.276 239.937 21.172V28.956C239.937 29.4227 240.002 29.7587 240.133 29.964C240.282 30.1693 240.506 30.272 240.805 30.272C241.01 30.272 241.206 30.2253 241.393 30.132C241.58 30.0387 241.804 29.8893 242.065 29.684L242.373 30.16C241.981 30.4587 241.608 30.7107 241.253 30.916C240.898 31.1027 240.422 31.196 239.825 31.196C239.284 31.196 238.836 31.1027 238.481 30.916C238.126 30.7293 237.856 30.4587 237.669 30.104C237.501 29.7307 237.417 29.264 237.417 28.704C236.913 29.544 236.306 30.1693 235.597 30.58C234.906 30.9907 234.122 31.196 233.245 31.196ZM234.253 30.076C234.869 30.076 235.438 29.8987 235.961 29.544C236.502 29.1893 236.988 28.6573 237.417 27.948V22.46C237.193 22.7773 236.866 23.048 236.437 23.272C236.008 23.4773 235.541 23.692 235.037 23.916C234.533 24.1213 234.048 24.3733 233.581 24.672C233.133 24.952 232.76 25.3253 232.461 25.792C232.162 26.2587 232.013 26.8653 232.013 27.612C232.013 28.3587 232.209 28.956 232.601 29.404C233.012 29.852 233.562 30.076 234.253 30.076ZM248.226 16.188C248.973 16.188 249.608 16.3093 250.13 16.552C250.653 16.7947 251.036 17.0187 251.278 17.224C251.894 17.728 252.268 17.392 252.398 16.216H253.042C253.005 16.7387 252.977 17.364 252.958 18.092C252.94 18.8013 252.93 19.7627 252.93 20.976H252.286C252.174 20.2853 251.978 19.6133 251.698 18.96C251.437 18.3067 251.045 17.7747 250.522 17.364C250 16.9347 249.318 16.72 248.478 16.72C247.825 16.72 247.274 16.9067 246.826 17.28C246.397 17.6347 246.182 18.1667 246.182 18.876C246.182 19.436 246.35 19.9213 246.686 20.332C247.022 20.724 247.461 21.0973 248.002 21.452C248.544 21.788 249.132 22.1613 249.766 22.572C250.476 23.02 251.12 23.4773 251.698 23.944C252.277 24.4107 252.734 24.924 253.07 25.484C253.425 26.044 253.602 26.7067 253.602 27.472C253.602 28.3307 253.378 29.0493 252.93 29.628C252.482 30.2067 251.894 30.6453 251.166 30.944C250.457 31.2427 249.673 31.392 248.814 31.392C248.404 31.392 248.012 31.3547 247.638 31.28C247.284 31.224 246.938 31.1307 246.602 31C246.416 30.9067 246.22 30.7947 246.014 30.664C245.828 30.5333 245.641 30.3933 245.454 30.244C245.268 30.0947 245.1 30.104 244.95 30.272C244.801 30.4213 244.689 30.7293 244.614 31.196H243.97C244.008 30.5987 244.036 29.8707 244.054 29.012C244.073 28.1533 244.082 27.0147 244.082 25.596H244.726C244.857 26.6413 245.044 27.556 245.286 28.34C245.529 29.124 245.912 29.74 246.434 30.188C246.957 30.6173 247.685 30.832 248.618 30.832C248.992 30.832 249.365 30.748 249.738 30.58C250.13 30.412 250.457 30.132 250.718 29.74C250.98 29.348 251.11 28.8253 251.11 28.172C251.11 27.3507 250.812 26.6787 250.214 26.156C249.617 25.6333 248.861 25.0827 247.946 24.504C247.274 24.0747 246.64 23.6453 246.042 23.216C245.464 22.7867 244.988 22.3013 244.614 21.76C244.26 21.2187 244.082 20.5653 244.082 19.8C244.082 18.96 244.269 18.2787 244.642 17.756C245.034 17.2147 245.548 16.8227 246.182 16.58C246.817 16.3187 247.498 16.188 248.226 16.188ZM262.542 16.188C264.184 16.188 265.463 16.692 266.378 17.7C267.311 18.6893 267.778 20.2387 267.778 22.348H257.894L257.866 21.816H265.09C265.127 20.9013 265.052 20.0613 264.866 19.296C264.679 18.512 264.38 17.8867 263.97 17.42C263.578 16.9533 263.064 16.72 262.43 16.72C261.571 16.72 260.806 17.1493 260.134 18.008C259.48 18.8667 259.088 20.2293 258.958 22.096L259.042 22.208C259.004 22.488 258.976 22.796 258.958 23.132C258.939 23.468 258.93 23.804 258.93 24.14C258.93 25.4093 259.135 26.5013 259.546 27.416C259.956 28.3307 260.488 29.0307 261.142 29.516C261.814 29.9827 262.504 30.216 263.214 30.216C263.774 30.216 264.306 30.132 264.81 29.964C265.314 29.7773 265.78 29.4787 266.21 29.068C266.639 28.6573 267.012 28.1067 267.33 27.416L267.89 27.64C267.684 28.256 267.348 28.8533 266.882 29.432C266.415 30.0107 265.827 30.4867 265.118 30.86C264.408 31.2147 263.587 31.392 262.654 31.392C261.31 31.392 260.152 31.084 259.182 30.468C258.23 29.852 257.492 29.0027 256.97 27.92C256.466 26.8187 256.214 25.5587 256.214 24.14C256.214 22.4973 256.475 21.088 256.998 19.912C257.52 18.7173 258.258 17.8027 259.21 17.168C260.162 16.5147 261.272 16.188 262.542 16.188ZM289.156 16.58V17.14C288.802 17.1773 288.475 17.336 288.176 17.616C287.878 17.896 287.598 18.3907 287.336 19.1L282.744 31.14H282.268L277.116 18.736C276.762 18.008 276.407 17.5693 276.052 17.42C275.716 17.252 275.436 17.168 275.212 17.168V16.58C275.623 16.636 276.052 16.6827 276.5 16.72C276.948 16.7387 277.434 16.748 277.956 16.748C278.535 16.748 279.142 16.7293 279.776 16.692C280.43 16.6547 281.036 16.6173 281.596 16.58V17.168C281.13 17.168 280.71 17.2053 280.336 17.28C279.982 17.336 279.758 17.532 279.664 17.868C279.571 18.1853 279.683 18.736 280 19.52L283.444 28.06L283.276 28.116L286.468 19.772C286.711 19.156 286.804 18.6707 286.748 18.316C286.711 17.9427 286.524 17.6627 286.188 17.476C285.852 17.2893 285.348 17.1773 284.676 17.14V16.58C285.012 16.5987 285.302 16.6173 285.544 16.636C285.787 16.636 286.02 16.6453 286.244 16.664C286.487 16.664 286.748 16.664 287.028 16.664C287.458 16.664 287.84 16.6547 288.176 16.636C288.531 16.6173 288.858 16.5987 289.156 16.58ZM282.744 31.14L281.792 33.576C281.606 34.0427 281.41 34.4347 281.204 34.752C281.018 35.0693 280.812 35.3307 280.588 35.536C280.29 35.816 279.935 36.0027 279.524 36.096C279.114 36.208 278.74 36.264 278.404 36.264C278.05 36.264 277.723 36.1987 277.424 36.068C277.144 35.9373 276.92 35.7413 276.752 35.48C276.584 35.2373 276.5 34.9387 276.5 34.584C276.5 34.136 276.631 33.772 276.892 33.492C277.154 33.2307 277.518 33.1 277.984 33.1C278.376 33.1 278.712 33.212 278.992 33.436C279.272 33.66 279.412 33.9867 279.412 34.416C279.412 34.7333 279.338 34.9947 279.188 35.2C279.039 35.4053 278.862 35.564 278.656 35.676C278.694 35.6947 278.722 35.704 278.74 35.704C278.778 35.704 278.806 35.704 278.824 35.704C279.328 35.704 279.776 35.5267 280.168 35.172C280.56 34.836 280.906 34.2853 281.204 33.52L282.212 30.916L282.744 31.14ZM296.86 16.188C298.054 16.188 299.128 16.4493 300.08 16.972C301.032 17.4947 301.788 18.316 302.348 19.436C302.926 20.556 303.216 22.012 303.216 23.804C303.216 25.596 302.926 27.052 302.348 28.172C301.788 29.2733 301.032 30.0853 300.08 30.608C299.128 31.1307 298.054 31.392 296.86 31.392C295.684 31.392 294.61 31.1307 293.64 30.608C292.688 30.0853 291.922 29.2733 291.344 28.172C290.784 27.052 290.504 25.596 290.504 23.804C290.504 22.012 290.784 20.556 291.344 19.436C291.922 18.316 292.688 17.4947 293.64 16.972C294.61 16.4493 295.684 16.188 296.86 16.188ZM296.86 16.748C295.796 16.748 294.918 17.2987 294.228 18.4C293.556 19.5013 293.22 21.3027 293.22 23.804C293.22 26.3053 293.556 28.1067 294.228 29.208C294.918 30.2907 295.796 30.832 296.86 30.832C297.924 30.832 298.792 30.2907 299.464 29.208C300.154 28.1067 300.5 26.3053 300.5 23.804C300.5 21.3027 300.154 19.5013 299.464 18.4C298.792 17.2987 297.924 16.748 296.86 16.748ZM318.051 16.272V27.976C318.051 28.816 318.201 29.4413 318.499 29.852C318.817 30.244 319.377 30.44 320.179 30.44V31.028C319.601 30.972 319.022 30.944 318.443 30.944C317.902 30.944 317.379 30.972 316.875 31.028C316.39 31.084 315.942 31.1867 315.531 31.336V28.032C315.065 29.2453 314.402 30.1133 313.543 30.636C312.703 31.14 311.835 31.392 310.939 31.392C310.286 31.392 309.717 31.2987 309.231 31.112C308.746 30.9253 308.345 30.664 308.027 30.328C307.673 29.9547 307.43 29.4693 307.299 28.872C307.169 28.2747 307.103 27.5373 307.103 26.66V19.632C307.103 18.792 306.954 18.176 306.655 17.784C306.357 17.3733 305.797 17.168 304.975 17.168V16.58C305.573 16.636 306.151 16.664 306.711 16.664C307.253 16.664 307.766 16.636 308.251 16.58C308.755 16.5053 309.213 16.4027 309.623 16.272V27.276C309.623 27.8547 309.661 28.3867 309.735 28.872C309.81 29.3573 309.997 29.7493 310.295 30.048C310.594 30.3467 311.079 30.496 311.751 30.496C312.479 30.496 313.123 30.272 313.683 29.824C314.262 29.376 314.71 28.7693 315.027 28.004C315.363 27.2387 315.531 26.38 315.531 25.428V19.632C315.531 18.792 315.382 18.176 315.083 17.784C314.785 17.3733 314.225 17.168 313.403 17.168V16.58C314.001 16.636 314.579 16.664 315.139 16.664C315.681 16.664 316.194 16.636 316.679 16.58C317.183 16.5053 317.641 16.4027 318.051 16.272ZM330.317 16.188C330.821 16.188 331.26 16.2907 331.633 16.496C332.025 16.7013 332.324 16.972 332.529 17.308C332.753 17.6253 332.865 17.9893 332.865 18.4C332.865 18.8667 332.716 19.2773 332.417 19.632C332.137 19.9867 331.754 20.164 331.269 20.164C330.877 20.164 330.532 20.0427 330.233 19.8C329.934 19.5387 329.785 19.1747 329.785 18.708C329.785 18.3533 329.878 18.0547 330.065 17.812C330.27 17.5507 330.494 17.3453 330.737 17.196C330.606 17.0093 330.41 16.916 330.149 16.916C329.57 16.916 329.038 17.0933 328.553 17.448C328.068 17.784 327.657 18.2227 327.321 18.764C326.985 19.3053 326.724 19.884 326.537 20.5C326.35 21.0973 326.257 21.6573 326.257 22.18V28.116C326.257 29.0307 326.518 29.6467 327.041 29.964C327.582 30.2627 328.31 30.412 329.225 30.412V31C328.796 30.9813 328.189 30.9627 327.405 30.944C326.621 30.9067 325.79 30.888 324.913 30.888C324.278 30.888 323.644 30.9067 323.009 30.944C322.393 30.9627 321.926 30.9813 321.609 31V30.412C322.374 30.412 322.916 30.272 323.233 29.992C323.569 29.712 323.737 29.18 323.737 28.396V19.632C323.737 18.792 323.588 18.176 323.289 17.784C322.99 17.3733 322.43 17.168 321.609 17.168V16.58C322.206 16.636 322.785 16.664 323.345 16.664C323.886 16.664 324.4 16.636 324.885 16.58C325.389 16.5053 325.846 16.4027 326.257 16.272V19.772C326.462 19.2307 326.752 18.6893 327.125 18.148C327.517 17.588 327.984 17.1213 328.525 16.748C329.066 16.3747 329.664 16.188 330.317 16.188ZM348.765 16.188C350.295 16.188 351.565 16.8227 352.573 18.092C353.581 19.3427 354.085 21.2467 354.085 23.804C354.085 25.484 353.795 26.8933 353.217 28.032C352.657 29.152 351.901 29.992 350.949 30.552C349.997 31.112 348.961 31.392 347.841 31.392C346.907 31.392 346.002 31.1307 345.125 30.608C344.266 30.0667 343.622 29.2733 343.193 28.228L343.753 28.536C344.219 29.2827 344.798 29.8427 345.489 30.216C346.179 30.5707 346.889 30.748 347.617 30.748C348.867 30.748 349.801 30.188 350.417 29.068C351.051 27.9293 351.369 26.1747 351.369 23.804C351.369 22.292 351.247 21.032 351.005 20.024C350.762 19.016 350.389 18.2693 349.885 17.784C349.381 17.28 348.737 17.028 347.953 17.028C347.094 17.028 346.291 17.42 345.545 18.204C344.817 18.9693 344.369 20.0987 344.201 21.592L343.865 21.2C344.07 19.6133 344.621 18.3813 345.517 17.504C346.431 16.6267 347.514 16.188 348.765 16.188ZM344.397 9.076V29.544C344.154 29.7493 343.902 29.964 343.641 30.188C343.398 30.3933 343.155 30.5987 342.913 30.804C342.67 31.0093 342.418 31.224 342.157 31.448L341.681 31.252C341.755 30.9907 341.802 30.7293 341.821 30.468C341.858 30.188 341.877 29.908 341.877 29.628V12.436C341.877 11.596 341.727 10.98 341.429 10.588C341.13 10.1773 340.57 9.972 339.749 9.972V9.384C340.346 9.44 340.925 9.468 341.485 9.468C342.026 9.468 342.539 9.44 343.025 9.384C343.529 9.30933 343.986 9.20667 344.397 9.076ZM363.086 16.188C364.281 16.188 365.354 16.4493 366.306 16.972C367.258 17.4947 368.014 18.316 368.574 19.436C369.153 20.556 369.442 22.012 369.442 23.804C369.442 25.596 369.153 27.052 368.574 28.172C368.014 29.2733 367.258 30.0853 366.306 30.608C365.354 31.1307 364.281 31.392 363.086 31.392C361.91 31.392 360.837 31.1307 359.866 30.608C358.914 30.0853 358.149 29.2733 357.57 28.172C357.01 27.052 356.73 25.596 356.73 23.804C356.73 22.012 357.01 20.556 357.57 19.436C358.149 18.316 358.914 17.4947 359.866 16.972C360.837 16.4493 361.91 16.188 363.086 16.188ZM363.086 16.748C362.022 16.748 361.145 17.2987 360.454 18.4C359.782 19.5013 359.446 21.3027 359.446 23.804C359.446 26.3053 359.782 28.1067 360.454 29.208C361.145 30.2907 362.022 30.832 363.086 30.832C364.15 30.832 365.018 30.2907 365.69 29.208C366.381 28.1067 366.726 26.3053 366.726 23.804C366.726 21.3027 366.381 19.5013 365.69 18.4C365.018 17.2987 364.15 16.748 363.086 16.748ZM378.426 16.188C379.621 16.188 380.694 16.4493 381.646 16.972C382.598 17.4947 383.354 18.316 383.914 19.436C384.493 20.556 384.782 22.012 384.782 23.804C384.782 25.596 384.493 27.052 383.914 28.172C383.354 29.2733 382.598 30.0853 381.646 30.608C380.694 31.1307 379.621 31.392 378.426 31.392C377.25 31.392 376.177 31.1307 375.206 30.608C374.254 30.0853 373.489 29.2733 372.91 28.172C372.35 27.052 372.07 25.596 372.07 23.804C372.07 22.012 372.35 20.556 372.91 19.436C373.489 18.316 374.254 17.4947 375.206 16.972C376.177 16.4493 377.25 16.188 378.426 16.188ZM378.426 16.748C377.362 16.748 376.485 17.2987 375.794 18.4C375.122 19.5013 374.786 21.3027 374.786 23.804C374.786 26.3053 375.122 28.1067 375.794 29.208C376.485 30.2907 377.362 30.832 378.426 30.832C379.49 30.832 380.358 30.2907 381.03 29.208C381.721 28.1067 382.066 26.3053 382.066 23.804C382.066 21.3027 381.721 19.5013 381.03 18.4C380.358 17.2987 379.49 16.748 378.426 16.748ZM391.028 9.048V28.396C391.028 29.18 391.168 29.712 391.448 29.992C391.728 30.272 392.204 30.412 392.876 30.412V31C392.578 30.9813 392.13 30.9627 391.532 30.944C390.954 30.9067 390.366 30.888 389.768 30.888C389.134 30.888 388.49 30.9067 387.836 30.944C387.183 30.9627 386.698 30.9813 386.38 31V30.412C387.146 30.412 387.687 30.272 388.004 29.992C388.34 29.712 388.508 29.18 388.508 28.396V12.408C388.508 11.568 388.359 10.952 388.06 10.56C387.762 10.1493 387.202 9.944 386.38 9.944V9.356C386.978 9.412 387.556 9.44 388.116 9.44C388.658 9.44 389.171 9.412 389.656 9.356C390.16 9.28133 390.618 9.17867 391.028 9.048ZM399.932 16.58V17.14C399.466 17.1773 399.027 17.308 398.616 17.532C398.206 17.7373 397.804 18.0453 397.412 18.456L393.464 22.6L393.856 21.816L399.064 28.956C399.382 29.3853 399.68 29.7213 399.96 29.964C400.259 30.2067 400.614 30.356 401.024 30.412V31C400.819 30.9813 400.492 30.9627 400.044 30.944C399.615 30.9067 399.186 30.888 398.756 30.888C398.178 30.888 397.59 30.9067 396.992 30.944C396.395 30.9627 395.947 30.9813 395.648 31V30.412C396.022 30.412 396.283 30.3187 396.432 30.132C396.582 29.9453 396.554 29.7213 396.348 29.46L393.128 24.756C392.774 24.252 392.447 23.9253 392.148 23.776C391.868 23.6267 391.458 23.5427 390.916 23.524V22.964C391.514 22.8893 391.999 22.768 392.372 22.6C392.746 22.4133 393.1 22.1427 393.436 21.788L395.508 19.632C396.106 19.016 396.404 18.5307 396.404 18.176C396.404 17.8027 396.208 17.5413 395.816 17.392C395.443 17.224 394.948 17.14 394.332 17.14V16.58C394.818 16.5987 395.359 16.6267 395.956 16.664C396.572 16.6827 397.086 16.692 397.496 16.692C397.814 16.692 398.122 16.692 398.42 16.692C398.719 16.6733 398.999 16.6547 399.26 16.636C399.522 16.6173 399.746 16.5987 399.932 16.58ZM407.039 16.188C407.786 16.188 408.42 16.3093 408.943 16.552C409.466 16.7947 409.848 17.0187 410.091 17.224C410.707 17.728 411.08 17.392 411.211 16.216H411.855C411.818 16.7387 411.79 17.364 411.771 18.092C411.752 18.8013 411.743 19.7627 411.743 20.976H411.099C410.987 20.2853 410.791 19.6133 410.511 18.96C410.25 18.3067 409.858 17.7747 409.335 17.364C408.812 16.9347 408.131 16.72 407.291 16.72C406.638 16.72 406.087 16.9067 405.639 17.28C405.21 17.6347 404.995 18.1667 404.995 18.876C404.995 19.436 405.163 19.9213 405.499 20.332C405.835 20.724 406.274 21.0973 406.815 21.452C407.356 21.788 407.944 22.1613 408.579 22.572C409.288 23.02 409.932 23.4773 410.511 23.944C411.09 24.4107 411.547 24.924 411.883 25.484C412.238 26.044 412.415 26.7067 412.415 27.472C412.415 28.3307 412.191 29.0493 411.743 29.628C411.295 30.2067 410.707 30.6453 409.979 30.944C409.27 31.2427 408.486 31.392 407.627 31.392C407.216 31.392 406.824 31.3547 406.451 31.28C406.096 31.224 405.751 31.1307 405.415 31C405.228 30.9067 405.032 30.7947 404.827 30.664C404.64 30.5333 404.454 30.3933 404.267 30.244C404.08 30.0947 403.912 30.104 403.763 30.272C403.614 30.4213 403.502 30.7293 403.427 31.196H402.783C402.82 30.5987 402.848 29.8707 402.867 29.012C402.886 28.1533 402.895 27.0147 402.895 25.596H403.539C403.67 26.6413 403.856 27.556 404.099 28.34C404.342 29.124 404.724 29.74 405.247 30.188C405.77 30.6173 406.498 30.832 407.431 30.832C407.804 30.832 408.178 30.748 408.551 30.58C408.943 30.412 409.27 30.132 409.531 29.74C409.792 29.348 409.923 28.8253 409.923 28.172C409.923 27.3507 409.624 26.6787 409.027 26.156C408.43 25.6333 407.674 25.0827 406.759 24.504C406.087 24.0747 405.452 23.6453 404.855 23.216C404.276 22.7867 403.8 22.3013 403.427 21.76C403.072 21.2187 402.895 20.5653 402.895 19.8C402.895 18.96 403.082 18.2787 403.455 17.756C403.847 17.2147 404.36 16.8227 404.995 16.58C405.63 16.3187 406.311 16.188 407.039 16.188ZM419.758 9.104C420.934 9.104 421.961 9.30933 422.838 9.72C423.716 10.112 424.397 10.6907 424.882 11.456C425.386 12.2027 425.638 13.0987 425.638 14.144C425.638 15.1893 425.368 16.1227 424.826 16.944C424.304 17.7653 423.566 18.4653 422.614 19.044C421.681 19.604 420.589 20.0427 419.338 20.36V24.448H418.778V20.108C420.029 19.6413 420.962 19.128 421.578 18.568C422.194 18.008 422.605 17.4013 422.81 16.748C423.034 16.0947 423.146 15.404 423.146 14.676C423.146 12.9027 422.782 11.624 422.054 10.84C421.326 10.056 420.384 9.664 419.226 9.664C418.778 9.664 418.284 9.72933 417.742 9.86C417.22 9.99067 416.8 10.2613 416.482 10.672C416.837 10.7467 417.117 10.9053 417.322 11.148C417.546 11.3907 417.658 11.708 417.658 12.1C417.658 12.5667 417.509 12.94 417.21 13.22C416.912 13.4813 416.548 13.612 416.118 13.612C415.689 13.612 415.334 13.472 415.054 13.192C414.774 12.912 414.634 12.5573 414.634 12.128C414.634 11.736 414.756 11.372 414.998 11.036C415.241 10.6813 415.558 10.3733 415.95 10.112C416.342 9.85067 416.846 9.61733 417.462 9.412C418.097 9.20667 418.862 9.104 419.758 9.104ZM419.086 27.808C419.572 27.808 419.992 27.9853 420.346 28.34C420.701 28.6947 420.878 29.1147 420.878 29.6C420.878 30.0853 420.701 30.5053 420.346 30.86C419.992 31.2147 419.572 31.392 419.086 31.392C418.601 31.392 418.181 31.2147 417.826 30.86C417.472 30.5053 417.294 30.0853 417.294 29.6C417.294 29.1147 417.472 28.6947 417.826 28.34C418.181 27.9853 418.601 27.808 419.086 27.808Z" fill="#1D191A"/>
<path d="M371.678 171.004C372.818 171.004 373.814 171.262 374.666 171.778C375.53 172.294 376.196 173.038 376.664 174.01C377.144 174.97 377.384 176.14 377.384 177.52C377.384 178.864 377.138 180.04 376.646 181.048C376.166 182.056 375.494 182.842 374.63 183.406C373.766 183.97 372.776 184.252 371.66 184.252C370.52 184.252 369.518 183.994 368.654 183.478C367.802 182.962 367.136 182.218 366.656 181.246C366.188 180.274 365.954 179.104 365.954 177.736C365.954 176.392 366.2 175.216 366.692 174.208C367.184 173.2 367.856 172.414 368.708 171.85C369.572 171.286 370.562 171.004 371.678 171.004ZM371.606 171.328C370.826 171.328 370.148 171.598 369.572 172.138C368.996 172.678 368.546 173.422 368.222 174.37C367.91 175.318 367.754 176.416 367.754 177.664C367.754 178.936 367.928 180.046 368.276 180.994C368.636 181.93 369.116 182.656 369.716 183.172C370.328 183.676 371 183.928 371.732 183.928C372.512 183.928 373.19 183.658 373.766 183.118C374.342 182.578 374.786 181.834 375.098 180.886C375.422 179.926 375.584 178.828 375.584 177.592C375.584 176.308 375.404 175.198 375.044 174.262C374.696 173.326 374.222 172.606 373.622 172.102C373.022 171.586 372.35 171.328 371.606 171.328ZM393.358 169.888V182.326C393.358 182.83 393.46 183.172 393.664 183.352C393.88 183.532 394.234 183.622 394.726 183.622V184C394.522 183.988 394.21 183.976 393.79 183.964C393.382 183.94 392.968 183.928 392.548 183.928C392.14 183.928 391.726 183.94 391.306 183.964C390.886 183.976 390.574 183.988 390.37 184V183.622C390.862 183.622 391.21 183.532 391.414 183.352C391.63 183.172 391.738 182.83 391.738 182.326V172.3C391.738 171.916 391.696 171.61 391.612 171.382C391.528 171.154 391.408 170.962 391.252 170.806C391.024 170.566 390.742 170.404 390.406 170.32C390.07 170.236 389.776 170.194 389.524 170.194C389.176 170.194 388.882 170.254 388.642 170.374C388.414 170.482 388.234 170.608 388.102 170.752C387.826 171.028 387.652 171.37 387.58 171.778C387.508 172.174 387.472 172.6 387.472 173.056V174.748H389.758V175.108H387.472V182.326C387.472 182.842 387.61 183.19 387.886 183.37C388.162 183.538 388.54 183.622 389.02 183.622V184C388.78 183.988 388.438 183.976 387.994 183.964C387.562 183.94 387.118 183.928 386.662 183.928C386.218 183.928 385.792 183.94 385.384 183.964C384.988 183.976 384.688 183.988 384.484 184V183.622C384.976 183.622 385.324 183.532 385.528 183.352C385.744 183.172 385.852 182.83 385.852 182.326V175.108H384.412V174.748H385.852C385.852 173.86 385.912 173.086 386.032 172.426C386.164 171.754 386.488 171.196 387.004 170.752C387.34 170.464 387.718 170.254 388.138 170.122C388.558 169.99 388.99 169.924 389.434 169.924C389.806 169.924 390.172 169.96 390.532 170.032C390.892 170.104 391.276 170.14 391.684 170.14C391.936 170.14 392.212 170.122 392.512 170.086C392.812 170.038 393.094 169.972 393.358 169.888ZM383.8 170.644C384.484 170.644 385.066 170.776 385.546 171.04C386.038 171.292 386.434 171.67 386.734 172.174L386.482 172.372C386.254 171.964 385.924 171.628 385.492 171.364C385.06 171.1 384.568 170.968 384.016 170.968C383.284 170.968 382.714 171.196 382.306 171.652C381.898 172.096 381.694 172.822 381.694 173.83V174.748H384.412V175.108H381.694V182.326C381.694 182.83 381.796 183.172 382 183.352C382.216 183.532 382.57 183.622 383.062 183.622V184C382.858 183.988 382.552 183.976 382.144 183.964C381.736 183.94 381.322 183.928 380.902 183.928C380.494 183.928 380.074 183.94 379.642 183.964C379.222 183.976 378.91 183.988 378.706 184V183.622C379.198 183.622 379.546 183.532 379.75 183.352C379.966 183.172 380.074 182.83 380.074 182.326V175.108H378.634V174.748H380.074C380.074 174.076 380.152 173.5 380.308 173.02C380.464 172.54 380.68 172.138 380.956 171.814C381.268 171.466 381.664 171.184 382.144 170.968C382.636 170.752 383.188 170.644 383.8 170.644ZM397.703 170.23C398.015 170.23 398.285 170.344 398.513 170.572C398.741 170.8 398.855 171.07 398.855 171.382C398.855 171.694 398.741 171.964 398.513 172.192C398.285 172.42 398.015 172.534 397.703 172.534C397.391 172.534 397.121 172.42 396.893 172.192C396.665 171.964 396.551 171.694 396.551 171.382C396.551 171.07 396.665 170.8 396.893 170.572C397.121 170.344 397.391 170.23 397.703 170.23ZM398.639 174.532V182.326C398.639 182.83 398.741 183.172 398.945 183.352C399.161 183.532 399.515 183.622 400.007 183.622V184C399.803 183.988 399.491 183.976 399.071 183.964C398.663 183.94 398.249 183.928 397.829 183.928C397.421 183.928 397.007 183.94 396.587 183.964C396.167 183.976 395.855 183.988 395.651 184V183.622C396.143 183.622 396.491 183.532 396.695 183.352C396.911 183.172 397.019 182.83 397.019 182.326V176.692C397.019 176.152 396.923 175.756 396.731 175.504C396.539 175.24 396.179 175.108 395.651 175.108V174.73C396.035 174.766 396.407 174.784 396.767 174.784C397.115 174.784 397.445 174.766 397.757 174.73C398.081 174.682 398.375 174.616 398.639 174.532ZM406.972 174.478C407.428 174.478 407.806 174.538 408.106 174.658C408.418 174.778 408.676 174.946 408.88 175.162C409.108 175.402 409.27 175.702 409.366 176.062C409.462 176.422 409.51 176.908 409.51 177.52V182.326C409.51 182.83 409.612 183.172 409.816 183.352C410.032 183.532 410.386 183.622 410.878 183.622V184C410.674 183.988 410.362 183.976 409.942 183.964C409.522 183.94 409.114 183.928 408.718 183.928C408.322 183.928 407.932 183.94 407.548 183.964C407.176 183.976 406.894 183.988 406.702 184V183.622C407.134 183.622 407.44 183.532 407.62 183.352C407.8 183.172 407.89 182.83 407.89 182.326V177.124C407.89 176.752 407.86 176.41 407.8 176.098C407.74 175.786 407.602 175.534 407.386 175.342C407.182 175.15 406.864 175.054 406.432 175.054C405.928 175.054 405.484 175.198 405.1 175.486C404.728 175.774 404.434 176.17 404.218 176.674C404.014 177.166 403.912 177.718 403.912 178.33V182.326C403.912 182.83 404.002 183.172 404.182 183.352C404.362 183.532 404.668 183.622 405.1 183.622V184C404.908 183.988 404.62 183.976 404.236 183.964C403.864 183.94 403.48 183.928 403.084 183.928C402.688 183.928 402.28 183.94 401.86 183.964C401.44 183.976 401.128 183.988 400.924 184V183.622C401.416 183.622 401.764 183.532 401.968 183.352C402.184 183.172 402.292 182.83 402.292 182.326V176.692C402.292 176.152 402.196 175.756 402.004 175.504C401.812 175.24 401.452 175.108 400.924 175.108V174.73C401.308 174.766 401.68 174.784 402.04 174.784C402.388 174.784 402.718 174.766 403.03 174.73C403.354 174.682 403.648 174.616 403.912 174.532V176.656C404.224 175.84 404.656 175.276 405.208 174.964C405.772 174.64 406.36 174.478 406.972 174.478ZM416.039 174.478C417.095 174.478 417.917 174.802 418.505 175.45C419.105 176.086 419.405 177.082 419.405 178.438H413.051L413.033 178.096H417.677C417.701 177.508 417.653 176.968 417.533 176.476C417.413 175.972 417.221 175.57 416.957 175.27C416.705 174.97 416.375 174.82 415.967 174.82C415.415 174.82 414.923 175.096 414.491 175.648C414.071 176.2 413.819 177.076 413.735 178.276L413.789 178.348C413.765 178.528 413.747 178.726 413.735 178.942C413.723 179.158 413.717 179.374 413.717 179.59C413.717 180.406 413.849 181.108 414.113 181.696C414.377 182.284 414.719 182.734 415.139 183.046C415.571 183.346 416.015 183.496 416.471 183.496C416.831 183.496 417.173 183.442 417.497 183.334C417.821 183.214 418.121 183.022 418.397 182.758C418.673 182.494 418.913 182.14 419.117 181.696L419.477 181.84C419.345 182.236 419.129 182.62 418.829 182.992C418.529 183.364 418.151 183.67 417.695 183.91C417.239 184.138 416.711 184.252 416.111 184.252C415.247 184.252 414.503 184.054 413.879 183.658C413.267 183.262 412.793 182.716 412.457 182.02C412.133 181.312 411.971 180.502 411.971 179.59C411.971 178.534 412.139 177.628 412.475 176.872C412.811 176.104 413.285 175.516 413.897 175.108C414.509 174.688 415.223 174.478 416.039 174.478Z" fill="#1D191A"/>
<path d="M371.678 207.004C372.818 207.004 373.814 207.262 374.666 207.778C375.53 208.294 376.196 209.038 376.664 210.01C377.144 210.97 377.384 212.14 377.384 213.52C377.384 214.864 377.138 216.04 376.646 217.048C376.166 218.056 375.494 218.842 374.63 219.406C373.766 219.97 372.776 220.252 371.66 220.252C370.52 220.252 369.518 219.994 368.654 219.478C367.802 218.962 367.136 218.218 366.656 217.246C366.188 216.274 365.954 215.104 365.954 213.736C365.954 212.392 366.2 211.216 366.692 210.208C367.184 209.2 367.856 208.414 368.708 207.85C369.572 207.286 370.562 207.004 371.678 207.004ZM371.606 207.328C370.826 207.328 370.148 207.598 369.572 208.138C368.996 208.678 368.546 209.422 368.222 210.37C367.91 211.318 367.754 212.416 367.754 213.664C367.754 214.936 367.928 216.046 368.276 216.994C368.636 217.93 369.116 218.656 369.716 219.172C370.328 219.676 371 219.928 371.732 219.928C372.512 219.928 373.19 219.658 373.766 219.118C374.342 218.578 374.786 217.834 375.098 216.886C375.422 215.926 375.584 214.828 375.584 213.592C375.584 212.308 375.404 211.198 375.044 210.262C374.696 209.326 374.222 208.606 373.622 208.102C373.022 207.586 372.35 207.328 371.606 207.328ZM384.912 210.478C385.368 210.478 385.746 210.538 386.046 210.658C386.358 210.778 386.616 210.946 386.82 211.162C387.048 211.402 387.21 211.702 387.306 212.062C387.402 212.422 387.45 212.908 387.45 213.52V218.326C387.45 218.83 387.552 219.172 387.756 219.352C387.972 219.532 388.326 219.622 388.818 219.622V220C388.614 219.988 388.302 219.976 387.882 219.964C387.462 219.94 387.054 219.928 386.658 219.928C386.262 219.928 385.872 219.94 385.488 219.964C385.116 219.976 384.834 219.988 384.642 220V219.622C385.074 219.622 385.38 219.532 385.56 219.352C385.74 219.172 385.83 218.83 385.83 218.326V213.124C385.83 212.752 385.8 212.41 385.74 212.098C385.68 211.786 385.542 211.534 385.326 211.342C385.122 211.15 384.804 211.054 384.372 211.054C383.868 211.054 383.424 211.198 383.04 211.486C382.668 211.774 382.374 212.17 382.158 212.674C381.954 213.166 381.852 213.718 381.852 214.33V218.326C381.852 218.83 381.942 219.172 382.122 219.352C382.302 219.532 382.608 219.622 383.04 219.622V220C382.848 219.988 382.56 219.976 382.176 219.964C381.804 219.94 381.42 219.928 381.024 219.928C380.628 219.928 380.22 219.94 379.8 219.964C379.38 219.976 379.068 219.988 378.864 220V219.622C379.356 219.622 379.704 219.532 379.908 219.352C380.124 219.172 380.232 218.83 380.232 218.326V212.692C380.232 212.152 380.136 211.756 379.944 211.504C379.752 211.24 379.392 211.108 378.864 211.108V210.73C379.248 210.766 379.62 210.784 379.98 210.784C380.328 210.784 380.658 210.766 380.97 210.73C381.294 210.682 381.588 210.616 381.852 210.532V212.656C382.164 211.84 382.596 211.276 383.148 210.964C383.712 210.64 384.3 210.478 384.912 210.478ZM392.466 205.888V218.326C392.466 218.83 392.568 219.172 392.772 219.352C392.988 219.532 393.342 219.622 393.834 219.622V220C393.63 219.988 393.318 219.976 392.898 219.964C392.49 219.94 392.076 219.928 391.656 219.928C391.248 219.928 390.834 219.94 390.414 219.964C389.994 219.976 389.682 219.988 389.478 220V219.622C389.97 219.622 390.318 219.532 390.522 219.352C390.738 219.172 390.846 218.83 390.846 218.326V208.048C390.846 207.508 390.75 207.112 390.558 206.86C390.366 206.596 390.006 206.464 389.478 206.464V206.086C389.862 206.122 390.234 206.14 390.594 206.14C390.942 206.14 391.272 206.122 391.584 206.086C391.908 206.038 392.202 205.972 392.466 205.888ZM396.806 206.23C397.118 206.23 397.388 206.344 397.616 206.572C397.844 206.8 397.958 207.07 397.958 207.382C397.958 207.694 397.844 207.964 397.616 208.192C397.388 208.42 397.118 208.534 396.806 208.534C396.494 208.534 396.224 208.42 395.996 208.192C395.768 207.964 395.654 207.694 395.654 207.382C395.654 207.07 395.768 206.8 395.996 206.572C396.224 206.344 396.494 206.23 396.806 206.23ZM397.742 210.532V218.326C397.742 218.83 397.844 219.172 398.048 219.352C398.264 219.532 398.618 219.622 399.11 219.622V220C398.906 219.988 398.594 219.976 398.174 219.964C397.766 219.94 397.352 219.928 396.932 219.928C396.524 219.928 396.11 219.94 395.69 219.964C395.27 219.976 394.958 219.988 394.754 220V219.622C395.246 219.622 395.594 219.532 395.798 219.352C396.014 219.172 396.122 218.83 396.122 218.326V212.692C396.122 212.152 396.026 211.756 395.834 211.504C395.642 211.24 395.282 211.108 394.754 211.108V210.73C395.138 210.766 395.51 210.784 395.87 210.784C396.218 210.784 396.548 210.766 396.86 210.73C397.184 210.682 397.478 210.616 397.742 210.532ZM406.076 210.478C406.532 210.478 406.91 210.538 407.21 210.658C407.522 210.778 407.78 210.946 407.984 211.162C408.212 211.402 408.374 211.702 408.47 212.062C408.566 212.422 408.614 212.908 408.614 213.52V218.326C408.614 218.83 408.716 219.172 408.92 219.352C409.136 219.532 409.49 219.622 409.982 219.622V220C409.778 219.988 409.466 219.976 409.046 219.964C408.626 219.94 408.218 219.928 407.822 219.928C407.426 219.928 407.036 219.94 406.652 219.964C406.28 219.976 405.998 219.988 405.806 220V219.622C406.238 219.622 406.544 219.532 406.724 219.352C406.904 219.172 406.994 218.83 406.994 218.326V213.124C406.994 212.752 406.964 212.41 406.904 212.098C406.844 211.786 406.706 211.534 406.49 211.342C406.286 211.15 405.968 211.054 405.536 211.054C405.032 211.054 404.588 211.198 404.204 211.486C403.832 211.774 403.538 212.17 403.322 212.674C403.118 213.166 403.016 213.718 403.016 214.33V218.326C403.016 218.83 403.106 219.172 403.286 219.352C403.466 219.532 403.772 219.622 404.204 219.622V220C404.012 219.988 403.724 219.976 403.34 219.964C402.968 219.94 402.584 219.928 402.188 219.928C401.792 219.928 401.384 219.94 400.964 219.964C400.544 219.976 400.232 219.988 400.028 220V219.622C400.52 219.622 400.868 219.532 401.072 219.352C401.288 219.172 401.396 218.83 401.396 218.326V212.692C401.396 212.152 401.3 211.756 401.108 211.504C400.916 211.24 400.556 211.108 400.028 211.108V210.73C400.412 210.766 400.784 210.784 401.144 210.784C401.492 210.784 401.822 210.766 402.134 210.73C402.458 210.682 402.752 210.616 403.016 210.532V212.656C403.328 211.84 403.76 211.276 404.312 210.964C404.876 210.64 405.464 210.478 406.076 210.478ZM415.142 210.478C416.198 210.478 417.02 210.802 417.608 211.45C418.208 212.086 418.508 213.082 418.508 214.438H412.154L412.136 214.096H416.78C416.804 213.508 416.756 212.968 416.636 212.476C416.516 211.972 416.324 211.57 416.06 211.27C415.808 210.97 415.478 210.82 415.07 210.82C414.518 210.82 414.026 211.096 413.594 211.648C413.174 212.2 412.922 213.076 412.838 214.276L412.892 214.348C412.868 214.528 412.85 214.726 412.838 214.942C412.826 215.158 412.82 215.374 412.82 215.59C412.82 216.406 412.952 217.108 413.216 217.696C413.48 218.284 413.822 218.734 414.242 219.046C414.674 219.346 415.118 219.496 415.574 219.496C415.934 219.496 416.276 219.442 416.6 219.334C416.924 219.214 417.224 219.022 417.5 218.758C417.776 218.494 418.016 218.14 418.22 217.696L418.58 217.84C418.448 218.236 418.232 218.62 417.932 218.992C417.632 219.364 417.254 219.67 416.798 219.91C416.342 220.138 415.814 220.252 415.214 220.252C414.35 220.252 413.606 220.054 412.982 219.658C412.37 219.262 411.896 218.716 411.56 218.02C411.236 217.312 411.074 216.502 411.074 215.59C411.074 214.534 411.242 213.628 411.578 212.872C411.914 212.104 412.388 211.516 413 211.108C413.612 210.688 414.326 210.478 415.142 210.478Z" fill="#1D191A"/>
<path d="M371.678 241.004C372.818 241.004 373.814 241.262 374.666 241.778C375.53 242.294 376.196 243.038 376.664 244.01C377.144 244.97 377.384 246.14 377.384 247.52C377.384 248.864 377.138 250.04 376.646 251.048C376.166 252.056 375.494 252.842 374.63 253.406C373.766 253.97 372.776 254.252 371.66 254.252C370.52 254.252 369.518 253.994 368.654 253.478C367.802 252.962 367.136 252.218 366.656 251.246C366.188 250.274 365.954 249.104 365.954 247.736C365.954 246.392 366.2 245.216 366.692 244.208C367.184 243.2 367.856 242.414 368.708 241.85C369.572 241.286 370.562 241.004 371.678 241.004ZM371.606 241.328C370.826 241.328 370.148 241.598 369.572 242.138C368.996 242.678 368.546 243.422 368.222 244.37C367.91 245.318 367.754 246.416 367.754 247.664C367.754 248.936 367.928 250.046 368.276 250.994C368.636 251.93 369.116 252.656 369.716 253.172C370.328 253.676 371 253.928 371.732 253.928C372.512 253.928 373.19 253.658 373.766 253.118C374.342 252.578 374.786 251.834 375.098 250.886C375.422 249.926 375.584 248.828 375.584 247.592C375.584 246.308 375.404 245.198 375.044 244.262C374.696 243.326 374.222 242.606 373.622 242.102C373.022 241.586 372.35 241.328 371.606 241.328ZM381.762 241.742V244.748H384.426V245.108H381.762V252.074C381.762 252.638 381.864 253.034 382.068 253.262C382.272 253.49 382.554 253.604 382.914 253.604C383.274 253.604 383.586 253.46 383.85 253.172C384.114 252.872 384.342 252.374 384.534 251.678L384.894 251.768C384.774 252.464 384.534 253.052 384.174 253.532C383.826 254.012 383.286 254.252 382.554 254.252C382.146 254.252 381.81 254.198 381.546 254.09C381.282 253.994 381.048 253.85 380.844 253.658C380.58 253.382 380.394 253.052 380.286 252.668C380.19 252.284 380.142 251.774 380.142 251.138V245.108H378.414V244.748H380.142V241.994C380.442 241.982 380.73 241.958 381.006 241.922C381.282 241.886 381.534 241.826 381.762 241.742ZM388.053 239.906V246.638C388.365 245.822 388.797 245.258 389.349 244.946C389.913 244.634 390.501 244.478 391.113 244.478C391.569 244.478 391.947 244.538 392.247 244.658C392.559 244.778 392.817 244.946 393.021 245.162C393.249 245.402 393.411 245.702 393.507 246.062C393.603 246.422 393.651 246.908 393.651 247.52V252.326C393.651 252.83 393.753 253.172 393.957 253.352C394.173 253.532 394.527 253.622 395.019 253.622V254C394.815 253.988 394.503 253.976 394.083 253.964C393.663 253.94 393.255 253.928 392.859 253.928C392.463 253.928 392.073 253.94 391.689 253.964C391.317 253.976 391.035 253.988 390.843 254V253.622C391.275 253.622 391.581 253.532 391.761 253.352C391.941 253.172 392.031 252.83 392.031 252.326V247.124C392.031 246.752 392.001 246.41 391.941 246.098C391.881 245.786 391.743 245.534 391.527 245.342C391.323 245.15 391.005 245.054 390.573 245.054C390.081 245.054 389.643 245.192 389.259 245.468C388.887 245.744 388.593 246.128 388.377 246.62C388.161 247.112 388.053 247.676 388.053 248.312V252.326C388.053 252.83 388.143 253.172 388.323 253.352C388.503 253.532 388.809 253.622 389.241 253.622V254C389.049 253.988 388.761 253.976 388.377 253.964C388.005 253.94 387.621 253.928 387.225 253.928C386.829 253.928 386.421 253.94 386.001 253.964C385.581 253.976 385.269 253.988 385.065 254V253.622C385.557 253.622 385.905 253.532 386.109 253.352C386.325 253.172 386.433 252.83 386.433 252.326V242.066C386.433 241.526 386.337 241.13 386.145 240.878C385.953 240.614 385.593 240.482 385.065 240.482V240.104C385.449 240.14 385.821 240.158 386.181 240.158C386.529 240.158 386.859 240.14 387.171 240.104C387.495 240.056 387.789 239.99 388.053 239.906ZM400.183 244.478C401.239 244.478 402.061 244.802 402.649 245.45C403.249 246.086 403.549 247.082 403.549 248.438H397.195L397.177 248.096H401.821C401.845 247.508 401.797 246.968 401.677 246.476C401.557 245.972 401.365 245.57 401.101 245.27C400.849 244.97 400.519 244.82 400.111 244.82C399.559 244.82 399.067 245.096 398.635 245.648C398.215 246.2 397.963 247.076 397.879 248.276L397.933 248.348C397.909 248.528 397.891 248.726 397.879 248.942C397.867 249.158 397.861 249.374 397.861 249.59C397.861 250.406 397.993 251.108 398.257 251.696C398.521 252.284 398.863 252.734 399.283 253.046C399.715 253.346 400.159 253.496 400.615 253.496C400.975 253.496 401.317 253.442 401.641 253.334C401.965 253.214 402.265 253.022 402.541 252.758C402.817 252.494 403.057 252.14 403.261 251.696L403.621 251.84C403.489 252.236 403.273 252.62 402.973 252.992C402.673 253.364 402.295 253.67 401.839 253.91C401.383 254.138 400.855 254.252 400.255 254.252C399.391 254.252 398.647 254.054 398.023 253.658C397.411 253.262 396.937 252.716 396.601 252.02C396.277 251.312 396.115 250.502 396.115 249.59C396.115 248.534 396.283 247.628 396.619 246.872C396.955 246.104 397.429 245.516 398.041 245.108C398.653 244.688 399.367 244.478 400.183 244.478ZM410.513 244.478C410.837 244.478 411.119 244.544 411.359 244.676C411.611 244.808 411.803 244.982 411.935 245.198C412.079 245.402 412.151 245.636 412.151 245.9C412.151 246.2 412.055 246.464 411.863 246.692C411.683 246.92 411.437 247.034 411.125 247.034C410.873 247.034 410.651 246.956 410.459 246.8C410.267 246.632 410.171 246.398 410.171 246.098C410.171 245.87 410.231 245.678 410.351 245.522C410.483 245.354 410.627 245.222 410.783 245.126C410.699 245.006 410.573 244.946 410.405 244.946C410.033 244.946 409.691 245.06 409.379 245.288C409.067 245.504 408.803 245.786 408.587 246.134C408.371 246.482 408.203 246.854 408.083 247.25C407.963 247.634 407.903 247.994 407.903 248.33V252.146C407.903 252.734 408.071 253.13 408.407 253.334C408.755 253.526 409.223 253.622 409.811 253.622V254C409.535 253.988 409.145 253.976 408.641 253.964C408.137 253.94 407.603 253.928 407.039 253.928C406.631 253.928 406.223 253.94 405.815 253.964C405.419 253.976 405.119 253.988 404.915 254V253.622C405.407 253.622 405.755 253.532 405.959 253.352C406.175 253.172 406.283 252.83 406.283 252.326V246.692C406.283 246.152 406.187 245.756 405.995 245.504C405.803 245.24 405.443 245.108 404.915 245.108V244.73C405.299 244.766 405.671 244.784 406.031 244.784C406.379 244.784 406.709 244.766 407.021 244.73C407.345 244.682 407.639 244.616 407.903 244.532V246.782C408.035 246.434 408.221 246.086 408.461 245.738C408.713 245.378 409.013 245.078 409.361 244.838C409.709 244.598 410.093 244.478 410.513 244.478ZM416.152 244.478C416.632 244.478 417.04 244.556 417.376 244.712C417.712 244.868 417.958 245.012 418.114 245.144C418.51 245.468 418.75 245.252 418.834 244.496H419.248C419.224 244.832 419.206 245.234 419.194 245.702C419.182 246.158 419.176 246.776 419.176 247.556H418.762C418.69 247.112 418.564 246.68 418.384 246.26C418.216 245.84 417.964 245.498 417.628 245.234C417.292 244.958 416.854 244.82 416.314 244.82C415.894 244.82 415.54 244.94 415.252 245.18C414.976 245.408 414.838 245.75 414.838 246.206C414.838 246.566 414.946 246.878 415.162 247.142C415.378 247.394 415.66 247.634 416.008 247.862C416.356 248.078 416.734 248.318 417.142 248.582C417.598 248.87 418.012 249.164 418.384 249.464C418.756 249.764 419.05 250.094 419.266 250.454C419.494 250.814 419.608 251.24 419.608 251.732C419.608 252.284 419.464 252.746 419.176 253.118C418.888 253.49 418.51 253.772 418.042 253.964C417.586 254.156 417.082 254.252 416.53 254.252C416.266 254.252 416.014 254.228 415.774 254.18C415.546 254.144 415.324 254.084 415.108 254C414.988 253.94 414.862 253.868 414.73 253.784C414.61 253.7 414.49 253.61 414.37 253.514C414.25 253.418 414.142 253.424 414.046 253.532C413.95 253.628 413.878 253.826 413.83 254.126H413.416C413.44 253.742 413.458 253.274 413.47 252.722C413.482 252.17 413.488 251.438 413.488 250.526H413.902C413.986 251.198 414.106 251.786 414.262 252.29C414.418 252.794 414.664 253.19 415 253.478C415.336 253.754 415.804 253.892 416.404 253.892C416.644 253.892 416.884 253.838 417.124 253.73C417.376 253.622 417.586 253.442 417.754 253.19C417.922 252.938 418.006 252.602 418.006 252.182C418.006 251.654 417.814 251.222 417.43 250.886C417.046 250.55 416.56 250.196 415.972 249.824C415.54 249.548 415.132 249.272 414.748 248.996C414.376 248.72 414.07 248.408 413.83 248.06C413.602 247.712 413.488 247.292 413.488 246.8C413.488 246.26 413.608 245.822 413.848 245.486C414.1 245.138 414.43 244.886 414.838 244.73C415.246 244.562 415.684 244.478 416.152 244.478Z" fill="#1D191A"/>
<path d="M300 214C300 296.843 232.843 364 150 364C67.1573 364 0 296.843 0 214C0 131.157 67.1573 64 150 64C232.843 64 300 131.157 300 214ZM56.0571 214C56.0571 265.883 98.1168 307.943 150 307.943C201.883 307.943 243.943 265.883 243.943 214C243.943 162.117 201.883 120.057 150 120.057C98.1168 120.057 56.0571 162.117 56.0571 214Z" fill="#FF7070"/>
<path d="M150 64C110.218 64 72.0644 79.8035 43.934 107.934C15.8035 136.064 3.47789e-06 174.218 0 214C-3.47789e-06 253.782 15.8035 291.936 43.934 320.066C72.0644 348.196 110.218 364 150 364L150 307.943C125.085 307.943 101.19 298.045 83.5724 280.428C65.9547 262.81 56.0571 238.915 56.0571 214C56.0571 189.085 65.9547 165.19 83.5724 147.572C101.19 129.955 125.085 120.057 150 120.057V64Z" fill="#896AEA"/>
<path d="M43.934 320.066C57.8628 333.995 74.3987 345.044 92.5975 352.582C110.796 360.12 130.302 364 150 364L150 307.943C137.663 307.943 125.447 305.513 114.05 300.792C102.652 296.071 92.2958 289.151 83.5724 280.428L43.934 320.066Z" fill="#F5DC70"/>
<path d="M34.81 150.34L34.898 150.912L28.496 159.69L28.584 159.206H35.404C36.0053 159.206 36.3867 159.125 36.548 158.964C36.7093 158.803 36.8193 158.524 36.878 158.128H37.274C37.274 158.905 37.2813 159.507 37.296 159.932C37.3107 160.343 37.3327 160.717 37.362 161.054C37.2593 161.025 37.0833 161.01 36.834 161.01C36.5993 160.995 36.3133 160.981 35.976 160.966C35.6387 160.951 35.294 160.944 34.942 160.944C34.59 160.944 34.2453 160.944 33.908 160.944H27.308V160.482L34.81 150.34ZM35.162 150.34V165.102H33.138V152.936L34.81 150.34H35.162ZM44.9934 150.34C46.0788 150.34 47.0321 150.582 47.8534 151.066C48.6894 151.535 49.3421 152.21 49.8114 153.09C50.2954 153.955 50.5374 154.975 50.5374 156.148C50.5374 157.321 50.2881 158.377 49.7894 159.316C49.3054 160.24 48.6308 160.973 47.7654 161.516C46.9148 162.044 45.9101 162.308 44.7514 162.308C43.6954 162.308 42.7421 162.073 41.8914 161.604C41.0554 161.12 40.3954 160.445 39.9114 159.58C39.4421 158.7 39.2074 157.673 39.2074 156.5C39.2074 155.341 39.4421 154.3 39.9114 153.376C40.3954 152.437 41.0701 151.697 41.9354 151.154C42.8154 150.611 43.8348 150.34 44.9934 150.34ZM44.7954 150.736C43.9008 150.736 43.1674 151.242 42.5954 152.254C42.0234 153.251 41.7374 154.645 41.7374 156.434C41.7374 157.754 41.8841 158.817 42.1774 159.624C42.4708 160.416 42.8594 160.995 43.3434 161.362C43.8421 161.729 44.3774 161.912 44.9494 161.912C45.8441 161.912 46.5774 161.413 47.1494 160.416C47.7214 159.404 48.0074 158.003 48.0074 156.214C48.0074 154.894 47.8608 153.831 47.5674 153.024C47.2741 152.217 46.8781 151.638 46.3794 151.286C45.8954 150.919 45.3674 150.736 44.7954 150.736ZM55.7786 145.258C56.7906 145.258 57.6046 145.573 58.2206 146.204C58.8366 146.835 59.1446 147.715 59.1446 148.844C59.1446 149.577 58.9979 150.223 58.7046 150.78C58.4112 151.337 58.0079 151.77 57.4946 152.078C56.9959 152.386 56.4239 152.54 55.7786 152.54C54.7666 152.54 53.9452 152.225 53.3146 151.594C52.6986 150.963 52.3906 150.083 52.3906 148.954C52.3906 148.221 52.5372 147.575 52.8306 147.018C53.1386 146.461 53.5419 146.028 54.0406 145.72C54.5539 145.412 55.1332 145.258 55.7786 145.258ZM63.6546 155.422C63.1119 155.422 62.7086 155.701 62.4446 156.258C62.1806 156.815 62.0486 157.629 62.0486 158.7C62.0486 159.771 62.2026 160.577 62.5106 161.12C62.8186 161.648 63.2292 161.912 63.7426 161.912C64.2852 161.912 64.6812 161.633 64.9306 161.076C65.1946 160.519 65.3266 159.712 65.3266 158.656C65.3266 157.571 65.1799 156.764 64.8866 156.236C64.5932 155.693 64.1826 155.422 63.6546 155.422ZM63.6986 155.026C64.7106 155.026 65.5246 155.341 66.1406 155.972C66.7566 156.603 67.0646 157.483 67.0646 158.612C67.0646 159.345 66.9179 159.991 66.6246 160.548C66.3312 161.105 65.9279 161.538 65.4146 161.846C64.9159 162.154 64.3439 162.308 63.6986 162.308C62.6866 162.308 61.8652 161.993 61.2346 161.362C60.6186 160.731 60.3106 159.851 60.3106 158.722C60.3106 157.989 60.4572 157.343 60.7506 156.786C61.0586 156.229 61.4619 155.796 61.9606 155.488C62.4739 155.18 63.0532 155.026 63.6986 155.026ZM55.7346 145.654C55.1919 145.654 54.7886 145.933 54.5246 146.49C54.2606 147.047 54.1286 147.861 54.1286 148.932C54.1286 150.003 54.2826 150.809 54.5906 151.352C54.8986 151.88 55.3092 152.144 55.8226 152.144C56.3652 152.144 56.7612 151.865 57.0106 151.308C57.2746 150.751 57.4066 149.944 57.4066 148.888C57.4066 147.803 57.2599 146.996 56.9666 146.468C56.6732 145.925 56.2626 145.654 55.7346 145.654ZM66.0966 143.872L66.5146 144.158L53.6446 163.21L53.2266 162.924L66.0966 143.872Z" fill="white"/>
<path d="M258.722 195.636C258.722 196.516 258.729 197.205 258.744 197.704C258.759 198.188 258.781 198.628 258.81 199.024C258.693 198.995 258.465 198.973 258.128 198.958C257.805 198.943 257.431 198.936 257.006 198.936C256.581 198.921 256.163 198.914 255.752 198.914H253.068L252.782 202.984C253.105 202.793 253.486 202.625 253.926 202.478C254.381 202.331 254.938 202.258 255.598 202.258C256.522 202.258 257.277 202.412 257.864 202.72C258.465 203.013 258.905 203.417 259.184 203.93C259.477 204.443 259.624 205.023 259.624 205.668C259.624 206.519 259.397 207.289 258.942 207.978C258.487 208.667 257.879 209.254 257.116 209.738C256.368 210.222 255.539 210.596 254.63 210.86C253.721 211.124 252.804 211.256 251.88 211.256V210.86C252.54 210.86 253.178 210.75 253.794 210.53C254.425 210.325 254.989 210.009 255.488 209.584C255.987 209.159 256.383 208.638 256.676 208.022C256.984 207.406 257.138 206.687 257.138 205.866C257.138 204.942 256.903 204.223 256.434 203.71C255.979 203.197 255.319 202.94 254.454 202.94C254.058 202.94 253.721 202.984 253.442 203.072C253.178 203.145 252.892 203.255 252.584 203.402L252.342 203.248L252.848 196.582C253.009 196.611 253.193 196.633 253.398 196.648C253.618 196.663 253.831 196.67 254.036 196.67H256.896C257.439 196.67 257.791 196.597 257.952 196.45C258.128 196.289 258.238 196.017 258.282 195.636H258.722ZM267.339 196.34C268.424 196.34 269.378 196.582 270.199 197.066C271.035 197.535 271.688 198.21 272.157 199.09C272.641 199.955 272.883 200.975 272.883 202.148C272.883 203.321 272.634 204.377 272.135 205.316C271.651 206.24 270.976 206.973 270.111 207.516C269.26 208.044 268.256 208.308 267.097 208.308C266.041 208.308 265.088 208.073 264.237 207.604C263.401 207.12 262.741 206.445 262.257 205.58C261.788 204.7 261.553 203.673 261.553 202.5C261.553 201.341 261.788 200.3 262.257 199.376C262.741 198.437 263.416 197.697 264.281 197.154C265.161 196.611 266.18 196.34 267.339 196.34ZM267.141 196.736C266.246 196.736 265.513 197.242 264.941 198.254C264.369 199.251 264.083 200.645 264.083 202.434C264.083 203.754 264.23 204.817 264.523 205.624C264.816 206.416 265.205 206.995 265.689 207.362C266.188 207.729 266.723 207.912 267.295 207.912C268.19 207.912 268.923 207.413 269.495 206.416C270.067 205.404 270.353 204.003 270.353 202.214C270.353 200.894 270.206 199.831 269.913 199.024C269.62 198.217 269.224 197.638 268.725 197.286C268.241 196.919 267.713 196.736 267.141 196.736ZM278.124 191.258C279.136 191.258 279.95 191.573 280.566 192.204C281.182 192.835 281.49 193.715 281.49 194.844C281.49 195.577 281.344 196.223 281.05 196.78C280.757 197.337 280.354 197.77 279.84 198.078C279.342 198.386 278.77 198.54 278.124 198.54C277.112 198.54 276.291 198.225 275.66 197.594C275.044 196.963 274.736 196.083 274.736 194.954C274.736 194.221 274.883 193.575 275.176 193.018C275.484 192.461 275.888 192.028 276.386 191.72C276.9 191.412 277.479 191.258 278.124 191.258ZM286 201.422C285.458 201.422 285.054 201.701 284.79 202.258C284.526 202.815 284.394 203.629 284.394 204.7C284.394 205.771 284.548 206.577 284.856 207.12C285.164 207.648 285.575 207.912 286.088 207.912C286.631 207.912 287.027 207.633 287.276 207.076C287.54 206.519 287.672 205.712 287.672 204.656C287.672 203.571 287.526 202.764 287.232 202.236C286.939 201.693 286.528 201.422 286 201.422ZM286.044 201.026C287.056 201.026 287.87 201.341 288.486 201.972C289.102 202.603 289.41 203.483 289.41 204.612C289.41 205.345 289.264 205.991 288.97 206.548C288.677 207.105 288.274 207.538 287.76 207.846C287.262 208.154 286.69 208.308 286.044 208.308C285.032 208.308 284.211 207.993 283.58 207.362C282.964 206.731 282.656 205.851 282.656 204.722C282.656 203.989 282.803 203.343 283.096 202.786C283.404 202.229 283.808 201.796 284.306 201.488C284.82 201.18 285.399 201.026 286.044 201.026ZM278.08 191.654C277.538 191.654 277.134 191.933 276.87 192.49C276.606 193.047 276.474 193.861 276.474 194.932C276.474 196.003 276.628 196.809 276.936 197.352C277.244 197.88 277.655 198.144 278.168 198.144C278.711 198.144 279.107 197.865 279.356 197.308C279.62 196.751 279.752 195.944 279.752 194.888C279.752 193.803 279.606 192.996 279.312 192.468C279.019 191.925 278.608 191.654 278.08 191.654ZM288.442 189.872L288.86 190.158L275.99 209.21L275.572 208.924L288.442 189.872Z" fill="white"/>
<path d="M86.786 321.406V330.778C86.786 331.467 86.9327 331.937 87.226 332.186C87.5193 332.421 88.018 332.538 88.722 332.538V333C88.4287 332.985 87.996 332.971 87.424 332.956C86.8667 332.927 86.2873 332.912 85.686 332.912C84.982 332.912 84.3073 332.927 83.662 332.956C83.0167 332.971 82.518 332.985 82.166 333V332.538C82.87 332.538 83.42 332.421 83.816 332.186C84.212 331.937 84.41 331.453 84.41 330.734V325.388C84.41 324.684 84.3367 324.163 84.19 323.826C84.058 323.489 83.8087 323.269 83.442 323.166C83.09 323.063 82.606 323.012 81.99 323.012V322.528C83.1047 322.499 84.036 322.403 84.784 322.242C85.532 322.081 86.1993 321.802 86.786 321.406ZM96.1145 321.34C97.1998 321.34 98.1532 321.582 98.9745 322.066C99.8105 322.535 100.463 323.21 100.933 324.09C101.417 324.955 101.659 325.975 101.659 327.148C101.659 328.321 101.409 329.377 100.911 330.316C100.427 331.24 99.7518 331.973 98.8865 332.516C98.0358 333.044 97.0312 333.308 95.8725 333.308C94.8165 333.308 93.8632 333.073 93.0125 332.604C92.1765 332.12 91.5165 331.445 91.0325 330.58C90.5632 329.7 90.3285 328.673 90.3285 327.5C90.3285 326.341 90.5632 325.3 91.0325 324.376C91.5165 323.437 92.1912 322.697 93.0565 322.154C93.9365 321.611 94.9558 321.34 96.1145 321.34ZM95.9165 321.736C95.0218 321.736 94.2885 322.242 93.7165 323.254C93.1445 324.251 92.8585 325.645 92.8585 327.434C92.8585 328.754 93.0052 329.817 93.2985 330.624C93.5918 331.416 93.9805 331.995 94.4645 332.362C94.9632 332.729 95.4985 332.912 96.0705 332.912C96.9652 332.912 97.6985 332.413 98.2705 331.416C98.8425 330.404 99.1285 329.003 99.1285 327.214C99.1285 325.894 98.9818 324.831 98.6885 324.024C98.3952 323.217 97.9992 322.638 97.5005 322.286C97.0165 321.919 96.4885 321.736 95.9165 321.736ZM106.9 316.258C107.912 316.258 108.726 316.573 109.342 317.204C109.958 317.835 110.266 318.715 110.266 319.844C110.266 320.577 110.119 321.223 109.826 321.78C109.532 322.337 109.129 322.77 108.616 323.078C108.117 323.386 107.545 323.54 106.9 323.54C105.888 323.54 105.066 323.225 104.436 322.594C103.82 321.963 103.512 321.083 103.512 319.954C103.512 319.221 103.658 318.575 103.952 318.018C104.26 317.461 104.663 317.028 105.162 316.72C105.675 316.412 106.254 316.258 106.9 316.258ZM114.776 326.422C114.233 326.422 113.83 326.701 113.566 327.258C113.302 327.815 113.17 328.629 113.17 329.7C113.17 330.771 113.324 331.577 113.632 332.12C113.94 332.648 114.35 332.912 114.864 332.912C115.406 332.912 115.802 332.633 116.052 332.076C116.316 331.519 116.448 330.712 116.448 329.656C116.448 328.571 116.301 327.764 116.008 327.236C115.714 326.693 115.304 326.422 114.776 326.422ZM114.82 326.026C115.832 326.026 116.646 326.341 117.262 326.972C117.878 327.603 118.186 328.483 118.186 329.612C118.186 330.345 118.039 330.991 117.746 331.548C117.452 332.105 117.049 332.538 116.536 332.846C116.037 333.154 115.465 333.308 114.82 333.308C113.808 333.308 112.986 332.993 112.356 332.362C111.74 331.731 111.432 330.851 111.432 329.722C111.432 328.989 111.578 328.343 111.872 327.786C112.18 327.229 112.583 326.796 113.082 326.488C113.595 326.18 114.174 326.026 114.82 326.026ZM106.856 316.654C106.313 316.654 105.91 316.933 105.646 317.49C105.382 318.047 105.25 318.861 105.25 319.932C105.25 321.003 105.404 321.809 105.712 322.352C106.02 322.88 106.43 323.144 106.944 323.144C107.486 323.144 107.882 322.865 108.132 322.308C108.396 321.751 108.528 320.944 108.528 319.888C108.528 318.803 108.381 317.996 108.088 317.468C107.794 316.925 107.384 316.654 106.856 316.654ZM117.218 314.872L117.636 315.158L104.766 334.21L104.348 333.924L117.218 314.872Z" fill="white"/>
<rect x="327" y="175" width="28" height="14" fill="#FF7070"/>
<rect x="327" y="210" width="28" height="15" fill="#896AEA"/>
<rect x="327" y="244" width="28" height="15" fill="#F5DC70"/>
</svg>
