<svg width="1476" height="345" viewBox="0 0 1476 345" fill="none" xmlns="http://www.w3.org/2000/svg">
<rect x="523.5" y="19.5" width="436" height="325" rx="19.5" fill="#183A1D" stroke="#1D191A"/>
<rect x="1039.5" y="19.5" width="436" height="325" rx="19.5" fill="#FEFBE9" stroke="#1D191A"/>
<path d="M663.65 129.5C663.65 131.633 663.15 133.583 662.15 135.35C661.183 137.083 659.7 138.483 657.7 139.55C655.733 140.583 653.317 141.1 650.45 141.1H645.6V153H635.8V117.75H650.45C653.283 117.75 655.683 118.25 657.65 119.25C659.65 120.25 661.15 121.633 662.15 123.4C663.15 125.167 663.65 127.2 663.65 129.5ZM649.5 133.3C652.267 133.3 653.65 132.033 653.65 129.5C653.65 126.933 652.267 125.65 649.5 125.65H645.6V133.3H649.5ZM680.637 153.35C677.837 153.35 675.32 152.767 673.087 151.6C670.887 150.433 669.154 148.767 667.887 146.6C666.62 144.433 665.987 141.883 665.987 138.95C665.987 136.05 666.62 133.517 667.887 131.35C669.187 129.183 670.937 127.517 673.137 126.35C675.37 125.183 677.887 124.6 680.687 124.6C683.487 124.6 685.987 125.183 688.187 126.35C690.42 127.517 692.17 129.183 693.437 131.35C694.737 133.517 695.387 136.05 695.387 138.95C695.387 141.85 694.737 144.4 693.437 146.6C692.17 148.767 690.42 150.433 688.187 151.6C685.954 152.767 683.437 153.35 680.637 153.35ZM680.637 144.85C682.004 144.85 683.137 144.35 684.037 143.35C684.97 142.317 685.437 140.85 685.437 138.95C685.437 137.05 684.97 135.6 684.037 134.6C683.137 133.6 682.02 133.1 680.687 133.1C679.354 133.1 678.237 133.6 677.337 134.6C676.437 135.6 675.987 137.05 675.987 138.95C675.987 140.883 676.42 142.35 677.287 143.35C678.154 144.35 679.27 144.85 680.637 144.85ZM709.174 128.85C709.941 127.55 711.024 126.517 712.424 125.75C713.824 124.983 715.474 124.6 717.374 124.6C719.608 124.6 721.624 125.183 723.424 126.35C725.258 127.517 726.691 129.183 727.724 131.35C728.791 133.517 729.324 136.05 729.324 138.95C729.324 141.85 728.791 144.4 727.724 146.6C726.691 148.767 725.258 150.433 723.424 151.6C721.624 152.767 719.608 153.35 717.374 153.35C715.474 153.35 713.824 152.967 712.424 152.2C711.058 151.433 709.974 150.4 709.174 149.1V166.4H699.374V124.95H709.174V128.85ZM719.374 138.95C719.374 137.117 718.874 135.7 717.874 134.7C716.908 133.667 715.708 133.15 714.274 133.15C712.841 133.15 711.624 133.667 710.624 134.7C709.658 135.733 709.174 137.15 709.174 138.95C709.174 140.783 709.658 142.217 710.624 143.25C711.624 144.283 712.841 144.8 714.274 144.8C715.708 144.8 716.908 144.283 717.874 143.25C718.874 142.183 719.374 140.75 719.374 138.95ZM743.159 128.85C743.925 127.55 745.009 126.517 746.409 125.75C747.809 124.983 749.459 124.6 751.359 124.6C753.592 124.6 755.609 125.183 757.409 126.35C759.242 127.517 760.675 129.183 761.709 131.35C762.775 133.517 763.309 136.05 763.309 138.95C763.309 141.85 762.775 144.4 761.709 146.6C760.675 148.767 759.242 150.433 757.409 151.6C755.609 152.767 753.592 153.35 751.359 153.35C749.459 153.35 747.809 152.967 746.409 152.2C745.042 151.433 743.959 150.4 743.159 149.1V166.4H733.359V124.95H743.159V128.85ZM753.359 138.95C753.359 137.117 752.859 135.7 751.859 134.7C750.892 133.667 749.692 133.15 748.259 133.15C746.825 133.15 745.609 133.667 744.609 134.7C743.642 135.733 743.159 137.15 743.159 138.95C743.159 140.783 743.642 142.217 744.609 143.25C745.609 144.283 746.825 144.8 748.259 144.8C749.692 144.8 750.892 144.283 751.859 143.25C752.859 142.183 753.359 140.75 753.359 138.95ZM772.293 122.35C770.56 122.35 769.16 121.883 768.093 120.95C767.06 119.983 766.543 118.783 766.543 117.35C766.543 115.883 767.06 114.667 768.093 113.7C769.16 112.733 770.56 112.25 772.293 112.25C773.993 112.25 775.36 112.733 776.393 113.7C777.46 114.667 777.993 115.883 777.993 117.35C777.993 118.783 777.46 119.983 776.393 120.95C775.36 121.883 773.993 122.35 772.293 122.35ZM777.143 124.95V153H767.343V124.95H777.143ZM801.074 124.7C804.307 124.7 806.874 125.783 808.774 127.95C810.674 130.083 811.624 132.983 811.624 136.65V153H801.824V137.95C801.824 136.35 801.407 135.1 800.574 134.2C799.74 133.267 798.624 132.8 797.224 132.8C795.757 132.8 794.607 133.267 793.774 134.2C792.94 135.1 792.524 136.35 792.524 137.95V153H782.724V124.95H792.524V128.95C793.39 127.683 794.557 126.667 796.024 125.9C797.49 125.1 799.174 124.7 801.074 124.7ZM828.951 153.35C826.418 153.35 824.151 152.933 822.151 152.1C820.185 151.233 818.618 150.067 817.451 148.6C816.318 147.1 815.685 145.417 815.551 143.55H825.051C825.185 144.45 825.601 145.15 826.301 145.65C827.001 146.15 827.868 146.4 828.901 146.4C829.701 146.4 830.335 146.233 830.801 145.9C831.268 145.567 831.501 145.133 831.501 144.6C831.501 143.9 831.118 143.383 830.351 143.05C829.585 142.717 828.318 142.35 826.551 141.95C824.551 141.55 822.885 141.1 821.551 140.6C820.218 140.1 819.051 139.283 818.051 138.15C817.085 137.017 816.601 135.483 816.601 133.55C816.601 131.883 817.051 130.383 817.951 129.05C818.851 127.683 820.168 126.6 821.901 125.8C823.668 125 825.785 124.6 828.251 124.6C831.918 124.6 834.801 125.5 836.901 127.3C839.001 129.1 840.218 131.467 840.551 134.4H831.701C831.535 133.5 831.135 132.817 830.501 132.35C829.901 131.85 829.085 131.6 828.051 131.6C827.251 131.6 826.635 131.75 826.201 132.05C825.801 132.35 825.601 132.767 825.601 133.3C825.601 133.967 825.985 134.483 826.751 134.85C827.518 135.183 828.751 135.533 830.451 135.9C832.485 136.333 834.168 136.817 835.501 137.35C836.868 137.883 838.051 138.75 839.051 139.95C840.085 141.117 840.601 142.717 840.601 144.75C840.601 146.383 840.118 147.85 839.151 149.15C838.218 150.45 836.868 151.483 835.101 152.25C833.368 152.983 831.318 153.35 828.951 153.35Z" fill="#FEFBE9"/>
<path d="M667.67 186.15C667.03 184.39 665.93 182.97 664.37 181.89C662.83 180.79 661 180.24 658.88 180.24C657.12 180.24 655.52 180.66 654.08 181.5C652.64 182.32 651.5 183.51 650.66 185.07C649.84 186.61 649.43 188.41 649.43 190.47C649.43 192.53 649.84 194.34 650.66 195.9C651.5 197.44 652.64 198.63 654.08 199.47C655.52 200.29 657.12 200.7 658.88 200.7C660.6 200.7 662.17 200.3 663.59 199.5C665.03 198.7 666.18 197.55 667.04 196.05C667.9 194.53 668.35 192.77 668.39 190.77H658.43V190.23H668.96V190.47C668.96 192.55 668.53 194.41 667.67 196.05C666.81 197.69 665.61 198.97 664.07 199.89C662.55 200.79 660.82 201.24 658.88 201.24C656.94 201.24 655.2 200.79 653.66 199.89C652.14 198.97 650.95 197.69 650.09 196.05C649.23 194.41 648.8 192.55 648.8 190.47C648.8 188.39 649.23 186.53 650.09 184.89C650.95 183.25 652.14 181.98 653.66 181.08C655.2 180.16 656.94 179.7 658.88 179.7C661.16 179.7 663.11 180.28 664.73 181.44C666.35 182.6 667.53 184.17 668.27 186.15H667.67ZM680.48 201.21C678.98 201.21 677.63 200.88 676.43 200.22C675.23 199.54 674.28 198.58 673.58 197.34C672.9 196.08 672.56 194.6 672.56 192.9C672.56 191.2 672.9 189.73 673.58 188.49C674.28 187.23 675.23 186.27 676.43 185.61C677.63 184.93 678.98 184.59 680.48 184.59C681.98 184.59 683.33 184.93 684.53 185.61C685.73 186.27 686.67 187.23 687.35 188.49C688.03 189.73 688.37 191.2 688.37 192.9C688.37 194.6 688.03 196.08 687.35 197.34C686.67 198.58 685.73 199.54 684.53 200.22C683.33 200.88 681.98 201.21 680.48 201.21ZM680.48 200.67C681.78 200.67 682.98 200.39 684.08 199.83C685.18 199.25 686.07 198.38 686.75 197.22C687.43 196.06 687.77 194.62 687.77 192.9C687.77 191.18 687.43 189.74 686.75 188.58C686.07 187.42 685.18 186.56 684.08 186C682.98 185.42 681.78 185.13 680.48 185.13C679.18 185.13 677.97 185.42 676.85 186C675.75 186.56 674.86 187.43 674.18 188.61C673.5 189.77 673.16 191.2 673.16 192.9C673.16 194.6 673.5 196.04 674.18 197.22C674.86 198.38 675.75 199.25 676.85 199.83C677.97 200.39 679.18 200.67 680.48 200.67ZM699.904 201.21C698.404 201.21 697.054 200.88 695.854 200.22C694.654 199.54 693.704 198.58 693.004 197.34C692.324 196.08 691.984 194.6 691.984 192.9C691.984 191.2 692.324 189.73 693.004 188.49C693.704 187.23 694.654 186.27 695.854 185.61C697.054 184.93 698.404 184.59 699.904 184.59C701.404 184.59 702.754 184.93 703.954 185.61C705.154 186.27 706.094 187.23 706.774 188.49C707.454 189.73 707.794 191.2 707.794 192.9C707.794 194.6 707.454 196.08 706.774 197.34C706.094 198.58 705.154 199.54 703.954 200.22C702.754 200.88 701.404 201.21 699.904 201.21ZM699.904 200.67C701.204 200.67 702.404 200.39 703.504 199.83C704.604 199.25 705.494 198.38 706.174 197.22C706.854 196.06 707.194 194.62 707.194 192.9C707.194 191.18 706.854 189.74 706.174 188.58C705.494 187.42 704.604 186.56 703.504 186C702.404 185.42 701.204 185.13 699.904 185.13C698.604 185.13 697.394 185.42 696.274 186C695.174 186.56 694.284 187.43 693.604 188.61C692.924 189.77 692.584 191.2 692.584 192.9C692.584 194.6 692.924 196.04 693.604 197.22C694.284 198.38 695.174 199.25 696.274 199.83C697.394 200.39 698.604 200.67 699.904 200.67ZM719.297 184.59C721.157 184.59 722.727 185.07 724.007 186.03C725.307 186.99 726.177 188.21 726.617 189.69V184.8H727.187V201.6C727.187 203.1 726.857 204.4 726.197 205.5C725.537 206.62 724.657 207.47 723.557 208.05C722.477 208.63 721.297 208.92 720.017 208.92C718.057 208.92 716.427 208.44 715.127 207.48C713.847 206.54 712.967 205.26 712.487 203.64H713.087C713.547 205.1 714.357 206.25 715.517 207.09C716.697 207.95 718.197 208.38 720.017 208.38C721.257 208.38 722.377 208.1 723.377 207.54C724.377 206.98 725.167 206.19 725.747 205.17C726.327 204.15 726.617 202.96 726.617 201.6V196.08C726.177 197.58 725.307 198.81 724.007 199.77C722.727 200.73 721.157 201.21 719.297 201.21C717.757 201.21 716.387 200.88 715.187 200.22C713.987 199.54 713.057 198.58 712.397 197.34C711.737 196.08 711.407 194.6 711.407 192.9C711.407 191.2 711.737 189.73 712.397 188.49C713.057 187.23 713.987 186.27 715.187 185.61C716.387 184.93 717.757 184.59 719.297 184.59ZM726.617 192.9C726.617 191.36 726.297 190.01 725.657 188.85C725.037 187.67 724.167 186.76 723.047 186.12C721.947 185.46 720.697 185.13 719.297 185.13C717.817 185.13 716.527 185.44 715.427 186.06C714.347 186.68 713.507 187.58 712.907 188.76C712.307 189.92 712.007 191.3 712.007 192.9C712.007 194.5 712.307 195.89 712.907 197.07C713.507 198.23 714.347 199.12 715.427 199.74C716.527 200.36 717.817 200.67 719.297 200.67C720.697 200.67 721.947 200.35 723.047 199.71C724.167 199.05 725.037 198.14 725.657 196.98C726.297 195.8 726.617 194.44 726.617 192.9ZM732.884 178.8V201H732.284V178.8H732.884ZM745.047 200.67C746.867 200.67 748.397 200.21 749.637 199.29C750.877 198.37 751.627 197.11 751.887 195.51H752.487C752.207 197.21 751.407 198.59 750.087 199.65C748.787 200.69 747.107 201.21 745.047 201.21C743.547 201.21 742.207 200.88 741.027 200.22C739.847 199.56 738.917 198.6 738.237 197.34C737.577 196.08 737.247 194.6 737.247 192.9C737.247 191.2 737.577 189.72 738.237 188.46C738.917 187.2 739.847 186.24 741.027 185.58C742.207 184.92 743.547 184.59 745.047 184.59C746.627 184.59 747.977 184.93 749.097 185.61C750.217 186.27 751.057 187.13 751.617 188.19C752.197 189.25 752.487 190.37 752.487 191.55C752.487 192.27 752.477 192.81 752.457 193.17H737.847C737.867 194.83 738.207 196.22 738.867 197.34C739.547 198.46 740.427 199.3 741.507 199.86C742.587 200.4 743.767 200.67 745.047 200.67ZM745.047 185.13C743.767 185.13 742.587 185.41 741.507 185.97C740.427 186.51 739.547 187.34 738.867 188.46C738.207 189.58 737.867 190.97 737.847 192.63H751.947C752.047 190.97 751.777 189.58 751.137 188.46C750.517 187.34 749.657 186.51 748.557 185.97C747.477 185.41 746.307 185.13 745.047 185.13ZM771.476 179.4C769.736 179.4 768.526 179.74 767.846 180.42C767.166 181.08 766.826 182.16 766.826 183.66V184.8H771.476V185.43H766.826V201H766.226V185.43H763.586V184.8H766.226V183.66C766.226 182.02 766.626 180.8 767.426 180C768.226 179.2 769.576 178.8 771.476 178.8V179.4ZM782.257 201.21C780.757 201.21 779.407 200.88 778.207 200.22C777.007 199.54 776.057 198.58 775.357 197.34C774.677 196.08 774.337 194.6 774.337 192.9C774.337 191.2 774.677 189.73 775.357 188.49C776.057 187.23 777.007 186.27 778.207 185.61C779.407 184.93 780.757 184.59 782.257 184.59C783.757 184.59 785.107 184.93 786.307 185.61C787.507 186.27 788.447 187.23 789.127 188.49C789.807 189.73 790.147 191.2 790.147 192.9C790.147 194.6 789.807 196.08 789.127 197.34C788.447 198.58 787.507 199.54 786.307 200.22C785.107 200.88 783.757 201.21 782.257 201.21ZM782.257 200.67C783.557 200.67 784.757 200.39 785.857 199.83C786.957 199.25 787.847 198.38 788.527 197.22C789.207 196.06 789.547 194.62 789.547 192.9C789.547 191.18 789.207 189.74 788.527 188.58C787.847 187.42 786.957 186.56 785.857 186C784.757 185.42 783.557 185.13 782.257 185.13C780.957 185.13 779.747 185.42 778.627 186C777.527 186.56 776.637 187.43 775.957 188.61C775.277 189.77 774.937 191.2 774.937 192.9C774.937 194.6 775.277 196.04 775.957 197.22C776.637 198.38 777.527 199.25 778.627 199.83C779.747 200.39 780.957 200.67 782.257 200.67ZM801.471 184.44C803.371 184.44 804.931 185.03 806.151 186.21C807.371 187.39 807.981 189.17 807.981 191.55V201H807.411V191.49C807.411 189.37 806.881 187.76 805.821 186.66C804.761 185.54 803.311 184.98 801.471 184.98C799.551 184.98 798.011 185.61 796.851 186.87C795.691 188.11 795.111 189.95 795.111 192.39V201H794.511V184.8H795.111V189.06C795.491 187.56 796.251 186.42 797.391 185.64C798.531 184.84 799.891 184.44 801.471 184.44ZM814.229 185.4V196.74C814.229 197.72 814.339 198.47 814.559 198.99C814.779 199.51 815.129 199.88 815.609 200.1C816.089 200.3 816.759 200.4 817.619 200.4H819.329V201H817.559C816.159 201 815.149 200.68 814.529 200.04C813.929 199.4 813.629 198.3 813.629 196.74V185.4H810.989V184.8H813.629V180.66H814.229V184.8H819.329V185.4H814.229ZM828.295 201.21C826.515 201.21 825.075 200.85 823.975 200.13C822.895 199.41 822.265 198.32 822.085 196.86H822.685C822.805 198.06 823.335 199 824.275 199.68C825.235 200.34 826.585 200.67 828.325 200.67C829.205 200.67 829.975 200.5 830.635 200.16C831.315 199.82 831.835 199.37 832.195 198.81C832.555 198.23 832.735 197.61 832.735 196.95C832.735 196.23 832.525 195.65 832.105 195.21C831.705 194.75 831.195 194.4 830.575 194.16C829.975 193.92 829.145 193.66 828.085 193.38C826.905 193.08 825.945 192.78 825.205 192.48C824.485 192.18 823.865 191.72 823.345 191.1C822.845 190.48 822.595 189.66 822.595 188.64C822.595 187.92 822.815 187.25 823.255 186.63C823.695 186.01 824.295 185.52 825.055 185.16C825.835 184.78 826.705 184.59 827.665 184.59C829.305 184.59 830.625 185 831.625 185.82C832.625 186.64 833.165 187.78 833.245 189.24H832.645C832.585 188.04 832.125 187.06 831.265 186.3C830.425 185.52 829.225 185.13 827.665 185.13C826.825 185.13 826.065 185.29 825.385 185.61C824.705 185.93 824.165 186.36 823.765 186.9C823.385 187.44 823.195 188.02 823.195 188.64C823.195 189.52 823.425 190.23 823.885 190.77C824.345 191.31 824.905 191.71 825.565 191.97C826.245 192.23 827.145 192.51 828.265 192.81C829.405 193.13 830.295 193.42 830.935 193.68C831.595 193.94 832.155 194.34 832.615 194.88C833.075 195.4 833.305 196.09 833.305 196.95C833.305 197.75 833.085 198.48 832.645 199.14C832.205 199.78 831.605 200.29 830.845 200.67C830.085 201.03 829.235 201.21 828.295 201.21Z" fill="#FEFBE9"/>
<path d="M1183.67 186.15C1183.03 184.39 1181.93 182.97 1180.37 181.89C1178.83 180.79 1177 180.24 1174.88 180.24C1173.12 180.24 1171.52 180.66 1170.08 181.5C1168.64 182.32 1167.5 183.51 1166.66 185.07C1165.84 186.61 1165.43 188.41 1165.43 190.47C1165.43 192.53 1165.84 194.34 1166.66 195.9C1167.5 197.44 1168.64 198.63 1170.08 199.47C1171.52 200.29 1173.12 200.7 1174.88 200.7C1176.6 200.7 1178.17 200.3 1179.59 199.5C1181.03 198.7 1182.18 197.55 1183.04 196.05C1183.9 194.53 1184.35 192.77 1184.39 190.77H1174.43V190.23H1184.96V190.47C1184.96 192.55 1184.53 194.41 1183.67 196.05C1182.81 197.69 1181.61 198.97 1180.07 199.89C1178.55 200.79 1176.82 201.24 1174.88 201.24C1172.94 201.24 1171.2 200.79 1169.66 199.89C1168.14 198.97 1166.95 197.69 1166.09 196.05C1165.23 194.41 1164.8 192.55 1164.8 190.47C1164.8 188.39 1165.23 186.53 1166.09 184.89C1166.95 183.25 1168.14 181.98 1169.66 181.08C1171.2 180.16 1172.94 179.7 1174.88 179.7C1177.16 179.7 1179.11 180.28 1180.73 181.44C1182.35 182.6 1183.53 184.17 1184.27 186.15H1183.67ZM1196.48 201.21C1194.98 201.21 1193.63 200.88 1192.43 200.22C1191.23 199.54 1190.28 198.58 1189.58 197.34C1188.9 196.08 1188.56 194.6 1188.56 192.9C1188.56 191.2 1188.9 189.73 1189.58 188.49C1190.28 187.23 1191.23 186.27 1192.43 185.61C1193.63 184.93 1194.98 184.59 1196.48 184.59C1197.98 184.59 1199.33 184.93 1200.53 185.61C1201.73 186.27 1202.67 187.23 1203.35 188.49C1204.03 189.73 1204.37 191.2 1204.37 192.9C1204.37 194.6 1204.03 196.08 1203.35 197.34C1202.67 198.58 1201.73 199.54 1200.53 200.22C1199.33 200.88 1197.98 201.21 1196.48 201.21ZM1196.48 200.67C1197.78 200.67 1198.98 200.39 1200.08 199.83C1201.18 199.25 1202.07 198.38 1202.75 197.22C1203.43 196.06 1203.77 194.62 1203.77 192.9C1203.77 191.18 1203.43 189.74 1202.75 188.58C1202.07 187.42 1201.18 186.56 1200.08 186C1198.98 185.42 1197.78 185.13 1196.48 185.13C1195.18 185.13 1193.97 185.42 1192.85 186C1191.75 186.56 1190.86 187.43 1190.18 188.61C1189.5 189.77 1189.16 191.2 1189.16 192.9C1189.16 194.6 1189.5 196.04 1190.18 197.22C1190.86 198.38 1191.75 199.25 1192.85 199.83C1193.97 200.39 1195.18 200.67 1196.48 200.67ZM1215.9 201.21C1214.4 201.21 1213.05 200.88 1211.85 200.22C1210.65 199.54 1209.7 198.58 1209 197.34C1208.32 196.08 1207.98 194.6 1207.98 192.9C1207.98 191.2 1208.32 189.73 1209 188.49C1209.7 187.23 1210.65 186.27 1211.85 185.61C1213.05 184.93 1214.4 184.59 1215.9 184.59C1217.4 184.59 1218.75 184.93 1219.95 185.61C1221.15 186.27 1222.09 187.23 1222.77 188.49C1223.45 189.73 1223.79 191.2 1223.79 192.9C1223.79 194.6 1223.45 196.08 1222.77 197.34C1222.09 198.58 1221.15 199.54 1219.95 200.22C1218.75 200.88 1217.4 201.21 1215.9 201.21ZM1215.9 200.67C1217.2 200.67 1218.4 200.39 1219.5 199.83C1220.6 199.25 1221.49 198.38 1222.17 197.22C1222.85 196.06 1223.19 194.62 1223.19 192.9C1223.19 191.18 1222.85 189.74 1222.17 188.58C1221.49 187.42 1220.6 186.56 1219.5 186C1218.4 185.42 1217.2 185.13 1215.9 185.13C1214.6 185.13 1213.39 185.42 1212.27 186C1211.17 186.56 1210.28 187.43 1209.6 188.61C1208.92 189.77 1208.58 191.2 1208.58 192.9C1208.58 194.6 1208.92 196.04 1209.6 197.22C1210.28 198.38 1211.17 199.25 1212.27 199.83C1213.39 200.39 1214.6 200.67 1215.9 200.67ZM1235.3 184.59C1237.16 184.59 1238.73 185.07 1240.01 186.03C1241.31 186.99 1242.18 188.21 1242.62 189.69V184.8H1243.19V201.6C1243.19 203.1 1242.86 204.4 1242.2 205.5C1241.54 206.62 1240.66 207.47 1239.56 208.05C1238.48 208.63 1237.3 208.92 1236.02 208.92C1234.06 208.92 1232.43 208.44 1231.13 207.48C1229.85 206.54 1228.97 205.26 1228.49 203.64H1229.09C1229.55 205.1 1230.36 206.25 1231.52 207.09C1232.7 207.95 1234.2 208.38 1236.02 208.38C1237.26 208.38 1238.38 208.1 1239.38 207.54C1240.38 206.98 1241.17 206.19 1241.75 205.17C1242.33 204.15 1242.62 202.96 1242.62 201.6V196.08C1242.18 197.58 1241.31 198.81 1240.01 199.77C1238.73 200.73 1237.16 201.21 1235.3 201.21C1233.76 201.21 1232.39 200.88 1231.19 200.22C1229.99 199.54 1229.06 198.58 1228.4 197.34C1227.74 196.08 1227.41 194.6 1227.41 192.9C1227.41 191.2 1227.74 189.73 1228.4 188.49C1229.06 187.23 1229.99 186.27 1231.19 185.61C1232.39 184.93 1233.76 184.59 1235.3 184.59ZM1242.62 192.9C1242.62 191.36 1242.3 190.01 1241.66 188.85C1241.04 187.67 1240.17 186.76 1239.05 186.12C1237.95 185.46 1236.7 185.13 1235.3 185.13C1233.82 185.13 1232.53 185.44 1231.43 186.06C1230.35 186.68 1229.51 187.58 1228.91 188.76C1228.31 189.92 1228.01 191.3 1228.01 192.9C1228.01 194.5 1228.31 195.89 1228.91 197.07C1229.51 198.23 1230.35 199.12 1231.43 199.74C1232.53 200.36 1233.82 200.67 1235.3 200.67C1236.7 200.67 1237.95 200.35 1239.05 199.71C1240.17 199.05 1241.04 198.14 1241.66 196.98C1242.3 195.8 1242.62 194.44 1242.62 192.9ZM1248.88 178.8V201H1248.28V178.8H1248.88ZM1261.05 200.67C1262.87 200.67 1264.4 200.21 1265.64 199.29C1266.88 198.37 1267.63 197.11 1267.89 195.51H1268.49C1268.21 197.21 1267.41 198.59 1266.09 199.65C1264.79 200.69 1263.11 201.21 1261.05 201.21C1259.55 201.21 1258.21 200.88 1257.03 200.22C1255.85 199.56 1254.92 198.6 1254.24 197.34C1253.58 196.08 1253.25 194.6 1253.25 192.9C1253.25 191.2 1253.58 189.72 1254.24 188.46C1254.92 187.2 1255.85 186.24 1257.03 185.58C1258.21 184.92 1259.55 184.59 1261.05 184.59C1262.63 184.59 1263.98 184.93 1265.1 185.61C1266.22 186.27 1267.06 187.13 1267.62 188.19C1268.2 189.25 1268.49 190.37 1268.49 191.55C1268.49 192.27 1268.48 192.81 1268.46 193.17H1253.85C1253.87 194.83 1254.21 196.22 1254.87 197.34C1255.55 198.46 1256.43 199.3 1257.51 199.86C1258.59 200.4 1259.77 200.67 1261.05 200.67ZM1261.05 185.13C1259.77 185.13 1258.59 185.41 1257.51 185.97C1256.43 186.51 1255.55 187.34 1254.87 188.46C1254.21 189.58 1253.87 190.97 1253.85 192.63H1267.95C1268.05 190.97 1267.78 189.58 1267.14 188.46C1266.52 187.34 1265.66 186.51 1264.56 185.97C1263.48 185.41 1262.31 185.13 1261.05 185.13ZM1287.48 179.4C1285.74 179.4 1284.53 179.74 1283.85 180.42C1283.17 181.08 1282.83 182.16 1282.83 183.66V184.8H1287.48V185.43H1282.83V201H1282.23V185.43H1279.59V184.8H1282.23V183.66C1282.23 182.02 1282.63 180.8 1283.43 180C1284.23 179.2 1285.58 178.8 1287.48 178.8V179.4ZM1298.26 201.21C1296.76 201.21 1295.41 200.88 1294.21 200.22C1293.01 199.54 1292.06 198.58 1291.36 197.34C1290.68 196.08 1290.34 194.6 1290.34 192.9C1290.34 191.2 1290.68 189.73 1291.36 188.49C1292.06 187.23 1293.01 186.27 1294.21 185.61C1295.41 184.93 1296.76 184.59 1298.26 184.59C1299.76 184.59 1301.11 184.93 1302.31 185.61C1303.51 186.27 1304.45 187.23 1305.13 188.49C1305.81 189.73 1306.15 191.2 1306.15 192.9C1306.15 194.6 1305.81 196.08 1305.13 197.34C1304.45 198.58 1303.51 199.54 1302.31 200.22C1301.11 200.88 1299.76 201.21 1298.26 201.21ZM1298.26 200.67C1299.56 200.67 1300.76 200.39 1301.86 199.83C1302.96 199.25 1303.85 198.38 1304.53 197.22C1305.21 196.06 1305.55 194.62 1305.55 192.9C1305.55 191.18 1305.21 189.74 1304.53 188.58C1303.85 187.42 1302.96 186.56 1301.86 186C1300.76 185.42 1299.56 185.13 1298.26 185.13C1296.96 185.13 1295.75 185.42 1294.63 186C1293.53 186.56 1292.64 187.43 1291.96 188.61C1291.28 189.77 1290.94 191.2 1290.94 192.9C1290.94 194.6 1291.28 196.04 1291.96 197.22C1292.64 198.38 1293.53 199.25 1294.63 199.83C1295.75 200.39 1296.96 200.67 1298.26 200.67ZM1317.47 184.44C1319.37 184.44 1320.93 185.03 1322.15 186.21C1323.37 187.39 1323.98 189.17 1323.98 191.55V201H1323.41V191.49C1323.41 189.37 1322.88 187.76 1321.82 186.66C1320.76 185.54 1319.31 184.98 1317.47 184.98C1315.55 184.98 1314.01 185.61 1312.85 186.87C1311.69 188.11 1311.11 189.95 1311.11 192.39V201H1310.51V184.8H1311.11V189.06C1311.49 187.56 1312.25 186.42 1313.39 185.64C1314.53 184.84 1315.89 184.44 1317.47 184.44ZM1330.23 185.4V196.74C1330.23 197.72 1330.34 198.47 1330.56 198.99C1330.78 199.51 1331.13 199.88 1331.61 200.1C1332.09 200.3 1332.76 200.4 1333.62 200.4H1335.33V201H1333.56C1332.16 201 1331.15 200.68 1330.53 200.04C1329.93 199.4 1329.63 198.3 1329.63 196.74V185.4H1326.99V184.8H1329.63V180.66H1330.23V184.8H1335.33V185.4H1330.23ZM1344.3 201.21C1342.52 201.21 1341.08 200.85 1339.98 200.13C1338.9 199.41 1338.27 198.32 1338.09 196.86H1338.69C1338.81 198.06 1339.34 199 1340.28 199.68C1341.24 200.34 1342.59 200.67 1344.33 200.67C1345.21 200.67 1345.98 200.5 1346.64 200.16C1347.32 199.82 1347.84 199.37 1348.2 198.81C1348.56 198.23 1348.74 197.61 1348.74 196.95C1348.74 196.23 1348.53 195.65 1348.11 195.21C1347.71 194.75 1347.2 194.4 1346.58 194.16C1345.98 193.92 1345.15 193.66 1344.09 193.38C1342.91 193.08 1341.95 192.78 1341.21 192.48C1340.49 192.18 1339.87 191.72 1339.35 191.1C1338.85 190.48 1338.6 189.66 1338.6 188.64C1338.6 187.92 1338.82 187.25 1339.26 186.63C1339.7 186.01 1340.3 185.52 1341.06 185.16C1341.84 184.78 1342.71 184.59 1343.67 184.59C1345.31 184.59 1346.63 185 1347.63 185.82C1348.63 186.64 1349.17 187.78 1349.25 189.24H1348.65C1348.59 188.04 1348.13 187.06 1347.27 186.3C1346.43 185.52 1345.23 185.13 1343.67 185.13C1342.83 185.13 1342.07 185.29 1341.39 185.61C1340.71 185.93 1340.17 186.36 1339.77 186.9C1339.39 187.44 1339.2 188.02 1339.2 188.64C1339.2 189.52 1339.43 190.23 1339.89 190.77C1340.35 191.31 1340.91 191.71 1341.57 191.97C1342.25 192.23 1343.15 192.51 1344.27 192.81C1345.41 193.13 1346.3 193.42 1346.94 193.68C1347.6 193.94 1348.16 194.34 1348.62 194.88C1349.08 195.4 1349.31 196.09 1349.31 196.95C1349.31 197.75 1349.09 198.48 1348.65 199.14C1348.21 199.78 1347.61 200.29 1346.85 200.67C1346.09 201.03 1345.24 201.21 1344.3 201.21Z" fill="#183A1D"/>
<path d="M672.81 223.08V231.87H681.21V233.01H672.81V241.86H682.11V243H671.46V221.94H682.11V223.08H672.81ZM694.806 243L690.216 235.83L685.716 243H684.276L689.526 234.78L684.336 226.71H685.866L690.396 233.73L694.836 226.71H696.246L691.056 234.81L696.336 243H694.806ZM701.361 227.88V238.65C701.361 239.85 701.581 240.68 702.021 241.14C702.461 241.58 703.241 241.8 704.361 241.8H706.191V243H704.151C702.731 243 701.681 242.67 701.001 242.01C700.341 241.33 700.011 240.21 700.011 238.65V227.88H697.551V226.71H700.011V222.57H701.361V226.71H706.191V227.88H701.361ZM711.101 230.07C711.501 228.87 712.211 227.96 713.231 227.34C714.251 226.7 715.551 226.38 717.131 226.38V227.79H716.681C715.081 227.79 713.751 228.25 712.691 229.17C711.631 230.07 711.101 231.55 711.101 233.61V243H709.751V226.71H711.101V230.07ZM719.399 234.84C719.399 233.16 719.729 231.69 720.389 230.43C721.069 229.17 721.999 228.2 723.179 227.52C724.379 226.84 725.739 226.5 727.259 226.5C728.979 226.5 730.439 226.92 731.639 227.76C732.839 228.6 733.679 229.67 734.159 230.97V226.71H735.509V243H734.159V238.71C733.679 240.03 732.829 241.12 731.609 241.98C730.409 242.82 728.959 243.24 727.259 243.24C725.739 243.24 724.379 242.9 723.179 242.22C721.999 241.52 721.069 240.54 720.389 239.28C719.729 238 719.399 236.52 719.399 234.84ZM734.159 234.84C734.159 233.42 733.859 232.17 733.259 231.09C732.679 229.99 731.879 229.15 730.859 228.57C729.839 227.97 728.699 227.67 727.439 227.67C726.119 227.67 724.959 227.96 723.959 228.54C722.959 229.1 722.179 229.92 721.619 231C721.059 232.08 720.779 233.36 720.779 234.84C720.779 236.32 721.059 237.6 721.619 238.68C722.179 239.76 722.959 240.59 723.959 241.17C724.979 241.75 726.139 242.04 727.439 242.04C728.699 242.04 729.839 241.75 730.859 241.17C731.899 240.57 732.709 239.73 733.289 238.65C733.869 237.55 734.159 236.28 734.159 234.84ZM750.242 241.86H758.072V243H748.892V221.94H750.242V241.86ZM761.828 223.08C761.508 223.08 761.238 222.98 761.018 222.78C760.798 222.56 760.688 222.27 760.688 221.91C760.688 221.57 760.798 221.29 761.018 221.07C761.238 220.85 761.508 220.74 761.828 220.74C762.148 220.74 762.418 220.85 762.638 221.07C762.858 221.29 762.968 221.57 762.968 221.91C762.968 222.27 762.858 222.56 762.638 222.78C762.418 222.98 762.148 223.08 761.828 223.08ZM762.488 226.71V243H761.138V226.71H762.488ZM774.457 226.5C776.177 226.5 777.637 226.92 778.837 227.76C780.037 228.58 780.877 229.64 781.357 230.94V226.71H782.707V243.51C782.707 245.01 782.377 246.32 781.717 247.44C781.057 248.58 780.167 249.45 779.047 250.05C777.927 250.67 776.677 250.98 775.297 250.98C773.257 250.98 771.567 250.49 770.227 249.51C768.887 248.53 768.007 247.21 767.587 245.55H768.937C769.337 246.85 770.087 247.88 771.187 248.64C772.287 249.42 773.657 249.81 775.297 249.81C776.437 249.81 777.467 249.55 778.387 249.03C779.307 248.53 780.027 247.8 780.547 246.84C781.087 245.9 781.357 244.79 781.357 243.51V238.74C780.877 240.04 780.027 241.12 778.807 241.98C777.607 242.82 776.157 243.24 774.457 243.24C772.937 243.24 771.577 242.9 770.377 242.22C769.197 241.52 768.267 240.54 767.587 239.28C766.927 238 766.597 236.52 766.597 234.84C766.597 233.16 766.927 231.69 767.587 230.43C768.267 229.17 769.197 228.2 770.377 227.52C771.577 226.84 772.937 226.5 774.457 226.5ZM781.357 234.84C781.357 233.42 781.057 232.17 780.457 231.09C779.877 229.99 779.077 229.15 778.057 228.57C777.037 227.97 775.897 227.67 774.637 227.67C773.317 227.67 772.157 227.96 771.157 228.54C770.157 229.1 769.377 229.92 768.817 231C768.257 232.08 767.977 233.36 767.977 234.84C767.977 236.32 768.257 237.6 768.817 238.68C769.377 239.76 770.157 240.59 771.157 241.17C772.177 241.75 773.337 242.04 774.637 242.04C775.897 242.04 777.037 241.75 778.057 241.17C779.097 240.57 779.907 239.73 780.487 238.65C781.067 237.55 781.357 236.28 781.357 234.84ZM795.002 226.38C796.922 226.38 798.492 226.98 799.712 228.18C800.932 229.36 801.542 231.12 801.542 233.46V243H800.222V233.55C800.222 231.61 799.732 230.13 798.752 229.11C797.772 228.07 796.442 227.55 794.762 227.55C793.002 227.55 791.592 228.11 790.532 229.23C789.492 230.35 788.972 232.01 788.972 234.21V243H787.622V220.8H788.972V230.16C789.432 228.94 790.202 228.01 791.282 227.37C792.362 226.71 793.602 226.38 795.002 226.38ZM808.324 227.88V238.65C808.324 239.85 808.544 240.68 808.984 241.14C809.424 241.58 810.204 241.8 811.324 241.8H813.154V243H811.114C809.694 243 808.644 242.67 807.964 242.01C807.304 241.33 806.974 240.21 806.974 238.65V227.88H804.514V226.71H806.974V222.57H808.324V226.71H813.154V227.88H808.324Z" fill="#FEFBE9"/>
<path d="M717.61 282.2C718.83 282.46 719.81 283.07 720.55 284.03C721.29 284.97 721.66 286.05 721.66 287.27C721.66 289.03 721.04 290.43 719.8 291.47C718.58 292.49 716.87 293 714.67 293H704.86V271.94H714.34C716.48 271.94 718.15 272.43 719.35 273.41C720.57 274.39 721.18 275.72 721.18 277.4C721.18 278.64 720.85 279.67 720.19 280.49C719.55 281.31 718.69 281.88 717.61 282.2ZM709.99 280.46H713.35C714.19 280.46 714.83 280.28 715.27 279.92C715.73 279.54 715.96 278.99 715.96 278.27C715.96 277.55 715.73 277 715.27 276.62C714.83 276.24 714.19 276.05 713.35 276.05H709.99V280.46ZM713.77 288.86C714.63 288.86 715.29 288.67 715.75 288.29C716.23 287.89 716.47 287.32 716.47 286.58C716.47 285.84 716.22 285.26 715.72 284.84C715.24 284.42 714.57 284.21 713.71 284.21H709.99V288.86H713.77ZM732.255 293.24C730.615 293.24 729.135 292.89 727.815 292.19C726.515 291.49 725.485 290.49 724.725 289.19C723.985 287.89 723.615 286.37 723.615 284.63C723.615 282.91 723.995 281.4 724.755 280.1C725.515 278.78 726.555 277.77 727.875 277.07C729.195 276.37 730.675 276.02 732.315 276.02C733.955 276.02 735.435 276.37 736.755 277.07C738.075 277.77 739.115 278.78 739.875 280.1C740.635 281.4 741.015 282.91 741.015 284.63C741.015 286.35 740.625 287.87 739.845 289.19C739.085 290.49 738.035 291.49 736.695 292.19C735.375 292.89 733.895 293.24 732.255 293.24ZM732.255 288.8C733.235 288.8 734.065 288.44 734.745 287.72C735.445 287 735.795 285.97 735.795 284.63C735.795 283.29 735.455 282.26 734.775 281.54C734.115 280.82 733.295 280.46 732.315 280.46C731.315 280.46 730.485 280.82 729.825 281.54C729.165 282.24 728.835 283.27 728.835 284.63C728.835 285.97 729.155 287 729.795 287.72C730.455 288.44 731.275 288.8 732.255 288.8ZM748.867 270.8V293H743.737V270.8H748.867ZM751.565 284.6C751.565 282.88 751.885 281.37 752.525 280.07C753.185 278.77 754.075 277.77 755.195 277.07C756.315 276.37 757.565 276.02 758.945 276.02C760.045 276.02 761.045 276.25 761.945 276.71C762.865 277.17 763.585 277.79 764.105 278.57V270.8H769.235V293H764.105V290.6C763.625 291.4 762.935 292.04 762.035 292.52C761.155 293 760.125 293.24 758.945 293.24C757.565 293.24 756.315 292.89 755.195 292.19C754.075 291.47 753.185 290.46 752.525 289.16C751.885 287.84 751.565 286.32 751.565 284.6ZM764.105 284.63C764.105 283.35 763.745 282.34 763.025 281.6C762.325 280.86 761.465 280.49 760.445 280.49C759.425 280.49 758.555 280.86 757.835 281.6C757.135 282.32 756.785 283.32 756.785 284.6C756.785 285.88 757.135 286.9 757.835 287.66C758.555 288.4 759.425 288.77 760.445 288.77C761.465 288.77 762.325 288.4 763.025 287.66C763.745 286.92 764.105 285.91 764.105 284.63Z" fill="#FEFBE9"/>
<path d="M1213.32 243L1208.34 234.45H1205.04V243H1202.31V222.09H1209.06C1210.64 222.09 1211.97 222.36 1213.05 222.9C1214.15 223.44 1214.97 224.17 1215.51 225.09C1216.05 226.01 1216.32 227.06 1216.32 228.24C1216.32 229.68 1215.9 230.95 1215.06 232.05C1214.24 233.15 1213 233.88 1211.34 234.24L1216.59 243H1213.32ZM1205.04 232.26H1209.06C1210.54 232.26 1211.65 231.9 1212.39 231.18C1213.13 230.44 1213.5 229.46 1213.5 228.24C1213.5 227 1213.13 226.04 1212.39 225.36C1211.67 224.68 1210.56 224.34 1209.06 224.34H1205.04V232.26ZM1235.56 234.15C1235.56 234.67 1235.53 235.22 1235.47 235.8H1222.33C1222.43 237.42 1222.98 238.69 1223.98 239.61C1225 240.51 1226.23 240.96 1227.67 240.96C1228.85 240.96 1229.83 240.69 1230.61 240.15C1231.41 239.59 1231.97 238.85 1232.29 237.93H1235.23C1234.79 239.51 1233.91 240.8 1232.59 241.8C1231.27 242.78 1229.63 243.27 1227.67 243.27C1226.11 243.27 1224.71 242.92 1223.47 242.22C1222.25 241.52 1221.29 240.53 1220.59 239.25C1219.89 237.95 1219.54 236.45 1219.54 234.75C1219.54 233.05 1219.88 231.56 1220.56 230.28C1221.24 229 1222.19 228.02 1223.41 227.34C1224.65 226.64 1226.07 226.29 1227.67 226.29C1229.23 226.29 1230.61 226.63 1231.81 227.31C1233.01 227.99 1233.93 228.93 1234.57 230.13C1235.23 231.31 1235.56 232.65 1235.56 234.15ZM1232.74 233.58C1232.74 232.54 1232.51 231.65 1232.05 230.91C1231.59 230.15 1230.96 229.58 1230.16 229.2C1229.38 228.8 1228.51 228.6 1227.55 228.6C1226.17 228.6 1224.99 229.04 1224.01 229.92C1223.05 230.8 1222.5 232.02 1222.36 233.58H1232.74ZM1245.95 226.29C1247.37 226.29 1248.61 226.6 1249.67 227.22C1250.75 227.84 1251.55 228.62 1252.07 229.56V226.56H1254.83V243.36C1254.83 244.86 1254.51 246.19 1253.87 247.35C1253.23 248.53 1252.31 249.45 1251.11 250.11C1249.93 250.77 1248.55 251.1 1246.97 251.1C1244.81 251.1 1243.01 250.59 1241.57 249.57C1240.13 248.55 1239.28 247.16 1239.02 245.4H1241.72C1242.02 246.4 1242.64 247.2 1243.58 247.8C1244.52 248.42 1245.65 248.73 1246.97 248.73C1248.47 248.73 1249.69 248.26 1250.63 247.32C1251.59 246.38 1252.07 245.06 1252.07 243.36V239.91C1251.53 240.87 1250.73 241.67 1249.67 242.31C1248.61 242.95 1247.37 243.27 1245.95 243.27C1244.49 243.27 1243.16 242.91 1241.96 242.19C1240.78 241.47 1239.85 240.46 1239.17 239.16C1238.49 237.86 1238.15 236.38 1238.15 234.72C1238.15 233.04 1238.49 231.57 1239.17 230.31C1239.85 229.03 1240.78 228.04 1241.96 227.34C1243.16 226.64 1244.49 226.29 1245.95 226.29ZM1252.07 234.75C1252.07 233.51 1251.82 232.43 1251.32 231.51C1250.82 230.59 1250.14 229.89 1249.28 229.41C1248.44 228.91 1247.51 228.66 1246.49 228.66C1245.47 228.66 1244.54 228.9 1243.7 229.38C1242.86 229.86 1242.19 230.56 1241.69 231.48C1241.19 232.4 1240.94 233.48 1240.94 234.72C1240.94 235.98 1241.19 237.08 1241.69 238.02C1242.19 238.94 1242.86 239.65 1243.7 240.15C1244.54 240.63 1245.47 240.87 1246.49 240.87C1247.51 240.87 1248.44 240.63 1249.28 240.15C1250.14 239.65 1250.82 238.94 1251.32 238.02C1251.82 237.08 1252.07 235.99 1252.07 234.75ZM1274.02 226.56V243H1271.29V240.57C1270.77 241.41 1270.04 242.07 1269.1 242.55C1268.18 243.01 1267.16 243.24 1266.04 243.24C1264.76 243.24 1263.61 242.98 1262.59 242.46C1261.57 241.92 1260.76 241.12 1260.16 240.06C1259.58 239 1259.29 237.71 1259.29 236.19V226.56H1261.99V235.83C1261.99 237.45 1262.4 238.7 1263.22 239.58C1264.04 240.44 1265.16 240.87 1266.58 240.87C1268.04 240.87 1269.19 240.42 1270.03 239.52C1270.87 238.62 1271.29 237.31 1271.29 235.59V226.56H1274.02ZM1281.36 220.8V243H1278.63V220.8H1281.36ZM1284.99 234.72C1284.99 233.04 1285.33 231.57 1286.01 230.31C1286.69 229.03 1287.62 228.04 1288.8 227.34C1290 226.64 1291.33 226.29 1292.79 226.29C1294.23 226.29 1295.48 226.6 1296.54 227.22C1297.6 227.84 1298.39 228.62 1298.91 229.56V226.56H1301.67V243H1298.91V239.94C1298.37 240.9 1297.56 241.7 1296.48 242.34C1295.42 242.96 1294.18 243.27 1292.76 243.27C1291.3 243.27 1289.98 242.91 1288.8 242.19C1287.62 241.47 1286.69 240.46 1286.01 239.16C1285.33 237.86 1284.99 236.38 1284.99 234.72ZM1298.91 234.75C1298.91 233.51 1298.66 232.43 1298.16 231.51C1297.66 230.59 1296.98 229.89 1296.12 229.41C1295.28 228.91 1294.35 228.66 1293.33 228.66C1292.31 228.66 1291.38 228.9 1290.54 229.38C1289.7 229.86 1289.03 230.56 1288.53 231.48C1288.03 232.4 1287.78 233.48 1287.78 234.72C1287.78 235.98 1288.03 237.08 1288.53 238.02C1289.03 238.94 1289.7 239.65 1290.54 240.15C1291.38 240.63 1292.31 240.87 1293.33 240.87C1294.35 240.87 1295.28 240.63 1296.12 240.15C1296.98 239.65 1297.66 238.94 1298.16 238.02C1298.66 237.08 1298.91 235.99 1298.91 234.75ZM1309.01 229.23C1309.49 228.29 1310.17 227.56 1311.05 227.04C1311.95 226.52 1313.04 226.26 1314.32 226.26V229.08H1313.6C1310.54 229.08 1309.01 230.74 1309.01 234.06V243H1306.28V226.56H1309.01V229.23Z" fill="#183A1D"/>
<path d="M1195.3 293.21C1193.84 293.21 1192.52 292.96 1191.34 292.46C1190.18 291.96 1189.26 291.24 1188.58 290.3C1187.9 289.36 1187.55 288.25 1187.53 286.97H1192.03C1192.09 287.83 1192.39 288.51 1192.93 289.01C1193.49 289.51 1194.25 289.76 1195.21 289.76C1196.19 289.76 1196.96 289.53 1197.52 289.07C1198.08 288.59 1198.36 287.97 1198.36 287.21C1198.36 286.59 1198.17 286.08 1197.79 285.68C1197.41 285.28 1196.93 284.97 1196.35 284.75C1195.79 284.51 1195.01 284.25 1194.01 283.97C1192.65 283.57 1191.54 283.18 1190.68 282.8C1189.84 282.4 1189.11 281.81 1188.49 281.03C1187.89 280.23 1187.59 279.17 1187.59 277.85C1187.59 276.61 1187.9 275.53 1188.52 274.61C1189.14 273.69 1190.01 272.99 1191.13 272.51C1192.25 272.01 1193.53 271.76 1194.97 271.76C1197.13 271.76 1198.88 272.29 1200.22 273.35C1201.58 274.39 1202.33 275.85 1202.47 277.73H1197.85C1197.81 277.01 1197.5 276.42 1196.92 275.96C1196.36 275.48 1195.61 275.24 1194.67 275.24C1193.85 275.24 1193.19 275.45 1192.69 275.87C1192.21 276.29 1191.97 276.9 1191.97 277.7C1191.97 278.26 1192.15 278.73 1192.51 279.11C1192.89 279.47 1193.35 279.77 1193.89 280.01C1194.45 280.23 1195.23 280.49 1196.23 280.79C1197.59 281.19 1198.7 281.59 1199.56 281.99C1200.42 282.39 1201.16 282.99 1201.78 283.79C1202.4 284.59 1202.71 285.64 1202.71 286.94C1202.71 288.06 1202.42 289.1 1201.84 290.06C1201.26 291.02 1200.41 291.79 1199.29 292.37C1198.17 292.93 1196.84 293.21 1195.3 293.21ZM1221.8 284.33C1221.8 284.93 1221.76 285.47 1221.68 285.95H1209.53C1209.63 287.15 1210.05 288.09 1210.79 288.77C1211.53 289.45 1212.44 289.79 1213.52 289.79C1215.08 289.79 1216.19 289.12 1216.85 287.78H1221.38C1220.9 289.38 1219.98 290.7 1218.62 291.74C1217.26 292.76 1215.59 293.27 1213.61 293.27C1212.01 293.27 1210.57 292.92 1209.29 292.22C1208.03 291.5 1207.04 290.49 1206.32 289.19C1205.62 287.89 1205.27 286.39 1205.27 284.69C1205.27 282.97 1205.62 281.46 1206.32 280.16C1207.02 278.86 1208 277.86 1209.26 277.16C1210.52 276.46 1211.97 276.11 1213.61 276.11C1215.19 276.11 1216.6 276.45 1217.84 277.13C1219.1 277.81 1220.07 278.78 1220.75 280.04C1221.45 281.28 1221.8 282.71 1221.8 284.33ZM1217.45 283.13C1217.43 282.05 1217.04 281.19 1216.28 280.55C1215.52 279.89 1214.59 279.56 1213.49 279.56C1212.45 279.56 1211.57 279.88 1210.85 280.52C1210.15 281.14 1209.72 282.01 1209.56 283.13H1217.45ZM1245.51 276.14C1247.55 276.14 1249.19 276.77 1250.43 278.03C1251.69 279.27 1252.32 281.01 1252.32 283.25V293H1248.12V283.82C1248.12 282.52 1247.79 281.53 1247.13 280.85C1246.47 280.15 1245.57 279.8 1244.43 279.8C1243.29 279.8 1242.38 280.15 1241.7 280.85C1241.04 281.53 1240.71 282.52 1240.71 283.82V293H1236.51V283.82C1236.51 282.52 1236.18 281.53 1235.52 280.85C1234.86 280.15 1233.96 279.8 1232.82 279.8C1231.66 279.8 1230.74 280.15 1230.06 280.85C1229.4 281.53 1229.07 282.52 1229.07 283.82V293H1224.87V276.38H1229.07V278.39C1229.61 277.69 1230.3 277.14 1231.14 276.74C1232 276.34 1232.94 276.14 1233.96 276.14C1235.26 276.14 1236.42 276.42 1237.44 276.98C1238.46 277.52 1239.25 278.3 1239.81 279.32C1240.35 278.36 1241.13 277.59 1242.15 277.01C1243.19 276.43 1244.31 276.14 1245.51 276.14ZM1258.43 274.4C1257.69 274.4 1257.07 274.17 1256.57 273.71C1256.09 273.23 1255.85 272.64 1255.85 271.94C1255.85 271.24 1256.09 270.66 1256.57 270.2C1257.07 269.72 1257.69 269.48 1258.43 269.48C1259.17 269.48 1259.78 269.72 1260.26 270.2C1260.76 270.66 1261.01 271.24 1261.01 271.94C1261.01 272.64 1260.76 273.23 1260.26 273.71C1259.78 274.17 1259.17 274.4 1258.43 274.4ZM1260.5 276.38V293H1256.3V276.38H1260.5ZM1276.53 282.26C1277.71 282.48 1278.68 283.07 1279.44 284.03C1280.2 284.99 1280.58 286.09 1280.58 287.33C1280.58 288.45 1280.3 289.44 1279.74 290.3C1279.2 291.14 1278.41 291.8 1277.37 292.28C1276.33 292.76 1275.1 293 1273.68 293H1264.65V272.06H1273.29C1274.71 272.06 1275.93 272.29 1276.95 272.75C1277.99 273.21 1278.77 273.85 1279.29 274.67C1279.83 275.49 1280.1 276.42 1280.1 277.46C1280.1 278.68 1279.77 279.7 1279.11 280.52C1278.47 281.34 1277.61 281.92 1276.53 282.26ZM1268.85 280.7H1272.69C1273.69 280.7 1274.46 280.48 1275 280.04C1275.54 279.58 1275.81 278.93 1275.81 278.09C1275.81 277.25 1275.54 276.6 1275 276.14C1274.46 275.68 1273.69 275.45 1272.69 275.45H1268.85V280.7ZM1273.08 289.58C1274.1 289.58 1274.89 289.34 1275.45 288.86C1276.03 288.38 1276.32 287.7 1276.32 286.82C1276.32 285.92 1276.02 285.22 1275.42 284.72C1274.82 284.2 1274.01 283.94 1272.99 283.94H1268.85V289.58H1273.08ZM1291.31 293.27C1289.71 293.27 1288.27 292.92 1286.99 292.22C1285.71 291.5 1284.7 290.49 1283.96 289.19C1283.24 287.89 1282.88 286.39 1282.88 284.69C1282.88 282.99 1283.25 281.49 1283.99 280.19C1284.75 278.89 1285.78 277.89 1287.08 277.19C1288.38 276.47 1289.83 276.11 1291.43 276.11C1293.03 276.11 1294.48 276.47 1295.78 277.19C1297.08 277.89 1298.1 278.89 1298.84 280.19C1299.6 281.49 1299.98 282.99 1299.98 284.69C1299.98 286.39 1299.59 287.89 1298.81 289.19C1298.05 290.49 1297.01 291.5 1295.69 292.22C1294.39 292.92 1292.93 293.27 1291.31 293.27ZM1291.31 289.61C1292.07 289.61 1292.78 289.43 1293.44 289.07C1294.12 288.69 1294.66 288.13 1295.06 287.39C1295.46 286.65 1295.66 285.75 1295.66 284.69C1295.66 283.11 1295.24 281.9 1294.4 281.06C1293.58 280.2 1292.57 279.77 1291.37 279.77C1290.17 279.77 1289.16 280.2 1288.34 281.06C1287.54 281.9 1287.14 283.11 1287.14 284.69C1287.14 286.27 1287.53 287.49 1288.31 288.35C1289.11 289.19 1290.11 289.61 1291.31 289.61ZM1307.26 270.8V293H1303.06V270.8H1307.26ZM1310.33 284.63C1310.33 282.95 1310.66 281.46 1311.32 280.16C1312 278.86 1312.92 277.86 1314.08 277.16C1315.24 276.46 1316.53 276.11 1317.95 276.11C1319.03 276.11 1320.06 276.35 1321.04 276.83C1322.02 277.29 1322.8 277.91 1323.38 278.69V270.8H1327.64V293H1323.38V290.54C1322.86 291.36 1322.13 292.02 1321.19 292.52C1320.25 293.02 1319.16 293.27 1317.92 293.27C1316.52 293.27 1315.24 292.91 1314.08 292.19C1312.92 291.47 1312 290.46 1311.32 289.16C1310.66 287.84 1310.33 286.33 1310.33 284.63ZM1323.41 284.69C1323.41 283.67 1323.21 282.8 1322.81 282.08C1322.41 281.34 1321.87 280.78 1321.19 280.4C1320.51 280 1319.78 279.8 1319 279.8C1318.22 279.8 1317.5 279.99 1316.84 280.37C1316.18 280.75 1315.64 281.31 1315.22 282.05C1314.82 282.77 1314.62 283.63 1314.62 284.63C1314.62 285.63 1314.82 286.51 1315.22 287.27C1315.64 288.01 1316.18 288.58 1316.84 288.98C1317.52 289.38 1318.24 289.58 1319 289.58C1319.78 289.58 1320.51 289.39 1321.19 289.01C1321.87 288.61 1322.41 288.05 1322.81 287.33C1323.21 286.59 1323.41 285.71 1323.41 284.69Z" fill="#183A1D"/>
<path d="M1210.54 117.636V154H1201.75V117.636H1210.54ZM1224.74 138.446V154H1216.06V126.727H1224.32V131.734H1224.62C1225.22 130.065 1226.25 128.757 1227.71 127.81C1229.16 126.852 1230.9 126.372 1232.91 126.372C1234.83 126.372 1236.49 126.804 1237.9 127.668C1239.32 128.521 1240.42 129.716 1241.2 131.255C1241.99 132.782 1242.38 134.569 1242.37 136.617V154H1233.69V138.322C1233.7 136.807 1233.32 135.623 1232.54 134.771C1231.77 133.918 1230.7 133.492 1229.32 133.492C1228.41 133.492 1227.61 133.693 1226.91 134.096C1226.22 134.487 1225.69 135.049 1225.31 135.783C1224.94 136.517 1224.75 137.404 1224.74 138.446ZM1263.14 126.727V133.119H1245.94V126.727H1263.14ZM1249.54 120.193H1258.22V145.424C1258.22 145.957 1258.31 146.389 1258.47 146.72C1258.65 147.04 1258.9 147.271 1259.24 147.413C1259.57 147.543 1259.96 147.608 1260.43 147.608C1260.76 147.608 1261.11 147.578 1261.47 147.519C1261.85 147.448 1262.14 147.389 1262.33 147.342L1263.64 153.609C1263.23 153.728 1262.64 153.876 1261.88 154.053C1261.14 154.231 1260.24 154.343 1259.2 154.391C1257.16 154.485 1255.42 154.249 1253.96 153.68C1252.52 153.1 1251.41 152.201 1250.64 150.982C1249.88 149.762 1249.52 148.229 1249.54 146.383V120.193ZM1280.03 154.515C1277.18 154.515 1274.71 153.953 1272.64 152.828C1270.58 151.692 1269 150.076 1267.88 147.981C1266.78 145.874 1266.23 143.37 1266.23 140.47C1266.23 137.653 1266.79 135.191 1267.9 133.084C1269.01 130.965 1270.58 129.32 1272.61 128.148C1274.63 126.964 1277.02 126.372 1279.76 126.372C1281.7 126.372 1283.48 126.674 1285.09 127.278C1286.7 127.881 1288.09 128.775 1289.26 129.959C1290.43 131.143 1291.34 132.604 1292 134.344C1292.65 136.073 1292.97 138.055 1292.97 140.293V142.459H1269.27V137.416H1284.89C1284.88 136.493 1284.66 135.67 1284.24 134.948C1283.81 134.226 1283.22 133.664 1282.48 133.261C1281.74 132.847 1280.9 132.64 1279.94 132.64C1278.97 132.64 1278.1 132.859 1277.33 133.297C1276.56 133.723 1275.95 134.309 1275.5 135.055C1275.05 135.789 1274.81 136.623 1274.79 137.558V142.69C1274.79 143.802 1275.01 144.779 1275.45 145.619C1275.89 146.448 1276.51 147.093 1277.31 147.555C1278.12 148.016 1279.08 148.247 1280.19 148.247C1280.96 148.247 1281.66 148.141 1282.28 147.928C1282.91 147.714 1283.45 147.401 1283.9 146.987C1284.35 146.572 1284.69 146.063 1284.91 145.46L1292.88 145.69C1292.55 147.478 1291.82 149.034 1290.7 150.36C1289.59 151.674 1288.12 152.698 1286.31 153.432C1284.5 154.154 1282.41 154.515 1280.03 154.515ZM1297.41 154V126.727H1305.84V131.699H1306.12C1306.62 129.9 1307.43 128.562 1308.56 127.686C1309.68 126.798 1310.99 126.354 1312.48 126.354C1312.88 126.354 1313.3 126.384 1313.72 126.443C1314.15 126.491 1314.55 126.567 1314.91 126.674V134.22C1314.5 134.078 1313.95 133.966 1313.28 133.883C1312.62 133.8 1312.03 133.759 1311.5 133.759C1310.47 133.759 1309.55 133.989 1308.72 134.451C1307.9 134.901 1307.25 135.534 1306.78 136.351C1306.32 137.156 1306.09 138.103 1306.09 139.192V154H1297.41Z" fill="#183A1D"/>
<path d="M63.7074 282V286H66.6459L67.5244 283.196L63.7074 282ZM7.03125 282L3.24117 280.721L1.4601 286H7.03125V282ZM80.6463 63.8182V59.8182H77.7744L76.8562 62.5394L80.6463 63.8182ZM150.852 63.8182L154.642 62.5394L153.724 59.8182H150.852V63.8182ZM224.467 282V286H230.038L228.257 280.721L224.467 282ZM167.791 282L163.975 283.198L164.855 286H167.791V282ZM116.548 118.79L120.365 117.592L119.485 114.79H116.548V118.79ZM114.844 118.79V114.79H111.905L111.027 117.594L114.844 118.79ZM56.1435 196.134V192.134H52.1435V196.134H56.1435ZM174.609 196.134H178.609V192.134H174.609V196.134ZM174.609 236.19V240.19H178.609V236.19H174.609ZM56.1435 236.19H52.1435V240.19H56.1435V236.19ZM63.7074 278H7.03125V286H63.7074V278ZM10.8213 283.279L84.4364 65.097L76.8562 62.5394L3.24117 280.721L10.8213 283.279ZM80.6463 67.8182H150.852V59.8182H80.6463V67.8182ZM147.062 65.097L220.677 283.279L228.257 280.721L154.642 62.5394L147.062 65.097ZM224.467 278H167.791V286H224.467V278ZM171.608 280.802L120.365 117.592L112.732 119.988L163.975 283.198L171.608 280.802ZM116.548 114.79H114.844V122.79H116.548V114.79ZM111.027 117.594L59.8904 280.804L67.5244 283.196L118.661 119.986L111.027 117.594ZM56.1435 200.134H174.609V192.134H56.1435V200.134ZM170.609 196.134V236.19H178.609V196.134H170.609ZM174.609 232.19H56.1435V240.19H174.609V232.19ZM60.1435 236.19V196.134H52.1435V236.19H60.1435ZM266.282 279.55L264.663 283.208L264.683 283.216L264.702 283.225L266.282 279.55ZM247.212 263.57L243.849 265.734L243.861 265.754L243.874 265.773L247.212 263.57ZM245.082 213.605L241.52 211.784L245.082 213.605ZM258.292 198.371L260.577 201.654L258.292 198.371ZM277.681 189.528L278.73 193.388L278.748 193.384L278.765 193.379L277.681 189.528ZM301.119 185.374L301.459 189.359L301.471 189.358L301.483 189.357L301.119 185.374ZM323.597 182.71L324.239 186.658L324.263 186.655L324.287 186.65L323.597 182.71ZM335.955 178.555L338.237 181.841L338.246 181.835L338.255 181.828L335.955 178.555ZM334.251 157.568L336.735 154.433L334.251 157.568ZM302.397 157.568L300.077 154.31L302.397 157.568ZM294.407 169.926L294.265 173.924L297.609 174.042L298.317 170.771L294.407 169.926ZM246.36 168.222L242.4 167.656L241.771 172.061L246.218 172.219L246.36 168.222ZM257.333 141.588L254.143 139.174L254.14 139.179L257.333 141.588ZM281.836 123.051L283.421 126.724L283.433 126.719L281.836 123.051ZM348.313 119.962L347.227 123.811L347.241 123.815L347.255 123.819L348.313 119.962ZM371.325 130.615L368.993 133.865L369.005 133.874L369.016 133.882L371.325 130.615ZM386.452 147.661L382.913 149.523L382.92 149.538L382.928 149.552L386.452 147.661ZM391.886 282V286H395.886V282H391.886ZM342.88 282H338.88V286H342.88V282ZM342.88 259.202H346.88V255.202H342.88V259.202ZM341.602 259.202V255.202H339.185L338.061 257.341L341.602 259.202ZM330.415 273.264L327.836 270.207L327.824 270.217L327.812 270.227L330.415 273.264ZM314.542 281.893L313.344 278.077L313.331 278.081L314.542 281.893ZM325.302 247.27L323.513 243.692L323.502 243.698L323.49 243.704L325.302 247.27ZM336.168 237.895L339.478 240.141L339.487 240.127L339.497 240.114L336.168 237.895ZM340.217 208.278H344.217V201.668L338.361 204.735L340.217 208.278ZM334.783 210.409L333.634 206.578L333.616 206.583L333.598 206.589L334.783 210.409ZM320.295 213.712L320.935 217.66L320.295 213.712ZM312.731 214.884L312.149 210.926L312.125 210.93L312.101 210.933L312.731 214.884ZM300.16 218.506L298.46 214.885L298.446 214.892L298.431 214.898L300.16 218.506ZM292.276 224.898L289.004 222.598L288.997 222.607L288.991 222.616L292.276 224.898ZM295.366 246.418L292.985 249.632L292.999 249.642L293.013 249.653L295.366 246.418ZM294.087 280.77C284.091 280.77 275.376 279.105 267.862 275.875L264.702 283.225C273.381 286.955 283.203 288.77 294.087 288.77V280.77ZM267.901 275.892C260.553 272.641 254.802 267.808 250.551 261.366L243.874 265.773C248.997 273.536 255.96 279.357 264.663 283.208L267.901 275.892ZM250.576 261.405C246.472 255.029 244.288 246.847 244.288 236.616H236.288C236.288 247.977 238.719 257.764 243.849 265.734L250.576 261.405ZM244.288 236.616C244.288 227.978 245.808 220.971 248.643 215.426L241.52 211.784C237.964 218.739 236.288 227.073 236.288 236.616H244.288ZM248.643 215.426C251.548 209.745 255.52 205.174 260.577 201.654L256.006 195.088C249.842 199.38 245.007 204.966 241.52 211.784L248.643 215.426ZM260.577 201.654C265.774 198.036 271.809 195.27 278.73 193.388L276.632 185.668C268.922 187.764 262.032 190.893 256.006 195.088L260.577 201.654ZM278.765 193.379C285.815 191.394 293.377 190.05 301.459 189.359L300.778 181.388C292.241 182.118 284.178 183.544 276.597 185.678L278.765 193.379ZM301.483 189.357C310.831 188.501 318.427 187.603 324.239 186.658L322.956 178.762C317.404 179.664 310.014 180.542 300.754 181.39L301.483 189.357ZM324.287 186.65C330.134 185.627 334.952 184.122 338.237 181.841L333.674 175.27C331.845 176.54 328.424 177.805 322.908 178.77L324.287 186.65ZM338.255 181.828C341.998 179.198 343.897 175.358 343.897 170.778H335.897C335.897 172.875 335.169 174.219 333.655 175.283L338.255 181.828ZM343.897 170.778V170.246H335.897V170.778H343.897ZM343.897 170.246C343.897 163.747 341.597 158.286 336.735 154.433L331.766 160.703C334.432 162.816 335.897 165.807 335.897 170.246H343.897ZM336.735 154.433C332.061 150.729 326.012 149.094 319.016 149.094V157.094C324.805 157.094 328.912 158.441 331.766 160.703L336.735 154.433ZM319.016 149.094C311.574 149.094 305.141 150.705 300.077 154.31L304.717 160.827C308.034 158.466 312.681 157.094 319.016 157.094V149.094ZM300.077 154.31C295.035 157.899 291.834 162.899 290.497 169.081L298.317 170.771C299.253 166.442 301.378 163.203 304.717 160.827L300.077 154.31ZM294.549 165.929L246.502 164.224L246.218 172.219L294.265 173.924L294.549 165.929ZM250.32 168.787C251.647 159.495 255.05 151.255 260.526 143.997L254.14 139.179C247.827 147.546 243.914 157.062 242.4 167.656L250.32 168.787ZM260.523 144.002C266.015 136.744 273.595 130.964 283.421 126.724L280.251 119.378C269.339 124.087 260.583 130.665 254.143 139.174L260.523 144.002ZM283.433 126.719C293.248 122.445 305.211 120.233 319.442 120.233V112.233C304.413 112.233 291.305 114.566 280.239 119.384L283.433 126.719ZM319.442 120.233C329.566 120.233 338.819 121.438 347.227 123.811L349.4 116.112C340.194 113.514 330.2 112.233 319.442 112.233V120.233ZM347.255 123.819C355.666 126.125 362.893 129.489 368.993 133.865L373.656 127.365C366.688 122.366 358.574 118.627 349.371 116.104L347.255 123.819ZM369.016 133.882C375.061 138.153 379.67 143.363 382.913 149.523L389.992 145.798C386.132 138.464 380.656 132.31 373.633 127.348L369.016 133.882ZM382.928 149.552C386.199 155.645 387.886 162.686 387.886 170.778H395.886C395.886 161.541 393.95 153.17 389.977 145.769L382.928 149.552ZM387.886 170.778V282H395.886V170.778H387.886ZM391.886 278H342.88V286H391.886V278ZM346.88 282V259.202H338.88V282H346.88ZM342.88 255.202H341.602V263.202H342.88V255.202ZM338.061 257.341C335.376 262.448 331.966 266.722 327.836 270.207L332.995 276.321C337.955 272.136 342.003 267.035 345.142 261.063L338.061 257.341ZM327.812 270.227C323.783 273.681 318.98 276.307 313.344 278.077L315.74 285.71C322.319 283.644 328.099 280.518 333.019 276.301L327.812 270.227ZM313.331 278.081C307.755 279.852 301.355 280.77 294.087 280.77V288.77C302.018 288.77 309.255 287.77 315.753 285.706L313.331 278.081ZM310.174 254.679C316.339 254.679 322.014 253.426 327.113 250.836L323.49 243.704C319.641 245.659 315.23 246.679 310.174 246.679V254.679ZM327.091 250.848C332.212 248.287 336.373 244.718 339.478 240.141L332.858 235.649C330.566 239.027 327.482 241.708 323.513 243.692L327.091 250.848ZM339.497 240.114C342.675 235.346 344.217 229.871 344.217 223.832H336.217C336.217 228.447 335.06 232.347 332.84 235.676L339.497 240.114ZM344.217 223.832V208.278H336.217V223.832H344.217ZM338.361 204.735C337.154 205.367 335.593 205.99 333.634 206.578L335.933 214.24C338.235 213.55 340.297 212.752 342.073 211.822L338.361 204.735ZM333.598 206.589C331.651 207.193 329.478 207.771 327.074 208.321L328.857 216.12C331.424 215.533 333.797 214.904 335.969 214.229L333.598 206.589ZM327.074 208.321C324.675 208.869 322.202 209.35 319.654 209.763L320.935 217.66C323.643 217.221 326.284 216.708 328.857 216.12L327.074 208.321ZM319.654 209.763C317.044 210.186 314.543 210.574 312.149 210.926L313.313 218.841C315.749 218.483 318.289 218.089 320.935 217.66L319.654 209.763ZM312.101 210.933C306.932 211.758 302.362 213.053 298.46 214.885L301.859 222.127C304.918 220.691 308.729 219.572 313.361 218.834L312.101 210.933ZM298.431 214.898C294.514 216.776 291.309 219.317 289.004 222.598L295.549 227.198C296.937 225.223 298.988 223.503 301.888 222.113L298.431 214.898ZM288.991 222.616C286.687 225.934 285.613 229.812 285.613 234.06H293.613C293.613 231.205 294.315 228.975 295.562 227.179L288.991 222.616ZM285.613 234.06C285.613 240.534 287.987 245.93 292.985 249.632L297.747 243.203C295.074 241.223 293.613 238.38 293.613 234.06H285.613ZM293.013 249.653C297.75 253.098 303.565 254.679 310.174 254.679V246.679C304.852 246.679 300.794 245.419 297.718 243.183L293.013 249.653Z" fill="#183A1D"/>
</svg>
