<svg width="43" height="69" viewBox="0 0 43 69" fill="none" xmlns="http://www.w3.org/2000/svg">
<path d="M10.888 68.8184C16.7294 68.8184 21.4703 63.6799 21.4703 57.3486V45.8789H10.888C5.04654 45.8789 0.305664 51.0173 0.305664 57.3486C0.305664 63.6799 5.04654 68.8184 10.888 68.8184Z" fill="#0ACF83"/>
<path d="M0.305664 34.4092C0.305664 28.0779 5.04654 22.9395 10.888 22.9395H21.4703V45.8789H10.888C5.04654 45.8789 0.305664 40.7405 0.305664 34.4092Z" fill="#A259FF"/>
<path d="M0.305664 11.4697C0.305664 5.13844 5.04654 0 10.888 0H21.4703V22.9395H10.888C5.04654 22.9395 0.305664 17.801 0.305664 11.4697Z" fill="#F24E1E"/>
<path d="M21.4707 0H32.053C37.8945 0 42.6354 5.13844 42.6354 11.4697C42.6354 17.801 37.8945 22.9395 32.053 22.9395H21.4707V0Z" fill="#FF7262"/>
<path d="M42.6354 34.4092C42.6354 40.7405 37.8945 45.8789 32.053 45.8789C26.2116 45.8789 21.4707 40.7405 21.4707 34.4092C21.4707 28.0779 26.2116 22.9395 32.053 22.9395C37.8945 22.9395 42.6354 28.0779 42.6354 34.4092Z" fill="#1ABCFE"/>
</svg>
