<svg width="31" height="45" viewBox="0 0 31 45" fill="none" xmlns="http://www.w3.org/2000/svg">
<path d="M18.5343 12.09H21.5343V9.09H18.5343V12.09ZM18.5343 33V36H21.5343V33H18.5343ZM15.8043 33H12.8043V36H15.8043V33ZM15.8043 23.52H18.8043V20.52H15.8043V23.52ZM5.15426 23.52V20.52H2.15426V23.52H5.15426ZM5.15426 33V36H8.15426V33H5.15426ZM2.42426 33H-0.575742V36H2.42426V33ZM2.42426 12.09V9.09H-0.575742V12.09H2.42426ZM5.15426 12.09H8.15426V9.09H5.15426V12.09ZM5.15426 21.27H2.15426V24.27H5.15426V21.27ZM15.8043 21.27V24.27H18.8043V21.27H15.8043ZM15.8043 12.09V9.09H12.8043V12.09H15.8043ZM15.5343 12.09V33H21.5343V12.09H15.5343ZM18.5343 30H15.8043V36H18.5343V30ZM18.8043 33V23.52H12.8043V33H18.8043ZM15.8043 20.52H5.15426V26.52H15.8043V20.52ZM2.15426 23.52V33H8.15426V23.52H2.15426ZM5.15426 30H2.42426V36H5.15426V30ZM5.42426 33V12.09H-0.575742V33H5.42426ZM2.42426 15.09H5.15426V9.09H2.42426V15.09ZM2.15426 12.09V21.27H8.15426V12.09H2.15426ZM5.15426 24.27H15.8043V18.27H5.15426V24.27ZM18.8043 21.27V12.09H12.8043V21.27H18.8043ZM15.8043 15.09H18.5343V9.09H15.8043V15.09Z" fill="#C5FF00"/>
<circle cx="27.5" cy="12.5" r="3.5" fill="#C5FF00"/>
</svg>
