<svg width="1525" height="406" viewBox="0 0 1525 406" fill="none" xmlns="http://www.w3.org/2000/svg">
<path d="M272.229 316.474C247.3 334.811 217.134 344.801 186.1 344.997C155.066 345.193 124.775 335.585 99.6126 317.564C74.4502 299.543 55.723 274.045 46.1427 244.761C36.5623 215.478 36.6263 183.93 46.3251 154.685C56.024 125.44 74.8544 100.016 100.09 82.0959C125.325 64.1755 155.655 54.6881 186.688 55.0078C217.72 55.3275 247.845 65.4376 272.7 83.874C297.555 102.31 315.849 128.116 324.933 157.555L185.17 200L272.229 316.474Z" fill="#04B300"/>
<path d="M270.58 317.141C295.24 299.429 313.709 274.521 323.409 245.893C333.11 217.265 333.557 186.346 324.688 157.454L184.861 199.693L270.58 317.141Z" fill="#FD3B3B"/>
<path d="M836.816 110.302C815.897 85.1998 787.068 67.8149 754.974 60.9488C722.88 54.0827 689.391 58.1355 659.902 72.454C630.413 86.7726 606.643 110.523 592.421 139.878C578.198 169.234 574.353 202.484 581.504 234.272C588.655 266.06 606.385 294.533 631.839 315.105C657.293 335.677 688.987 347.149 721.814 347.671C754.642 348.194 786.69 337.738 812.797 317.988C838.903 298.237 857.546 270.343 865.722 238.799L724.161 202.69L836.816 110.302Z" fill="#FD3B3B"/>
<path d="M865.033 239.841C871.115 217.034 871.496 193.099 866.142 170.113C860.788 147.127 849.861 125.784 834.309 107.935L723.728 202.757L865.033 239.841Z" fill="#04B200"/>
<path d="M1401.32 249.749C1413.86 217.204 1414.16 181.271 1402.18 148.523C1390.19 115.776 1366.73 88.4027 1336.07 71.4123C1305.41 54.422 1269.61 48.9502 1235.21 55.9981C1200.82 63.046 1170.14 82.1423 1148.77 109.793C1127.41 137.444 1116.8 171.802 1118.87 206.579C1120.95 241.357 1135.58 274.23 1160.09 299.184C1184.6 324.138 1217.34 339.504 1252.33 342.473C1287.32 345.441 1322.22 335.812 1350.64 315.348L1264.78 198L1401.32 249.749Z" fill="#FD3B3B"/>
<path d="M1350.19 315.141C1373.07 298.713 1390.65 276.063 1400.83 249.931L1264.47 197.693L1350.19 315.141Z" fill="#04B200"/>
<ellipse cx="363.594" cy="156" rx="10.0804" ry="10" fill="#04B200"/>
<ellipse cx="907.499" cy="170.064" rx="10.0804" ry="10" fill="#04B200"/>
<ellipse cx="1446.23" cy="170" rx="10.0804" ry="10" fill="#04B200"/>
<ellipse cx="363.594" cy="194" rx="10.0804" ry="10" fill="#FD3B3B"/>
<ellipse cx="907.499" cy="208.064" rx="10.0804" ry="10" fill="#FD3B3B"/>
<ellipse cx="1446.23" cy="208" rx="10.0804" ry="10" fill="#FD3B3B"/>
<path d="M405.539 148.176V148.736C405.166 148.829 404.783 149.091 404.391 149.52C404.018 149.931 403.598 150.584 403.131 151.48L397.615 162.428H396.859L390.307 150.332C389.934 149.66 389.616 149.231 389.355 149.044C389.112 148.857 388.888 148.764 388.683 148.764V148.176C389.094 148.195 389.523 148.213 389.971 148.232C390.419 148.251 390.904 148.26 391.427 148.26C392.099 148.26 392.827 148.26 393.611 148.26C394.395 148.241 395.123 148.213 395.795 148.176V148.764C395.328 148.764 394.908 148.811 394.535 148.904C394.18 148.997 393.938 149.184 393.807 149.464C393.695 149.725 393.77 150.108 394.031 150.612L398.651 159.488L398.203 159.964L401.647 153.104C402.226 151.965 402.515 151.088 402.515 150.472C402.534 149.837 402.328 149.399 401.899 149.156C401.488 148.895 400.891 148.755 400.107 148.736V148.176C400.686 148.195 401.255 148.213 401.815 148.232C402.375 148.251 402.907 148.26 403.411 148.26C403.878 148.26 404.279 148.251 404.615 148.232C404.951 148.213 405.259 148.195 405.539 148.176ZM399.099 158.984V165.032C399.099 165.704 399.155 166.208 399.267 166.544C399.379 166.88 399.594 167.104 399.911 167.216C400.228 167.328 400.695 167.403 401.311 167.44V168C400.863 167.963 400.294 167.944 399.603 167.944C398.912 167.925 398.212 167.916 397.503 167.916C396.738 167.916 396.01 167.925 395.319 167.944C394.628 167.944 394.078 167.963 393.667 168V167.44C394.302 167.403 394.778 167.328 395.095 167.216C395.412 167.104 395.618 166.88 395.711 166.544C395.823 166.208 395.879 165.704 395.879 165.032V159.292L397.699 161.028L399.099 158.984ZM411.315 153.16C412.958 153.16 414.246 153.655 415.179 154.644C416.113 155.633 416.579 157.201 416.579 159.348H406.919L406.863 158.816H413.611C413.63 157.901 413.555 157.061 413.387 156.296C413.219 155.512 412.958 154.887 412.603 154.42C412.249 153.953 411.782 153.72 411.203 153.72C410.401 153.72 409.701 154.149 409.103 155.008C408.525 155.848 408.17 157.201 408.039 159.068L408.123 159.208C408.105 159.469 408.086 159.759 408.067 160.076C408.049 160.375 408.039 160.673 408.039 160.972C408.039 162.26 408.235 163.343 408.627 164.22C409.019 165.097 409.533 165.76 410.167 166.208C410.802 166.637 411.446 166.852 412.099 166.852C412.603 166.852 413.089 166.777 413.555 166.628C414.041 166.46 414.498 166.189 414.927 165.816C415.357 165.424 415.739 164.892 416.075 164.22L416.635 164.444C416.411 165.079 416.066 165.704 415.599 166.32C415.133 166.936 414.535 167.44 413.807 167.832C413.079 168.205 412.23 168.392 411.259 168.392C409.953 168.392 408.814 168.103 407.843 167.524C406.873 166.927 406.126 166.077 405.603 164.976C405.081 163.875 404.819 162.568 404.819 161.056C404.819 159.395 405.09 157.976 405.631 156.8C406.173 155.624 406.929 154.728 407.899 154.112C408.889 153.477 410.027 153.16 411.315 153.16ZM423.716 153.16C424.463 153.16 425.107 153.281 425.648 153.524C426.208 153.748 426.609 153.953 426.852 154.14C427.468 154.625 427.851 154.308 428 153.188H428.616C428.579 153.711 428.551 154.345 428.532 155.092C428.513 155.82 428.504 156.791 428.504 158.004H427.888C427.776 157.313 427.58 156.641 427.3 155.988C427.039 155.335 426.647 154.793 426.124 154.364C425.62 153.935 424.957 153.72 424.136 153.72C423.52 153.72 423.007 153.897 422.596 154.252C422.185 154.588 421.98 155.092 421.98 155.764C421.98 156.324 422.148 156.809 422.484 157.22C422.82 157.631 423.249 158.013 423.772 158.368C424.313 158.723 424.892 159.105 425.508 159.516C426.199 159.983 426.815 160.449 427.356 160.916C427.916 161.364 428.355 161.868 428.672 162.428C429.008 162.988 429.176 163.641 429.176 164.388C429.176 165.247 428.943 165.975 428.476 166.572C428.028 167.169 427.431 167.627 426.684 167.944C425.937 168.243 425.116 168.392 424.22 168.392C423.772 168.392 423.352 168.345 422.96 168.252C422.568 168.177 422.204 168.075 421.868 167.944C421.663 167.832 421.457 167.72 421.252 167.608C421.065 167.477 420.879 167.356 420.692 167.244C420.505 167.113 420.337 167.132 420.188 167.3C420.039 167.468 419.927 167.767 419.852 168.196H419.236C419.273 167.599 419.301 166.871 419.32 166.012C419.339 165.153 419.348 164.015 419.348 162.596H419.964C420.095 163.623 420.291 164.528 420.552 165.312C420.813 166.096 421.196 166.712 421.7 167.16C422.223 167.589 422.932 167.804 423.828 167.804C424.183 167.804 424.537 167.729 424.892 167.58C425.247 167.412 425.536 167.151 425.76 166.796C426.003 166.441 426.124 165.965 426.124 165.368C426.124 164.547 425.835 163.875 425.256 163.352C424.696 162.811 423.968 162.241 423.072 161.644C422.437 161.196 421.831 160.757 421.252 160.328C420.692 159.88 420.235 159.385 419.88 158.844C419.525 158.284 419.348 157.621 419.348 156.856C419.348 156.016 419.544 155.325 419.936 154.784C420.347 154.243 420.888 153.841 421.56 153.58C422.232 153.3 422.951 153.16 423.716 153.16Z" fill="#1D191A"/>
<path d="M949.444 162.24V162.8C949.071 162.894 948.688 163.155 948.296 163.584C947.923 163.995 947.503 164.648 947.036 165.544L941.52 176.492H940.764L934.212 164.396C933.839 163.724 933.522 163.295 933.26 163.108C933.018 162.922 932.794 162.828 932.588 162.828V162.24C932.999 162.259 933.428 162.278 933.876 162.296C934.324 162.315 934.81 162.324 935.332 162.324C936.004 162.324 936.732 162.324 937.516 162.324C938.3 162.306 939.028 162.278 939.7 162.24V162.828C939.234 162.828 938.814 162.875 938.44 162.968C938.086 163.062 937.843 163.248 937.712 163.528C937.6 163.79 937.675 164.172 937.936 164.676L942.556 173.552L942.108 174.028L945.552 167.168C946.131 166.03 946.42 165.152 946.42 164.536C946.439 163.902 946.234 163.463 945.804 163.22C945.394 162.959 944.796 162.819 944.012 162.8V162.24C944.591 162.259 945.16 162.278 945.72 162.296C946.28 162.315 946.812 162.324 947.316 162.324C947.783 162.324 948.184 162.315 948.52 162.296C948.856 162.278 949.164 162.259 949.444 162.24ZM943.004 173.048V179.096C943.004 179.768 943.06 180.272 943.172 180.608C943.284 180.944 943.499 181.168 943.816 181.28C944.134 181.392 944.6 181.467 945.216 181.504V182.064C944.768 182.027 944.199 182.008 943.508 182.008C942.818 181.99 942.118 181.98 941.408 181.98C940.643 181.98 939.915 181.99 939.224 182.008C938.534 182.008 937.983 182.027 937.572 182.064V181.504C938.207 181.467 938.683 181.392 939 181.28C939.318 181.168 939.523 180.944 939.616 180.608C939.728 180.272 939.784 179.768 939.784 179.096V173.356L941.604 175.092L943.004 173.048ZM955.221 167.224C956.863 167.224 958.151 167.719 959.085 168.708C960.018 169.698 960.485 171.266 960.485 173.412H950.825L950.769 172.88H957.517C957.535 171.966 957.461 171.126 957.293 170.36C957.125 169.576 956.863 168.951 956.509 168.484C956.154 168.018 955.687 167.784 955.109 167.784C954.306 167.784 953.606 168.214 953.009 169.072C952.43 169.912 952.075 171.266 951.945 173.132L952.029 173.272C952.01 173.534 951.991 173.823 951.973 174.14C951.954 174.439 951.945 174.738 951.945 175.036C951.945 176.324 952.141 177.407 952.533 178.284C952.925 179.162 953.438 179.824 954.073 180.272C954.707 180.702 955.351 180.916 956.005 180.916C956.509 180.916 956.994 180.842 957.461 180.692C957.946 180.524 958.403 180.254 958.833 179.88C959.262 179.488 959.645 178.956 959.981 178.284L960.541 178.508C960.317 179.143 959.971 179.768 959.505 180.384C959.038 181 958.441 181.504 957.713 181.896C956.985 182.27 956.135 182.456 955.165 182.456C953.858 182.456 952.719 182.167 951.749 181.588C950.778 180.991 950.031 180.142 949.509 179.04C948.986 177.939 948.725 176.632 948.725 175.12C948.725 173.459 948.995 172.04 949.537 170.864C950.078 169.688 950.834 168.792 951.805 168.176C952.794 167.542 953.933 167.224 955.221 167.224ZM967.621 167.224C968.368 167.224 969.012 167.346 969.553 167.588C970.113 167.812 970.515 168.018 970.757 168.204C971.373 168.69 971.756 168.372 971.905 167.252H972.521C972.484 167.775 972.456 168.41 972.437 169.156C972.419 169.884 972.409 170.855 972.409 172.068H971.793C971.681 171.378 971.485 170.706 971.205 170.052C970.944 169.399 970.552 168.858 970.029 168.428C969.525 167.999 968.863 167.784 968.041 167.784C967.425 167.784 966.912 167.962 966.501 168.316C966.091 168.652 965.885 169.156 965.885 169.828C965.885 170.388 966.053 170.874 966.389 171.284C966.725 171.695 967.155 172.078 967.677 172.432C968.219 172.787 968.797 173.17 969.413 173.58C970.104 174.047 970.72 174.514 971.261 174.98C971.821 175.428 972.26 175.932 972.577 176.492C972.913 177.052 973.081 177.706 973.081 178.452C973.081 179.311 972.848 180.039 972.381 180.636C971.933 181.234 971.336 181.691 970.589 182.008C969.843 182.307 969.021 182.456 968.125 182.456C967.677 182.456 967.257 182.41 966.865 182.316C966.473 182.242 966.109 182.139 965.773 182.008C965.568 181.896 965.363 181.784 965.157 181.672C964.971 181.542 964.784 181.42 964.597 181.308C964.411 181.178 964.243 181.196 964.093 181.364C963.944 181.532 963.832 181.831 963.757 182.26H963.141C963.179 181.663 963.207 180.935 963.225 180.076C963.244 179.218 963.253 178.079 963.253 176.66H963.869C964 177.687 964.196 178.592 964.457 179.376C964.719 180.16 965.101 180.776 965.605 181.224C966.128 181.654 966.837 181.868 967.733 181.868C968.088 181.868 968.443 181.794 968.797 181.644C969.152 181.476 969.441 181.215 969.665 180.86C969.908 180.506 970.029 180.03 970.029 179.432C970.029 178.611 969.74 177.939 969.161 177.416C968.601 176.875 967.873 176.306 966.977 175.708C966.343 175.26 965.736 174.822 965.157 174.392C964.597 173.944 964.14 173.45 963.785 172.908C963.431 172.348 963.253 171.686 963.253 170.92C963.253 170.08 963.449 169.39 963.841 168.848C964.252 168.307 964.793 167.906 965.465 167.644C966.137 167.364 966.856 167.224 967.621 167.224Z" fill="#1D191A"/>
<path d="M1488.18 162.176V162.736C1487.8 162.829 1487.42 163.091 1487.03 163.52C1486.65 163.931 1486.23 164.584 1485.77 165.48L1480.25 176.428H1479.5L1472.94 164.332C1472.57 163.66 1472.25 163.231 1471.99 163.044C1471.75 162.857 1471.52 162.764 1471.32 162.764V162.176C1471.73 162.195 1472.16 162.213 1472.61 162.232C1473.06 162.251 1473.54 162.26 1474.06 162.26C1474.74 162.26 1475.46 162.26 1476.25 162.26C1477.03 162.241 1477.76 162.213 1478.43 162.176V162.764C1477.96 162.764 1477.54 162.811 1477.17 162.904C1476.82 162.997 1476.57 163.184 1476.44 163.464C1476.33 163.725 1476.41 164.108 1476.67 164.612L1481.29 173.488L1480.84 173.964L1484.28 167.104C1484.86 165.965 1485.15 165.088 1485.15 164.472C1485.17 163.837 1484.96 163.399 1484.54 163.156C1484.12 162.895 1483.53 162.755 1482.74 162.736V162.176C1483.32 162.195 1483.89 162.213 1484.45 162.232C1485.01 162.251 1485.54 162.26 1486.05 162.26C1486.51 162.26 1486.92 162.251 1487.25 162.232C1487.59 162.213 1487.9 162.195 1488.18 162.176ZM1481.74 172.984V179.032C1481.74 179.704 1481.79 180.208 1481.9 180.544C1482.02 180.88 1482.23 181.104 1482.55 181.216C1482.86 181.328 1483.33 181.403 1483.95 181.44V182C1483.5 181.963 1482.93 181.944 1482.24 181.944C1481.55 181.925 1480.85 181.916 1480.14 181.916C1479.37 181.916 1478.65 181.925 1477.96 181.944C1477.26 181.944 1476.71 181.963 1476.3 182V181.44C1476.94 181.403 1477.41 181.328 1477.73 181.216C1478.05 181.104 1478.25 180.88 1478.35 180.544C1478.46 180.208 1478.52 179.704 1478.52 179.032V173.292L1480.34 175.028L1481.74 172.984ZM1493.95 167.16C1495.59 167.16 1496.88 167.655 1497.82 168.644C1498.75 169.633 1499.22 171.201 1499.22 173.348H1489.56L1489.5 172.816H1496.25C1496.27 171.901 1496.19 171.061 1496.02 170.296C1495.86 169.512 1495.59 168.887 1495.24 168.42C1494.89 167.953 1494.42 167.72 1493.84 167.72C1493.04 167.72 1492.34 168.149 1491.74 169.008C1491.16 169.848 1490.81 171.201 1490.68 173.068L1490.76 173.208C1490.74 173.469 1490.72 173.759 1490.7 174.076C1490.69 174.375 1490.68 174.673 1490.68 174.972C1490.68 176.26 1490.87 177.343 1491.26 178.22C1491.66 179.097 1492.17 179.76 1492.8 180.208C1493.44 180.637 1494.08 180.852 1494.74 180.852C1495.24 180.852 1495.73 180.777 1496.19 180.628C1496.68 180.46 1497.13 180.189 1497.56 179.816C1497.99 179.424 1498.38 178.892 1498.71 178.22L1499.27 178.444C1499.05 179.079 1498.7 179.704 1498.24 180.32C1497.77 180.936 1497.17 181.44 1496.44 181.832C1495.72 182.205 1494.87 182.392 1493.9 182.392C1492.59 182.392 1491.45 182.103 1490.48 181.524C1489.51 180.927 1488.76 180.077 1488.24 178.976C1487.72 177.875 1487.46 176.568 1487.46 175.056C1487.46 173.395 1487.73 171.976 1488.27 170.8C1488.81 169.624 1489.57 168.728 1490.54 168.112C1491.53 167.477 1492.66 167.16 1493.95 167.16ZM1506.35 167.16C1507.1 167.16 1507.74 167.281 1508.28 167.524C1508.84 167.748 1509.25 167.953 1509.49 168.14C1510.1 168.625 1510.49 168.308 1510.64 167.188H1511.25C1511.22 167.711 1511.19 168.345 1511.17 169.092C1511.15 169.82 1511.14 170.791 1511.14 172.004H1510.52C1510.41 171.313 1510.22 170.641 1509.94 169.988C1509.68 169.335 1509.28 168.793 1508.76 168.364C1508.26 167.935 1507.59 167.72 1506.77 167.72C1506.16 167.72 1505.64 167.897 1505.23 168.252C1504.82 168.588 1504.62 169.092 1504.62 169.764C1504.62 170.324 1504.78 170.809 1505.12 171.22C1505.46 171.631 1505.89 172.013 1506.41 172.368C1506.95 172.723 1507.53 173.105 1508.14 173.516C1508.84 173.983 1509.45 174.449 1509.99 174.916C1510.55 175.364 1510.99 175.868 1511.31 176.428C1511.64 176.988 1511.81 177.641 1511.81 178.388C1511.81 179.247 1511.58 179.975 1511.11 180.572C1510.66 181.169 1510.07 181.627 1509.32 181.944C1508.57 182.243 1507.75 182.392 1506.86 182.392C1506.41 182.392 1505.99 182.345 1505.6 182.252C1505.2 182.177 1504.84 182.075 1504.5 181.944C1504.3 181.832 1504.09 181.72 1503.89 181.608C1503.7 181.477 1503.52 181.356 1503.33 181.244C1503.14 181.113 1502.97 181.132 1502.82 181.3C1502.68 181.468 1502.56 181.767 1502.49 182.196H1501.87C1501.91 181.599 1501.94 180.871 1501.96 180.012C1501.98 179.153 1501.98 178.015 1501.98 176.596H1502.6C1502.73 177.623 1502.93 178.528 1503.19 179.312C1503.45 180.096 1503.83 180.712 1504.34 181.16C1504.86 181.589 1505.57 181.804 1506.46 181.804C1506.82 181.804 1507.17 181.729 1507.53 181.58C1507.88 181.412 1508.17 181.151 1508.4 180.796C1508.64 180.441 1508.76 179.965 1508.76 179.368C1508.76 178.547 1508.47 177.875 1507.89 177.352C1507.33 176.811 1506.6 176.241 1505.71 175.644C1505.07 175.196 1504.47 174.757 1503.89 174.328C1503.33 173.88 1502.87 173.385 1502.52 172.844C1502.16 172.284 1501.98 171.621 1501.98 170.856C1501.98 170.016 1502.18 169.325 1502.57 168.784C1502.98 168.243 1503.52 167.841 1504.2 167.58C1504.87 167.3 1505.59 167.16 1506.35 167.16Z" fill="#1D191A"/>
<path d="M96.0984 194.784C97.0131 194.784 97.8344 194.933 98.5624 195.232C99.3091 195.531 99.8971 195.969 100.326 196.548C100.774 197.127 100.998 197.827 100.998 198.648C100.998 199.749 100.625 200.72 99.8784 201.56C99.1318 202.381 98.1518 203.147 96.9384 203.856L96.7144 203.464C97.1438 203.072 97.4798 202.633 97.7224 202.148C97.9651 201.663 98.1424 201.149 98.2544 200.608C98.3664 200.067 98.4224 199.516 98.4224 198.956C98.4224 197.855 98.1984 196.968 97.7504 196.296C97.3024 195.624 96.6584 195.288 95.8184 195.288C95.1091 195.288 94.5211 195.54 94.0544 196.044C93.6064 196.529 93.3824 197.201 93.3824 198.06C93.3824 198.919 93.5878 199.684 93.9984 200.356C94.4091 201.028 94.9411 201.644 95.5944 202.204C96.2664 202.764 96.9664 203.324 97.6944 203.884C98.4224 204.425 99.1131 204.995 99.7664 205.592C100.438 206.189 100.98 206.852 101.39 207.58C101.801 208.308 102.006 209.139 102.006 210.072C102.006 211.117 101.726 212.041 101.166 212.844C100.625 213.647 99.8784 214.272 98.9264 214.72C97.9931 215.168 96.9104 215.392 95.6784 215.392C94.6331 215.392 93.6624 215.224 92.7664 214.888C91.8704 214.533 91.1424 214.001 90.5824 213.292C90.0411 212.583 89.7704 211.705 89.7704 210.66C89.7704 209.708 89.9851 208.859 90.4144 208.112C90.8624 207.365 91.4504 206.712 92.1784 206.152C92.9251 205.573 93.7464 205.088 94.6424 204.696L94.8664 205.088C94.0078 205.723 93.4104 206.488 93.0744 207.384C92.7384 208.28 92.5704 209.223 92.5704 210.212C92.5704 211.033 92.6731 211.799 92.8784 212.508C93.0838 213.217 93.4291 213.796 93.9144 214.244C94.3998 214.673 95.0438 214.888 95.8464 214.888C96.7611 214.888 97.5358 214.589 98.1704 213.992C98.8051 213.376 99.1224 212.527 99.1224 211.444C99.1224 210.548 98.9171 209.755 98.5064 209.064C98.1144 208.355 97.5918 207.701 96.9384 207.104C96.3038 206.507 95.6224 205.928 94.8944 205.368C94.1851 204.808 93.5038 204.229 92.8504 203.632C92.2158 203.035 91.6931 202.381 91.2824 201.672C90.8904 200.944 90.6944 200.123 90.6944 199.208C90.6944 198.293 90.9371 197.509 91.4224 196.856C91.9078 196.184 92.5611 195.671 93.3824 195.316C94.2038 194.961 95.1091 194.784 96.0984 194.784ZM112.119 200.16C113.501 200.16 114.714 200.468 115.759 201.084C116.823 201.681 117.654 202.54 118.251 203.66C118.867 204.761 119.175 206.059 119.175 207.552C119.175 209.045 118.858 210.389 118.223 211.584C117.607 212.76 116.749 213.693 115.647 214.384C114.565 215.056 113.286 215.392 111.811 215.392C110.467 215.392 109.254 215.093 108.171 214.496C107.107 213.88 106.267 213.021 105.651 211.92C105.054 210.8 104.755 209.493 104.755 208C104.755 206.525 105.054 205.2 105.651 204.024C106.267 202.829 107.126 201.887 108.227 201.196C109.347 200.505 110.645 200.16 112.119 200.16ZM111.867 200.664C110.729 200.664 109.795 201.308 109.067 202.596C108.339 203.865 107.975 205.639 107.975 207.916C107.975 209.596 108.162 210.949 108.535 211.976C108.909 212.984 109.403 213.721 110.019 214.188C110.654 214.655 111.335 214.888 112.063 214.888C113.202 214.888 114.135 214.253 114.863 212.984C115.591 211.696 115.955 209.913 115.955 207.636C115.955 205.956 115.769 204.603 115.395 203.576C115.022 202.549 114.518 201.812 113.883 201.364C113.267 200.897 112.595 200.664 111.867 200.664ZM125.846 193.692C127.134 193.692 128.17 194.093 128.954 194.896C129.738 195.699 130.13 196.819 130.13 198.256C130.13 199.189 129.943 200.011 129.57 200.72C129.197 201.429 128.683 201.98 128.03 202.372C127.395 202.764 126.667 202.96 125.846 202.96C124.558 202.96 123.513 202.559 122.71 201.756C121.926 200.953 121.534 199.833 121.534 198.396C121.534 197.463 121.721 196.641 122.094 195.932C122.486 195.223 122.999 194.672 123.634 194.28C124.287 193.888 125.025 193.692 125.846 193.692ZM135.87 206.628C135.179 206.628 134.666 206.983 134.33 207.692C133.994 208.401 133.826 209.437 133.826 210.8C133.826 212.163 134.022 213.189 134.414 213.88C134.806 214.552 135.329 214.888 135.982 214.888C136.673 214.888 137.177 214.533 137.494 213.824C137.83 213.115 137.998 212.088 137.998 210.744C137.998 209.363 137.811 208.336 137.438 207.664C137.065 206.973 136.542 206.628 135.87 206.628ZM135.926 206.124C137.214 206.124 138.25 206.525 139.034 207.328C139.818 208.131 140.21 209.251 140.21 210.688C140.21 211.621 140.023 212.443 139.65 213.152C139.277 213.861 138.763 214.412 138.11 214.804C137.475 215.196 136.747 215.392 135.926 215.392C134.638 215.392 133.593 214.991 132.79 214.188C132.006 213.385 131.614 212.265 131.614 210.828C131.614 209.895 131.801 209.073 132.174 208.364C132.566 207.655 133.079 207.104 133.714 206.712C134.367 206.32 135.105 206.124 135.926 206.124ZM125.79 194.196C125.099 194.196 124.586 194.551 124.25 195.26C123.914 195.969 123.746 197.005 123.746 198.368C123.746 199.731 123.942 200.757 124.334 201.448C124.726 202.12 125.249 202.456 125.902 202.456C126.593 202.456 127.097 202.101 127.414 201.392C127.75 200.683 127.918 199.656 127.918 198.312C127.918 196.931 127.731 195.904 127.358 195.232C126.985 194.541 126.462 194.196 125.79 194.196ZM138.978 191.928L139.51 192.292L123.13 216.54L122.598 216.176L138.978 191.928Z" fill="white"/>
<path d="M636.98 200.848C637.895 200.848 638.716 200.998 639.444 201.296C640.191 201.595 640.779 202.034 641.208 202.612C641.656 203.191 641.88 203.891 641.88 204.712C641.88 205.814 641.507 206.784 640.76 207.624C640.014 208.446 639.034 209.211 637.82 209.92L637.596 209.528C638.026 209.136 638.362 208.698 638.604 208.212C638.847 207.727 639.024 207.214 639.136 206.672C639.248 206.131 639.304 205.58 639.304 205.02C639.304 203.919 639.08 203.032 638.632 202.36C638.184 201.688 637.54 201.352 636.7 201.352C635.991 201.352 635.403 201.604 634.936 202.108C634.488 202.594 634.264 203.266 634.264 204.124C634.264 204.983 634.47 205.748 634.88 206.42C635.291 207.092 635.823 207.708 636.476 208.268C637.148 208.828 637.848 209.388 638.576 209.948C639.304 210.49 639.995 211.059 640.648 211.656C641.32 212.254 641.862 212.916 642.272 213.644C642.683 214.372 642.888 215.203 642.888 216.136C642.888 217.182 642.608 218.106 642.048 218.908C641.507 219.711 640.76 220.336 639.808 220.784C638.875 221.232 637.792 221.456 636.56 221.456C635.515 221.456 634.544 221.288 633.648 220.952C632.752 220.598 632.024 220.066 631.464 219.356C630.923 218.647 630.652 217.77 630.652 216.724C630.652 215.772 630.867 214.923 631.296 214.176C631.744 213.43 632.332 212.776 633.06 212.216C633.807 211.638 634.628 211.152 635.524 210.76L635.748 211.152C634.89 211.787 634.292 212.552 633.956 213.448C633.62 214.344 633.452 215.287 633.452 216.276C633.452 217.098 633.555 217.863 633.76 218.572C633.966 219.282 634.311 219.86 634.796 220.308C635.282 220.738 635.926 220.952 636.728 220.952C637.643 220.952 638.418 220.654 639.052 220.056C639.687 219.44 640.004 218.591 640.004 217.508C640.004 216.612 639.799 215.819 639.388 215.128C638.996 214.419 638.474 213.766 637.82 213.168C637.186 212.571 636.504 211.992 635.776 211.432C635.067 210.872 634.386 210.294 633.732 209.696C633.098 209.099 632.575 208.446 632.164 207.736C631.772 207.008 631.576 206.187 631.576 205.272C631.576 204.358 631.819 203.574 632.304 202.92C632.79 202.248 633.443 201.735 634.264 201.38C635.086 201.026 635.991 200.848 636.98 200.848ZM654.065 205.328C654.065 206.448 654.075 207.326 654.093 207.96C654.112 208.576 654.14 209.136 654.177 209.64C654.028 209.603 653.739 209.575 653.309 209.556C652.899 209.538 652.423 209.528 651.881 209.528C651.34 209.51 650.808 209.5 650.285 209.5H646.869L646.505 214.68C646.916 214.438 647.401 214.223 647.961 214.036C648.54 213.85 649.249 213.756 650.089 213.756C651.265 213.756 652.227 213.952 652.973 214.344C653.739 214.718 654.299 215.231 654.653 215.884C655.027 216.538 655.213 217.275 655.213 218.096C655.213 219.179 654.924 220.159 654.345 221.036C653.767 221.914 652.992 222.66 652.021 223.276C651.069 223.892 650.015 224.368 648.857 224.704C647.7 225.04 646.533 225.208 645.357 225.208V224.704C646.197 224.704 647.009 224.564 647.793 224.284C648.596 224.023 649.315 223.622 649.949 223.08C650.584 222.539 651.088 221.876 651.461 221.092C651.853 220.308 652.049 219.394 652.049 218.348C652.049 217.172 651.751 216.258 651.153 215.604C650.575 214.951 649.735 214.624 648.633 214.624C648.129 214.624 647.7 214.68 647.345 214.792C647.009 214.886 646.645 215.026 646.253 215.212L645.945 215.016L646.589 206.532C646.795 206.57 647.028 206.598 647.289 206.616C647.569 206.635 647.84 206.644 648.101 206.644H651.741C652.432 206.644 652.88 206.551 653.085 206.364C653.309 206.159 653.449 205.814 653.505 205.328H654.065ZM661.533 199.756C662.821 199.756 663.857 200.158 664.641 200.96C665.425 201.763 665.817 202.883 665.817 204.32C665.817 205.254 665.63 206.075 665.257 206.784C664.883 207.494 664.37 208.044 663.717 208.436C663.082 208.828 662.354 209.024 661.533 209.024C660.245 209.024 659.199 208.623 658.397 207.82C657.613 207.018 657.221 205.898 657.221 204.46C657.221 203.527 657.407 202.706 657.781 201.996C658.173 201.287 658.686 200.736 659.321 200.344C659.974 199.952 660.711 199.756 661.533 199.756ZM671.557 212.692C670.866 212.692 670.353 213.047 670.017 213.756C669.681 214.466 669.513 215.502 669.513 216.864C669.513 218.227 669.709 219.254 670.101 219.944C670.493 220.616 671.015 220.952 671.669 220.952C672.359 220.952 672.863 220.598 673.181 219.888C673.517 219.179 673.685 218.152 673.685 216.808C673.685 215.427 673.498 214.4 673.125 213.728C672.751 213.038 672.229 212.692 671.557 212.692ZM671.613 212.188C672.901 212.188 673.937 212.59 674.721 213.392C675.505 214.195 675.897 215.315 675.897 216.752C675.897 217.686 675.71 218.507 675.337 219.216C674.963 219.926 674.45 220.476 673.797 220.868C673.162 221.26 672.434 221.456 671.613 221.456C670.325 221.456 669.279 221.055 668.477 220.252C667.693 219.45 667.301 218.33 667.301 216.892C667.301 215.959 667.487 215.138 667.861 214.428C668.253 213.719 668.766 213.168 669.401 212.776C670.054 212.384 670.791 212.188 671.613 212.188ZM661.477 200.26C660.786 200.26 660.273 200.615 659.937 201.324C659.601 202.034 659.433 203.07 659.433 204.432C659.433 205.795 659.629 206.822 660.021 207.512C660.413 208.184 660.935 208.52 661.589 208.52C662.279 208.52 662.783 208.166 663.101 207.456C663.437 206.747 663.605 205.72 663.605 204.376C663.605 202.995 663.418 201.968 663.045 201.296C662.671 200.606 662.149 200.26 661.477 200.26ZM674.665 197.992L675.197 198.356L658.817 222.604L658.285 222.24L674.665 197.992Z" fill="white"/>
<path d="M1181.45 190.16C1183.32 190.16 1184.78 190.813 1185.85 192.12C1186.91 193.427 1187.44 195.275 1187.44 197.664C1187.44 199.195 1187.23 200.557 1186.8 201.752C1186.37 202.928 1185.79 203.964 1185.06 204.86C1184.35 205.737 1183.56 206.465 1182.68 207.044C1181.81 207.641 1180.91 208.108 1180 208.444C1179.1 208.799 1178.25 209.041 1177.45 209.172L1177.34 208.612C1178.12 208.388 1178.91 208.071 1179.72 207.66C1180.54 207.249 1181.28 206.652 1181.96 205.868C1182.65 205.084 1183.2 204.029 1183.61 202.704C1184.02 201.379 1184.22 199.699 1184.22 197.664C1184.22 195.835 1184.06 194.425 1183.75 193.436C1183.45 192.428 1183.07 191.728 1182.6 191.336C1182.13 190.925 1181.66 190.72 1181.17 190.72C1180.67 190.72 1180.19 190.916 1179.74 191.308C1179.3 191.681 1178.93 192.297 1178.65 193.156C1178.37 194.015 1178.23 195.144 1178.23 196.544C1178.23 197.888 1178.35 198.961 1178.6 199.764C1178.86 200.567 1179.2 201.145 1179.63 201.5C1180.08 201.855 1180.56 202.032 1181.06 202.032C1181.43 202.032 1181.84 201.939 1182.29 201.752C1182.76 201.565 1183.19 201.257 1183.58 200.828C1183.97 200.38 1184.24 199.773 1184.39 199.008L1184.67 198.924C1184.54 199.932 1184.22 200.716 1183.72 201.276C1183.23 201.836 1182.67 202.237 1182.04 202.48C1181.4 202.723 1180.8 202.844 1180.22 202.844C1179.3 202.844 1178.45 202.611 1177.64 202.144C1176.86 201.659 1176.22 200.968 1175.74 200.072C1175.25 199.157 1175.01 198.047 1175.01 196.74C1175.01 195.34 1175.3 194.145 1175.88 193.156C1176.48 192.167 1177.26 191.42 1178.23 190.916C1179.22 190.412 1180.29 190.16 1181.45 190.16ZM1196.11 190.244V202.172C1196.11 203.049 1196.29 203.647 1196.67 203.964C1197.04 204.263 1197.68 204.412 1198.57 204.412V205C1198.2 204.981 1197.65 204.963 1196.92 204.944C1196.21 204.907 1195.47 204.888 1194.71 204.888C1193.81 204.888 1192.95 204.907 1192.13 204.944C1191.31 204.963 1190.68 204.981 1190.23 205V204.412C1191.12 204.412 1191.82 204.263 1192.33 203.964C1192.83 203.647 1193.08 203.031 1193.08 202.116V195.312C1193.08 194.416 1192.99 193.753 1192.8 193.324C1192.64 192.895 1192.32 192.615 1191.85 192.484C1191.4 192.353 1190.79 192.288 1190 192.288V191.672C1191.42 191.635 1192.61 191.513 1193.56 191.308C1194.51 191.103 1195.36 190.748 1196.11 190.244ZM1204.48 183.692C1205.77 183.692 1206.8 184.093 1207.59 184.896C1208.37 185.699 1208.76 186.819 1208.76 188.256C1208.76 189.189 1208.58 190.011 1208.2 190.72C1207.83 191.429 1207.32 191.98 1206.66 192.372C1206.03 192.764 1205.3 192.96 1204.48 192.96C1203.19 192.96 1202.15 192.559 1201.34 191.756C1200.56 190.953 1200.17 189.833 1200.17 188.396C1200.17 187.463 1200.35 186.641 1200.73 185.932C1201.12 185.223 1201.63 184.672 1202.27 184.28C1202.92 183.888 1203.66 183.692 1204.48 183.692ZM1214.5 196.628C1213.81 196.628 1213.3 196.983 1212.96 197.692C1212.63 198.401 1212.46 199.437 1212.46 200.8C1212.46 202.163 1212.66 203.189 1213.05 203.88C1213.44 204.552 1213.96 204.888 1214.62 204.888C1215.31 204.888 1215.81 204.533 1216.13 203.824C1216.46 203.115 1216.63 202.088 1216.63 200.744C1216.63 199.363 1216.45 198.336 1216.07 197.664C1215.7 196.973 1215.18 196.628 1214.5 196.628ZM1214.56 196.124C1215.85 196.124 1216.88 196.525 1217.67 197.328C1218.45 198.131 1218.84 199.251 1218.84 200.688C1218.84 201.621 1218.66 202.443 1218.28 203.152C1217.91 203.861 1217.4 204.412 1216.74 204.804C1216.11 205.196 1215.38 205.392 1214.56 205.392C1213.27 205.392 1212.23 204.991 1211.42 204.188C1210.64 203.385 1210.25 202.265 1210.25 200.828C1210.25 199.895 1210.43 199.073 1210.81 198.364C1211.2 197.655 1211.71 197.104 1212.35 196.712C1213 196.32 1213.74 196.124 1214.56 196.124ZM1204.42 184.196C1203.73 184.196 1203.22 184.551 1202.88 185.26C1202.55 185.969 1202.38 187.005 1202.38 188.368C1202.38 189.731 1202.58 190.757 1202.97 191.448C1203.36 192.12 1203.88 192.456 1204.54 192.456C1205.23 192.456 1205.73 192.101 1206.05 191.392C1206.38 190.683 1206.55 189.656 1206.55 188.312C1206.55 186.931 1206.37 185.904 1205.99 185.232C1205.62 184.541 1205.1 184.196 1204.42 184.196ZM1217.61 181.928L1218.14 182.292L1201.76 206.54L1201.23 206.176L1217.61 181.928Z" fill="white"/>
<path d="M1319.55 246.16C1321.42 246.16 1322.89 246.813 1323.95 248.12C1325.01 249.427 1325.55 251.275 1325.55 253.664C1325.55 255.195 1325.33 256.557 1324.9 257.752C1324.47 258.928 1323.89 259.964 1323.17 260.86C1322.46 261.737 1321.66 262.465 1320.79 263.044C1319.91 263.641 1319.01 264.108 1318.1 264.444C1317.2 264.799 1316.35 265.041 1315.55 265.172L1315.44 264.612C1316.22 264.388 1317.01 264.071 1317.82 263.66C1318.64 263.249 1319.39 262.652 1320.06 261.868C1320.75 261.084 1321.3 260.029 1321.71 258.704C1322.12 257.379 1322.33 255.699 1322.33 253.664C1322.33 251.835 1322.17 250.425 1321.85 249.436C1321.55 248.428 1321.17 247.728 1320.7 247.336C1320.23 246.925 1319.76 246.72 1319.27 246.72C1318.77 246.72 1318.29 246.916 1317.85 247.308C1317.4 247.681 1317.03 248.297 1316.75 249.156C1316.47 250.015 1316.33 251.144 1316.33 252.544C1316.33 253.888 1316.45 254.961 1316.7 255.764C1316.96 256.567 1317.3 257.145 1317.73 257.5C1318.18 257.855 1318.66 258.032 1319.16 258.032C1319.53 258.032 1319.95 257.939 1320.39 257.752C1320.86 257.565 1321.29 257.257 1321.68 256.828C1322.07 256.38 1322.34 255.773 1322.49 255.008L1322.77 254.924C1322.64 255.932 1322.33 256.716 1321.82 257.276C1321.34 257.836 1320.78 258.237 1320.14 258.48C1319.51 258.723 1318.9 258.844 1318.32 258.844C1317.41 258.844 1316.55 258.611 1315.75 258.144C1314.96 257.659 1314.33 256.968 1313.84 256.072C1313.36 255.157 1313.11 254.047 1313.11 252.74C1313.11 251.34 1313.4 250.145 1313.98 249.156C1314.58 248.167 1315.36 247.42 1316.33 246.916C1317.32 246.412 1318.4 246.16 1319.55 246.16ZM1332.11 239.692C1333.4 239.692 1334.43 240.093 1335.22 240.896C1336 241.699 1336.39 242.819 1336.39 244.256C1336.39 245.189 1336.21 246.011 1335.83 246.72C1335.46 247.429 1334.95 247.98 1334.29 248.372C1333.66 248.764 1332.93 248.96 1332.11 248.96C1330.82 248.96 1329.78 248.559 1328.97 247.756C1328.19 246.953 1327.8 245.833 1327.8 244.396C1327.8 243.463 1327.98 242.641 1328.36 241.932C1328.75 241.223 1329.26 240.672 1329.9 240.28C1330.55 239.888 1331.29 239.692 1332.11 239.692ZM1342.13 252.628C1341.44 252.628 1340.93 252.983 1340.59 253.692C1340.26 254.401 1340.09 255.437 1340.09 256.8C1340.09 258.163 1340.28 259.189 1340.68 259.88C1341.07 260.552 1341.59 260.888 1342.24 260.888C1342.94 260.888 1343.44 260.533 1343.76 259.824C1344.09 259.115 1344.26 258.088 1344.26 256.744C1344.26 255.363 1344.07 254.336 1343.7 253.664C1343.33 252.973 1342.8 252.628 1342.13 252.628ZM1342.19 252.124C1343.48 252.124 1344.51 252.525 1345.3 253.328C1346.08 254.131 1346.47 255.251 1346.47 256.688C1346.47 257.621 1346.29 258.443 1345.91 259.152C1345.54 259.861 1345.03 260.412 1344.37 260.804C1343.74 261.196 1343.01 261.392 1342.19 261.392C1340.9 261.392 1339.86 260.991 1339.05 260.188C1338.27 259.385 1337.88 258.265 1337.88 256.828C1337.88 255.895 1338.06 255.073 1338.44 254.364C1338.83 253.655 1339.34 253.104 1339.98 252.712C1340.63 252.32 1341.37 252.124 1342.19 252.124ZM1332.05 240.196C1331.36 240.196 1330.85 240.551 1330.51 241.26C1330.18 241.969 1330.01 243.005 1330.01 244.368C1330.01 245.731 1330.2 246.757 1330.6 247.448C1330.99 248.12 1331.51 248.456 1332.16 248.456C1332.86 248.456 1333.36 248.101 1333.68 247.392C1334.01 246.683 1334.18 245.656 1334.18 244.312C1334.18 242.931 1333.99 241.904 1333.62 241.232C1333.25 240.541 1332.72 240.196 1332.05 240.196ZM1345.24 237.928L1345.77 238.292L1329.39 262.54L1328.86 262.176L1345.24 237.928Z" fill="white"/>
<path d="M239.66 218.16C241.004 218.16 242.068 218.468 242.852 219.084C243.636 219.7 244.028 220.577 244.028 221.716C244.028 222.444 243.851 223.135 243.496 223.788C243.141 224.423 242.675 225.029 242.096 225.608C241.536 226.187 240.929 226.747 240.276 227.288C239.623 227.829 238.988 228.361 238.372 228.884C237.775 229.388 237.261 229.911 236.832 230.452H242.656C243.421 230.452 243.907 230.349 244.112 230.144C244.317 229.939 244.457 229.584 244.532 229.08H245.036C245.036 230.163 245.045 230.993 245.064 231.572C245.083 232.151 245.111 232.673 245.148 233.14C244.98 233.103 244.672 233.075 244.224 233.056C243.776 233.037 243.263 233.019 242.684 233C242.105 233 241.536 233 240.976 233H233.892V232.496C234.433 231.899 235.096 231.255 235.88 230.564C236.664 229.873 237.42 229.117 238.148 228.296C238.895 227.475 239.511 226.579 239.996 225.608C240.5 224.619 240.752 223.555 240.752 222.416C240.752 221.371 240.509 220.615 240.024 220.148C239.557 219.681 238.885 219.448 238.008 219.448C237.243 219.448 236.543 219.663 235.908 220.092C235.292 220.503 234.741 221.119 234.256 221.94L233.808 221.66C234.125 221.063 234.536 220.503 235.04 219.98C235.544 219.439 236.169 219 236.916 218.664C237.681 218.328 238.596 218.16 239.66 218.16ZM255.148 218.16C256.529 218.16 257.742 218.468 258.788 219.084C259.852 219.681 260.682 220.54 261.28 221.66C261.896 222.761 262.204 224.059 262.204 225.552C262.204 227.045 261.886 228.389 261.252 229.584C260.636 230.76 259.777 231.693 258.676 232.384C257.593 233.056 256.314 233.392 254.84 233.392C253.496 233.392 252.282 233.093 251.2 232.496C250.136 231.88 249.296 231.021 248.68 229.92C248.082 228.8 247.784 227.493 247.784 226C247.784 224.525 248.082 223.2 248.68 222.024C249.296 220.829 250.154 219.887 251.256 219.196C252.376 218.505 253.673 218.16 255.148 218.16ZM254.896 218.664C253.757 218.664 252.824 219.308 252.096 220.596C251.368 221.865 251.004 223.639 251.004 225.916C251.004 227.596 251.19 228.949 251.564 229.976C251.937 230.984 252.432 231.721 253.048 232.188C253.682 232.655 254.364 232.888 255.092 232.888C256.23 232.888 257.164 232.253 257.892 230.984C258.62 229.696 258.984 227.913 258.984 225.636C258.984 223.956 258.797 222.603 258.424 221.576C258.05 220.549 257.546 219.812 256.912 219.364C256.296 218.897 255.624 218.664 254.896 218.664ZM268.874 211.692C270.162 211.692 271.198 212.093 271.982 212.896C272.766 213.699 273.158 214.819 273.158 216.256C273.158 217.189 272.972 218.011 272.598 218.72C272.225 219.429 271.712 219.98 271.058 220.372C270.424 220.764 269.696 220.96 268.874 220.96C267.586 220.96 266.541 220.559 265.738 219.756C264.954 218.953 264.562 217.833 264.562 216.396C264.562 215.463 264.749 214.641 265.122 213.932C265.514 213.223 266.028 212.672 266.662 212.28C267.316 211.888 268.053 211.692 268.874 211.692ZM278.898 224.628C278.208 224.628 277.694 224.983 277.358 225.692C277.022 226.401 276.854 227.437 276.854 228.8C276.854 230.163 277.05 231.189 277.442 231.88C277.834 232.552 278.357 232.888 279.01 232.888C279.701 232.888 280.205 232.533 280.522 231.824C280.858 231.115 281.026 230.088 281.026 228.744C281.026 227.363 280.84 226.336 280.466 225.664C280.093 224.973 279.57 224.628 278.898 224.628ZM278.954 224.124C280.242 224.124 281.278 224.525 282.062 225.328C282.846 226.131 283.238 227.251 283.238 228.688C283.238 229.621 283.052 230.443 282.678 231.152C282.305 231.861 281.792 232.412 281.138 232.804C280.504 233.196 279.776 233.392 278.954 233.392C277.666 233.392 276.621 232.991 275.818 232.188C275.034 231.385 274.642 230.265 274.642 228.828C274.642 227.895 274.829 227.073 275.202 226.364C275.594 225.655 276.108 225.104 276.742 224.712C277.396 224.32 278.133 224.124 278.954 224.124ZM268.818 212.196C268.128 212.196 267.614 212.551 267.278 213.26C266.942 213.969 266.774 215.005 266.774 216.368C266.774 217.731 266.97 218.757 267.362 219.448C267.754 220.12 268.277 220.456 268.93 220.456C269.621 220.456 270.125 220.101 270.442 219.392C270.778 218.683 270.946 217.656 270.946 216.312C270.946 214.931 270.76 213.904 270.386 213.232C270.013 212.541 269.49 212.196 268.818 212.196ZM282.006 209.928L282.538 210.292L266.158 234.54L265.626 234.176L282.006 209.928Z" fill="white"/>
<path d="M783.817 185.308V197.236C783.817 198.114 784.004 198.711 784.377 199.028C784.75 199.327 785.385 199.476 786.281 199.476V200.064C785.908 200.046 785.357 200.027 784.629 200.008C783.92 199.971 783.182 199.952 782.417 199.952C781.521 199.952 780.662 199.971 779.841 200.008C779.02 200.027 778.385 200.046 777.937 200.064V199.476C778.833 199.476 779.533 199.327 780.037 199.028C780.541 198.711 780.793 198.095 780.793 197.18V190.376C780.793 189.48 780.7 188.818 780.513 188.388C780.345 187.959 780.028 187.679 779.561 187.548C779.113 187.418 778.497 187.352 777.713 187.352V186.736C779.132 186.699 780.317 186.578 781.269 186.372C782.221 186.167 783.07 185.812 783.817 185.308ZM796.426 184.328C796.426 185.448 796.435 186.326 796.454 186.96C796.472 187.576 796.5 188.136 796.538 188.64C796.388 188.603 796.099 188.575 795.67 188.556C795.259 188.538 794.783 188.528 794.242 188.528C793.7 188.51 793.168 188.5 792.646 188.5H789.23L788.866 193.68C789.276 193.438 789.762 193.223 790.322 193.036C790.9 192.85 791.61 192.756 792.45 192.756C793.626 192.756 794.587 192.952 795.334 193.344C796.099 193.718 796.659 194.231 797.014 194.884C797.387 195.538 797.574 196.275 797.574 197.096C797.574 198.179 797.284 199.159 796.706 200.036C796.127 200.914 795.352 201.66 794.382 202.276C793.43 202.892 792.375 203.368 791.218 203.704C790.06 204.04 788.894 204.208 787.718 204.208V203.704C788.558 203.704 789.37 203.564 790.154 203.284C790.956 203.023 791.675 202.622 792.31 202.08C792.944 201.539 793.448 200.876 793.822 200.092C794.214 199.308 794.41 198.394 794.41 197.348C794.41 196.172 794.111 195.258 793.514 194.604C792.935 193.951 792.095 193.624 790.994 193.624C790.49 193.624 790.06 193.68 789.706 193.792C789.37 193.886 789.006 194.026 788.614 194.212L788.306 194.016L788.95 185.532C789.155 185.57 789.388 185.598 789.65 185.616C789.93 185.635 790.2 185.644 790.462 185.644H794.102C794.792 185.644 795.24 185.551 795.446 185.364C795.67 185.159 795.81 184.814 795.866 184.328H796.426ZM803.893 178.756C805.181 178.756 806.217 179.158 807.001 179.96C807.785 180.763 808.177 181.883 808.177 183.32C808.177 184.254 807.99 185.075 807.617 185.784C807.244 186.494 806.73 187.044 806.077 187.436C805.442 187.828 804.714 188.024 803.893 188.024C802.605 188.024 801.56 187.623 800.757 186.82C799.973 186.018 799.581 184.898 799.581 183.46C799.581 182.527 799.768 181.706 800.141 180.996C800.533 180.287 801.046 179.736 801.681 179.344C802.334 178.952 803.072 178.756 803.893 178.756ZM813.917 191.692C813.226 191.692 812.713 192.047 812.377 192.756C812.041 193.466 811.873 194.502 811.873 195.864C811.873 197.227 812.069 198.254 812.461 198.944C812.853 199.616 813.376 199.952 814.029 199.952C814.72 199.952 815.224 199.598 815.541 198.888C815.877 198.179 816.045 197.152 816.045 195.808C816.045 194.427 815.858 193.4 815.485 192.728C815.112 192.038 814.589 191.692 813.917 191.692ZM813.973 191.188C815.261 191.188 816.297 191.59 817.081 192.392C817.865 193.195 818.257 194.315 818.257 195.752C818.257 196.686 818.07 197.507 817.697 198.216C817.324 198.926 816.81 199.476 816.157 199.868C815.522 200.26 814.794 200.456 813.973 200.456C812.685 200.456 811.64 200.055 810.837 199.252C810.053 198.45 809.661 197.33 809.661 195.892C809.661 194.959 809.848 194.138 810.221 193.428C810.613 192.719 811.126 192.168 811.761 191.776C812.414 191.384 813.152 191.188 813.973 191.188ZM803.837 179.26C803.146 179.26 802.633 179.615 802.297 180.324C801.961 181.034 801.793 182.07 801.793 183.432C801.793 184.795 801.989 185.822 802.381 186.512C802.773 187.184 803.296 187.52 803.949 187.52C804.64 187.52 805.144 187.166 805.461 186.456C805.797 185.747 805.965 184.72 805.965 183.376C805.965 181.995 805.778 180.968 805.405 180.296C805.032 179.606 804.509 179.26 803.837 179.26ZM817.025 176.992L817.557 177.356L801.177 201.604L800.645 201.24L817.025 176.992Z" fill="white"/>
<path d="M407.779 187.176V187.736C407.144 187.773 406.668 187.885 406.351 188.072C406.034 188.259 405.819 188.567 405.707 188.996C405.614 189.407 405.567 189.995 405.567 190.76V207.112C405.418 207.112 405.268 207.112 405.119 207.112C404.97 207.112 404.811 207.112 404.643 207.112L392.771 189.864V203.304C392.771 204.088 392.827 204.704 392.939 205.152C393.051 205.581 393.294 205.889 393.667 206.076C394.04 206.263 394.61 206.384 395.375 206.44V207C395.02 206.963 394.563 206.944 394.003 206.944C393.462 206.925 392.948 206.916 392.463 206.916C391.996 206.916 391.53 206.925 391.063 206.944C390.596 206.944 390.214 206.963 389.915 207V206.44C390.531 206.384 390.998 206.272 391.315 206.104C391.632 205.917 391.847 205.609 391.959 205.18C392.071 204.751 392.127 204.163 392.127 203.416V190.144C392.127 189.453 392.071 188.949 391.959 188.632C391.847 188.296 391.632 188.072 391.315 187.96C390.998 187.829 390.531 187.755 389.915 187.736V187.176C390.214 187.195 390.596 187.213 391.063 187.232C391.53 187.251 391.996 187.26 392.463 187.26C392.874 187.26 393.275 187.251 393.667 187.232C394.059 187.213 394.404 187.195 394.703 187.176L404.923 201.792V190.872C404.923 190.069 404.858 189.453 404.727 189.024C404.615 188.595 404.372 188.287 403.999 188.1C403.626 187.895 403.066 187.773 402.319 187.736V187.176C402.655 187.195 403.103 187.213 403.663 187.232C404.223 187.251 404.746 187.26 405.231 187.26C405.698 187.26 406.164 187.251 406.631 187.232C407.098 187.213 407.48 187.195 407.779 187.176ZM415.938 192.16C417.188 192.16 418.299 192.421 419.27 192.944C420.24 193.467 421.015 194.288 421.594 195.408C422.172 196.528 422.462 197.993 422.462 199.804C422.462 201.615 422.172 203.08 421.594 204.2C421.015 205.301 420.24 206.113 419.27 206.636C418.299 207.14 417.188 207.392 415.938 207.392C414.706 207.392 413.595 207.14 412.606 206.636C411.616 206.113 410.832 205.301 410.254 204.2C409.694 203.08 409.414 201.615 409.414 199.804C409.414 197.993 409.694 196.528 410.254 195.408C410.832 194.288 411.616 193.467 412.606 192.944C413.595 192.421 414.706 192.16 415.938 192.16ZM415.938 192.72C414.967 192.72 414.174 193.28 413.558 194.4C412.942 195.501 412.634 197.303 412.634 199.804C412.634 202.305 412.942 204.107 413.558 205.208C414.174 206.291 414.967 206.832 415.938 206.832C416.89 206.832 417.674 206.291 418.29 205.208C418.924 204.107 419.242 202.305 419.242 199.804C419.242 197.303 418.924 195.501 418.29 194.4C417.674 193.28 416.89 192.72 415.938 192.72Z" fill="#1D191A"/>
<path d="M951.684 201.24V201.8C951.05 201.838 950.574 201.95 950.256 202.136C949.939 202.323 949.724 202.631 949.612 203.06C949.519 203.471 949.472 204.059 949.472 204.824V221.176C949.323 221.176 949.174 221.176 949.024 221.176C948.875 221.176 948.716 221.176 948.548 221.176L936.676 203.928V217.368C936.676 218.152 936.732 218.768 936.844 219.216C936.956 219.646 937.199 219.954 937.572 220.14C937.946 220.327 938.515 220.448 939.28 220.504V221.064C938.926 221.027 938.468 221.008 937.908 221.008C937.367 220.99 936.854 220.98 936.368 220.98C935.902 220.98 935.435 220.99 934.968 221.008C934.502 221.008 934.119 221.027 933.82 221.064V220.504C934.436 220.448 934.903 220.336 935.22 220.168C935.538 219.982 935.752 219.674 935.864 219.244C935.976 218.815 936.032 218.227 936.032 217.48V204.208C936.032 203.518 935.976 203.014 935.864 202.696C935.752 202.36 935.538 202.136 935.22 202.024C934.903 201.894 934.436 201.819 933.82 201.8V201.24C934.119 201.259 934.502 201.278 934.968 201.296C935.435 201.315 935.902 201.324 936.368 201.324C936.779 201.324 937.18 201.315 937.572 201.296C937.964 201.278 938.31 201.259 938.608 201.24L948.828 215.856V204.936C948.828 204.134 948.763 203.518 948.632 203.088C948.52 202.659 948.278 202.351 947.904 202.164C947.531 201.959 946.971 201.838 946.224 201.8V201.24C946.56 201.259 947.008 201.278 947.568 201.296C948.128 201.315 948.651 201.324 949.136 201.324C949.603 201.324 950.07 201.315 950.536 201.296C951.003 201.278 951.386 201.259 951.684 201.24ZM959.843 206.224C961.094 206.224 962.204 206.486 963.175 207.008C964.146 207.531 964.92 208.352 965.499 209.472C966.078 210.592 966.367 212.058 966.367 213.868C966.367 215.679 966.078 217.144 965.499 218.264C964.92 219.366 964.146 220.178 963.175 220.7C962.204 221.204 961.094 221.456 959.843 221.456C958.611 221.456 957.5 221.204 956.511 220.7C955.522 220.178 954.738 219.366 954.159 218.264C953.599 217.144 953.319 215.679 953.319 213.868C953.319 212.058 953.599 210.592 954.159 209.472C954.738 208.352 955.522 207.531 956.511 207.008C957.5 206.486 958.611 206.224 959.843 206.224ZM959.843 206.784C958.872 206.784 958.079 207.344 957.463 208.464C956.847 209.566 956.539 211.367 956.539 213.868C956.539 216.37 956.847 218.171 957.463 219.272C958.079 220.355 958.872 220.896 959.843 220.896C960.795 220.896 961.579 220.355 962.195 219.272C962.83 218.171 963.147 216.37 963.147 213.868C963.147 211.367 962.83 209.566 962.195 208.464C961.579 207.344 960.795 206.784 959.843 206.784Z" fill="#1D191A"/>
<path d="M1490.42 201.176V201.736C1489.78 201.773 1489.3 201.885 1488.99 202.072C1488.67 202.259 1488.46 202.567 1488.34 202.996C1488.25 203.407 1488.2 203.995 1488.2 204.76V221.112C1488.05 221.112 1487.9 221.112 1487.76 221.112C1487.61 221.112 1487.45 221.112 1487.28 221.112L1475.41 203.864V217.304C1475.41 218.088 1475.46 218.704 1475.58 219.152C1475.69 219.581 1475.93 219.889 1476.3 220.076C1476.68 220.263 1477.25 220.384 1478.01 220.44V221C1477.66 220.963 1477.2 220.944 1476.64 220.944C1476.1 220.925 1475.58 220.916 1475.1 220.916C1474.63 220.916 1474.17 220.925 1473.7 220.944C1473.23 220.944 1472.85 220.963 1472.55 221V220.44C1473.17 220.384 1473.63 220.272 1473.95 220.104C1474.27 219.917 1474.48 219.609 1474.6 219.18C1474.71 218.751 1474.76 218.163 1474.76 217.416V204.144C1474.76 203.453 1474.71 202.949 1474.6 202.632C1474.48 202.296 1474.27 202.072 1473.95 201.96C1473.63 201.829 1473.17 201.755 1472.55 201.736V201.176C1472.85 201.195 1473.23 201.213 1473.7 201.232C1474.17 201.251 1474.63 201.26 1475.1 201.26C1475.51 201.26 1475.91 201.251 1476.3 201.232C1476.7 201.213 1477.04 201.195 1477.34 201.176L1487.56 215.792V204.872C1487.56 204.069 1487.49 203.453 1487.36 203.024C1487.25 202.595 1487.01 202.287 1486.64 202.1C1486.26 201.895 1485.7 201.773 1484.96 201.736V201.176C1485.29 201.195 1485.74 201.213 1486.3 201.232C1486.86 201.251 1487.38 201.26 1487.87 201.26C1488.33 201.26 1488.8 201.251 1489.27 201.232C1489.73 201.213 1490.12 201.195 1490.42 201.176ZM1498.57 206.16C1499.83 206.16 1500.94 206.421 1501.91 206.944C1502.88 207.467 1503.65 208.288 1504.23 209.408C1504.81 210.528 1505.1 211.993 1505.1 213.804C1505.1 215.615 1504.81 217.08 1504.23 218.2C1503.65 219.301 1502.88 220.113 1501.91 220.636C1500.94 221.14 1499.83 221.392 1498.57 221.392C1497.34 221.392 1496.23 221.14 1495.24 220.636C1494.25 220.113 1493.47 219.301 1492.89 218.2C1492.33 217.08 1492.05 215.615 1492.05 213.804C1492.05 211.993 1492.33 210.528 1492.89 209.408C1493.47 208.288 1494.25 207.467 1495.24 206.944C1496.23 206.421 1497.34 206.16 1498.57 206.16ZM1498.57 206.72C1497.6 206.72 1496.81 207.28 1496.19 208.4C1495.58 209.501 1495.27 211.303 1495.27 213.804C1495.27 216.305 1495.58 218.107 1496.19 219.208C1496.81 220.291 1497.6 220.832 1498.57 220.832C1499.53 220.832 1500.31 220.291 1500.93 219.208C1501.56 218.107 1501.88 216.305 1501.88 213.804C1501.88 211.303 1501.56 209.501 1500.93 208.4C1500.31 207.28 1499.53 206.72 1498.57 206.72Z" fill="#1D191A"/>
</svg>
