<svg width="525" height="504" viewBox="0 0 525 504" fill="none" xmlns="http://www.w3.org/2000/svg">
<path d="M63.5119 121.141L48.1953 192.205C55.0097 198.858 62.2329 205.138 73.8907 207.507L129.978 216.982L143.156 133.449L63.5119 121.141Z" fill="#FAFAFA"/>
<path d="M60.3146 116.757L44.998 187.821L70.6934 203.122L126.781 212.597L143.345 132.411L60.3146 116.757Z" fill="#F5F5F5"/>
<path d="M55.4504 184.031L44.9668 187.821C44.9668 187.821 48.7409 193.738 54.2448 196.893C59.2622 199.931 64.8329 202.028 70.6622 203.072C70.6622 203.072 58.4487 197.266 55.4504 184.031Z" fill="#E0E0E0"/>
<path d="M51.7807 132.008L90.1193 120.577L87.6766 112.815L48.709 123.712L51.7807 132.008Z" fill="#EBEBEB"/>
<path d="M149.981 151.583L125.124 121.272L118.478 126.252L143.02 157.319L149.981 151.583Z" fill="#EBEBEB"/>
<path d="M128.92 156.018C128.92 156.159 114.735 153.619 97.3009 150.343C79.8667 147.067 65.7557 144.295 65.7872 144.144C65.8186 143.993 79.9715 146.543 97.4058 149.819C114.84 153.095 128.951 155.877 128.92 156.018Z" fill="#E0E0E0"/>
<path d="M126.414 166.915C126.414 167.056 112.23 164.516 94.7953 161.23C77.361 157.944 63.2081 155.232 63.2815 155.04C63.3549 154.849 77.4659 157.44 94.9002 160.716C112.334 163.992 126.445 166.774 126.414 166.915Z" fill="#E0E0E0"/>
<path d="M124.789 176.682C124.789 176.823 110.604 174.283 93.1805 171.007C75.7568 167.731 61.6353 164.959 61.6563 164.808C61.6772 164.657 75.8406 167.207 93.2854 170.493C110.73 173.779 124.82 176.541 124.789 176.682Z" fill="#E0E0E0"/>
<path d="M122.829 186.016C122.829 186.157 108.644 183.617 91.2101 180.331C73.7759 177.045 59.6649 174.283 59.6963 174.142C59.7278 174.001 73.8807 176.541 91.315 179.817C108.749 183.093 122.85 185.875 122.829 186.016Z" fill="#E0E0E0"/>
<path d="M422.409 88.462L402.584 134.921C396.011 136.201 389.333 137.118 381.691 134.145L345.7 118.712L371.773 65.8828L422.409 88.462Z" fill="#FAFAFA"/>
<path d="M426.005 87.1315L406.191 133.6L385.286 132.814L349.296 117.382L372.077 65.2175L426.005 87.1315Z" fill="#F5F5F5"/>
<path d="M401.714 127.532L406.19 133.58C403.351 134.761 400.289 135.368 397.196 135.364C393.093 135.235 389.052 134.363 385.286 132.794C385.286 132.794 394.669 134.064 401.714 127.532Z" fill="#E0E0E0"/>
<path d="M424.758 99.056L407.365 78.2408L411.894 74.6926L429.863 95.4373L424.758 99.056Z" fill="#EBEBEB"/>
<path d="M360.556 73.7552L387.006 65.6106L388.82 70.9429L362.233 79.6319L360.556 73.7552Z" fill="#EBEBEB"/>
<path d="M370.851 84.1277C370.903 83.9967 380.129 87.6255 391.451 92.1917C402.774 96.7579 411.905 100.639 411.842 100.77C411.779 100.901 402.564 97.2821 391.242 92.7058C379.919 88.1295 370.788 84.2587 370.851 84.1277Z" fill="#E0E0E0"/>
<path d="M367.905 91.3145C367.957 91.1734 377.183 94.8022 388.505 99.3785C399.827 103.955 408.948 107.826 408.896 107.957C408.843 108.088 399.607 104.469 388.295 99.8926C376.983 95.3163 367.842 91.4456 367.905 91.3145Z" fill="#E0E0E0"/>
<path d="M364.896 97.524C364.959 97.3829 374.184 101.012 385.496 105.588C396.808 110.164 405.95 114.035 405.887 114.166C405.824 114.297 396.609 110.678 385.286 106.102C373.964 101.526 364.843 97.655 364.896 97.524Z" fill="#E0E0E0"/>
<path d="M362.275 103.602C362.327 103.471 371.553 107.1 382.875 111.666C394.197 116.232 403.318 120.113 403.266 120.244C403.213 120.375 393.977 116.756 382.655 112.18C371.333 107.604 362.212 103.733 362.275 103.602Z" fill="#E0E0E0"/>
<path d="M400.855 286.463C384.794 273.884 382.582 252.494 384.72 233.564C385.077 230.398 384.972 227.042 386.754 224.371C388.536 221.699 392.342 220.066 395.141 221.609C397.5 222.889 398.36 225.701 399.555 228.06C401.149 231.211 403.639 233.864 406.736 235.711C408.749 236.91 411.296 237.727 413.456 236.779C416.412 235.479 417.041 231.739 417.262 228.574C417.681 222.701 418.097 216.824 418.509 210.944C418.556 207.781 419.133 204.647 420.218 201.66C421.465 198.737 423.929 196.126 427.116 195.501C430.303 194.877 434.014 196.893 434.455 200.027C434.473 201.337 434.403 202.647 434.245 203.949C434.245 205.269 434.748 206.761 436.017 207.214C437.285 207.668 438.68 206.882 439.728 206.025C443.355 203.092 445.966 199.15 448.429 195.229C450.893 191.308 453.294 187.286 456.628 184.03C459.961 180.775 464.417 178.335 469.135 178.406C473.852 178.476 478.633 181.631 479.471 186.147C480.31 190.663 477.28 194.987 474.072 198.374C469.309 203.399 463.815 207.735 457.76 211.246C456.598 211.763 455.637 212.621 455.013 213.696C454.143 215.712 456.061 217.98 458.158 218.827C460.548 219.784 463.211 219.734 465.748 220.197C468.285 220.661 470.99 221.951 471.755 224.34C472.804 227.657 469.785 230.842 466.86 232.848C460.998 236.888 454.454 239.923 447.517 241.819C445.043 242.505 442.443 243.059 440.378 244.551C438.313 246.043 436.918 248.794 437.914 251.093C438.91 253.391 441.888 254.328 444.446 254.056C447.004 253.784 449.362 252.625 451.837 251.929C456.47 250.609 462.257 251.325 464.857 255.276C466.566 257.866 466.461 261.324 465.277 264.166C463.954 266.978 462.062 269.507 459.71 271.605C451.935 279.336 442.168 284.946 431.404 287.864C420.69 290.606 410.94 290.889 400.834 286.463" fill="#F5F5F5"/>
<path d="M399.513 300.515C401.097 291.78 403.555 283.213 406.851 274.932C410.922 264.827 415.595 254.956 420.847 245.367L424.935 237.797C426.277 235.318 427.609 232.848 429.077 230.519C431.888 226.053 434.954 221.739 438.26 217.597C441.405 213.625 444.55 209.966 447.454 206.509C450.358 203.051 453.22 199.997 455.915 197.255C460.137 192.918 464.712 188.91 469.596 185.27C471.326 183.98 472.741 183.023 473.632 182.387L474.68 181.662C474.798 181.576 474.924 181.501 475.058 181.44C474.949 181.538 474.834 181.629 474.712 181.712L473.663 182.478C472.751 183.143 471.399 184.131 469.701 185.452C464.884 189.149 460.367 193.193 456.187 197.548C453.514 200.29 450.725 203.414 447.8 206.821C444.875 210.228 441.772 213.877 438.659 217.909C435.378 222.045 432.334 226.349 429.538 230.802C428.091 233.12 426.77 235.559 425.418 238.049C424.065 240.539 422.723 243.089 421.34 245.609C416.098 255.181 411.419 265.028 407.323 275.103C404.014 283.347 401.518 291.872 399.869 300.565" fill="#E0E0E0"/>
<path d="M429.265 230.509C429.142 230.065 429.071 229.608 429.055 229.149C428.951 228.261 428.835 226.981 428.731 225.399C428.51 222.224 428.353 217.839 428.206 213C428.06 208.162 427.85 203.787 427.577 200.622C427.451 199.05 427.326 197.769 427.231 196.882C427.156 196.426 427.131 195.963 427.158 195.501C427.31 195.94 427.412 196.393 427.462 196.852C427.63 197.729 427.818 199.009 428.007 200.582C428.385 203.747 428.668 208.132 428.814 212.98C428.961 217.829 429.066 222.052 429.16 225.379C429.16 226.86 429.255 228.12 429.286 229.128C429.336 229.588 429.329 230.051 429.265 230.509Z" fill="#E0E0E0"/>
<path d="M471.986 225.943C471.424 226.023 470.856 226.05 470.288 226.024C469.24 226.024 467.625 226.024 465.686 226.125C461.796 226.256 456.429 226.608 450.526 227.243C444.624 227.878 439.298 228.705 435.472 229.39C433.553 229.723 432.012 230.036 430.943 230.247C430.395 230.389 429.833 230.477 429.266 230.509C429.79 230.296 430.334 230.131 430.891 230.015C431.939 229.743 433.48 229.37 435.388 229.007C439.204 228.211 444.53 227.334 450.453 226.679C455.507 226.117 460.588 225.801 465.675 225.731C467.625 225.731 469.208 225.731 470.299 225.812C470.864 225.806 471.429 225.85 471.986 225.943Z" fill="#E0E0E0"/>
<path d="M407.438 274.226C407.339 274.064 407.258 273.891 407.197 273.712L406.589 272.19C406.065 270.87 405.362 268.944 404.492 266.545C402.815 261.767 400.718 255.084 398.506 247.686C396.294 240.287 394.312 233.574 392.698 228.776C391.933 226.437 391.293 224.512 390.821 223.08C390.622 222.455 390.454 221.941 390.329 221.528C390.254 221.351 390.208 221.164 390.192 220.974C390.296 221.136 390.38 221.308 390.444 221.488L391.042 223C391.566 224.32 392.268 226.245 393.138 228.645C394.816 233.433 396.912 240.105 399.124 247.514C401.337 254.923 403.318 261.626 404.932 266.424C405.698 268.763 406.337 270.688 406.809 272.109L407.312 273.672C407.383 273.849 407.426 274.036 407.438 274.226Z" fill="#E0E0E0"/>
<path d="M464.731 260.86C464.548 260.943 464.354 261.004 464.155 261.042L462.488 261.455L456.345 262.897C451.166 264.116 444.026 265.87 436.143 267.826C428.259 269.781 421.088 271.485 415.878 272.593C413.267 273.158 411.16 273.601 409.692 273.853L408.005 274.156C407.806 274.203 407.601 274.226 407.396 274.226C407.58 274.144 407.774 274.083 407.973 274.045L409.64 273.632L415.783 272.19C420.962 270.981 428.102 269.217 435.996 267.261C443.89 265.306 451.103 263.602 456.345 262.483C458.955 261.929 461.062 261.475 462.53 261.233L464.228 260.931C464.393 260.891 464.562 260.867 464.731 260.86Z" fill="#E0E0E0"/>
<path d="M488.582 462.521C488.582 462.672 389.386 462.783 267.063 462.783C144.74 462.783 45.5225 462.672 45.5225 462.521C45.5225 462.37 144.687 462.259 267.063 462.259C389.438 462.259 488.582 462.38 488.582 462.521Z" fill="#1D191A"/>
<path d="M179.336 78.4124L204.633 152.561C214.676 155.252 224.908 157.389 237.132 153.569L294.708 133.54L260.479 48.8679L179.336 78.4124Z" fill="#E0E0E0"/>
<path d="M173.916 75.973L199.213 150.111L231.681 151.16L289.257 131.121L260.05 47.8296L173.916 75.973Z" fill="#0157FF"/>
<path d="M206.834 141.201L199.202 150.111C199.202 150.111 206.017 153.69 212.925 153.841C219.294 154.107 225.658 153.21 231.68 151.2C231.68 151.2 217.003 151.996 206.834 141.201Z" fill="#0157FF"/>
<path opacity="0.3" d="M206.834 141.201C204.517 145.706 202.169 150.998 199.202 150.111C199.202 150.111 206.017 153.69 212.925 153.841C219.294 154.107 225.658 153.21 231.68 151.2C231.68 151.2 217.003 151.996 206.834 141.201Z" fill="#1D191A"/>
<path d="M174.461 94.5807L203.836 64.1996L197.242 58.2222L166.976 88.4319L174.461 94.5807Z" fill="#E0E0E0"/>
<path d="M276.907 62.2945L236.87 46.8318L233.432 54.8958L273.615 71.2254L276.907 62.2945Z" fill="#E0E0E0"/>
<path d="M259.745 77.2734C259.745 77.4044 245.173 82.3134 227.099 88.2303C209.026 94.1473 194.317 98.8345 194.254 98.6934C194.191 98.5522 208.816 93.6534 226.9 87.7364C244.984 81.8194 259.693 77.1322 259.745 77.2734Z" fill="#1D191A"/>
<path d="M263.446 88.7042C263.446 88.8453 248.874 93.7442 230.8 99.6712C212.726 105.598 198.018 110.265 197.976 110.134C197.934 110.003 212.537 105.094 230.622 99.1672C248.706 93.2402 263.446 88.5832 263.446 88.7042Z" fill="#1D191A"/>
<path d="M267.398 98.6633C267.398 98.7943 252.836 103.703 234.752 109.62C216.668 115.537 201.98 120.224 201.928 120.083C201.875 119.942 216.5 115.043 234.584 109.126C252.669 103.209 267.356 98.5221 267.398 98.6633Z" fill="#1D191A"/>
<path d="M270.785 108.37C270.785 108.511 256.213 113.41 238.139 119.337C220.065 125.264 205.367 129.931 205.315 129.8C205.262 129.669 219.876 124.76 237.961 118.833C256.045 112.906 270.711 108.239 270.785 108.37Z" fill="#1D191A"/>
<path d="M309.574 320.736L304.5 366.096C304.5 366.096 294.614 351.732 287.926 358.132C281.552 364.241 270.292 408.784 270.292 408.784C270.292 408.784 270.145 423.31 278.176 427.15C303.934 439.488 332.638 416.304 332.638 416.304L328.539 286.474C317.86 295.116 311.066 307.391 309.574 320.736Z" fill="#0157FF"/>
<path d="M396.473 289.205L351.907 285.788C351.634 280.748 352.001 261.425 352.001 261.425C352.001 261.425 333.456 258.653 333.235 240.831C333.015 223.01 336.213 182.065 336.213 182.065C346.753 177.708 358.311 176.137 369.694 177.514C381.077 178.891 391.871 183.166 400.96 189.897L403.706 191.913L396.473 289.205Z" fill="#B78876"/>
<path d="M351.97 261.173C360.531 261.328 368.947 259.03 376.145 254.57C376.145 254.57 370.431 267.392 351.928 265.789L351.97 261.173Z" fill="#AA6550"/>
<path d="M401.431 210.39C401.746 210.259 414.169 206.771 413.76 218.958C413.351 231.144 400.719 228.241 400.708 227.889C400.698 227.536 401.431 210.39 401.431 210.39Z" fill="#B78876"/>
<path d="M404.723 223.393C404.786 223.393 404.943 223.544 405.31 223.725C405.827 223.958 406.418 223.987 406.956 223.806C408.319 223.373 409.514 221.367 409.65 219.169C409.706 218.137 409.527 217.105 409.126 216.145C409.022 215.76 408.821 215.405 408.542 215.112C408.262 214.819 407.912 214.595 407.522 214.462C407.271 214.388 407 214.401 406.758 214.501C406.516 214.601 406.319 214.78 406.201 215.006C406.023 215.339 406.086 215.581 406.023 215.601C405.96 215.621 405.761 215.389 405.876 214.885C405.963 214.589 406.147 214.327 406.401 214.139C406.758 213.902 407.197 213.805 407.627 213.867C408.151 213.989 408.633 214.239 409.028 214.592C409.423 214.945 409.717 215.39 409.881 215.883C410.378 216.956 410.601 218.128 410.531 219.3C410.363 221.75 408.98 224.008 407.134 224.461C406.791 224.548 406.431 224.559 406.082 224.492C405.733 224.426 405.405 224.284 405.122 224.078C404.744 223.685 404.681 223.413 404.723 223.393Z" fill="#AA6550"/>
<path d="M340.302 209.664C340.296 210.328 340.56 210.969 341.038 211.449C341.515 211.929 342.169 212.211 342.86 212.234C343.197 212.26 343.536 212.221 343.857 212.119C344.178 212.017 344.474 211.854 344.728 211.639C344.982 211.425 345.189 211.164 345.336 210.871C345.484 210.579 345.568 210.261 345.586 209.936C345.592 209.273 345.329 208.634 344.853 208.155C344.378 207.675 343.727 207.392 343.038 207.366C342.701 207.341 342.362 207.381 342.041 207.484C341.72 207.586 341.424 207.749 341.169 207.963C340.914 208.177 340.706 208.438 340.558 208.73C340.409 209.022 340.322 209.339 340.302 209.664Z" fill="#1D191A"/>
<path d="M339.725 207.144C340.05 207.477 342.063 206.045 344.904 206.055C347.745 206.065 349.842 207.436 350.146 207.063C350.292 206.912 349.957 206.307 349.097 205.672C347.865 204.854 346.401 204.421 344.904 204.432C343.421 204.427 341.974 204.875 340.773 205.713C339.861 206.398 339.568 206.993 339.725 207.144Z" fill="#1D191A"/>
<path d="M368.209 210.672C368.203 211.335 368.466 211.974 368.941 212.453C369.417 212.933 370.068 213.216 370.757 213.242C371.094 213.267 371.433 213.227 371.754 213.124C372.075 213.022 372.371 212.859 372.626 212.645C372.88 212.431 373.088 212.17 373.237 211.878C373.386 211.586 373.473 211.269 373.493 210.944C373.496 210.28 373.231 209.642 372.754 209.162C372.277 208.682 371.625 208.4 370.935 208.374C370.598 208.349 370.26 208.389 369.939 208.492C369.619 208.595 369.323 208.758 369.07 208.972C368.816 209.186 368.609 209.447 368.461 209.739C368.313 210.03 368.228 210.348 368.209 210.672Z" fill="#1D191A"/>
<path d="M367.727 207.648C368.062 207.98 370.065 206.549 372.916 206.559C375.768 206.569 377.854 207.94 378.158 207.567C378.315 207.426 377.98 206.821 377.11 206.186C375.877 205.368 374.414 204.932 372.916 204.936C371.434 204.934 369.988 205.382 368.786 206.216C367.874 206.912 367.57 207.507 367.727 207.648Z" fill="#1D191A"/>
<path d="M357.39 227.969C357.39 227.818 355.629 227.526 352.767 227.173C352.033 227.102 351.352 226.961 351.226 226.477C351.168 225.758 351.336 225.038 351.708 224.411C352.407 222.717 353.123 220.94 353.857 219.079C356.855 211.498 359.015 205.259 358.69 205.148C358.365 205.037 355.692 211.095 352.704 218.675C351.991 220.54 351.299 222.324 350.607 224.038C350.143 224.879 350.009 225.852 350.23 226.78C350.334 227.025 350.497 227.244 350.704 227.419C350.911 227.594 351.158 227.72 351.425 227.788C351.828 227.898 352.244 227.955 352.662 227.959C355.587 228.12 357.38 228.13 357.39 227.969Z" fill="#1D191A"/>
<path d="M366.993 196.923C367.276 197.669 370.138 197.316 373.462 197.699C376.785 198.082 379.511 198.959 379.951 198.294C380.15 197.971 379.678 197.286 378.588 196.55C377.13 195.676 375.484 195.132 373.776 194.957C372.067 194.783 370.34 194.983 368.723 195.542C367.496 195.985 366.878 196.56 366.993 196.923Z" fill="#1D191A"/>
<path d="M340.773 199.221C341.276 199.836 343.237 199.221 345.596 199.16C347.954 199.1 349.957 199.584 350.418 198.929C350.617 198.616 350.303 197.991 349.433 197.406C348.262 196.697 346.897 196.338 345.513 196.378C344.13 196.417 342.789 196.853 341.664 197.628C340.826 198.273 340.553 198.908 340.773 199.221Z" fill="#1D191A"/>
<path d="M327.187 170.816C327.055 169.709 327.218 168.588 327.66 167.559C328.102 166.529 328.808 165.624 329.713 164.929C330.648 164.276 331.793 163.963 332.945 164.046C334.097 164.129 335.181 164.602 336.003 165.382C335.829 164.638 335.819 163.867 335.975 163.119C336.131 162.371 336.448 161.662 336.907 161.04C337.365 160.417 337.955 159.894 338.637 159.505C339.32 159.116 340.08 158.869 340.868 158.78C343.898 158.599 346.477 160.796 349.391 161.562C352.305 162.328 355.304 161.663 358.05 160.605C360.797 159.546 363.355 158.074 366.133 157.097C372.003 155.036 378.482 155.285 384.161 157.792C389.841 160.299 394.261 164.86 396.463 170.483C400.52 169.263 405.122 171.249 407.628 174.515C410.133 177.781 410.773 182.156 410.269 186.208C409.879 188.942 409.176 191.626 408.173 194.211C408.173 194.443 408.173 194.665 408.173 194.897C407.974 204.694 406.82 216.206 402.47 216.276C394.89 216.387 396.704 202.648 396.704 202.648C387.394 199.201 390.864 185.794 388.537 183.758C386.21 181.722 381.345 177.005 361.867 186.571C354.297 190.29 344.244 190.179 338.75 188.98L338.268 188.879H338.153C338.099 188.861 338.047 188.841 337.995 188.818C336.229 188.401 334.542 187.721 332.995 186.802C331.172 185.792 329.733 184.249 328.885 182.397C328.477 181.471 328.359 180.45 328.545 179.46C328.731 178.47 329.214 177.554 329.933 176.823C328.427 175.122 327.472 173.033 327.187 170.816Z" fill="#1D191A"/>
<path d="M432.935 401.073L434.33 426.384L437.475 462.672H318.349L323.528 408.986L313.38 324.163C314.261 294.185 326.233 281.726 350.723 278.863L348.794 279.095C352.169 278.712 348.794 279.095 350.723 278.863C366.187 283.56 382.781 283.56 398.245 278.863C405.583 279.165 411.674 281.333 417.923 282.492C437.6 286.111 453.798 300.727 457.76 313.458C461 323.931 484.431 414.772 484.431 414.772H437.789L432.935 401.073Z" fill="#0157FF"/>
<path d="M354.968 236.396C355.365 237.504 355.923 238.553 356.624 239.511C356.979 239.989 357.436 240.389 357.963 240.684C358.491 240.98 359.078 241.164 359.686 241.224C360.334 241.222 360.972 241.064 361.542 240.765C362.111 240.466 362.594 240.035 362.946 239.511C363.638 238.445 363.957 237.195 363.858 235.943C363.858 234.814 363.271 233.473 362.107 233.342C361.618 233.324 361.131 233.424 360.692 233.634L354.58 236.023" fill="#AA6550"/>
<path d="M357.411 241.235C358.516 241.306 359.626 241.176 360.682 240.851C361.75 240.447 362.627 239.679 363.145 238.694C363.438 238.095 363.595 237.443 363.608 236.782C363.621 236.12 363.488 235.463 363.219 234.854C363.082 234.539 362.906 234.241 362.694 233.967C362.443 233.725 362.495 233.735 362.233 233.775C361.897 233.881 361.568 234.005 361.248 234.148L360.199 234.541C358.889 235.045 357.704 235.489 356.708 235.852C354.706 236.567 353.437 236.95 353.374 236.86C353.312 236.769 354.475 236.104 356.404 235.207C357.369 234.763 358.501 234.199 359.811 233.685L360.797 233.261C361.162 233.095 361.537 232.947 361.919 232.818C362.211 232.723 362.528 232.723 362.82 232.818C363.09 232.925 363.322 233.103 363.491 233.332C363.773 233.669 364.006 234.042 364.183 234.441C364.516 235.19 364.672 236.001 364.639 236.815C364.606 237.629 364.386 238.426 363.994 239.148C363.664 239.731 363.215 240.244 362.675 240.658C362.135 241.072 361.514 241.377 360.849 241.557C359.992 241.827 359.074 241.862 358.197 241.658C357.673 241.497 357.39 241.295 357.411 241.235Z" fill="#1D191A"/>
<path d="M313.18 396.013L285.126 313.196L282.589 299.295C282.589 299.295 274.957 268.289 274.611 265.225C274.223 261.677 272.346 261.011 271.004 261.193C268.908 261.556 267.681 264.217 267.922 267.241C268.006 268.249 270.019 284.881 270.019 284.881C268.839 283.418 267.553 282.037 266.171 280.748C263.267 277.905 257.072 276.716 250.939 277.573C244.806 278.43 243.16 279.155 243.391 281.464C243.454 281.897 243.618 282.312 243.87 282.676C244.122 283.041 244.456 283.347 244.848 283.57C246.079 284.367 247.572 284.697 249.041 284.498C258.885 283.298 262.104 288.096 262.104 288.096L262.439 289.911C262.439 289.911 255.981 286.423 251.411 288.651C250.733 288.98 250.128 289.432 249.628 289.981C248.285 290.127 247.004 290.607 245.913 291.376C244.822 292.144 243.959 293.173 243.409 294.36C242.859 295.548 242.641 296.854 242.778 298.147C242.915 299.441 243.4 300.677 244.187 301.735C244.942 302.743 246.284 303.65 247.49 303.277C248.13 303.014 248.692 302.601 249.125 302.077C249.371 301.816 249.641 301.576 249.932 301.362L251.599 306.331C251.599 306.331 255.981 317.308 257.323 322.288L270.952 405.68C271.403 408.426 272.418 411.059 273.937 413.424C275.457 415.789 277.452 417.84 279.804 419.457C282.157 421.073 284.821 422.223 287.641 422.84C290.46 423.456 293.38 423.527 296.228 423.047C299.292 422.529 302.205 421.385 304.77 419.693C307.336 418.001 309.494 415.8 311.101 413.238C312.707 410.676 313.724 407.814 314.082 404.842C314.441 401.871 314.133 398.86 313.18 396.013Z" fill="#B78876"/>
<path d="M282.16 312.349C280.409 313.014 278.406 311.926 277.253 310.494C276.1 309.063 275.502 307.279 274.465 305.767C271.319 301.231 264.882 299.588 262.01 294.921C261.601 294.265 261.318 293.348 261.895 292.834C262.471 292.32 263.289 292.602 263.991 292.834L281.226 299.799" fill="#B78876"/>
<path d="M281.195 299.84C280.644 299.456 280.045 299.141 279.413 298.902C278.238 298.358 276.519 297.612 274.391 296.695L266.906 293.55L264.725 292.652C263.904 292.158 262.913 291.995 261.968 292.199C261.679 292.323 261.437 292.528 261.272 292.787C261.107 293.046 261.028 293.347 261.045 293.65C261.073 294.146 261.22 294.63 261.475 295.062C261.945 295.823 262.5 296.533 263.131 297.178C265.7 299.759 268.803 301.21 271.13 303.055C272.256 303.878 273.246 304.86 274.066 305.968C274.81 306.976 275.324 308.135 275.911 309.123C276.303 309.966 276.881 310.716 277.605 311.322C278.329 311.928 279.182 312.374 280.104 312.631C281.488 312.883 282.201 312.369 282.138 312.349C281.494 312.43 280.84 312.396 280.209 312.248C279.384 311.945 278.634 311.48 278.006 310.883C277.378 310.286 276.886 309.57 276.561 308.78C276.026 307.772 275.513 306.654 274.779 305.494C273.939 304.293 272.91 303.226 271.728 302.329C269.338 300.384 266.256 298.872 263.897 296.473C263.321 295.894 262.815 295.255 262.387 294.568C261.999 293.923 261.968 293.227 262.387 293.116C262.806 293.005 263.603 293.247 264.337 293.55L266.518 294.416L274.097 297.37C276.267 298.186 278.029 298.842 279.245 299.275C279.864 299.549 280.521 299.739 281.195 299.84Z" fill="#AA6550"/>
<path d="M262.67 290.052C262.435 288.925 261.925 287.868 261.182 286.967C260.33 286.053 259.194 285.427 257.942 285.183C256.381 284.893 254.782 284.838 253.204 285.022C251.572 285.212 249.925 285.242 248.287 285.113C246.91 284.987 245.591 284.518 244.46 283.752C244.08 283.475 243.77 283.119 243.554 282.711C243.338 282.302 243.221 281.852 243.213 281.393C243.19 281.066 243.27 280.739 243.443 280.456C243.506 280.456 243.443 280.799 243.443 281.383C243.491 281.789 243.629 282.179 243.85 282.528C244.071 282.876 244.369 283.173 244.722 283.399C245.804 284.058 247.041 284.446 248.318 284.528C249.917 284.62 251.521 284.569 253.109 284.377C254.761 284.19 256.434 284.272 258.058 284.619C259.421 284.918 260.639 285.649 261.517 286.695C262.09 287.397 262.472 288.225 262.628 289.104C262.726 289.412 262.74 289.738 262.67 290.052Z" fill="#AA6550"/>
<path d="M267.849 266.112C268.085 267.197 268.226 268.3 268.268 269.408C268.488 271.676 268.761 274.377 269.065 277.361C269.369 280.345 269.725 283.036 269.987 285.304C270.189 286.396 270.291 287.502 270.291 288.61C269.903 287.564 269.639 286.478 269.505 285.375C269.138 283.359 268.719 280.546 268.383 277.432C268.048 274.317 267.849 271.484 267.775 269.438C267.671 268.33 267.696 267.215 267.849 266.112Z" fill="#AA6550"/>
<path d="M259.19 294.195C258.831 294.144 258.479 294.052 258.141 293.923C257.712 293.757 257.249 293.685 256.787 293.711C256.325 293.737 255.875 293.861 255.468 294.074C255.222 294.236 255.025 294.457 254.896 294.715C254.767 294.973 254.712 295.26 254.734 295.545C254.771 296.268 254.905 296.983 255.133 297.672C255.434 298.536 255.393 299.477 255.017 300.313C254.763 300.748 254.405 301.119 253.974 301.396C253.542 301.673 253.048 301.848 252.533 301.906C252.026 301.956 251.514 301.906 251.027 301.761C250.541 301.615 250.09 301.377 249.702 301.059C248.982 300.493 248.449 299.736 248.172 298.882C247.82 297.491 247.682 296.058 247.763 294.628C247.781 293.662 247.976 292.707 248.339 291.806C248.456 291.463 248.666 291.157 248.947 290.919C248.947 290.919 248.78 291.261 248.591 291.927C248.345 292.824 248.232 293.751 248.255 294.679C248.243 296.039 248.419 297.395 248.78 298.711C249.014 299.464 249.501 300.123 250.165 300.584C250.828 301.045 251.631 301.283 252.449 301.261C252.854 301.213 253.243 301.077 253.585 300.862C253.926 300.647 254.212 300.359 254.42 300.021C254.724 299.323 254.758 298.543 254.514 297.824C254.296 297.078 254.18 296.309 254.168 295.535C254.161 295.167 254.254 294.803 254.437 294.479C254.621 294.156 254.89 293.884 255.217 293.691C255.682 293.462 256.198 293.342 256.721 293.342C257.244 293.342 257.76 293.462 258.225 293.691C258.886 293.953 259.253 294.154 259.19 294.195Z" fill="#AA6550"/>
<path d="M249.943 300.525C249.943 300.525 250.111 300.858 249.943 301.473C249.814 301.904 249.583 302.302 249.269 302.634C248.954 302.966 248.564 303.224 248.129 303.388C247.467 303.602 246.758 303.647 246.073 303.518C245.387 303.389 244.748 303.09 244.219 302.652C242.962 301.574 242.185 300.073 242.049 298.459C241.869 296.869 242.21 295.266 243.024 293.872C243.694 292.747 244.669 291.817 245.844 291.181C246.617 290.749 247.466 290.459 248.35 290.324C248.67 290.25 249.004 290.25 249.324 290.324C248.193 290.6 247.107 291.024 246.096 291.584C244.921 292.297 243.982 293.316 243.386 294.522C242.791 295.729 242.563 297.073 242.73 298.398C242.849 299.848 243.526 301.203 244.628 302.198C245.072 302.584 245.611 302.856 246.194 302.988C246.777 303.12 247.385 303.109 247.962 302.954C248.348 302.828 248.702 302.625 249 302.357C249.299 302.09 249.534 301.764 249.691 301.402C249.912 300.868 249.88 300.525 249.943 300.525Z" fill="#AA6550"/>
<path d="M263.079 310.393C263.598 310.18 264.173 310.128 264.725 310.242C266.166 310.386 267.514 310.994 268.552 311.966L267.996 312.188C267.986 311.433 268.032 310.678 268.132 309.93C268.646 305.555 270.785 302.521 270.91 302.632C271.036 302.743 269.306 305.797 268.814 310.01C268.722 310.733 268.67 311.46 268.656 312.188V312.944L268.111 312.409C267.172 311.511 265.981 310.894 264.683 310.635C263.687 310.464 263.079 310.464 263.079 310.393Z" fill="#AA6550"/>
<path d="M259.588 282.169C259.756 282.23 259.221 283.49 257.774 284.266C256.328 285.042 254.944 284.861 254.975 284.689C255.007 284.518 256.191 284.387 257.439 283.681C258.686 282.976 259.41 282.069 259.588 282.169Z" fill="#AA6550"/>
<path d="M335.405 282.159C335.405 282.159 335.017 282.562 334.357 283.339C333.31 284.432 332.485 285.704 331.925 287.088C331.758 287.559 331.666 288.052 331.652 288.55C331.653 289.081 331.79 289.604 332.051 290.072C332.766 291.107 333.833 291.869 335.07 292.229C338.172 293.165 341.412 293.604 344.662 293.529C346.466 293.529 348.415 293.63 350.407 293.741L353.458 294.084C354.506 294.195 355.555 294.467 356.603 294.648C361.154 295.542 365.447 297.378 369.184 300.031C371.22 301.492 372.991 303.266 374.425 305.283C374.786 305.81 375.118 306.356 375.421 306.916C375.725 307.51 375.935 308.085 376.187 308.67C376.654 309.862 377.005 311.094 377.235 312.349C378.29 317.632 377.42 323.103 374.771 327.842C372.035 332.545 367.64 336.152 362.38 338.012C359.908 338.904 357.302 339.401 354.664 339.484C352.148 339.498 349.64 339.206 347.199 338.617C344.948 338.06 342.656 337.666 340.343 337.438C338.206 337.24 336.053 337.606 334.116 338.496C332.336 339.415 330.753 340.65 329.451 342.135C328.14 343.546 327.029 345.028 325.928 346.429C323.758 349.242 321.452 351.721 318.768 353.022C317.538 353.655 316.169 354.001 314.773 354.03C313.608 354.043 312.45 353.837 311.366 353.425C310.502 353.094 309.71 352.612 309.028 352.003C308.539 351.546 308.141 351.006 307.854 350.411C307.609 349.928 307.484 349.396 307.487 348.859C307.561 348.859 307.582 349.413 308.053 350.32C308.364 350.865 308.768 351.356 309.249 351.772C309.918 352.322 310.685 352.752 311.513 353.042C312.646 353.444 313.856 353.605 315.06 353.513C316.264 353.42 317.433 353.077 318.485 352.507C321.001 351.227 323.192 348.818 325.31 345.996C326.358 344.585 327.49 343.073 328.822 341.601C330.167 340.007 331.819 338.676 333.686 337.68C335.763 336.699 338.079 336.281 340.385 336.47C342.749 336.69 345.093 337.078 347.399 337.629C349.758 338.19 352.181 338.465 354.611 338.446C357.121 338.347 359.598 337.864 361.95 337.015C366.962 335.225 371.15 331.781 373.765 327.297C376.292 322.771 377.128 317.548 376.134 312.5C375.892 311.3 375.541 310.123 375.086 308.982C374.834 308.418 374.625 307.833 374.362 307.329C374.088 306.801 373.78 306.289 373.44 305.797C372.086 303.869 370.415 302.167 368.492 300.757C364.876 298.165 360.72 296.357 356.31 295.455C355.261 295.263 354.213 294.991 353.238 294.88L350.24 294.507C348.269 294.376 346.382 294.295 344.547 294.235C341.219 294.262 337.909 293.755 334.755 292.733C333.442 292.295 332.325 291.438 331.589 290.304C331.3 289.758 331.16 289.152 331.18 288.54C331.209 287.998 331.326 287.464 331.526 286.957C332.14 285.541 333.05 284.261 334.2 283.197C334.549 282.799 334.955 282.449 335.405 282.159Z" fill="#FAFAFA"/>
<path d="M415.154 349.373C414.866 348.646 414.697 347.881 414.651 347.105C414.418 344.99 414.563 342.852 415.081 340.784C415.85 337.704 417.235 334.798 419.159 332.227C421.501 329.071 424.495 326.415 427.955 324.425C431.434 322.504 435.216 321.142 439.151 320.393C442.342 319.759 445.591 319.438 448.849 319.435C451.034 319.412 453.218 319.516 455.39 319.748C456.192 319.779 456.985 319.914 457.749 320.151C457.749 320.332 454.342 319.969 448.859 320.151C445.663 320.264 442.484 320.656 439.361 321.32C435.549 322.117 431.889 323.477 428.51 325.352C425.174 327.271 422.27 329.81 419.966 332.821C418.076 335.274 416.675 338.042 415.836 340.986C415.269 342.975 415.011 345.033 415.07 347.095C415.158 347.851 415.186 348.612 415.154 349.373Z" fill="#FAFAFA"/>
<path d="M472.438 366.912C472.118 367.558 471.701 368.156 471.201 368.686C469.952 370.206 468.547 371.601 467.007 372.849C464.711 374.719 462.17 376.292 459.448 377.526C452.735 380.63 445.142 381.513 437.852 380.036C434.901 379.459 432.042 378.51 429.35 377.214C427.538 376.357 425.82 375.327 424.223 374.139C423.604 373.742 423.053 373.256 422.588 372.698C422.714 372.536 425.104 374.542 429.685 376.548C435.63 379.202 442.226 380.207 448.733 379.452C455.239 378.697 461.397 376.211 466.514 372.274C470.446 369.26 472.27 366.761 472.438 366.912Z" fill="#FAFAFA"/>
<path d="M419.778 363.666C419.475 363.827 419.156 363.955 418.824 364.049C417.925 364.4 417.109 364.921 416.423 365.581C415.372 366.656 414.552 367.92 414.012 369.301C413.281 371.143 412.712 373.042 412.314 374.976C411.882 377.356 411.315 379.712 410.615 382.032C410.174 383.352 409.565 384.615 408.802 385.792C407.957 387.028 406.925 388.135 405.74 389.078C403.184 391.034 400.236 392.465 397.081 393.281C393.852 394.209 390.434 394.713 386.996 395.358C380.526 396.382 374.392 398.839 369.079 402.535C366.805 404.174 364.792 406.123 363.103 408.32C361.665 410.26 360.518 412.384 359.696 414.631C358.485 417.897 358.104 421.395 358.585 424.832C358.962 427.261 359.539 428.531 359.424 428.571C359.238 428.288 359.09 427.983 358.983 427.664C358.821 427.29 358.685 426.906 358.575 426.515C358.405 425.986 358.269 425.447 358.166 424.902C357.509 421.392 357.783 417.78 358.962 414.399C359.76 412.059 360.904 409.842 362.359 407.816C364.074 405.524 366.13 403.486 368.461 401.768C373.872 397.931 380.152 395.382 386.786 394.329C390.256 393.674 393.642 393.18 396.777 392.313C399.802 391.549 402.634 390.202 405.101 388.352C406.216 387.488 407.191 386.468 407.994 385.328C408.728 384.225 409.319 383.04 409.756 381.8C410.483 379.503 411.084 377.172 411.559 374.815C412.003 372.842 412.631 370.913 413.435 369.049C414.05 367.622 414.968 366.335 416.13 365.269C416.871 364.6 417.765 364.106 418.74 363.827C419.074 363.718 419.425 363.663 419.778 363.666Z" fill="#FAFAFA"/>
<path d="M391.692 359.463C392.054 360.095 392.242 360.807 392.237 361.529C392.341 363.515 391.751 365.478 390.56 367.103C389.757 368.251 388.678 369.195 387.415 369.855C386.702 370.229 385.935 370.498 385.14 370.651C384.296 370.802 383.435 370.836 382.582 370.752C380.749 370.56 379.007 369.884 377.55 368.797C375.949 367.634 374.804 365.986 374.3 364.12C373.979 362.904 373.961 361.633 374.247 360.41C374.557 359.249 375.13 358.168 375.925 357.245C376.604 356.37 377.373 355.563 378.221 354.836C378.629 354.474 379.075 354.153 379.552 353.878C380.043 353.563 380.61 353.373 381.198 353.324L381.334 354.221L380.821 354.342L380.558 353.475C382.465 352.955 384.498 353.061 386.335 353.778C387.736 354.294 388.987 355.127 389.983 356.207C390.621 356.887 391.125 357.672 391.472 358.525C391.692 359.12 391.744 359.453 391.703 359.463C391.133 358.417 390.429 357.445 389.606 356.57C388.613 355.627 387.413 354.911 386.094 354.473C384.408 353.884 382.568 353.838 380.852 354.342L380.59 353.475L381.104 353.334L381.25 354.241C380.351 354.448 379.535 354.904 378.902 355.552C378.129 356.256 377.427 357.029 376.805 357.86C376.078 358.682 375.569 359.663 375.324 360.717C375.08 361.771 375.106 362.866 375.4 363.908C375.852 365.545 376.85 366.993 378.242 368.031C379.542 369.007 381.092 369.63 382.729 369.835C383.486 369.92 384.251 369.903 385.003 369.785C385.71 369.66 386.395 369.439 387.037 369.129C388.202 368.555 389.211 367.727 389.983 366.71C391.15 365.23 391.806 363.436 391.86 361.579C391.828 360.219 391.587 359.493 391.692 359.463Z" fill="#FAFAFA"/>
<path d="M324.041 326.592C324.06 326.682 324.06 326.774 324.041 326.864C324.041 327.066 324.041 327.328 324.041 327.65C324.041 328.386 323.947 329.404 323.884 330.674C323.716 333.315 323.559 337.135 323.339 341.853C322.93 351.298 322.521 364.341 322.207 378.766C321.892 393.19 321.693 406.244 321.546 415.689C321.473 420.386 321.41 424.196 321.368 426.888C321.368 428.168 321.315 429.186 321.305 429.912C321.305 430.234 321.305 430.496 321.305 430.708C321.319 430.798 321.319 430.89 321.305 430.98C321.289 430.89 321.289 430.798 321.305 430.708C321.305 430.496 321.305 430.234 321.305 429.912C321.305 429.176 321.305 428.158 321.305 426.888V415.699C321.305 406.244 321.483 393.19 321.808 378.756C322.133 364.321 322.584 351.288 323.098 341.843C323.37 337.125 323.59 333.305 323.821 330.674C323.926 329.384 324.01 328.366 324.073 327.65C324.073 327.328 324.136 327.066 324.157 326.854C324.107 326.772 324.068 326.684 324.041 326.592Z" fill="#1D191A"/>
<g opacity="0.2">
<path d="M304.007 420.265C309.857 422.957 317.499 417.786 320.487 412.262C320.487 412.262 322.049 400.065 321.84 393.835C321.431 382.304 322.311 370.883 321.902 359.352C320.984 366.256 318.014 372.759 313.348 378.08C312.058 379.542 310.612 380.994 310.129 382.848C309.27 386.175 311.911 392.152 313.61 395.166C318.852 404.379 307.424 420.366 304.384 420.033" fill="#1D191A"/>
</g>
<g opacity="0.2">
<path d="M413.487 345.018C415.395 368 417.31 390.986 419.232 413.975C419.288 416.154 419.713 418.309 420.49 420.356C420.888 421.378 421.533 422.295 422.371 423.031C423.21 423.767 424.218 424.301 425.313 424.59C428.71 425.255 432.012 422.443 432.966 419.237C433.92 416.032 433.165 412.615 432.326 409.379C430.901 403.865 429.297 398.402 427.682 392.938C423.006 377.079 418.327 361.223 413.645 345.371" fill="#1D191A"/>
</g>
<path d="M347.776 462.742C348.5 461.608 349.041 460.374 349.38 459.083C349.967 456.594 349.6 452.743 347.588 448.58C346.602 446.493 345.208 444.326 343.803 441.947C342.197 439.422 341.002 436.675 340.26 433.803C339.633 430.543 339.886 427.184 340.993 424.045C342.042 420.799 343.562 417.644 344.788 414.338C347.25 408.157 347.435 401.352 345.313 395.055C344.399 392.329 343.059 389.753 341.339 387.415C339.821 385.383 338.042 383.544 336.045 381.941C333.121 379.625 329.786 377.835 326.201 376.659C323.653 375.843 322.165 375.651 322.186 375.53C322.538 375.511 322.891 375.541 323.234 375.621C324.267 375.765 325.287 375.984 326.285 376.276C329.992 377.307 333.456 379.018 336.485 381.316C338.577 382.92 340.442 384.781 342.031 386.85C343.838 389.246 345.252 391.895 346.225 394.702C348.472 401.2 348.309 408.246 345.763 414.641C344.505 418.007 342.975 421.142 341.968 424.297C340.894 427.268 340.627 430.453 341.193 433.551C341.882 436.341 343.014 439.013 344.547 441.474C345.9 443.863 347.273 446.06 348.248 448.227C350.219 452.551 350.492 456.573 349.737 459.134C349.457 460.113 349.022 461.044 348.447 461.896C348.059 462.5 347.808 462.763 347.776 462.742Z" fill="#FAFAFA"/>
<path d="M446.196 296.916C445.993 297.65 445.636 298.336 445.148 298.932C443.955 300.639 442.406 302.088 440.598 303.186C437.903 304.821 434.833 305.797 431.655 306.029C427.791 306.281 423.913 305.805 420.239 304.628C416.494 303.58 413.072 301.67 410.269 299.063C409.065 297.892 408.082 296.527 407.365 295.031C406.757 293.722 406.375 292.326 406.233 290.899C405.993 288.832 406.402 286.743 407.407 284.901C407.56 284.617 407.735 284.344 407.931 284.085C408.064 283.885 408.219 283.699 408.392 283.53C408.654 283.258 408.811 283.117 408.843 283.147C408.874 283.177 408.371 283.812 407.795 285.082C406.997 286.891 406.729 288.874 407.019 290.818C407.197 292.153 407.593 293.453 408.193 294.669C408.907 296.05 409.857 297.308 411.003 298.388C413.715 300.841 416.996 302.638 420.574 303.63C424.12 304.77 427.858 305.259 431.592 305.071C434.627 304.899 437.577 304.039 440.199 302.561C441.968 301.559 443.532 300.254 444.812 298.711C445.241 298.09 445.703 297.491 446.196 296.916Z" fill="#FAFAFA"/>
<path d="M431.844 405.347C431.844 405.347 431.792 405.256 431.729 405.065C431.666 404.873 431.572 404.571 431.456 404.218C431.226 403.442 430.89 402.353 430.46 400.962L426.896 388.937C423.919 378.746 419.83 364.745 415.364 349.222C413.121 341.46 410.992 334.102 409.074 327.338C408.105 324.157 407.359 320.918 406.841 317.641C406.401 314.77 406.401 311.853 406.841 308.982C407.466 304.785 409.559 300.917 412.775 298.015C413.669 297.263 414.659 296.623 415.72 296.11L416.57 295.767C416.661 295.719 416.76 295.685 416.863 295.667C415.428 296.314 414.097 297.156 412.911 298.166C409.803 301.077 407.802 304.908 407.229 309.043C406.827 311.878 406.859 314.754 407.323 317.58C407.855 320.834 408.612 324.05 409.588 327.207C411.538 333.94 413.687 341.319 415.941 349.08C420.396 364.594 424.432 378.635 427.357 388.836C428.794 393.876 429.947 398.019 430.764 400.932C431.142 402.333 431.446 403.442 431.656 404.228C431.75 404.581 431.823 404.863 431.876 405.085C431.876 405.173 431.866 405.261 431.844 405.347Z" fill="#1D191A"/>
<path d="M389.145 182.125C389.231 181.409 389.231 180.685 389.145 179.968C388.826 178.013 387.802 176.229 386.251 174.928C383.919 173.033 380.912 172.082 377.864 172.277C374.436 172.277 370.788 173.386 367.014 174.606C365.127 175.2 363.25 175.775 361.405 176.168C359.624 176.546 357.809 176.759 355.985 176.803C352.894 176.88 349.81 176.493 346.843 175.654C344.855 175.078 342.939 174.294 341.13 173.315C340.635 173.06 340.155 172.777 339.693 172.469C339.522 172.373 339.364 172.258 339.222 172.126C339.222 172.126 339.935 172.509 341.235 173.134C343.063 174.032 344.981 174.751 346.959 175.281C349.889 176.057 352.926 176.397 355.964 176.289C357.756 176.231 359.539 176.015 361.29 175.644C363.103 175.251 364.949 174.636 366.846 174.081C370.61 172.862 374.331 171.763 377.854 171.763C381.005 171.597 384.099 172.625 386.471 174.626C388.051 175.987 389.064 177.853 389.323 179.877C389.447 180.63 389.386 181.4 389.145 182.125Z" fill="#1D191A"/>
<path d="M403.571 212.255C403.571 212.255 403.466 212.134 403.319 211.882C403.172 211.63 402.983 211.247 402.742 210.743C402.097 209.319 401.606 207.837 401.275 206.317C400.772 204.053 400.609 201.731 400.792 199.423C401.143 196.627 401.697 193.858 402.449 191.137C403.178 188.454 403.178 185.635 402.449 182.952C402.1 181.802 401.496 180.739 400.677 179.837C399.947 179.077 399.032 178.502 398.014 178.164C396.531 177.623 394.886 177.663 393.433 178.275C392.927 178.545 392.453 178.866 392.018 179.232C392.348 178.749 392.803 178.357 393.338 178.093C394.078 177.74 394.885 177.533 395.71 177.484C396.534 177.436 397.361 177.547 398.14 177.811C399.233 178.15 400.22 178.746 401.013 179.545C401.889 180.484 402.543 181.595 402.931 182.801C403.693 185.569 403.693 188.48 402.931 191.248C402.184 193.948 401.62 196.692 401.243 199.463C401.045 201.726 401.165 204.004 401.6 206.237C401.895 207.745 402.327 209.226 402.889 210.662C403.34 211.68 403.612 212.234 403.571 212.255Z" fill="#1D191A"/>
<path d="M390.927 180.684C390.904 180.446 390.904 180.206 390.927 179.968C390.927 179.454 390.927 178.779 391.011 177.952C391.127 175.455 390.837 172.955 390.151 170.543C389.637 168.905 388.797 167.378 387.677 166.048C386.41 164.516 384.67 163.411 382.708 162.893C380.512 162.403 378.219 162.493 376.072 163.155C373.747 163.86 371.519 164.831 369.436 166.048C367.322 167.274 365.122 168.359 362.852 169.293C360.687 170.106 358.392 170.549 356.069 170.604C353.975 170.655 351.884 170.41 349.863 169.878C348.112 169.389 346.424 168.713 344.831 167.862C342.532 166.614 340.507 164.951 338.866 162.963C338.414 162.431 338.007 161.865 337.649 161.27C337.509 161.074 337.39 160.864 337.293 160.645C337.464 160.817 337.615 161.006 337.744 161.209C338.13 161.778 338.558 162.32 339.023 162.832C340.705 164.735 342.733 166.326 345.009 167.529C346.587 168.339 348.254 168.978 349.978 169.435C351.961 169.935 354.009 170.159 356.059 170.1C358.318 170.034 360.549 169.594 362.653 168.8C364.896 167.863 367.071 166.782 369.163 165.564C371.288 164.334 373.558 163.352 375.925 162.641C378.164 161.964 380.55 161.881 382.834 162.399C384.893 162.954 386.712 164.131 388.023 165.755C389.171 167.135 390.019 168.722 390.518 170.422C391.191 172.87 391.429 175.409 391.221 177.932C391.168 178.829 391.095 179.515 391.032 179.948C391.03 180.197 390.994 180.444 390.927 180.684Z" fill="#1D191A"/>
<path d="M363.24 432.734L441.668 421.495L440.41 414.782H482.554L483.781 425.104C484.68 429.59 484.542 434.211 483.378 438.64C482.214 443.07 480.052 447.199 477.044 450.736C474.037 454.273 470.258 457.131 465.974 459.108C461.691 461.085 457.008 462.133 452.257 462.178L360.818 461.17L363.24 432.734Z" fill="#B78876"/>
<path d="M368.901 434.035C368.482 434.166 363.198 431.888 358.47 429.781C353.45 427.537 347.938 426.5 342.409 426.757L320.613 427.825C320.613 427.825 321.955 431.283 324.272 432.513C326.589 433.742 340.134 434.004 340.134 434.004L339.432 434.69C336.579 437.517 332.687 439.157 328.592 439.256L326.495 439.307C324.949 439.189 323.423 438.901 321.945 438.45L316.567 436.363C314.942 435.658 313.222 435.768 312.51 437.371C311.87 438.792 312.342 440.758 316.787 442.905C319.261 444.105 328.466 447.169 328.466 447.169C328.525 448.425 328.704 449.674 329 450.899C329.399 452.189 333.016 453.469 333.016 453.469C333.954 455.384 335.025 457.237 336.224 459.013C336.643 459.466 339.924 460.444 343.405 461.392C349.026 462.912 354.981 462.866 360.577 461.261L368.891 458.882V434.559" fill="#B78876"/>
<path d="M339.075 449.921C335.234 449.824 331.47 448.871 328.077 447.138C328.14 446.997 330.52 447.884 333.55 448.64C336.579 449.396 339.095 449.769 339.075 449.921Z" fill="#AA6550"/>
<path d="M338.31 454.83C337.289 455.042 336.227 454.968 335.248 454.618C334.22 454.439 333.264 453.985 332.491 453.308C333.478 453.509 334.449 453.778 335.395 454.114C336.383 454.286 337.357 454.525 338.31 454.83Z" fill="#AA6550"/>
<path d="M462.352 439.075C462.247 439.075 461.734 437.613 460.476 435.405C459.738 434.114 458.897 432.881 457.96 431.716C456.812 430.293 455.539 428.967 454.154 427.755C452.748 426.563 451.24 425.487 449.646 424.539C448.342 423.769 446.978 423.095 445.568 422.523C443.146 421.566 441.542 421.223 441.574 421.122C441.962 421.152 442.346 421.227 442.716 421.344C443.157 421.427 443.591 421.538 444.016 421.676C444.52 421.828 445.065 421.979 445.715 422.221C447.168 422.748 448.571 423.395 449.908 424.156C451.546 425.097 453.09 426.18 454.521 427.392C455.925 428.624 457.213 429.973 458.368 431.424C459.296 432.624 460.113 433.898 460.811 435.234C461.136 435.788 461.346 436.333 461.566 436.796C461.75 437.189 461.908 437.593 462.038 438.006C462.188 438.348 462.294 438.707 462.352 439.075Z" fill="#AA6550"/>
<path d="M342.294 432.15C341.812 432.789 341.248 433.369 340.616 433.873C339.168 435.188 337.576 436.347 335.867 437.331C334.137 438.299 332.258 438.997 330.3 439.397C329.502 439.606 328.674 439.691 327.847 439.649C327.795 439.458 331.621 439.125 335.584 436.877C337.264 435.908 338.859 434.809 340.354 433.591C340.951 433.052 341.6 432.569 342.294 432.15Z" fill="#AA6550"/>
<path d="M116.759 408.24C118.626 408.24 102.481 449.951 98.3188 460.605C97.8575 461.785 97.543 462.823 97.543 462.823L210.577 463.005L209.246 361.872C209.251 361.805 209.251 361.737 209.246 361.67L199.811 289.336C199.764 288.986 199.611 288.656 199.371 288.389C199.13 288.122 198.813 287.929 198.458 287.834C193.982 286.675 177.848 282.673 165.508 282.23C151.051 281.716 130.126 284.478 130.126 284.478C130.126 284.478 111.329 286.272 100.95 289.901C100.549 290.038 100.21 290.305 99.9899 290.656C99.7701 291.007 99.6834 291.421 99.7445 291.826L116.759 408.24Z" fill="#0157FF"/>
<path d="M168.957 363.384C168.813 363.841 168.623 364.283 168.391 364.705C168.16 365.215 167.894 365.71 167.594 366.186C167.232 366.835 166.833 367.464 166.399 368.071C165.89 368.823 165.337 369.547 164.742 370.238C164.089 371.045 163.389 371.816 162.646 372.547C160.919 374.22 159.022 375.722 156.985 377.032C154.917 378.302 152.726 379.376 150.443 380.238C149.394 380.591 148.346 380.953 147.392 381.185C146.496 381.43 145.586 381.625 144.666 381.77C143.914 381.909 143.155 382.01 142.391 382.072C141.815 382.148 141.233 382.185 140.651 382.183C140.16 382.235 139.664 382.235 139.173 382.183C139.173 382.072 141.27 382.082 144.593 381.437C145.495 381.266 146.387 381.051 147.266 380.792C148.231 380.55 149.216 380.177 150.254 379.784C152.495 378.914 154.647 377.844 156.681 376.589C158.69 375.302 160.568 373.833 162.289 372.204C163.055 371.428 163.809 370.712 164.386 369.956C164.988 369.288 165.551 368.588 166.074 367.86C168.045 365.209 168.852 363.334 168.957 363.384Z" fill="#1D191A"/>
<g opacity="0.2">
<path d="M101.38 452.693C106.677 454.78 112.445 455.518 118.125 454.835C123.806 454.151 129.207 452.07 133.806 448.792C137.884 445.949 141.302 442.23 145.705 439.861C151.806 436.595 159.071 436.282 166.043 435.829C175.363 435.184 184.767 434.085 193.531 430.96C195.36 430.446 197.018 429.484 198.343 428.168C199.549 426.767 199.957 424.559 198.773 423.128C197.588 421.697 195.334 421.596 193.395 421.656C164.166 422.483 137.454 424.731 109.001 431.232" fill="#1D191A"/>
</g>
<path d="M132.883 178.174C141.92 169.324 156.177 164.062 167.982 169.102C175.929 172.449 181.317 179.615 188.289 184.565C193.363 188.173 199.632 190.966 202.295 196.469C204.643 201.318 203.511 206.973 202.945 212.295C202.379 217.617 202.777 223.756 207.065 227.173C209.308 228.957 212.307 229.673 214.812 231.064C219.918 233.876 222.948 239.35 224.038 244.904C225.128 250.458 224.541 256.183 223.954 261.818L199.622 266.273L195.627 259.812L194.254 269.942L163.201 272.634L132.883 178.174Z" fill="#1D191A"/>
<path d="M128.868 187.831V194.332L126.949 291.917C126.781 303.227 138.041 312.853 150.642 312.934C163.359 313.014 168.548 303.862 168.915 292.401C169.292 280.415 169.963 267.795 169.963 267.795C169.963 267.795 186.098 265.658 190.008 245.619C191.948 235.64 191.895 219.2 191.402 205.743C191.298 202.871 190.591 200.05 189.323 197.448C188.055 194.847 186.253 192.518 184.025 190.604C181.796 188.689 179.188 187.228 176.358 186.308C173.527 185.388 170.531 185.028 167.552 185.25L128.868 187.831Z" fill="#FFBE9D"/>
<path d="M185.784 218.676C185.773 219.349 185.488 219.991 184.99 220.464C184.492 220.937 183.821 221.203 183.121 221.206C182.778 221.223 182.436 221.175 182.113 221.063C181.79 220.951 181.494 220.778 181.242 220.555C180.99 220.331 180.787 220.061 180.645 219.761C180.503 219.461 180.425 219.136 180.416 218.807C180.43 218.134 180.715 217.492 181.212 217.018C181.709 216.544 182.379 216.274 183.079 216.266C183.422 216.249 183.766 216.298 184.089 216.41C184.412 216.522 184.709 216.696 184.961 216.921C185.214 217.146 185.416 217.417 185.558 217.718C185.699 218.019 185.776 218.345 185.784 218.676Z" fill="#1D191A"/>
<path d="M187.366 214.16C187.02 214.492 185.028 212.98 182.124 212.92C179.22 212.859 177.071 214.18 176.767 213.827C176.62 213.676 176.977 213.081 177.92 212.456C179.193 211.65 180.696 211.248 182.219 211.307C183.738 211.331 185.209 211.826 186.412 212.718C187.251 213.394 187.534 214.008 187.366 214.16Z" fill="#1D191A"/>
<path d="M157.289 218.676C157.275 219.348 156.989 219.988 156.492 220.461C155.994 220.933 155.325 221.201 154.626 221.206C154.283 221.223 153.94 221.175 153.618 221.063C153.295 220.951 152.999 220.778 152.747 220.555C152.495 220.331 152.292 220.061 152.15 219.761C152.008 219.461 151.93 219.136 151.921 218.807C151.934 218.134 152.22 217.492 152.717 217.018C153.214 216.544 153.884 216.274 154.584 216.266C154.927 216.249 155.271 216.298 155.594 216.41C155.917 216.522 156.214 216.696 156.466 216.921C156.718 217.146 156.921 217.417 157.062 217.718C157.204 218.019 157.281 218.345 157.289 218.676Z" fill="#1D191A"/>
<path d="M158.914 213.928C158.568 214.25 156.576 212.748 153.672 212.678C150.768 212.607 148.619 213.948 148.315 213.595C148.168 213.444 148.525 212.839 149.468 212.224C150.741 211.418 152.243 211.013 153.767 211.065C155.285 211.092 156.755 211.586 157.96 212.476C158.799 213.162 159.082 213.777 158.914 213.928Z" fill="#1D191A"/>
<path d="M168.821 234.864C168.821 234.703 170.624 234.451 173.539 234.168C174.283 234.118 174.985 233.997 175.122 233.513C175.207 232.782 175.057 232.043 174.692 231.396C174.052 229.653 173.371 227.838 172.658 225.923C169.848 218.151 167.835 211.811 168.16 211.65C168.485 211.488 171.033 217.768 173.843 225.55C174.524 227.465 175.174 229.29 175.782 231.044C176.228 231.909 176.336 232.9 176.086 233.836C175.972 234.084 175.801 234.305 175.584 234.479C175.368 234.654 175.113 234.779 174.838 234.844C174.427 234.942 174.004 234.986 173.58 234.975C170.645 235.025 168.831 234.985 168.821 234.864Z" fill="#1D191A"/>
<path d="M169.88 267.795C160.006 267.681 150.358 264.931 142.015 259.852C142.015 259.852 148.42 273.874 169.461 272.543L169.88 267.795Z" fill="#EB996E"/>
<path d="M167.405 241.497C166.875 240.812 166.173 240.267 165.364 239.915C164.556 239.562 163.667 239.413 162.782 239.481C162.142 239.52 161.517 239.683 160.944 239.961C160.372 240.238 159.863 240.623 159.448 241.093C159.05 241.547 158.806 242.107 158.748 242.698C158.69 243.289 158.821 243.882 159.123 244.4C159.578 244.908 160.179 245.275 160.851 245.455C161.523 245.634 162.235 245.618 162.897 245.408C164.273 244.977 165.548 244.292 166.651 243.392C166.986 243.179 167.274 242.905 167.5 242.585C167.602 242.436 167.657 242.26 167.657 242.081C167.657 241.902 167.602 241.727 167.5 241.577" fill="#EB996E"/>
<path d="M160.255 236.527C160.727 236.527 160.643 239.551 163.264 241.749C165.885 243.946 169.25 243.714 169.261 244.138C169.261 244.329 168.496 244.712 167.08 244.702C165.241 244.683 163.469 244.037 162.08 242.878C160.743 241.769 159.908 240.204 159.752 238.513C159.658 237.243 160.035 236.507 160.255 236.527Z" fill="#1D191A"/>
<path d="M159.837 205.833C159.522 206.579 156.692 206.146 153.243 206.448C149.794 206.751 147.068 207.567 146.638 206.882C146.449 206.549 146.942 205.874 148.074 205.148C149.578 204.292 151.264 203.775 153.006 203.637C154.747 203.499 156.499 203.743 158.128 204.352C159.355 204.866 159.963 205.481 159.837 205.833Z" fill="#1D191A"/>
<path d="M187.471 208.545C186.832 209.16 184.431 208.434 181.506 208.323C178.581 208.212 176.118 208.605 175.562 207.93C175.321 207.608 175.73 206.983 176.83 206.418C178.344 205.707 180.026 205.394 181.705 205.511C183.378 205.564 185.007 206.044 186.423 206.902C187.429 207.577 187.754 208.243 187.471 208.545Z" fill="#1D191A"/>
<path d="M107.24 288.056C107.24 288.056 73.5246 295.656 66.9828 326.36C63.974 340.472 59.7701 421.586 79.4164 434.216C104.776 450.485 137.076 435.688 137.076 435.688L132.883 396.456H111.916L109.096 353.475C109.913 356.832 107.24 288.056 107.24 288.056Z" fill="#0157FF"/>
<path d="M227.173 423.068C233.786 422.416 239.891 419.359 244.238 414.523C248.586 409.687 250.848 403.437 250.562 397.051L236.787 340.774C236.787 340.774 227.854 292.491 199.622 288.137L209.246 361.721L208.323 377.234C208.323 377.234 208.764 387.495 209.844 406.728L227.173 423.068Z" fill="#0157FF"/>
<path d="M230.821 387.858C229.118 387.918 227.422 388.097 225.747 388.392C221.701 389.183 217.995 391.12 215.106 393.956C212.217 396.791 210.278 400.394 209.539 404.299C209.265 405.919 209.114 407.556 209.088 409.198C208.978 408.762 208.925 408.315 208.931 407.867C208.875 406.65 208.952 405.43 209.161 404.228C209.832 400.217 211.785 396.507 214.75 393.613C217.715 390.719 221.544 388.785 225.705 388.08C226.953 387.859 228.22 387.758 229.489 387.778C229.935 387.752 230.382 387.779 230.821 387.858Z" fill="#1D191A"/>
<path d="M143.838 175.926C147.633 180.825 149.436 184.585 151.711 193.304C152.833 197.568 149.216 200.582 145.631 203.193C145.245 203.474 144.792 203.658 144.314 203.727C143.835 203.796 143.346 203.748 142.891 203.587C142.437 203.426 142.032 203.158 141.714 202.807C141.395 202.457 141.174 202.034 141.07 201.58C141.07 201.58 142.308 214.936 137.286 220.923C134.938 223.736 134.833 227.334 135.388 230.368C136.019 233.454 137.579 236.294 139.875 238.533C145.704 244.42 147.319 254.026 143.304 261.243C142.14 263.017 141.073 264.847 140.106 266.727C139.617 267.848 139.392 269.06 139.446 270.275C139.507 270.988 139.285 271.697 138.824 272.258C138.362 272.819 137.697 273.192 136.961 273.299C119.709 275.698 102.228 276.202 84.8573 274.801C84.26 274.755 83.6929 274.529 83.2358 274.157C82.7788 273.784 82.4549 273.283 82.3097 272.724C80.9469 267.12 83.2218 261.072 86.1258 256.032C89.3757 250.337 93.4643 244.873 94.628 238.473C95.6764 232.425 93.9675 225.953 96.4836 220.329C99.6287 213.444 108.016 210.188 112.209 203.868C116.182 197.911 115.857 190.099 119.411 183.909C123.982 175.946 135.21 172.277 143.87 175.916" fill="#1D191A"/>
<path d="M144.802 183.315C151.397 186.581 154.447 194.332 160.853 197.921C166.682 201.187 173.957 200.33 180.635 199.362C180.394 197.941 180.143 196.51 179.891 195.088C180.492 196.375 181.33 197.546 182.365 198.546C182.891 199.039 183.546 199.386 184.26 199.549C184.975 199.712 185.722 199.686 186.422 199.473C188.666 198.606 188.959 195.643 188.393 193.425C187.368 189.816 185.355 186.537 182.564 183.93C177.578 179.064 170.936 176.086 163.854 175.542C156.771 174.998 149.722 176.923 143.995 180.966" fill="#1D191A"/>
<path d="M206.625 326.804C206.673 327.066 206.694 327.333 206.688 327.6C206.688 328.165 206.688 328.921 206.761 329.868C206.761 331.884 206.908 334.696 207.065 338.214C207.369 345.27 208.051 354.987 208.879 365.723C209.707 376.458 210.326 386.195 210.525 393.251C210.63 396.779 210.682 399.632 210.651 401.607C210.651 402.555 210.651 403.311 210.651 403.875C210.676 404.14 210.676 404.407 210.651 404.672C210.602 404.409 210.581 404.142 210.588 403.875C210.588 403.311 210.588 402.555 210.514 401.607C210.514 399.591 210.368 396.789 210.21 393.261C209.917 386.205 209.225 376.498 208.407 365.753C207.589 355.008 206.95 345.29 206.751 338.234C206.646 334.706 206.604 331.844 206.625 329.868C206.625 328.921 206.625 328.165 206.625 327.6C206.607 327.335 206.607 327.069 206.625 326.804Z" fill="#1D191A"/>
<path d="M111.947 396.467C111.899 396.282 111.875 396.092 111.874 395.902C111.874 395.469 111.811 394.894 111.758 394.279C111.674 392.797 111.559 390.791 111.423 388.332C111.119 383.292 110.657 376.367 110.112 368.696C109.567 361.025 109.064 354.161 108.697 349.07C108.529 346.621 108.393 344.605 108.288 343.123C108.288 342.468 108.225 341.934 108.204 341.51C108.179 341.32 108.179 341.127 108.204 340.936C108.255 341.12 108.287 341.31 108.299 341.5C108.299 341.924 108.414 342.458 108.487 343.113C108.634 344.585 108.833 346.591 109.074 349.05C109.536 354.09 110.123 360.995 110.647 368.666C111.171 376.337 111.591 383.282 111.79 388.312C111.884 390.832 111.957 392.868 111.968 394.269V395.892C111.988 396.083 111.981 396.277 111.947 396.467Z" fill="#1D191A"/>
<path d="M111.948 396.466C111.948 396.557 110.899 396.608 109.201 397.142C107.052 397.826 105.143 399.07 103.686 400.736C102.229 402.402 101.282 404.424 100.95 406.577C100.688 408.23 100.824 409.278 100.73 409.288C100.636 409.298 100.625 409.036 100.562 408.562C100.484 407.893 100.484 407.216 100.562 406.546C100.808 404.287 101.749 402.149 103.267 400.408C104.802 398.684 106.829 397.43 109.096 396.799C109.781 396.615 110.483 396.5 111.193 396.456C111.675 396.406 111.948 396.426 111.948 396.466Z" fill="#1D191A"/>
<path d="M137.024 435.698C136.958 435.495 136.915 435.285 136.898 435.073C136.835 434.609 136.762 434.014 136.657 433.279C136.468 431.656 136.206 429.428 135.881 426.686C135.263 421.062 134.424 413.391 133.501 404.924C133.197 401.98 132.893 399.128 132.621 396.487L132.883 396.718L116.109 396.618L111.234 396.547H109.934C109.784 396.564 109.633 396.564 109.483 396.547C109.63 396.509 109.782 396.492 109.934 396.497H111.234L116.109 396.426L132.883 396.335H133.114V396.567L134.015 404.994C134.875 413.471 135.651 421.122 136.227 426.787C136.479 429.529 136.688 431.767 136.835 433.39C136.898 434.125 136.94 434.73 136.982 435.194C137.011 435.36 137.025 435.529 137.024 435.698Z" fill="#1D191A"/>
<path d="M137.024 435.698C136.764 435.805 136.498 435.895 136.227 435.97L133.931 436.675C131.929 437.28 129.025 438.127 125.397 439.054C121.152 440.17 116.838 441.032 112.482 441.635C107.112 442.333 101.655 442.084 96.3788 440.899C93.6445 440.332 90.9487 439.604 88.3064 438.722C87.0379 438.278 85.7903 437.835 84.5847 437.351C83.9871 437.109 83.3895 436.877 82.8234 436.585L81.9638 436.171L81.1565 435.678C79.1856 434.396 77.4734 432.78 76.1034 430.91C74.8982 429.3 73.8456 427.59 72.9583 425.799C71.7126 423.21 70.6615 420.539 69.8132 417.806C69.4987 416.798 69.2681 416.092 69.1318 415.578C69.0463 415.317 68.9798 415.051 68.9326 414.782C69.058 415.028 69.1597 415.284 69.2366 415.548L70.0124 417.745C70.9426 420.437 72.0491 423.07 73.3253 425.628C74.2192 427.393 75.2715 429.079 76.4704 430.668C77.8234 432.482 79.507 434.047 81.4396 435.284L82.2154 435.758L83.0436 436.161C83.5887 436.444 84.1863 436.665 84.7839 436.907C85.979 437.381 87.2161 437.825 88.4846 438.248C91.1064 439.123 93.7812 439.843 96.4941 440.405C101.711 441.577 107.105 441.839 112.419 441.181C116.759 440.6 121.061 439.779 125.303 438.722C128.93 437.835 131.845 437.038 133.868 436.504L136.196 435.889C136.464 435.799 136.742 435.734 137.024 435.698Z" fill="#1D191A"/>
<path d="M119.233 199.806C120.241 197.427 120.486 194.813 119.939 192.299C119.392 189.785 118.077 187.485 116.162 185.694C114.194 183.964 111.784 182.768 109.178 182.226C106.572 181.684 103.863 181.816 101.327 182.609C99.0179 183.278 96.9882 184.633 95.53 186.48C92.9615 189.887 93.4332 194.907 96.117 198.264C97.5211 199.888 99.2696 201.206 101.246 202.129C103.222 203.052 105.38 203.559 107.576 203.616C111.976 203.7 116.34 202.832 120.345 201.076" fill="#1D191A"/>
<path d="M154.092 359.675C161.43 365.491 178.686 379.26 178.686 379.26L188.342 377.607L159.071 353.929C158.313 353.319 157.341 353.009 156.354 353.064C155.366 353.118 154.437 353.532 153.756 354.221C153.386 354.591 153.1 355.031 152.916 355.512C152.731 355.993 152.652 356.506 152.684 357.019C152.715 357.531 152.856 358.031 153.099 358.488C153.341 358.945 153.679 359.349 154.092 359.675Z" fill="#1D191A"/>
<path d="M153.367 356.651L149.572 353.354C149.216 353.043 148.998 352.611 148.964 352.149C148.931 351.687 149.085 351.23 149.394 350.875C149.557 350.692 149.755 350.543 149.979 350.436C150.202 350.328 150.446 350.265 150.695 350.25C150.945 350.235 151.195 350.269 151.43 350.348C151.666 350.428 151.883 350.552 152.068 350.713L155.726 353.939L153.367 356.651Z" fill="#1D191A"/>
<path d="M164.627 358.425C163.984 359.453 163.19 360.387 162.268 361.197C161.474 362.122 160.55 362.936 159.521 363.616C160.165 362.585 160.96 361.648 161.88 360.834C162.669 359.906 163.594 359.095 164.627 358.425Z" fill="#1D191A"/>
<path d="M164.9 370.017C163.867 369.495 162.888 368.881 161.975 368.182C160.235 366.972 157.876 365.218 155.392 363.142C154.119 362.231 153.068 361.065 152.309 359.725C151.773 358.552 151.739 357.222 152.215 356.025C152.533 355.231 153.069 354.534 153.767 354.009C154.259 353.657 154.584 353.546 154.595 353.576C154.605 353.606 154.333 353.778 153.903 354.171C153.294 354.726 152.839 355.419 152.582 356.187C152.193 357.294 152.261 358.503 152.771 359.564C153.527 360.821 154.544 361.915 155.758 362.779C158.222 364.845 160.529 366.64 162.216 367.92C163.155 368.564 164.052 369.265 164.9 370.017Z" fill="#1D191A"/>
<path d="M133.208 399.601C140.169 397.364 147.55 398.876 154.5 396.628C156.887 396.025 159.122 394.965 161.074 393.513C163.286 391.628 164.407 388.856 166.169 386.578C171.41 379.764 181.254 378.353 190.04 377.506C192.077 377.191 194.156 377.218 196.183 377.587C197.197 377.783 198.14 378.228 198.923 378.878C199.705 379.528 200.3 380.361 200.649 381.296C201.215 383.201 199.936 385.58 197.882 385.782C199.811 385.862 201.152 387.737 201.509 389.562C201.865 391.386 201.509 393.261 201.802 395.096C202.159 397.676 203.627 400.085 203.543 402.686C203.427 406.244 200.398 409.177 196.938 410.548C193.478 411.919 189.736 412.101 186.077 412.564C168.045 415.004 154.416 424.832 137.024 432.261" fill="#FFBE9D"/>
<path d="M201.676 391.931C201.854 392.209 202.088 392.449 202.366 392.636C202.644 392.823 202.959 392.953 203.291 393.018C203.623 393.084 203.966 393.082 204.298 393.015C204.63 392.947 204.943 392.815 205.22 392.626C205.758 392.214 206.169 391.669 206.409 391.049C206.65 390.429 206.709 389.758 206.583 389.108C206.308 387.808 205.711 386.591 204.842 385.56C203.311 383.654 201.628 381.864 199.81 380.208L194.254 384.703L201.676 391.931Z" fill="#FFBE9D"/>
<path d="M199.621 386.064C199.621 386.235 196.204 385.963 192.084 386.578C187.964 387.193 184.745 388.382 184.745 388.231C185.373 387.833 186.058 387.528 186.779 387.324C188.481 386.743 190.236 386.318 192.021 386.054C193.807 385.793 195.615 385.702 197.42 385.782C198.164 385.773 198.906 385.868 199.621 386.064Z" fill="#EB996E"/>
<path d="M202.075 396.567C202.075 396.729 199.213 396.164 195.68 396.265C192.147 396.366 189.337 397.031 189.306 396.87C193.421 395.468 197.893 395.362 202.075 396.567Z" fill="#EB996E"/>
<path d="M201.488 393.463C201.393 393.463 201.488 392.676 201.33 391.447C201.129 389.851 200.552 388.32 199.643 386.971C199.425 386.645 199.186 386.332 198.93 386.034L198.772 385.842L198.94 385.681C199.419 385.214 199.794 384.659 200.044 384.049C200.295 383.44 200.415 382.788 200.397 382.133C200.397 381.125 200.083 380.56 200.156 380.53C200.531 380.979 200.738 381.537 200.743 382.113C200.824 382.83 200.737 383.556 200.491 384.237C200.244 384.919 199.844 385.539 199.318 386.054V385.701C199.593 386.023 199.848 386.359 200.083 386.709C201.04 388.126 201.597 389.759 201.697 391.447C201.781 392.125 201.709 392.813 201.488 393.463Z" fill="#EB996E"/>
<path d="M201.687 391.356L210.829 399.601L211.993 404.5L203.543 402.666C202.327 398.533 201.436 394.592 201.687 391.356Z" fill="#1D191A"/>
<path d="M189.306 401.859C189.117 402.182 139.949 425.487 139.949 425.487V430.527L190.124 405.428L252.365 403.2V399.652L189.306 401.859Z" fill="#F5F5F5"/>
<path d="M139.949 431.222C140.295 431.001 194.233 426.323 194.233 426.323L252.365 403.139L190.124 405.397L139.949 430.497V431.222Z" fill="#1D191A"/>
<path d="M191.591 418.814C191.161 416.092 193.866 413.774 196.623 413.038C199.38 412.302 202.326 412.605 205.115 412.03C206.885 411.563 208.616 410.97 210.294 410.256C218.891 407.091 228.326 406.92 237.551 406.799C238.087 408 238.171 409.344 237.789 410.598C237.406 411.853 236.581 412.94 235.455 413.673C236.217 415.842 236.116 418.205 235.172 420.306C234.221 422.387 232.921 424.304 231.324 425.981C230.119 427.515 228.567 428.767 226.785 429.64C224.921 430.297 222.939 430.591 220.956 430.507C214.77 430.628 208.145 430.638 203.039 427.301C199.066 424.701 196.319 420.245 191.717 418.935H192.765" fill="#FFBE9D"/>
<path d="M232.791 415.518C232.406 415.601 232.012 415.638 231.617 415.629L228.388 415.729C225.663 415.79 221.899 415.83 217.747 415.85H211.877C210.998 415.863 210.123 415.737 209.287 415.477C208.54 415.224 207.888 414.765 207.411 414.157C207.21 413.906 207.064 413.618 206.982 413.312C206.899 413.005 206.881 412.686 206.928 412.373C207.007 411.905 207.234 411.472 207.578 411.133C207.707 410.987 207.868 410.872 208.049 410.795C208.231 410.718 208.428 410.682 208.627 410.689C208.268 410.809 207.945 411.01 207.683 411.274C207.347 411.642 207.162 412.115 207.162 412.605C207.162 413.094 207.347 413.567 207.683 413.935C208.127 414.462 208.721 414.855 209.392 415.064C210.188 415.288 211.016 415.39 211.845 415.367H217.706C221.899 415.367 225.621 415.367 228.346 415.367L231.575 415.427C231.983 415.406 232.392 415.436 232.791 415.518Z" fill="#EB996E"/>
<path d="M229.626 420.497C229.142 420.63 228.647 420.721 228.147 420.769C227.183 420.921 225.789 421.112 224.059 421.273C222.021 421.47 219.971 421.514 217.926 421.404C215.428 421.209 212.952 420.811 210.524 420.215C206.141 419.187 201.648 418.656 197.137 418.632C195.407 418.632 193.992 418.693 193.038 418.743C192.532 418.785 192.023 418.785 191.518 418.743C192.008 418.616 192.51 418.535 193.017 418.501C194.381 418.339 195.752 418.245 197.126 418.219C201.677 418.129 206.22 418.613 210.64 419.661C213.049 420.251 215.503 420.662 217.978 420.89C219.999 421.023 222.027 421.023 224.048 420.89C225.778 420.78 227.193 420.638 228.137 420.558C228.63 420.49 229.128 420.47 229.626 420.497Z" fill="#EB996E"/>
<path d="M224.5 425.82C224.121 425.931 223.731 425.998 223.336 426.021C222.592 426.122 221.501 426.253 220.191 426.364C216.669 426.719 213.113 426.608 209.623 426.031C205.482 425.275 202.285 423.239 199.8 422.302C198.46 421.778 197.074 421.37 195.659 421.082C196.051 421.035 196.449 421.056 196.833 421.142C197.911 421.298 198.966 421.572 199.978 421.959C202.547 422.836 205.744 424.781 209.77 425.517C213.232 426.08 216.752 426.239 220.254 425.991L223.399 425.82C223.765 425.78 224.134 425.78 224.5 425.82Z" fill="#EB996E"/>
<g opacity="0.2">
<path d="M210.556 398.755C210.959 395.059 211.993 391.452 213.617 388.08C215.26 384.709 218.043 381.973 221.511 380.318C223.254 379.518 225.179 379.157 227.107 379.27C229.035 379.383 230.901 379.966 232.529 380.964C233.513 381.573 234.28 382.455 234.731 383.494C234.951 384.011 235.017 384.577 234.923 385.129C234.829 385.68 234.577 386.196 234.196 386.618C233.043 387.808 231.051 387.626 229.395 387.546C225.529 387.444 221.713 388.41 218.401 390.328C215.088 392.247 212.416 395.038 210.702 398.372" fill="#1D191A"/>
</g>
<g opacity="0.2">
<path d="M119.516 395.69C123.709 388.463 122.2 379.401 119.002 371.74C115.805 364.079 111.035 357.023 108.592 349.101C108.132 365.172 110.562 381.2 115.773 396.477" fill="#1D191A"/>
</g>
<path d="M126.897 285.143C126.897 285.143 131.981 296.664 150.328 295.929C168.674 295.193 169.261 281.514 169.261 281.514L181.537 294.064L169.88 317.157L154.217 328.396L132.883 319.969L115.302 306.865L126.897 285.143Z" fill="#0157FF"/>
<g opacity="0.5">
<path d="M83.9345 334.394C84.1232 334.616 81.7329 336.773 78.5773 339.202C75.4218 341.631 72.7275 343.416 72.5388 343.184C72.3501 342.952 74.7403 340.815 77.8854 338.386C81.0305 335.956 83.7458 334.162 83.9345 334.394Z" fill="#FAFAFA"/>
</g>
<path d="M92.5628 321.965C92.4684 322.227 89.575 321.441 86.4404 319.576C83.3058 317.712 81.2614 315.605 81.4606 315.403C81.6598 315.202 83.9662 316.905 87.0065 318.689C90.0467 320.473 92.6467 321.683 92.5628 321.965Z" fill="#FAFAFA"/>
<path d="M108.289 323.316C108.54 323.497 106.192 326.733 103.582 330.846C100.971 334.958 98.9478 338.386 98.6752 338.254C98.4026 338.123 99.9647 334.454 102.659 330.291C105.353 326.128 108.069 323.134 108.289 323.316Z" fill="#FAFAFA"/>
<path d="M94.8275 358.344C94.6178 358.525 92.1961 356.146 90.0784 352.629C87.9607 349.111 86.9962 345.915 87.2688 345.825C87.5414 345.734 88.9357 348.677 91.0219 352.094C93.1082 355.511 95.0686 358.142 94.8275 358.344Z" fill="#FAFAFA"/>
<path d="M80.7584 375.288C80.4649 375.288 79.8464 372.768 79.3956 369.563C78.9448 366.357 78.819 363.727 79.1125 363.686C79.4061 363.646 80.0246 366.216 80.4754 369.422C80.9262 372.627 81.031 375.248 80.7584 375.288Z" fill="#FAFAFA"/>
<g opacity="0.5">
<path d="M94.0099 379.905C93.7478 379.764 95.0582 377.062 97.0187 373.857C98.9791 370.652 100.709 368.202 100.971 368.343C101.233 368.484 99.9227 371.196 97.9622 374.391C96.0018 377.587 94.272 380.016 94.0099 379.905Z" fill="#FAFAFA"/>
</g>
<path d="M78.6193 397.454C78.3991 397.646 76.0613 395.438 73.7863 392.253C71.5114 389.068 70.2219 386.205 70.4735 386.054C70.7251 385.903 72.4549 388.533 74.667 391.658C76.879 394.783 78.8499 397.263 78.6193 397.454Z" fill="#FAFAFA"/>
<path d="M99.5342 394.561C99.7439 394.763 97.3327 397.434 94.1561 400.519C90.9796 403.603 88.2224 405.952 88.0022 405.75C87.7821 405.549 90.1933 402.877 93.3803 399.783C96.5674 396.688 99.3141 394.36 99.5342 394.561Z" fill="#FAFAFA"/>
<g opacity="0.5">
<path d="M87.6463 430.779C87.4471 430.98 85.1198 429.126 83.0021 426.202C80.8844 423.279 79.857 420.558 80.1086 420.447C80.3602 420.336 81.8384 422.785 83.9037 425.598C85.9689 428.41 87.8665 430.567 87.6463 430.779Z" fill="#FAFAFA"/>
</g>
<path d="M114.631 423.451C114.778 423.703 112.199 425.386 108.875 427.21C105.552 429.035 102.722 430.315 102.585 430.063C102.449 429.811 105.017 428.128 108.341 426.303C111.664 424.479 114.484 423.199 114.631 423.451Z" fill="#FAFAFA"/>
<path d="M125.146 415.105C124.957 415.316 122.515 413.522 120.292 410.589C118.07 407.655 117.032 404.873 117.304 404.773C117.577 404.672 119.024 407.151 121.173 409.974C123.322 412.796 125.366 414.883 125.146 415.105Z" fill="#FAFAFA"/>
<path d="M143.692 357.054C143.881 357.285 141.103 359.584 137.496 362.174C133.89 364.765 130.829 366.68 130.64 366.448C130.451 366.216 133.24 363.928 136.846 361.338C140.453 358.747 143.514 356.832 143.692 357.054Z" fill="#FAFAFA"/>
<path d="M124.15 355.824C123.846 355.824 123.898 353.032 124.255 349.655C124.611 346.278 125.146 343.607 125.45 343.607C125.754 343.607 125.702 346.399 125.345 349.776C124.989 353.153 124.443 355.874 124.15 355.824Z" fill="#FAFAFA"/>
<g opacity="0.5">
<path d="M142.171 332.227C142.004 332.458 138.754 330.533 135.189 327.6C131.625 324.667 129.13 321.895 129.339 321.703C129.549 321.512 132.369 323.911 135.902 326.804C139.435 329.697 142.35 331.985 142.171 332.227Z" fill="#FAFAFA"/>
</g>
<path d="M128.637 302.773C128.868 302.964 126.541 305.928 123.521 309.396C120.502 312.863 117.797 315.514 117.567 315.333C117.336 315.151 119.663 312.178 122.683 308.71C125.702 305.243 128.407 302.592 128.637 302.773Z" fill="#FAFAFA"/>
<g opacity="0.5">
<path d="M113.132 299.618C112.964 299.88 110.626 298.721 107.575 297.743C104.525 296.765 101.998 296.291 101.998 295.989C101.998 295.687 104.766 295.707 107.953 296.745C111.14 297.783 113.289 299.376 113.132 299.618Z" fill="#FAFAFA"/>
</g>
<path d="M152.54 313.196C152.257 313.115 152.749 310.666 153.651 307.722C154.553 304.779 155.517 302.46 155.748 302.541C155.978 302.622 155.549 305.071 154.699 308.015C153.85 310.958 152.833 313.286 152.54 313.196Z" fill="#FAFAFA"/>
<path d="M161.964 336.4C161.66 336.4 161.555 333.981 161.733 331.037C161.912 328.094 162.3 325.725 162.593 325.735C162.887 325.745 163.002 328.154 162.824 331.098C162.646 334.041 162.258 336.42 161.964 336.4Z" fill="#FAFAFA"/>
<path d="M177.48 353.808C177.292 354.04 174.996 352.568 172.354 350.522C169.712 348.476 167.72 346.641 167.909 346.419C168.098 346.197 170.393 347.659 173.035 349.705C175.677 351.752 177.638 353.586 177.48 353.808Z" fill="#FAFAFA"/>
<path d="M193.95 329.505C194.149 329.717 192.105 331.773 189.379 334.081C186.654 336.39 184.284 338.113 184.137 337.871C183.991 337.629 185.983 335.603 188.708 333.295C191.434 330.987 193.751 329.283 193.95 329.505Z" fill="#FAFAFA"/>
<g opacity="0.5">
<path d="M186.371 318.024C186.203 318.266 183.613 316.895 180.825 314.667C178.036 312.44 176.149 310.242 176.359 310.051C176.568 309.859 178.77 311.674 181.517 313.851C184.263 316.028 186.538 317.782 186.371 318.024Z" fill="#FAFAFA"/>
</g>
<path d="M205.429 297.562C205.671 297.723 204.381 299.809 202.159 301.825C199.936 303.841 197.682 304.95 197.525 304.708C197.368 304.466 199.255 303.015 201.404 301.069C203.553 299.124 205.178 297.36 205.429 297.562Z" fill="#FAFAFA"/>
<g opacity="0.5">
<path d="M192.325 295.646C192.325 295.929 188.939 295.697 184.986 294.719C181.034 293.741 177.931 292.431 178.036 292.159C178.141 291.886 181.317 292.753 185.259 293.701C189.201 294.648 192.367 295.344 192.325 295.646Z" fill="#FAFAFA"/>
</g>
<g opacity="0.5">
<path d="M216.668 328.225C216.385 328.165 217.035 324.193 218.534 319.536C220.033 314.879 221.763 311.23 222.036 311.331C222.308 311.432 221.05 315.192 219.583 319.838C218.115 324.485 216.972 328.285 216.668 328.225Z" fill="#FAFAFA"/>
</g>
<path d="M222.068 350.461C221.847 350.653 219.258 348.365 216.281 345.331C213.303 342.297 211.039 339.686 211.301 339.484C211.563 339.283 214.1 341.581 217.077 344.615C220.055 347.649 222.288 350.26 222.068 350.461Z" fill="#FAFAFA"/>
<g opacity="0.5">
<path d="M230.422 363.051C230.118 363.051 229.93 359.745 230.003 355.673C230.077 351.601 230.381 348.314 230.685 348.314C230.989 348.314 231.167 351.621 231.093 355.693C231.02 359.765 230.716 363.062 230.422 363.051Z" fill="#FAFAFA"/>
</g>
<path d="M221.941 383.796C221.7 383.957 219.457 381.316 217.381 377.627C215.305 373.938 214.236 370.682 214.498 370.571C214.76 370.46 216.291 373.494 218.345 377.113C220.4 380.732 222.193 383.625 221.941 383.796Z" fill="#FAFAFA"/>
<path d="M243.59 387.586C243.81 387.788 242.353 389.481 240.351 391.366C238.348 393.251 236.545 394.602 236.335 394.39C236.126 394.178 237.583 392.485 239.585 390.6C241.588 388.715 243.38 387.374 243.59 387.586Z" fill="#FAFAFA"/>
<g opacity="0.5">
<path d="M190.879 363.948C190.606 363.868 191.571 360.562 194.024 357.114C196.477 353.667 199.36 351.621 199.538 351.842C199.716 352.064 197.295 354.382 194.925 357.719C192.556 361.055 191.172 364.059 190.879 363.948Z" fill="#FAFAFA"/>
</g>
<path d="M129.749 391.598C129.455 391.527 129.969 388.574 130.891 384.905C131.814 381.236 132.82 378.383 133.114 378.453C133.407 378.524 132.883 381.528 131.961 385.157C131.038 388.785 130.032 391.668 129.749 391.598Z" fill="#FAFAFA"/>
<path d="M155.465 394.067C155.297 394.309 152.687 392.949 149.636 391.043C146.585 389.138 144.237 387.384 144.394 387.143C144.551 386.901 147.162 388.251 150.223 390.167C153.284 392.082 155.664 393.826 155.465 394.067Z" fill="#FAFAFA"/>
<path d="M154.207 376.206C153.955 376.367 152.729 375.026 151.46 373.182C150.192 371.337 149.364 369.765 149.626 369.603C149.888 369.442 151.104 370.783 152.372 372.627C153.641 374.472 154.417 376.044 154.207 376.206Z" fill="#FAFAFA"/>
<path d="M165.56 380.278C165.728 380.51 164.627 381.538 163.097 382.576C161.566 383.614 160.182 384.26 160.004 384.028C159.826 383.796 160.937 382.758 162.468 381.719C163.998 380.681 165.382 380.016 165.56 380.278Z" fill="#FAFAFA"/>
<g opacity="0.5">
<path d="M135.913 452.743C135.608 452.653 136.101 450.364 136.531 447.542C136.961 444.72 137.202 442.391 137.517 442.391C137.831 442.391 138.062 444.78 137.611 447.693C137.16 450.606 136.185 452.834 135.913 452.743Z" fill="#FAFAFA"/>
</g>
<g opacity="0.5">
<path d="M162.038 444.528C161.776 444.669 159.784 441.776 157.593 438.077C155.401 434.377 153.829 431.243 154.091 431.101C154.353 430.96 156.345 433.843 158.536 437.553C160.727 441.262 162.3 444.417 162.038 444.528Z" fill="#FAFAFA"/>
</g>
<g opacity="0.5">
<path d="M189.747 433.329C189.988 433.501 187.367 437.19 183.886 441.565C180.406 445.939 177.386 449.336 177.145 449.165C176.904 448.994 179.535 445.304 183.016 440.929C186.497 436.555 189.516 433.148 189.747 433.329Z" fill="#FAFAFA"/>
</g>
<g opacity="0.5">
<path d="M197.557 454.729C197.557 455.011 194.129 455.737 189.809 456.332C185.49 456.926 181.947 457.188 181.905 456.906C181.863 456.624 185.322 455.898 189.652 455.293C193.982 454.689 197.515 454.437 197.557 454.729Z" fill="#FAFAFA"/>
</g>
<path d="M198.762 443.943C198.458 443.873 198.762 441.726 198.836 439.085C198.909 436.444 198.836 434.277 199.203 434.236C199.57 434.196 200.062 436.373 199.926 439.125C199.79 441.877 199.045 444.014 198.762 443.943Z" fill="#FAFAFA"/>
<path d="M161.346 456.503C161.241 456.755 158.4 455.858 155.443 453.802C152.487 451.745 150.684 449.467 150.904 449.296C151.124 449.125 153.221 450.989 156.083 452.945C158.945 454.9 161.471 456.221 161.346 456.503Z" fill="#FAFAFA"/>
<path d="M116.885 454.91C116.592 454.84 116.885 452.532 117.661 449.77C118.437 447.008 119.213 444.81 119.506 444.881C119.8 444.951 119.443 447.25 118.72 450.022C117.996 452.794 117.179 454.981 116.885 454.91Z" fill="#FAFAFA"/>
<path d="M112.052 199.947C112.115 199.866 113.31 200.854 115.501 201.963C116.789 202.63 118.132 203.193 119.516 203.646C121.223 204.176 122.978 204.551 124.758 204.765C126.538 204.947 128.332 204.964 130.115 204.815C131.576 204.687 133.022 204.43 134.435 204.049C136.846 203.404 138.23 202.709 138.282 202.799C137.987 203.013 137.667 203.193 137.328 203.334C136.949 203.529 136.557 203.701 136.154 203.848C135.626 204.063 135.088 204.251 134.539 204.412C133.116 204.845 131.652 205.142 130.168 205.299C128.349 205.481 126.515 205.481 124.695 205.299C122.882 205.083 121.097 204.684 119.37 204.11C117.963 203.633 116.607 203.025 115.323 202.295C114.767 202.003 114.275 201.67 113.887 201.398C113.52 201.166 113.17 200.91 112.838 200.632C112.314 200.229 112.021 199.977 112.052 199.947Z" fill="#1D191A"/>
<path d="M139.131 211.549C138.764 211.7 138.381 211.812 137.988 211.882C137.244 212.063 136.164 212.305 134.843 212.527C131.3 213.193 127.659 213.213 124.108 212.587C120.528 211.921 117.271 210.152 114.83 207.547C114.115 206.745 113.522 205.849 113.069 204.886C112.884 204.544 112.757 204.177 112.691 203.797C113.355 205.055 114.172 206.232 115.124 207.305C117.567 209.774 120.746 211.454 124.223 212.113C127.715 212.716 131.288 212.747 134.791 212.204C136.143 212.023 137.234 211.841 137.936 211.72C138.326 211.618 138.727 211.561 139.131 211.549Z" fill="#1D191A"/>
<path d="M101.799 273.239C101.749 273.196 101.704 273.149 101.663 273.097C101.59 272.997 101.453 272.856 101.307 272.644C100.9 272.028 100.619 271.344 100.478 270.628C100.268 269.294 100.365 267.932 100.761 266.638C101.158 265.344 101.845 264.149 102.774 263.138C104.052 261.755 105.532 260.556 107.167 259.58C108.886 258.492 110.815 257.494 112.713 256.264C114.723 255.041 116.442 253.423 117.755 251.516C118.412 250.504 118.841 249.371 119.014 248.19C119.177 246.965 119.109 245.722 118.814 244.521C118.126 242.141 117.239 239.818 116.162 237.576C115.142 235.435 114.541 233.132 114.39 230.782C114.266 226.778 115.531 222.849 117.986 219.613C119.581 217.418 121.698 215.621 124.161 214.371L125.335 213.827L126.237 213.525C126.481 213.432 126.734 213.362 126.992 213.313C126.763 213.436 126.525 213.541 126.279 213.625L125.409 213.978L124.266 214.553C121.885 215.849 119.844 217.652 118.301 219.825C115.952 223.014 114.756 226.856 114.893 230.761C115.054 233.051 115.651 235.292 116.655 237.374C117.753 239.651 118.654 242.011 119.349 244.43C119.65 245.692 119.718 246.996 119.548 248.281C119.369 249.534 118.915 250.736 118.217 251.809C116.85 253.774 115.063 255.438 112.975 256.687C111.046 257.917 109.106 258.905 107.398 259.973C105.786 260.908 104.324 262.063 103.057 263.401C102.148 264.369 101.465 265.513 101.053 266.756C100.64 267.999 100.509 269.312 100.667 270.608C100.858 271.549 101.243 272.443 101.799 273.239Z" fill="#1D191A"/>
<path d="M129.727 273.601C129.512 273.514 129.308 273.402 129.119 273.269C128.574 272.892 128.113 272.411 127.767 271.858C127.227 270.971 126.904 269.979 126.823 268.954C126.712 267.595 126.869 266.227 127.285 264.923C128.134 261.969 130.702 259.278 132.631 255.851C133.682 254.105 134.228 252.121 134.214 250.105C134.107 247.942 133.533 245.823 132.527 243.886C130.535 239.854 127.473 236.608 125.356 233.241C124.315 231.667 123.484 229.974 122.882 228.201C122.374 226.631 122.199 224.979 122.368 223.343C122.53 220.948 123.623 218.699 125.429 217.043C125.935 216.63 126.5 216.291 127.107 216.035C127.314 215.938 127.532 215.864 127.757 215.813C126.965 216.189 126.229 216.664 125.565 217.224C123.882 218.889 122.884 221.084 122.756 223.403C122.616 224.989 122.809 226.587 123.322 228.1C123.92 229.844 124.748 231.508 125.786 233.05C126.834 234.693 128.134 236.336 129.423 238.09C130.8 239.865 132.003 241.758 133.019 243.744C134.068 245.748 134.657 247.944 134.749 250.186C134.753 252.285 134.178 254.347 133.082 256.163C131.069 259.6 128.501 262.211 127.652 265.074C127.235 266.326 127.058 267.641 127.127 268.954C127.185 269.941 127.464 270.904 127.945 271.777C128.399 272.499 129.006 273.121 129.727 273.601Z" fill="#1D191A"/>
<path d="M171.096 197.931C171.096 197.931 170.949 197.931 170.698 197.769C170.334 197.58 169.984 197.368 169.649 197.134C168.45 196.241 167.43 195.145 166.64 193.899C165.494 192.058 164.522 190.121 163.736 188.113C163.254 187.004 162.688 185.845 162.101 184.706C161.444 183.529 160.672 182.415 159.795 181.379C156.665 177.726 152.429 175.101 147.676 173.87C145.698 173.412 143.679 173.135 141.647 173.043C142.191 172.956 142.743 172.925 143.293 172.953C144.801 172.989 146.301 173.175 147.77 173.507C152.657 174.661 157.023 177.306 160.214 181.047C161.119 182.11 161.916 183.254 162.594 184.464C163.233 185.633 163.736 186.813 164.208 187.931C164.969 189.924 165.895 191.856 166.976 193.707C167.727 194.935 168.679 196.038 169.796 196.973C170.603 197.628 171.127 197.89 171.096 197.931Z" fill="#1D191A"/>
<path d="M185.72 197.85C185.53 197.857 185.339 197.837 185.154 197.79C184.618 197.71 184.091 197.578 183.582 197.396C181.696 196.726 179.989 195.662 178.581 194.282C176.513 192.24 174.768 189.917 173.402 187.387C171.756 184.615 170.163 181.43 167.699 178.658C165.351 176.067 162.252 174.21 158.798 173.325C155.976 172.605 153.07 172.229 150.149 172.207C147.644 172.156 145.621 172.207 144.216 172.307L142.601 172.368C142.413 172.392 142.223 172.392 142.035 172.368C142.215 172.312 142.402 172.282 142.591 172.277L144.205 172.116C145.6 172.005 147.633 171.844 150.149 171.854C153.111 171.815 156.065 172.154 158.935 172.862C162.498 173.747 165.697 175.652 168.108 178.325C170.645 181.178 172.228 184.373 173.832 187.165C175.161 189.666 176.852 191.974 178.854 194.02C180.203 195.397 181.839 196.486 183.655 197.215C184.955 197.699 185.731 197.79 185.72 197.85Z" fill="#1D191A"/>
<path d="M210.472 263.269C210.42 263.269 210.745 262.554 211.091 261.253C211.594 259.399 211.806 257.483 211.72 255.568C211.62 252.728 210.861 249.945 209.497 247.424C208.685 245.945 207.677 244.573 206.499 243.341C205.283 242.041 203.889 240.811 202.494 239.521C201.087 238.28 199.786 236.932 198.605 235.489C197.52 234.137 196.582 232.681 195.806 231.145C194.5 228.537 193.663 225.735 193.332 222.859C193.101 220.925 193.122 218.971 193.394 217.043C193.454 216.52 193.549 216.001 193.678 215.49C193.705 215.306 193.758 215.127 193.835 214.956C193.887 214.956 193.72 215.712 193.604 217.073C193.414 218.982 193.449 220.906 193.709 222.808C194.101 225.63 194.961 228.373 196.257 230.933C197.031 232.432 197.958 233.853 199.024 235.177C200.197 236.582 201.48 237.9 202.861 239.118C204.266 240.408 205.66 241.648 206.897 242.978C208.099 244.245 209.121 245.658 209.938 247.182C211.314 249.772 212.056 252.63 212.108 255.538C212.158 257.486 211.886 259.429 211.301 261.294C211.148 261.801 210.955 262.297 210.724 262.776C210.667 262.951 210.582 263.118 210.472 263.269Z" fill="#1D191A"/>
<path d="M95.6241 197.054C95.6216 196.714 95.6675 196.374 95.7604 196.046C95.9724 195.17 96.3074 194.325 96.7564 193.536C97.5057 192.197 98.5412 191.025 99.7948 190.097C101.048 189.17 102.492 188.508 104.03 188.155C105.569 187.802 107.168 187.765 108.722 188.048C110.276 188.331 111.75 188.927 113.048 189.796C113.833 190.298 114.539 190.906 115.145 191.601C115.387 191.843 115.585 192.122 115.732 192.427C114.845 191.565 113.873 190.788 112.828 190.109C111.56 189.316 110.137 188.779 108.646 188.531C107.155 188.284 105.628 188.331 104.156 188.669C102.685 189.008 101.301 189.631 100.088 190.501C98.8754 191.37 97.8595 192.468 97.1023 193.728C96.4991 194.788 96.004 195.902 95.6241 197.054Z" fill="#1D191A"/>
<path d="M105.783 201.298C105.775 200.526 105.874 199.756 106.076 199.009C106.399 197.139 107.259 195.393 108.561 193.969C109.274 193.283 110.167 192.795 111.145 192.557C112.123 192.319 113.15 192.34 114.117 192.619C114.698 192.821 115.212 193.169 115.606 193.627C115.868 193.949 115.941 194.171 115.92 194.181C115.386 193.648 114.729 193.244 114.002 193.002C113.108 192.797 112.174 192.815 111.29 193.055C110.405 193.295 109.599 193.749 108.949 194.373C107.721 195.74 106.864 197.378 106.454 199.14C106.299 199.878 106.074 200.6 105.783 201.298Z" fill="#1D191A"/>
<path d="M119.108 186.53C118.056 188.297 117.135 190.133 116.35 192.024C115.744 193.972 115.268 195.955 114.925 197.961C114.693 193.767 116.201 189.656 119.118 186.53H119.108Z" fill="#0157FF"/>
<path d="M286.824 211.106C286.824 211.726 287.015 212.332 287.374 212.847C287.732 213.363 288.241 213.765 288.837 214.002C289.433 214.239 290.088 214.301 290.721 214.18C291.353 214.059 291.934 213.761 292.39 213.322C292.846 212.884 293.157 212.325 293.282 211.717C293.408 211.109 293.344 210.479 293.097 209.906C292.85 209.333 292.432 208.843 291.896 208.499C291.36 208.155 290.729 207.971 290.085 207.971C289.656 207.971 289.233 208.052 288.837 208.209C288.441 208.367 288.082 208.598 287.779 208.889C287.476 209.18 287.236 209.526 287.072 209.906C286.909 210.286 286.824 210.694 286.824 211.106Z" fill="#1D191A"/>
<path d="M277.022 214.24C278.823 214.24 280.283 212.837 280.283 211.106C280.283 209.374 278.823 207.971 277.022 207.971C275.221 207.971 273.762 209.374 273.762 211.106C273.762 212.837 275.221 214.24 277.022 214.24Z" fill="#1D191A"/>
<path d="M260.741 209.533C260.419 210.07 260.27 210.687 260.313 211.305C260.355 211.924 260.588 212.517 260.98 213.008C261.373 213.5 261.909 213.868 262.519 214.067C263.13 214.266 263.788 214.287 264.411 214.126C265.033 213.966 265.593 213.631 266.018 213.165C266.443 212.699 266.714 212.122 266.799 211.508C266.883 210.893 266.775 210.268 266.49 209.712C266.205 209.156 265.755 208.694 265.197 208.384C264.826 208.178 264.416 208.044 263.992 207.99C263.567 207.937 263.135 207.964 262.721 208.071C262.308 208.177 261.92 208.361 261.58 208.612C261.24 208.863 260.955 209.176 260.741 209.533Z" fill="#1D191A"/>
<path d="M276.823 174.465C276.604 174.44 276.382 174.44 276.163 174.465L274.223 174.515C273.804 174.515 273.322 174.515 272.797 174.576L271.089 174.807L269.097 175.08L266.864 175.614C263.047 176.546 259.413 178.072 256.107 180.13C251.194 183.136 247.061 187.183 244.025 191.962C240.988 196.74 239.129 202.123 238.589 207.698C238.438 209.374 238.403 211.058 238.484 212.738C238.547 213.595 238.484 214.452 238.652 215.309L239.061 217.899C239.745 221.462 240.967 224.909 242.688 228.131C244.535 231.496 246.876 234.589 249.639 237.314C252.585 240.102 255.962 242.435 259.651 244.228C263.461 246.101 267.585 247.312 271.833 247.807C272.913 247.963 274.002 248.054 275.093 248.079C276.186 248.134 277.282 248.134 278.375 248.079C280.592 247.994 282.798 247.727 284.969 247.283C289.627 246.324 294.059 244.543 298.042 242.031H297.644L311 247.192L311.797 247.494L311.566 246.708C310.224 241.991 308.903 237.404 307.645 232.969L307.572 233.312C311.201 228.693 313.643 223.316 314.7 217.617C315.213 214.959 315.389 212.252 315.225 209.553C315.197 208.259 315.068 206.968 314.837 205.693C314.742 205.058 314.638 204.433 314.543 203.808C314.449 203.183 314.218 202.598 314.071 201.993C311.836 193.549 306.552 186.143 299.164 181.097C296.437 179.213 293.452 177.7 290.295 176.602L288.303 175.916L286.405 175.453L284.665 175.039C284.109 174.928 283.617 174.878 283.071 174.807C282.023 174.676 281.174 174.515 280.398 174.475L278.427 174.414H277.232C276.959 174.414 276.823 174.414 276.823 174.414H277.232L278.427 174.505L280.377 174.626C281.142 174.686 282.023 174.878 283.029 175.019C290.282 176.219 297.016 179.419 302.413 184.229C307.81 189.038 311.638 195.252 313.432 202.114C313.579 202.709 313.767 203.294 313.883 203.898C313.998 204.503 314.071 205.128 314.176 205.743C314.387 207 314.503 208.27 314.522 209.543C314.676 212.178 314.496 214.822 313.988 217.416C312.925 223.022 310.505 228.309 306.922 232.848L306.806 232.999L306.859 233.191C308.117 237.626 309.413 242.206 310.748 246.93L311.314 246.446L297.969 241.275L297.759 241.194L297.56 241.315C293.657 243.791 289.309 245.548 284.738 246.496C282.62 246.933 280.466 247.196 278.301 247.283C277.228 247.323 276.154 247.303 275.083 247.222C274.03 247.202 272.979 247.118 271.938 246.97C267.779 246.479 263.741 245.292 260.007 243.462C252.858 240.062 247.03 234.547 243.38 227.727C241.669 224.583 240.447 221.214 239.753 217.728C239.617 216.871 239.48 216.035 239.355 215.188C239.229 214.341 239.239 213.505 239.166 212.668C239.083 211.025 239.111 209.378 239.25 207.739C239.761 202.255 241.563 196.954 244.52 192.239C247.477 187.523 251.511 183.517 256.317 180.523C259.58 178.447 263.169 176.892 266.948 175.916L269.149 175.352L271.13 175.039L272.818 174.767C273.343 174.767 273.814 174.707 274.234 174.666L276.163 174.535C276.384 174.529 276.605 174.506 276.823 174.465Z" fill="#1D191A"/>
</svg>
